<svg width="59" height="64" viewBox="0 0 59 64" fill="none" xmlns="http://www.w3.org/2000/svg">
<path d="M56.4806 23.3648H52.6663V22.9364C52.6663 21.8702 51.7988 21.0028 50.7326 21.0028H43.2098C42.6913 21.0028 42.271 21.423 42.271 21.9416C42.271 22.4602 42.6913 22.8805 43.2098 22.8805H50.7326C50.7635 22.8805 50.7886 22.9055 50.7886 22.9364V34.3834C50.7886 34.9021 51.209 35.3223 51.7275 35.3223C52.246 35.3223 52.6663 34.9021 52.6663 34.3834V25.2424H56.4806C56.6075 25.2424 56.7108 25.3457 56.7108 25.4726V58.2261C56.7108 60.3745 54.9629 62.1224 52.8145 62.1224H6.3867C4.23829 62.1224 2.49044 60.3745 2.49044 58.2261V25.4726C2.49044 25.3457 2.59372 25.2424 2.72064 25.2424H6.66008V57.3519C6.66008 58.6758 7.7371 59.7529 9.0611 59.7529H50.2652C51.5891 59.7529 52.6662 58.6759 52.6662 57.3519V38.3877C52.6662 37.8691 52.2458 37.4489 51.7273 37.4489C51.2089 37.4489 50.7885 37.8691 50.7885 38.3877V51.8982H35.5991C33.6318 51.8982 31.8563 52.7301 30.602 54.059V41.915C30.602 41.3964 30.1817 40.9761 29.6632 40.9761C29.1447 40.9761 28.7244 41.3964 28.7244 41.915V54.0591C27.4701 52.7302 25.6945 51.8983 23.7273 51.8983H19.4613C18.9428 51.8983 18.5225 52.3185 18.5225 52.8371C18.5225 53.3557 18.9428 53.776 19.4613 53.776H23.7273C26.1761 53.776 28.2178 55.5471 28.6421 57.8752H9.0611C8.77244 57.8752 8.53773 57.6405 8.53773 57.3519V53.776H15.4569C15.9754 53.776 16.3957 53.3557 16.3957 52.8371C16.3957 52.3185 15.9754 51.8983 15.4569 51.8983H8.53773V22.9364C8.53773 22.9055 8.56289 22.8805 8.59381 22.8805H16.1166C16.635 22.8805 17.0554 22.4602 17.0554 21.9416C17.0554 21.423 16.635 21.0028 16.1166 21.0028H8.59381C7.52756 21.0028 6.66008 21.8703 6.66008 22.9364V23.3648H2.72064C1.55838 23.3648 0.612793 24.3104 0.612793 25.4726V58.2261C0.612793 61.4099 3.20295 64 6.3867 64H52.8143C55.998 64 58.5882 61.4099 58.5882 58.2261V25.4726C58.5883 24.3104 57.6428 23.3648 56.4806 23.3648ZM35.5991 53.7758H50.7885V57.3519C50.7885 57.6405 50.5538 57.8752 50.2652 57.8752H30.6844C31.1086 55.547 33.1502 53.7758 35.5991 53.7758Z" fill="white"/>
<path d="M17.1461 13.1725C17.6614 13.2203 18.1202 12.8421 18.1689 12.3259C18.4374 9.47888 19.752 6.84291 21.871 4.90367C24.0031 2.95242 26.7704 1.87765 29.6633 1.87765C36.0301 1.87765 41.2099 7.05747 41.2099 13.4242C41.2099 15.82 40.4828 18.1175 39.1072 20.0687C39.0995 20.0797 39.092 20.091 39.0846 20.1023L33.0768 29.4552C32.9796 29.6067 32.9279 29.7827 32.9279 29.9627V31.1789C32.9279 31.4257 32.7271 31.6265 32.4802 31.6265H32.4189L33.017 21.4778H34.0865C35.6169 21.4778 36.8619 20.2328 36.8619 18.7025V18.5886C36.8619 17.0583 35.6169 15.8133 34.0865 15.8133C32.6193 15.8133 31.4023 16.9607 31.316 18.4254L31.2468 19.6002H27.9545L27.8853 18.4254C27.799 16.9607 26.5819 15.8133 25.1147 15.8133C23.5843 15.8133 22.3393 17.0583 22.3393 18.5886V18.7025C22.3393 20.2328 23.5843 21.4778 25.1147 21.4778H26.1842L26.7819 31.62C26.5658 31.5885 26.3987 31.4037 26.3987 31.1789V29.9627C26.3987 29.7827 26.347 29.6067 26.2498 29.4552L20.242 20.1023C20.2347 20.091 20.2272 20.0797 20.2194 20.0687C19.3556 18.8432 18.7472 17.4814 18.4116 16.021C18.2953 15.5157 17.7909 15.2003 17.2863 15.3164C16.7809 15.4327 16.4655 15.9364 16.5817 16.4417C16.9707 18.134 17.6743 19.7125 18.673 21.1336L24.5213 30.2379V31.1786C24.5213 32.1266 25.0922 32.9426 25.9077 33.3043V34.8919C25.9077 36.5625 27.2668 37.9215 28.9374 37.9215H30.3899C32.0604 37.9215 33.4196 36.5625 33.4196 34.8919V33.3043C34.235 32.9426 34.806 32.1267 34.806 31.1786V30.2379L40.6542 21.1336C42.2464 18.8678 43.088 16.2023 43.088 13.4241C43.0875 6.022 37.0653 0 29.6633 0C26.3 0 23.0825 1.24964 20.6033 3.51859C18.1402 5.77303 16.6118 8.8381 16.2996 12.1497C16.2508 12.666 16.6299 13.1239 17.1461 13.1725ZM33.1904 18.5358C33.2183 18.062 33.612 17.6909 34.0865 17.6909C34.5816 17.6909 34.9843 18.0935 34.9843 18.5885V18.7024C34.9843 19.1974 34.5816 19.6 34.0865 19.6H33.1277L33.1904 18.5358ZM25.1147 19.6C24.6196 19.6 24.2169 19.1974 24.2169 18.7024V18.5885C24.2169 18.0935 24.6196 17.6909 25.1147 17.6909C25.5894 17.6909 25.9829 18.062 26.0109 18.5358L26.0736 19.6H25.1147ZM31.1361 21.4777L30.5381 31.6264H28.6632L28.0653 21.4777H31.1361ZM31.5414 34.892C31.5414 35.5272 31.0247 36.044 30.3894 36.044H28.9369C28.3017 36.044 27.7849 35.5272 27.7849 34.892V33.5041H31.5413V34.892H31.5414Z" fill="white"/>
<path d="M46.1081 7.129C46.328 7.129 46.5489 7.05214 46.7271 6.89567L48.7755 5.09713C49.1652 4.75514 49.2036 4.16181 48.8616 3.77226C48.5196 3.38271 47.9264 3.34415 47.5368 3.68613L45.4884 5.48467C45.0987 5.82666 45.0603 6.41999 45.4022 6.80954C45.5879 7.02097 45.8474 7.129 46.1081 7.129Z" fill="white"/>
<path d="M45.4883 12.7911L47.5367 14.5898C47.715 14.7464 47.9358 14.8231 48.1558 14.8231C48.4166 14.8231 48.6761 14.7151 48.8617 14.5037C49.2038 14.1141 49.1653 13.5209 48.7757 13.1788L46.7273 11.3801C46.3376 11.0379 45.7446 11.0766 45.4025 11.4662C45.0602 11.8558 45.0986 12.4489 45.4883 12.7911Z" fill="white"/>
<path d="M10.5507 5.09703L12.5991 6.89557C12.7773 7.05216 12.9981 7.1289 13.2181 7.1289C13.4788 7.1289 13.7383 7.02087 13.9239 6.80944C14.266 6.41989 14.2275 5.82656 13.8378 5.48457L11.7894 3.68603C11.3999 3.3438 10.8065 3.38248 10.4645 3.77216C10.1224 4.16171 10.161 4.75492 10.5507 5.09703Z" fill="white"/>
<path d="M11.1706 14.8231C11.3905 14.8231 11.6113 14.7462 11.7897 14.5898L13.8381 12.7911C14.2276 12.449 14.2662 11.8558 13.9241 11.4662C13.5821 11.0767 12.9889 11.0381 12.5992 11.3801L10.5508 13.1788C10.1613 13.5209 10.1227 14.1141 10.4648 14.5036C10.6503 14.7151 10.9097 14.8231 11.1706 14.8231Z" fill="white"/>
<path d="M21.3568 32.5653C21.3568 32.0467 20.9364 31.6265 20.418 31.6265H11.17C10.6515 31.6265 10.2312 32.0467 10.2312 32.5653C10.2312 33.0839 10.6515 33.5041 11.17 33.5041H20.418C20.9364 33.5041 21.3568 33.0839 21.3568 32.5653Z" fill="white"/>
<path d="M23.2781 36.402H12.8661C12.3476 36.402 11.9272 36.8222 11.9272 37.3408C11.9272 37.8594 12.3476 38.2796 12.8661 38.2796H23.2781C23.7966 38.2796 24.217 37.8594 24.217 37.3408C24.217 36.8222 23.7966 36.402 23.2781 36.402Z" fill="white"/>
<path d="M23.2781 40.9761H12.8661C12.3476 40.9761 11.9272 41.3963 11.9272 41.9149C11.9272 42.4335 12.3476 42.8537 12.8661 42.8537H23.2781C23.7966 42.8537 24.217 42.4335 24.217 41.9149C24.217 41.3963 23.7966 40.9761 23.2781 40.9761Z" fill="white"/>
<path d="M23.2781 45.5502H12.8661C12.3476 45.5502 11.9272 45.9704 11.9272 46.489C11.9272 47.0076 12.3476 47.4278 12.8661 47.4278H23.2781C23.7966 47.4278 24.217 47.0076 24.217 46.489C24.217 45.9704 23.7966 45.5502 23.2781 45.5502Z" fill="white"/>
<path d="M49.0951 32.5653C49.0951 32.0467 48.6747 31.6265 48.1562 31.6265H38.9083C38.3898 31.6265 37.9695 32.0467 37.9695 32.5653C37.9695 33.0839 38.3898 33.5041 38.9083 33.5041H48.1562C48.6747 33.5041 49.0951 33.0839 49.0951 32.5653Z" fill="white"/>
<path d="M46.4603 36.402H36.0482C35.5297 36.402 35.1094 36.8222 35.1094 37.3408C35.1094 37.8594 35.5297 38.2796 36.0482 38.2796H46.4603C46.9788 38.2796 47.3991 37.8594 47.3991 37.3408C47.3991 36.8222 46.9788 36.402 46.4603 36.402Z" fill="white"/>
<path d="M46.4603 40.9761H36.0482C35.5297 40.9761 35.1094 41.3963 35.1094 41.9149C35.1094 42.4335 35.5297 42.8537 36.0482 42.8537H46.4603C46.9788 42.8537 47.3991 42.4335 47.3991 41.9149C47.3991 41.3963 46.9788 40.9761 46.4603 40.9761Z" fill="white"/>
<path d="M46.4603 45.5502H36.0482C35.5297 45.5502 35.1094 45.9704 35.1094 46.489C35.1094 47.0076 35.5297 47.4278 36.0482 47.4278H46.4603C46.9788 47.4278 47.3991 47.0076 47.3991 46.489C47.3991 45.9704 46.9788 45.5502 46.4603 45.5502Z" fill="white"/>
</svg>
