<svg width="62" height="62" viewBox="0 0 62 62" fill="none" xmlns="http://www.w3.org/2000/svg">
<path d="M60.99 28H36.99C36.7248 28 36.4704 28.1054 36.2829 28.2929C36.0953 28.4804 35.99 28.7348 35.99 29V32.61C34.1644 31.5599 32.0961 31.0049 29.99 31H26.99V29C28.9594 27.5375 30.3225 25.4021 30.82 23H30.99C31.755 22.9957 32.5026 22.7721 33.1444 22.3558C33.7862 21.9395 34.2951 21.3479 34.6109 20.6511C34.9266 19.9544 35.036 19.1817 34.9259 18.4246C34.8159 17.6676 34.4911 16.958 33.99 16.38V13C33.99 9.55219 32.6204 6.24558 30.1824 3.80761C27.7444 1.36964 24.4378 0 20.99 0C17.5422 0 14.2356 1.36964 11.7976 3.80761C9.35963 6.24558 7.98999 9.55219 7.98999 13V16.38C7.48892 16.958 7.1641 17.6676 7.05406 18.4246C6.94401 19.1817 7.05335 19.9544 7.3691 20.6511C7.68486 21.3479 8.19379 21.9395 8.83556 22.3558C9.47733 22.7721 10.225 22.9957 10.99 23H11.19C11.6799 25.3976 13.0319 27.5323 14.99 29V31H11.99C8.80739 31 5.75515 32.2643 3.50471 34.5147C1.25427 36.7652 -0.0100098 39.8174 -0.0100098 43V61C-0.0100098 61.2652 0.095347 61.5196 0.282883 61.7071C0.47042 61.8946 0.724774 62 0.98999 62H33.99V60H25.84L22.99 43.16L24.2 40.74L26.5 41.89C26.6513 41.9678 26.82 42.0056 26.99 42C27.1996 42.0005 27.4041 41.9352 27.5746 41.8132C27.7451 41.6911 27.8729 41.5186 27.94 41.32L30.7 33C32.619 33.1438 34.4558 33.8382 35.99 35V61C35.99 61.2652 36.0953 61.5196 36.2829 61.7071C36.4704 61.8946 36.7248 62 36.99 62H60.99C61.2552 62 61.5096 61.8946 61.6971 61.7071C61.8846 61.5196 61.99 61.2652 61.99 61V29C61.99 28.7348 61.8846 28.4804 61.6971 28.2929C61.5096 28.1054 61.2552 28 60.99 28ZM30.99 21V17C31.5204 17 32.0291 17.2107 32.4042 17.5858C32.7793 17.9609 32.99 18.4696 32.99 19C32.99 19.5304 32.7793 20.0391 32.4042 20.4142C32.0291 20.7893 31.5204 21 30.99 21ZM8.98999 19C8.98999 18.4696 9.2007 17.9609 9.57578 17.5858C9.95085 17.2107 10.4596 17 10.99 17V21C10.4596 21 9.95085 20.7893 9.57578 20.4142C9.2007 20.0391 8.98999 19.5304 8.98999 19ZM10.99 15C10.6522 15.0052 10.3163 15.0522 9.98999 15.14V13C9.98999 10.0826 11.1489 7.28473 13.2118 5.22183C15.2747 3.15893 18.0726 2 20.99 2C23.9074 2 26.7053 3.15893 28.7682 5.22183C30.8311 7.28473 31.99 10.0826 31.99 13V15.14C31.6637 15.0522 31.3278 15.0052 30.99 15C30.99 14.7348 30.8846 14.4804 30.6971 14.2929C30.5096 14.1054 30.2552 14 29.99 14C29.2138 14 28.4482 13.8193 27.7539 13.4721C27.0596 13.125 26.4557 12.621 25.99 12L24.79 10.4C24.6968 10.2758 24.5761 10.175 24.4372 10.1056C24.2983 10.0361 24.1452 10 23.99 10C23.8347 10 23.6816 10.0361 23.5428 10.1056C23.4039 10.175 23.2831 10.2758 23.19 10.4L21.99 12C21.5243 12.621 20.9203 13.125 20.2261 13.4721C19.5318 13.8193 18.7662 14 17.99 14H11.99C11.7248 14 11.4704 14.1054 11.2829 14.2929C11.0953 14.4804 10.99 14.7348 10.99 15ZM12.99 21V16H17.99C19.0767 16 20.1485 15.747 21.1205 15.261C22.0925 14.775 22.938 14.0694 23.59 13.2L23.99 12.67L24.39 13.2C25.5059 14.6781 27.1579 15.6586 28.99 15.93V21C28.99 23.1217 28.1471 25.1566 26.6468 26.6569C25.1466 28.1571 23.1117 29 20.99 29C18.8683 29 16.8334 28.1571 15.3331 26.6569C13.8328 25.1566 12.99 23.1217 12.99 21ZM20.99 31C22.3672 31.0007 23.7294 30.7146 24.99 30.16V31.64L20.99 36.44L16.99 31.64V30.16C18.2506 30.7146 19.6128 31.0007 20.99 31ZM15.57 39.59L13.38 33H15.52L19.41 37.67L15.57 39.59ZM1.98999 43C1.9836 40.4664 2.93916 38.0248 4.66359 36.1686C6.38802 34.3123 8.75276 33.1799 11.28 33L14.04 41.28C14.1001 41.4861 14.2249 41.6674 14.396 41.797C14.5671 41.9267 14.7753 41.9978 14.99 42C15.1465 41.9991 15.3007 41.9614 15.44 41.89L17.74 40.74L18.99 43.16L16.14 60H7.98999V46H5.98999V60H1.98999V43ZM18.17 60L20.84 44H21.14L23.81 60H18.17ZM21.37 42H20.61L19.53 39.85L20.99 39.12L22.45 39.85L21.37 42ZM26.37 39.59L22.53 37.67L26.46 33H28.6L26.37 39.59ZM43.99 30H53.99V32H43.99V30ZM59.99 60H37.99V30H41.99V33C41.99 33.2652 42.0953 33.5196 42.2829 33.7071C42.4704 33.8946 42.7248 34 42.99 34H54.99C55.2552 34 55.5096 33.8946 55.6971 33.7071C55.8846 33.5196 55.99 33.2652 55.99 33V30H59.99V60Z" fill="white"/>
<path d="M44.99 36H40.99C40.7248 36 40.4704 36.1054 40.2829 36.2929C40.0953 36.4804 39.99 36.7348 39.99 37V41C39.99 41.2652 40.0953 41.5196 40.2829 41.7071C40.4704 41.8946 40.7248 42 40.99 42H44.99C45.2552 42 45.5096 41.8946 45.6971 41.7071C45.8846 41.5196 45.99 41.2652 45.99 41V37C45.99 36.7348 45.8846 36.4804 45.6971 36.2929C45.5096 36.1054 45.2552 36 44.99 36ZM43.99 40H41.99V38H43.99V40Z" fill="white"/>
<path d="M44.99 44H40.99C40.7248 44 40.4704 44.1054 40.2829 44.2929C40.0953 44.4804 39.99 44.7348 39.99 45V49C39.99 49.2652 40.0953 49.5196 40.2829 49.7071C40.4704 49.8946 40.7248 50 40.99 50H44.99C45.2552 50 45.5096 49.8946 45.6971 49.7071C45.8846 49.5196 45.99 49.2652 45.99 49V45C45.99 44.7348 45.8846 44.4804 45.6971 44.2929C45.5096 44.1054 45.2552 44 44.99 44ZM43.99 48H41.99V46H43.99V48Z" fill="white"/>
<path d="M44.99 52H40.99C40.7248 52 40.4704 52.1054 40.2829 52.2929C40.0953 52.4804 39.99 52.7348 39.99 53V57C39.99 57.2652 40.0953 57.5196 40.2829 57.7071C40.4704 57.8946 40.7248 58 40.99 58H44.99C45.2552 58 45.5096 57.8946 45.6971 57.7071C45.8846 57.5196 45.99 57.2652 45.99 57V53C45.99 52.7348 45.8846 52.4804 45.6971 52.2929C45.5096 52.1054 45.2552 52 44.99 52ZM43.99 56H41.99V54H43.99V56Z" fill="white"/>
<path d="M47.99 36H57.99V38H47.99V36Z" fill="white"/>
<path d="M47.99 40H57.99V42H47.99V40Z" fill="white"/>
<path d="M47.99 44H57.99V46H47.99V44Z" fill="white"/>
<path d="M47.99 48H57.99V50H47.99V48Z" fill="white"/>
<path d="M47.99 52H57.99V54H47.99V52Z" fill="white"/>
<path d="M47.99 56H57.99V58H47.99V56Z" fill="white"/>
</svg>
