<svg width="65" height="64" viewBox="0 0 65 64" fill="none" xmlns="http://www.w3.org/2000/svg">
<path d="M63.259 54.2016H61.6003V20.5208C61.6003 18.054 59.5928 16.0471 57.1253 16.0471H54.9232C55.1639 15.5433 55.2967 14.9846 55.2967 14.404C55.2967 12.9902 54.5208 11.7007 53.2717 11.0386L41.0129 4.54484C40.5554 4.30234 39.9879 4.47684 39.7457 4.93446C39.5033 5.39196 39.6778 5.95934 40.1353 6.20171L52.3938 12.6953C53.0374 13.0365 53.4217 13.6752 53.4217 14.404C53.4217 15.1327 53.0374 15.7713 52.394 16.1123L40.4775 22.4251L32.9015 13.7858C32.5602 13.3965 31.9678 13.3577 31.5785 13.6991C31.1893 14.0405 31.1504 14.6328 31.4918 15.0221L38.7748 23.3272L34.2658 25.7158C32.9702 26.4012 31.4233 26.4012 30.128 25.7161L11.9993 16.1126C11.3558 15.7715 10.9714 15.1327 10.9714 14.4041C10.9714 13.6755 11.3557 13.0367 11.999 12.6956L30.1274 3.09209C31.423 2.40659 32.9699 2.40659 34.265 3.09184L36.86 4.46684C37.3175 4.70934 37.885 4.53496 38.1274 4.07746C38.3698 3.61996 38.1954 3.05246 37.738 2.81009L35.1425 1.43484C33.2978 0.458712 31.095 0.458712 29.2502 1.43496L11.1212 11.0388C9.87228 11.7008 9.09653 12.9903 9.09653 14.4041C9.09653 14.9847 9.22928 15.5433 9.47003 16.0472H7.26778C4.80028 16.0472 2.79278 18.0541 2.79278 20.521V54.2017H1.13403C0.616283 54.2017 0.196533 54.6215 0.196533 55.1392V57.2171C0.196533 60.5697 2.92403 63.2973 6.27666 63.2973H58.1163C61.4689 63.2973 64.1965 60.5698 64.1965 57.2171V55.1392C64.1965 54.6213 63.7768 54.2016 63.259 54.2016ZM40.261 37.9371L41.4834 40.0543C41.736 40.492 41.5675 40.8783 41.4834 41.0241C41.3993 41.1698 41.1489 41.509 40.6435 41.509H39.8784C39.373 41.509 39.1228 41.1698 39.0385 41.0241C38.9543 40.8782 38.7859 40.492 39.0385 40.0543L40.261 37.9371ZM41.1985 24.1651L45.0778 22.1101V25.833C45.0778 28.5067 43.5668 30.9037 41.1985 32.042V24.1651ZM32.1964 28.1052C33.2083 28.1052 34.2204 27.8611 35.1429 27.3731L39.3235 25.1585V32.7673C34.2013 34.4641 28.5342 34.2736 23.5345 32.1956C20.9714 31.1303 19.3153 28.6328 19.3153 25.8331V22.11L29.2507 27.3732C30.1729 27.8613 31.1845 28.1052 32.1964 28.1052ZM4.66778 20.5208C4.66778 19.0878 5.83416 17.9221 7.26778 17.9221H11.4099L16.129 20.4221H8.10528C7.58753 20.4221 7.16778 20.8418 7.16778 21.3596V50.7646C7.16778 51.2823 7.58753 51.7021 8.10528 51.7021H13.054C13.5718 51.7021 13.9915 51.2823 13.9915 50.7646C13.9915 50.2468 13.5718 49.8271 13.054 49.8271H9.04278V22.2971H17.4403V25.833C17.4403 29.3928 19.5499 32.5698 22.815 33.927C25.796 35.166 28.9963 35.7855 32.1967 35.7855C34.6034 35.7855 37.01 35.4348 39.3237 34.7341V35.8108L37.4149 39.1168C36.9007 40.0075 36.9007 41.071 37.4149 41.9616C37.9292 42.8522 38.85 43.384 39.8785 43.384H40.6437C41.6722 43.384 42.593 42.8522 43.1073 41.9616C43.6215 41.071 43.6215 40.0075 43.1073 39.1168L41.1985 35.8108V34.0791C41.3253 34.029 41.4522 33.9793 41.5782 33.927C44.8432 32.5698 46.9528 29.3928 46.9528 25.833V22.2971H55.3503V49.8271H16.804C16.2863 49.8271 15.8665 50.2468 15.8665 50.7646C15.8665 51.2823 16.2863 51.7021 16.804 51.7021H56.2878C56.8055 51.7021 57.2253 51.2823 57.2253 50.7646V21.3596C57.2253 20.8418 56.8055 20.4221 56.2878 20.4221H48.2639L52.983 17.9221H57.1252C58.5588 17.9221 59.7252 19.0878 59.7252 20.5208V54.2016H4.66778V20.5208ZM37.994 56.0771C37.6477 57.0852 36.6898 57.8118 35.5657 57.8118H28.8275C27.7033 57.8118 26.7455 57.0852 26.399 56.0771H37.994ZM62.3215 57.217C62.3215 59.5357 60.435 61.4222 58.1163 61.4222H6.27666C3.95791 61.4222 2.07153 59.5357 2.07153 57.217V56.0766H3.72066C3.72391 56.0766 3.72703 56.0771 3.73028 56.0771H24.4649C24.8557 58.1298 26.6627 59.6868 28.8275 59.6868H35.5657C37.7304 59.6868 39.5374 58.1297 39.9282 56.0771H60.6628C60.666 56.0771 60.6692 56.0766 60.6724 56.0766H62.3215V57.217Z" fill="white"/>
<path d="M32.48 46.3896C32.48 45.8719 32.0603 45.4521 31.5425 45.4521H12.7744C12.2567 45.4521 11.8369 45.8719 11.8369 46.3896C11.8369 46.9074 12.2567 47.3271 12.7744 47.3271H31.5427C32.0603 47.3271 32.48 46.9074 32.48 46.3896Z" fill="white"/>
<path d="M12.7744 43.384H25.3232C25.8409 43.384 26.2607 42.9643 26.2607 42.4465C26.2607 41.9288 25.8409 41.509 25.3232 41.509H12.7744C12.2567 41.509 11.8369 41.9288 11.8369 42.4465C11.8369 42.9643 12.2565 43.384 12.7744 43.384Z" fill="white"/>
</svg>
