<svg width="54" height="61" viewBox="0 0 54 61" fill="none" xmlns="http://www.w3.org/2000/svg">
<path d="M42.6532 38.345H39.0138C38.8878 38.345 38.7632 38.3175 38.6489 38.2643C38.5346 38.2111 38.4334 38.1336 38.3522 38.0371C36.9241 36.28 35.1966 34.7891 33.2495 33.6332L32.8041 33.385C29.0756 31.3145 24.8473 28.9673 24.4019 23.5031C24.3778 23.0742 24.2256 22.6624 23.9648 22.321C23.7041 21.9796 23.3469 21.7244 22.9394 21.5883L22.7258 21.5234C22.4397 21.4309 22.1369 21.4016 21.8384 21.4376C21.5398 21.4736 21.2527 21.574 20.9968 21.732C20.7409 21.8899 20.5224 22.1015 20.3564 22.3522C20.1903 22.6029 20.0808 22.8867 20.0352 23.1839C19.4013 27.1762 19.6564 32.3809 24.4659 34.4964C24.6472 34.5763 24.7956 34.7161 24.8862 34.8924C24.9768 35.0686 25.0041 35.2706 24.9636 35.4646C24.9231 35.6585 24.8172 35.8327 24.6636 35.958C24.51 36.0832 24.3181 36.1519 24.12 36.1526H19.9963C19.7669 36.1526 19.5469 36.0615 19.3847 35.8993C19.2226 35.7371 19.1314 35.5171 19.1314 35.2877C19.1314 35.0584 19.2226 34.8384 19.3847 34.6762C19.5469 34.514 19.7669 34.4229 19.9963 34.4229H21.2071C18.5373 31.9822 17.5219 28.0108 18.3306 22.9081C18.4152 22.3659 18.616 21.8484 18.9194 21.3911C19.2227 20.9339 19.6214 20.5476 20.088 20.2588C20.5546 19.9701 21.0781 19.7856 21.6227 19.7182C22.1673 19.6507 22.72 19.7019 23.243 19.8681L23.454 19.9329C24.1918 20.1702 24.8413 20.6237 25.3183 21.2345C25.7952 21.8453 26.0777 22.5854 26.1291 23.3587C26.5018 27.9001 29.9725 29.8287 33.6482 31.8698L34.0971 32.1197C36.1143 33.2998 37.9126 34.8196 39.4125 36.6118H42.6532C42.8825 36.6118 43.1025 36.703 43.2647 36.8652C43.4269 37.0273 43.518 37.2473 43.518 37.4767C43.518 37.7061 43.4269 37.9261 43.2647 38.0883C43.1025 38.2505 42.8825 38.3416 42.6532 38.3416V38.345Z" fill="white"/>
<path d="M37.4882 60.0566H17.1197C16.8904 60.0566 16.6704 59.9655 16.5082 59.8033C16.346 59.6411 16.2549 59.4211 16.2549 59.1917C16.2549 58.9624 16.346 58.7424 16.5082 58.5802C16.6704 58.418 16.8904 58.3269 17.1197 58.3269H37.4882C38.594 58.3271 39.6934 58.1576 40.7479 57.8244L42.3911 57.3055C42.4994 57.2714 42.6135 57.259 42.7266 57.269C42.8397 57.279 42.9498 57.3111 43.0505 57.3637C43.1512 57.4162 43.2406 57.488 43.3135 57.5751C43.3865 57.6622 43.4416 57.7627 43.4756 57.8711C43.5097 57.9794 43.5221 58.0934 43.5121 58.2066C43.5021 58.3197 43.47 58.4298 43.4174 58.5305C43.3649 58.6312 43.2931 58.7206 43.206 58.7935C43.1189 58.8665 43.0184 58.9216 42.91 58.9556L41.2668 59.4745C40.0444 59.8605 38.7701 60.0568 37.4882 60.0566Z" fill="white"/>
<path d="M51.1487 60.9345H44.4027C43.7092 60.9336 43.0444 60.6577 42.5541 60.1672C42.0638 59.6767 41.788 59.0118 41.7874 58.3183V37.0504C41.788 36.3569 42.0638 35.692 42.5541 35.2015C43.0444 34.7111 43.7092 34.4351 44.4027 34.4342H51.1487C51.8423 34.4349 52.5073 34.7107 52.9978 35.2012C53.4883 35.6917 53.7642 36.3568 53.7649 37.0504V58.3183C53.7642 59.012 53.4883 59.677 52.9978 60.1675C52.5073 60.658 51.8423 60.9338 51.1487 60.9345ZM44.4027 36.1639C44.1678 36.1644 43.9427 36.258 43.7767 36.4241C43.6107 36.5903 43.5173 36.8155 43.5171 37.0504V58.3183C43.5173 58.5532 43.6107 58.7784 43.7767 58.9446C43.9427 59.1108 44.1678 59.2043 44.4027 59.2048H51.1487C51.3837 59.2046 51.609 59.1111 51.7752 58.9449C51.9414 58.7787 52.0349 58.5534 52.0351 58.3183V37.0504C52.0349 36.8154 51.9414 36.59 51.7752 36.4238C51.609 36.2576 51.3837 36.1642 51.1487 36.1639H44.4027Z" fill="white"/>
<path d="M19.5491 42.1376H9.94136C8.92983 42.1224 7.96486 41.7099 7.2549 40.9892C6.54494 40.2686 6.14697 39.2975 6.14697 38.2859C6.14697 37.2742 6.54494 36.3032 7.2549 35.5825C7.96486 34.8618 8.92983 34.4494 9.94136 34.4342H19.55C20.5615 34.4494 21.5265 34.8618 22.2365 35.5825C22.9464 36.3032 23.3444 37.2742 23.3444 38.2859C23.3444 39.2975 22.9464 40.2686 22.2365 40.9892C21.5265 41.7099 20.5615 42.1224 19.55 42.1376H19.5491ZM9.94136 36.1639C9.38601 36.1751 8.85718 36.4036 8.46839 36.8004C8.07959 37.1971 7.86183 37.7304 7.86183 38.2859C7.86183 38.8414 8.07959 39.3747 8.46839 39.7714C8.85718 40.1681 9.38601 40.3966 9.94136 40.4078H19.55C20.1054 40.3966 20.6342 40.1681 21.023 39.7714C21.4118 39.3747 21.6295 38.8414 21.6295 38.2859C21.6295 37.7304 21.4118 37.1971 21.023 36.8004C20.6342 36.4036 20.1054 36.1751 19.55 36.1639H9.94136Z" fill="white"/>
<path d="M20.5965 48.1111H11.301C10.2894 48.096 9.32448 47.6835 8.61452 46.9628C7.90456 46.2421 7.50659 45.2711 7.50659 44.2595C7.50659 43.2478 7.90456 42.2768 8.61452 41.5561C9.32448 40.8354 10.2894 40.4229 11.301 40.4078H20.5965C21.1072 40.4001 21.6143 40.4941 22.0883 40.6842C22.5623 40.8744 22.9938 41.1569 23.3576 41.5153C23.7215 41.8737 24.0104 42.3009 24.2076 42.772C24.4048 43.2431 24.5064 43.7487 24.5064 44.2595C24.5064 44.7702 24.4048 45.2758 24.2076 45.7469C24.0104 46.218 23.7215 46.6452 23.3576 47.0036C22.9938 47.3621 22.5623 47.6446 22.0883 47.8347C21.6143 48.0248 21.1072 48.1188 20.5965 48.1111ZM11.301 42.1375C10.7456 42.1487 10.2168 42.3772 9.828 42.7739C9.43921 43.1707 9.22144 43.704 9.22144 44.2595C9.22144 44.8149 9.43921 45.3483 9.828 45.745C10.2168 46.1417 10.7456 46.3702 11.301 46.3814H20.5965C20.8788 46.3871 21.1594 46.3364 21.4218 46.2324C21.6842 46.1283 21.9233 45.9729 22.1249 45.7753C22.3265 45.5777 22.4867 45.3418 22.5961 45.0815C22.7054 44.8213 22.7618 44.5418 22.7618 44.2595C22.7618 43.9771 22.7054 43.6977 22.5961 43.4374C22.4867 43.1771 22.3265 42.9412 22.1249 42.7436C21.9233 42.546 21.6842 42.3906 21.4218 42.2866C21.1594 42.1825 20.8788 42.1318 20.5965 42.1375H11.301Z" fill="white"/>
<path d="M21.2063 54.0848H12.568C12.0574 54.0924 11.5503 53.9984 11.0763 53.8083C10.6022 53.6182 10.1708 53.3357 9.80694 52.9773C9.44311 52.6188 9.15419 52.1917 8.95697 51.7205C8.75976 51.2494 8.6582 50.7438 8.6582 50.2331C8.6582 49.7224 8.75976 49.2167 8.95697 48.7456C9.15419 48.2745 9.44311 47.8473 9.80694 47.4889C10.1708 47.1305 10.6022 46.848 11.0763 46.6579C11.5503 46.4677 12.0574 46.3738 12.568 46.3814H21.2063C21.717 46.3738 22.2241 46.4677 22.6981 46.6579C23.1721 46.848 23.6036 47.1305 23.9674 47.4889C24.3312 47.8473 24.6201 48.2745 24.8174 48.7456C25.0146 49.2167 25.1161 49.7224 25.1161 50.2331C25.1161 50.7438 25.0146 51.2494 24.8174 51.7205C24.6201 52.1917 24.3312 52.6188 23.9674 52.9773C23.6036 53.3357 23.1721 53.6182 22.6981 53.8083C22.2241 53.9984 21.717 54.0924 21.2063 54.0848ZM12.568 48.1111C12.2858 48.1054 12.0052 48.1561 11.7428 48.2602C11.4803 48.3643 11.2413 48.5197 11.0397 48.7173C10.838 48.9149 10.6778 49.1507 10.5685 49.411C10.4591 49.6713 10.4028 49.9508 10.4028 50.2331C10.4028 50.5154 10.4591 50.7949 10.5685 51.0552C10.6778 51.3155 10.838 51.5513 11.0397 51.7489C11.2413 51.9465 11.4803 52.1019 11.7428 52.206C12.0052 52.3101 12.2858 52.3607 12.568 52.355H21.2063C21.4886 52.3607 21.7691 52.3101 22.0316 52.206C22.294 52.1019 22.533 51.9465 22.7347 51.7489C22.9363 51.5513 23.0965 51.3155 23.2058 51.0552C23.3152 50.7949 23.3715 50.5154 23.3715 50.2331C23.3715 49.9508 23.3152 49.6713 23.2058 49.411C23.0965 49.1507 22.9363 48.9149 22.7347 48.7173C22.533 48.5197 22.294 48.3643 22.0316 48.2602C21.7691 48.1561 21.4886 48.1054 21.2063 48.1111H12.568Z" fill="white"/>
<path d="M21.6291 60.0584H14.2233C13.7126 60.066 13.2055 59.9721 12.7315 59.7819C12.2575 59.5918 11.826 59.3093 11.4622 58.9509C11.0984 58.5925 10.8095 58.1653 10.6122 57.6942C10.415 57.2231 10.3135 56.7174 10.3135 56.2067C10.3135 55.696 10.415 55.1904 10.6122 54.7193C10.8095 54.2482 11.0984 53.821 11.4622 53.4625C11.826 53.1041 12.2575 52.8216 12.7315 52.6315C13.2055 52.4414 13.7126 52.3474 14.2233 52.355H21.6291C22.6407 52.3702 23.6056 52.7827 24.3156 53.5034C25.0256 54.224 25.4235 55.1951 25.4235 56.2067C25.4235 57.2184 25.0256 58.1894 24.3156 58.9101C23.6056 59.6308 22.6407 60.0432 21.6291 60.0584ZM14.2233 54.0848C13.941 54.0791 13.6605 54.1297 13.398 54.2338C13.1356 54.3379 12.8966 54.4933 12.6949 54.6909C12.4933 54.8885 12.3331 55.1244 12.2238 55.3846C12.1144 55.6449 12.0581 55.9244 12.0581 56.2067C12.0581 56.489 12.1144 56.7685 12.2238 57.0288C12.3331 57.2891 12.4933 57.5249 12.6949 57.7225C12.8966 57.9201 13.1356 58.0755 13.398 58.1796C13.6605 58.2837 13.941 58.3344 14.2233 58.3287H21.6291C22.1845 58.3175 22.7133 58.089 23.1021 57.6922C23.4909 57.2955 23.7087 56.7622 23.7087 56.2067C23.7087 55.6513 23.4909 55.1179 23.1021 54.7212C22.7133 54.3245 22.1845 54.096 21.6291 54.0848H14.2233Z" fill="white"/>
<path d="M3.86565 18.4575C3.73975 18.4574 3.61538 18.4299 3.50124 18.3767C3.3871 18.3236 3.28593 18.2462 3.2048 18.1499C3.12368 18.0536 3.06455 17.9408 3.03155 17.8193C2.99855 17.6978 2.99248 17.5706 3.01376 17.4465L3.74544 13.1801L0.64576 10.1583C0.531636 10.0454 0.451151 9.9031 0.413308 9.74716C0.375465 9.59121 0.381756 9.42781 0.431479 9.27523C0.481201 9.12265 0.572392 8.98692 0.694853 8.88321C0.817314 8.7795 0.966213 8.71191 1.1249 8.688L5.40857 8.06529L7.32425 4.18378C7.40366 4.04872 7.51698 3.93675 7.65297 3.85896C7.78897 3.78116 7.94292 3.74023 8.0996 3.74023C8.25627 3.74023 8.41023 3.78116 8.54622 3.85896C8.68222 3.93675 8.79553 4.04872 8.87495 4.18378L10.7915 8.06529L15.0752 8.688C15.2348 8.71118 15.3848 8.77855 15.5081 8.88249C15.6315 8.98643 15.7233 9.12279 15.7732 9.27618C15.8232 9.42957 15.8292 9.59386 15.7907 9.7505C15.7521 9.90714 15.6706 10.0499 15.5552 10.1626L12.4555 13.1844L13.1872 17.4508C13.2139 17.6098 13.1956 17.7731 13.1344 17.9223C13.0732 18.0715 12.9715 18.2006 12.8408 18.2951C12.7101 18.3895 12.5556 18.4455 12.3948 18.4568C12.2339 18.4681 12.0731 18.4342 11.9305 18.3589L8.0983 16.3438L4.26695 18.3589C4.14297 18.4233 4.00537 18.4571 3.86565 18.4575ZM8.10349 14.5025C8.24355 14.5023 8.38156 14.5361 8.50565 14.6011L11.1867 16.0117L10.6739 13.0244C10.6502 12.8862 10.6605 12.7443 10.7039 12.611C10.7473 12.4776 10.8225 12.3569 10.9229 12.259L13.0929 10.1436L10.0935 9.71113C9.95484 9.69076 9.82317 9.63697 9.70987 9.55441C9.59657 9.47185 9.50504 9.36298 9.44317 9.23719L8.10003 6.51546L6.75863 9.23373C6.69667 9.35963 6.605 9.46857 6.49154 9.55114C6.37809 9.63371 6.24624 9.68743 6.10738 9.70767L3.1089 10.1436L5.27971 12.259C5.38001 12.3569 5.45501 12.4778 5.49825 12.6111C5.54149 12.7444 5.55167 12.8863 5.52792 13.0244L5.0116 16.0117L7.69268 14.6011C7.81833 14.5353 7.95822 14.5015 8.10003 14.5025H8.10349Z" fill="white"/>
<path d="M47.6494 18.4576C47.5091 18.4575 47.3708 18.4237 47.2463 18.359L43.4115 16.3438L39.5802 18.359C39.4373 18.4342 39.2762 18.4678 39.1151 18.4562C38.9541 18.4445 38.7995 18.388 38.6689 18.2931C38.5383 18.1981 38.4369 18.0685 38.3762 17.9189C38.3155 17.7693 38.2978 17.6057 38.3253 17.4466L39.0569 13.1802L35.9564 10.1592C35.8407 10.0465 35.7589 9.90372 35.7203 9.74695C35.6816 9.59019 35.6875 9.42573 35.7375 9.27218C35.7874 9.11863 35.8794 8.98214 36.0029 8.87814C36.1264 8.77415 36.2766 8.7068 36.4364 8.68374L40.7201 8.06104L42.6357 4.17952C42.7153 4.04448 42.8287 3.93254 42.9647 3.85477C43.1008 3.77699 43.2548 3.73608 43.4115 3.73608C43.5683 3.73608 43.7223 3.77699 43.8583 3.85477C43.9944 3.93254 44.1078 4.04448 44.1873 4.17952L46.103 8.06104L50.3867 8.68374C50.5465 8.7068 50.6966 8.77415 50.8202 8.87814C50.9437 8.98214 51.0356 9.11863 51.0856 9.27218C51.1355 9.42573 51.1415 9.59019 51.1028 9.74695C51.0641 9.90372 50.9823 10.0465 50.8667 10.1592L47.7661 13.1802L48.4978 17.4466C48.5191 17.5706 48.513 17.6979 48.48 17.8194C48.447 17.9409 48.3879 18.0537 48.3068 18.15C48.2256 18.2463 48.1245 18.3237 48.0103 18.3768C47.8962 18.4299 47.7718 18.4575 47.6459 18.4576H47.6494ZM43.4115 14.5026C43.5516 14.5024 43.6896 14.5362 43.8137 14.6011L46.4948 16.0117L45.9828 13.0245C45.959 12.8864 45.9692 12.7445 46.0125 12.6112C46.0557 12.4778 46.1307 12.357 46.231 12.2591L48.4027 10.1436L45.4025 9.7112C45.2636 9.69096 45.1317 9.63724 45.0183 9.55467C44.9048 9.4721 44.8132 9.36316 44.7512 9.23725L43.4115 6.51639L42.0701 9.23379C42.0082 9.3597 41.9165 9.46864 41.803 9.55121C41.6896 9.63378 41.5577 9.6875 41.4189 9.70774L38.4195 10.1402L40.5903 12.2556C40.6906 12.3535 40.7656 12.4744 40.8089 12.6077C40.8521 12.741 40.8623 12.8829 40.8386 13.021L40.3266 16.0083L43.0076 14.5977C43.1326 14.5337 43.2712 14.501 43.4115 14.5026Z" fill="white"/>
<path d="M29.9906 15.1546C29.8506 15.1545 29.7126 15.1207 29.5885 15.056L25.7571 13.0417L21.9249 15.056C21.7821 15.1311 21.6211 15.1647 21.4601 15.1531C21.2992 15.1415 21.1447 15.0851 21.0141 14.9902C20.8836 14.8954 20.7821 14.7659 20.7213 14.6165C20.6605 14.467 20.6427 14.3035 20.67 14.1444L21.4016 9.87719L18.302 6.85622C18.1863 6.7436 18.1045 6.60086 18.0658 6.44416C18.0271 6.28746 18.033 6.12305 18.0828 5.96953C18.1327 5.816 18.2245 5.67949 18.3479 5.57545C18.4713 5.4714 18.6214 5.40396 18.7811 5.38076L23.0656 4.75806L24.9813 0.876544C25.0609 0.741702 25.1743 0.629946 25.3103 0.552309C25.4462 0.474672 25.6001 0.433838 25.7567 0.433838C25.9132 0.433838 26.0671 0.474672 26.2031 0.552309C26.3391 0.629946 26.4524 0.741702 26.532 0.876544L28.4494 4.75806L32.734 5.38076C32.8935 5.40408 33.0434 5.47154 33.1666 5.57554C33.2899 5.67953 33.3816 5.81591 33.4314 5.96927C33.4813 6.12264 33.4872 6.28688 33.4487 6.44346C33.4101 6.60003 33.3285 6.7427 33.2131 6.85536L30.1134 9.87719L30.8451 14.1444C30.8663 14.2685 30.8601 14.3958 30.8269 14.5172C30.7938 14.6387 30.7346 14.7514 30.6534 14.8476C30.5722 14.9438 30.471 15.0211 30.3568 15.0741C30.2426 15.1272 30.1182 15.1546 29.9923 15.1546H29.9906ZM25.7528 11.1996C25.8928 11.1997 26.0307 11.2335 26.1549 11.2982L28.836 12.7088L28.324 9.72152C28.3003 9.58337 28.3105 9.44153 28.3537 9.30819C28.3969 9.17485 28.4719 9.05403 28.5722 8.95611L30.743 6.84065L27.7428 6.40822C27.604 6.38798 27.4721 6.33426 27.3587 6.25169C27.2452 6.16912 27.1535 6.06018 27.0916 5.93427L25.751 3.21687L24.4157 5.93081C24.3537 6.05672 24.2621 6.16566 24.1486 6.24823C24.0352 6.3308 23.9033 6.38452 23.7645 6.40476L20.7642 6.83719L22.935 8.95265C23.0355 9.05048 23.1107 9.17127 23.1541 9.30461C23.1975 9.43795 23.2078 9.57984 23.1841 9.71806L22.6713 12.7053L25.3523 11.2947C25.4776 11.2308 25.6165 11.1982 25.7571 11.1996H25.7528Z" fill="white"/>
</svg>
