<svg width="512" height="512" viewBox="0 0 512 512" fill="none" xmlns="http://www.w3.org/2000/svg">
<path d="M465 133.64V374.38C464.999 376.197 464.639 377.997 463.943 379.675C463.246 381.354 462.225 382.879 460.939 384.163C459.653 385.448 458.127 386.466 456.447 387.16C454.767 387.854 452.967 388.211 451.15 388.21H58.81C55.1463 388.202 51.6353 386.742 49.0466 384.149C46.4578 381.557 45.0026 378.044 45 374.38V133.64C45.0013 132.219 45.2171 130.806 45.64 129.45C46.52 126.641 48.2763 124.188 50.6517 122.45C53.027 120.711 55.8966 119.779 58.84 119.79H451.18C454.12 119.79 456.985 120.725 459.359 122.46C461.734 124.195 463.495 126.639 464.39 129.44C464.803 130.801 465.008 132.217 465 133.64Z" fill="#F7BB38"/>
<path d="M222.34 254L190.34 272.33L45 159.5V133.64C45.0013 132.219 45.2171 130.806 45.64 129.45C46.3707 127.144 47.692 125.07 49.4726 123.433C51.2533 121.797 53.4312 120.654 55.79 120.12L222.34 254Z" fill="#E5A930"/>
<path d="M465 350.39V374.39C464.999 376.207 464.639 378.007 463.943 379.686C463.246 381.364 462.225 382.889 460.939 384.173C459.653 385.458 458.127 386.476 456.447 387.17C454.767 387.865 452.967 388.221 451.15 388.22H58.81C55.1446 388.212 51.632 386.75 49.043 384.156C46.454 381.561 45 378.045 45 374.38V350.38L255 225.45L465 350.39Z" fill="#F6C752" fill-opacity="0.77"/>
<path d="M464.39 129.44L267.54 284C263.745 286.258 259.411 287.45 254.995 287.45C250.579 287.45 246.245 286.258 242.45 284L45.6099 129.45C46.4982 126.646 48.2566 124.198 50.6301 122.461C53.0036 120.724 55.8687 119.788 58.8099 119.79H451.18C454.12 119.79 456.985 120.725 459.359 122.46C461.733 124.194 463.495 126.639 464.39 129.44Z" fill="#F6D372"/>
<path d="M325.76 267.54L267.55 313.26C263.753 315.518 259.418 316.71 255 316.71C250.583 316.71 246.247 315.518 242.45 313.26L184.24 267.54L205.42 254.94L242.42 284.02C246.217 286.278 250.553 287.47 254.97 287.47C259.388 287.47 263.723 286.278 267.52 284.02L304.52 254.94L325.76 267.54Z" fill="#F7BB38"/>
<path d="M273.23 279.56L267.54 284C263.745 286.258 259.411 287.45 254.995 287.45C250.579 287.45 246.245 286.258 242.45 284L45.6099 129.45C46.4982 126.646 48.2566 124.198 50.6301 122.461C53.0036 120.724 55.8687 119.788 58.8099 119.79H68.8999C68.5365 120.464 68.2353 121.171 67.9999 121.9L264.86 276.47C267.437 278.003 270.274 279.05 273.23 279.56Z" fill="#F6C752" fill-opacity="0.77"/>
<path d="M396.9 162.61C404.212 162.61 410.14 156.682 410.14 149.37C410.14 142.058 404.212 136.13 396.9 136.13C389.588 136.13 383.66 142.058 383.66 149.37C383.66 156.682 389.588 162.61 396.9 162.61Z" fill="#F9E4B7"/>
<path d="M369.33 158.75C374.511 158.75 378.71 154.55 378.71 149.37C378.71 144.19 374.511 139.99 369.33 139.99C364.15 139.99 359.95 144.19 359.95 149.37C359.95 154.55 364.15 158.75 369.33 158.75Z" fill="#F9E4B7"/>
<path d="M134.933 206.801L360 155L184.909 246L134.297 212.627C133.857 212.339 133.496 211.872 133.268 211.293C133.039 210.714 132.954 210.053 133.024 209.405C133.095 208.757 133.318 208.155 133.661 207.687C134.004 207.219 134.449 206.909 134.933 206.801Z" fill="white"/>
<path d="M360 155L327.617 350.594C327.539 351.056 327.382 351.488 327.158 351.857C326.934 352.225 326.649 352.52 326.326 352.718C326.002 352.916 325.649 353.012 325.293 352.999C324.937 352.985 324.588 352.863 324.274 352.641L227 282.918L360 155Z" fill="white"/>
<path d="M185 245.724L211.419 326L227.105 282.925L360 155L185 245.724Z" fill="#D6D6D6"/>
<path d="M212 326L244 294.171L227.096 281L212 326Z" fill="#B2B2B2"/>
</svg>
