<svg width="512" height="512" viewBox="0 0 512 512" fill="none" xmlns="http://www.w3.org/2000/svg">
<path d="M439.36 223.15L267.11 87.8701C263.752 85.8723 259.917 84.8179 256.01 84.8179C252.103 84.8179 248.268 85.8723 244.91 87.8701L70.8 224.6C70.426 226.186 70.2348 227.81 70.23 229.44V396.82H441.23V229.44C441.23 229.44 441.3 228.44 441.32 227.23C441.33 226.445 441.158 225.668 440.818 224.96C440.478 224.252 439.979 223.633 439.36 223.15Z" fill="#E5A930"/>
<path d="M97.04 204L249.33 326.82V367.65L70.23 258.15L70.8 224.6L97.04 204Z" fill="#CE9530"/>
<path d="M369.54 54.72H141.99C135.81 54.72 130.8 59.7299 130.8 65.91V388.7C130.8 394.88 135.81 399.89 141.99 399.89H369.54C375.72 399.89 380.73 394.88 380.73 388.7V65.91C380.73 59.7299 375.72 54.72 369.54 54.72Z" fill="white"/>
<path d="M249.33 326.82V367.65L130.8 295.18V231.23L249.33 326.82Z" fill="#E2E1E0"/>
<path d="M441.77 229.43V442.37C441.77 443.978 441.453 445.571 440.838 447.056C440.222 448.542 439.319 449.892 438.182 451.029C437.044 452.165 435.694 453.067 434.207 453.681C432.721 454.296 431.128 454.611 429.52 454.61H82.4602C79.214 454.61 76.1007 453.32 73.8052 451.025C71.5098 448.73 70.2202 445.616 70.2202 442.37V229.43C70.2194 228.175 70.4116 226.927 70.7902 225.73L188.93 318.5L244.93 362.45C248.288 364.448 252.123 365.502 256.03 365.502C259.937 365.502 263.772 364.448 267.13 362.45L291.58 343.25L441.2 225.72C441.579 226.92 441.771 228.171 441.77 229.43Z" fill="#F7BB38"/>
<path d="M441.78 421.16V442.37C441.777 445.618 440.486 448.732 438.189 451.029C435.892 453.326 432.778 454.617 429.53 454.62H82.47C79.2237 454.62 76.1104 453.33 73.815 451.035C71.5195 448.74 70.23 445.626 70.23 442.38V421.16L227.51 327.59C236.132 322.462 245.978 319.755 256.01 319.755C266.042 319.755 275.888 322.462 284.51 327.59L441.78 421.16Z" fill="#F6C752"/>
<path d="M124.47 454.62H82.47C79.2237 454.62 76.1104 453.33 73.815 451.035C71.5195 448.74 70.23 445.626 70.23 442.38V229.44C70.2291 228.185 70.4214 226.937 70.8 225.74L112.23 258.27V442.38C112.23 443.987 112.547 445.579 113.162 447.064C113.777 448.549 114.678 449.898 115.815 451.035C116.952 452.172 118.301 453.073 119.786 453.688C121.271 454.303 122.863 454.62 124.47 454.62Z" fill="#E5AB35"/>
<path d="M124.47 454.62H82.47C79.2237 454.62 76.1104 453.33 73.815 451.035C71.5195 448.739 70.23 445.626 70.23 442.38V421.16L112.23 396.16V442.36C112.227 443.969 112.542 445.563 113.156 447.05C113.77 448.537 114.671 449.889 115.808 451.028C116.945 452.167 118.295 453.07 119.781 453.686C121.268 454.303 122.861 454.62 124.47 454.62Z" fill="#F7BB38"/>
<path d="M417.19 327.38C424.038 327.38 429.59 321.828 429.59 314.98C429.59 308.132 424.038 302.58 417.19 302.58C410.342 302.58 404.79 308.132 404.79 314.98C404.79 321.828 410.342 327.38 417.19 327.38Z" fill="#F6C752"/>
<path d="M417.19 297.93C422.039 297.93 425.97 293.999 425.97 289.15C425.97 284.301 422.039 280.37 417.19 280.37C412.341 280.37 408.41 284.301 408.41 289.15C408.41 293.999 412.341 297.93 417.19 297.93Z" fill="#F6C752"/>
<path d="M248 92.72H168.76C167.434 92.72 166.162 92.1932 165.225 91.2555C164.287 90.3178 163.76 89.0461 163.76 87.72C163.76 86.3939 164.287 85.1221 165.225 84.1844C166.162 83.2468 167.434 82.72 168.76 82.72H248C249.326 82.72 250.598 83.2468 251.536 84.1844C252.473 85.1221 253 86.3939 253 87.72C253 89.0461 252.473 90.3178 251.536 91.2555C250.598 92.1932 249.326 92.72 248 92.72Z" fill="#32314B"/>
<path d="M343.43 127.55H168.76C167.434 127.55 166.162 127.023 165.225 126.086C164.287 125.148 163.76 123.876 163.76 122.55C163.76 121.224 164.287 119.952 165.225 119.015C166.162 118.077 167.434 117.55 168.76 117.55H343.43C344.756 117.55 346.028 118.077 346.966 119.015C347.903 119.952 348.43 121.224 348.43 122.55C348.43 123.876 347.903 125.148 346.966 126.086C346.028 127.023 344.756 127.55 343.43 127.55Z" fill="#32314B"/>
<path d="M343.43 162.39H168.76C167.434 162.39 166.162 161.863 165.225 160.925C164.287 159.988 163.76 158.716 163.76 157.39C163.76 156.064 164.287 154.792 165.225 153.854C166.162 152.917 167.434 152.39 168.76 152.39H343.43C344.756 152.39 346.028 152.917 346.966 153.854C347.903 154.792 348.43 156.064 348.43 157.39C348.43 158.716 347.903 159.988 346.966 160.925C346.028 161.863 344.756 162.39 343.43 162.39Z" fill="#32314B"/>
<path d="M343.43 197.22H168.76C167.434 197.22 166.162 196.693 165.225 195.756C164.287 194.818 163.76 193.546 163.76 192.22C163.76 190.894 164.287 189.622 165.225 188.684C166.162 187.747 167.434 187.22 168.76 187.22H343.43C344.756 187.22 346.028 187.747 346.966 188.684C347.903 189.622 348.43 190.894 348.43 192.22C348.43 193.546 347.903 194.818 346.966 195.756C346.028 196.693 344.756 197.22 343.43 197.22Z" fill="#32314B"/>
<path d="M343.43 232.05H168.76C167.434 232.05 166.162 231.523 165.225 230.586C164.287 229.648 163.76 228.376 163.76 227.05C163.76 225.724 164.287 224.452 165.225 223.515C166.162 222.577 167.434 222.05 168.76 222.05H343.43C344.756 222.05 346.028 222.577 346.966 223.515C347.903 224.452 348.43 225.724 348.43 227.05C348.43 228.376 347.903 229.648 346.966 230.586C346.028 231.523 344.756 232.05 343.43 232.05Z" fill="#32314B"/>
<path d="M343.43 266.89H168.76C167.434 266.89 166.162 266.363 165.225 265.425C164.287 264.488 163.76 263.216 163.76 261.89C163.76 260.564 164.287 259.292 165.225 258.354C166.162 257.417 167.434 256.89 168.76 256.89H343.43C344.756 256.89 346.028 257.417 346.966 258.354C347.903 259.292 348.43 260.564 348.43 261.89C348.43 263.216 347.903 264.488 346.966 265.425C346.028 266.363 344.756 266.89 343.43 266.89Z" fill="#32314B"/>
<path d="M292 350.5C291.999 359.353 289.917 368.082 285.923 375.982C281.929 383.883 276.134 390.735 269.006 395.985C261.878 401.235 253.615 404.736 244.886 406.207C236.156 407.678 227.202 407.076 218.747 404.451C210.293 401.826 202.573 397.251 196.211 391.095C189.849 384.939 185.022 377.374 182.121 369.01C179.219 360.646 178.324 351.717 179.507 342.943C180.689 334.17 183.917 325.797 188.93 318.5L244.93 362.45C248.288 364.448 252.123 365.502 256.03 365.502C259.937 365.502 263.772 364.448 267.13 362.45L291.58 343.25C291.872 345.655 292.012 348.077 292 350.5Z" fill="#E5AB35"/>
<path d="M256 392C287.204 392 312.5 366.704 312.5 335.5C312.5 304.296 287.204 279 256 279C224.796 279 199.5 304.296 199.5 335.5C199.5 366.704 224.796 392 256 392Z" fill="#F55B4B"/>
<path d="M265 391.28C262.024 391.762 259.014 392.003 256 392C248.201 391.999 240.486 390.383 233.342 387.254C226.198 384.125 219.778 379.551 214.489 373.819C209.199 368.087 205.154 361.323 202.606 353.951C200.059 346.579 199.066 338.76 199.689 330.986C200.313 323.211 202.539 315.65 206.227 308.778C209.916 301.906 214.988 295.872 221.123 291.057C227.258 286.241 234.324 282.747 241.875 280.796C249.426 278.845 257.3 278.479 265 279.72C251.745 281.857 239.684 288.644 230.978 298.865C222.272 309.086 217.491 322.074 217.491 335.5C217.491 348.926 222.272 361.914 230.978 372.135C239.684 382.356 251.745 389.143 265 391.28Z" fill="#DB1B1B"/>
<path d="M249.19 341.64L247.19 311.96C246.824 306.18 246.64 302.03 246.64 299.51C246.64 296.08 247.54 293.41 249.33 291.51C250.24 290.552 251.344 289.799 252.569 289.302C253.793 288.805 255.11 288.576 256.43 288.63C259.977 288.63 262.35 289.86 263.55 292.32C264.75 294.78 265.35 298.323 265.35 302.95C265.346 305.722 265.199 308.493 264.91 311.25L262.25 341.79C262.137 344.666 261.507 347.497 260.39 350.15C259.995 351.057 259.332 351.821 258.49 352.341C257.649 352.861 256.668 353.112 255.68 353.06C254.71 353.135 253.741 352.904 252.909 352.4C252.077 351.896 251.424 351.144 251.04 350.25C249.972 347.496 249.348 344.59 249.19 341.64ZM256.06 382.4C253.635 382.434 251.284 381.56 249.47 379.95C248.519 379.093 247.772 378.034 247.284 376.85C246.796 375.666 246.58 374.388 246.65 373.11C246.645 371.891 246.882 370.684 247.348 369.558C247.813 368.431 248.498 367.409 249.363 366.55C250.228 365.691 251.254 365.013 252.383 364.554C253.513 364.096 254.722 363.867 255.94 363.88C257.174 363.859 258.399 364.087 259.543 364.549C260.687 365.011 261.727 365.698 262.6 366.57C263.489 367.409 264.193 368.424 264.668 369.55C265.143 370.676 265.379 371.888 265.36 373.11C265.426 374.381 265.21 375.65 264.728 376.827C264.245 378.005 263.509 379.061 262.57 379.92C260.792 381.54 258.466 382.426 256.06 382.4Z" fill="white"/>
</svg>
