<svg id="Astronauts" xmlns="http://www.w3.org/2000/svg" viewBox="0 0 4000 4000"><defs><style>.cls-1{fill:#9c5518;}.cls-2{opacity:0.5;}.cls-3{fill:#fff;}.cls-4{opacity:0.25;}.cls-5{fill:#4e944f;}.cls-6{fill:#cce0a4;}.cls-7{fill:gold;}.cls-8{fill:#fda50f;}.cls-9{opacity:0.7;}.cls-10{opacity:0.6;}.cls-11{fill:#ff7800;}.cls-12{fill:#cecece;}</style></defs><path d="M1027.83,2769.09l-25.54-12.89a163.34,163.34,0,0,1-82.13-194.8c48.39-153.58,102.72-307.54,161.46-457.63,79.16-202.22,168.6-403.2,265.85-597.36a188,188,0,0,1,199.86-101c155,26.46,311.06,58.63,464,95.59,209.13,50.57,418.34,111.58,621.81,181.34L2766,1727.94l-1056-87.22a321.64,321.64,0,0,0-311.09,170.15h0C1316.57,1966.22,1241,2127.43,1174.25,2290c-47.61,115.95-91.73,235-131.12,353.93a301,301,0,0,0-15.45,96.53Zm487.26-1331.38a151.94,151.94,0,0,0-136.33,84.38C1282,1715.3,1193,1915.3,1114.21,2116.53c-58.45,149.35-112.51,302.56-160.67,455.39A127.69,127.69,0,0,0,994,2709.27a338.77,338.77,0,0,1,15.9-76.32c39.66-119.67,84.06-239.52,132-356.21,67.17-163.65,143.23-325.9,226-482.25h0a356.61,356.61,0,0,1,344.9-188.65l769.69,63.57c-158.09-50.46-318.78-95.49-479.44-134.34-152.15-36.78-307.46-68.78-461.64-95.11A156.46,156.46,0,0,0,1515.09,1437.71Z"/><path d="M1027.83,2769.09l-25.54-12.89a163.34,163.34,0,0,1-82.13-194.8c48.39-153.58,102.72-307.54,161.46-457.63,79.16-202.22,168.6-403.2,265.85-597.36a188,188,0,0,1,199.86-101c155,26.46,311.06,58.63,464,95.59,209.13,50.57,418.34,111.58,621.81,181.34L2766,1727.94l-1056-87.22a321.64,321.64,0,0,0-311.09,170.15h0C1316.57,1966.22,1241,2127.43,1174.25,2290c-47.61,115.95-91.73,235-131.12,353.93a301,301,0,0,0-15.45,96.53Zm487.26-1331.38a151.94,151.94,0,0,0-136.33,84.38C1282,1715.3,1193,1915.3,1114.21,2116.53c-58.45,149.35-112.51,302.56-160.67,455.39A127.69,127.69,0,0,0,994,2709.27a338.77,338.77,0,0,1,15.9-76.32c39.66-119.67,84.06-239.52,132-356.21,67.17-163.65,143.23-325.9,226-482.25h0a356.61,356.61,0,0,1,344.9-188.65l769.69,63.57c-158.09-50.46-318.78-95.49-479.44-134.34-152.15-36.78-307.46-68.78-461.64-95.11A156.46,156.46,0,0,0,1515.09,1437.71Z"/><path class="cls-1" d="M2626.59,1699.17s-710.76-242.05-1133.51-277.43c0,0-17.93-.83-44.2,12.44-53.74,27.14-82.27,74.36-94.23,97-100.7,190.79-248.41,563-248.41,563-14.25,35.9-36.18,90.37-65.62,169.72-26.11,70.4-47.3,131.11-63.26,178.18A454.26,454.26,0,0,0,943,2545.18c-9.66,47.33-16.39,80.33-2.92,117.49,15.26,42.09,48.33,67.14,69.41,79.85,0,0-16.6-49.33,89.89-310.09s229.22-523.57,229.22-523.57l72.57-136c19.13-28.07,67.73-90.93,155.19-126.27a339.09,339.09,0,0,1,129.7-24.46l852.33,69.46Z"/><path class="cls-1" d="M3002.69,1847.94l-8.26,17.83L2482.85,2969.52a305.65,305.65,0,0,1-308,175.58l-839.41-84.78c-5.7-.57-11.33-1.37-16.86-2.35-72.4-12.91-130-60.09-159.49-121.56a218.55,218.55,0,0,1-11.66-160.22q1.21-3.93,2.46-7.88c.15-.49.3-1,.46-1.47,40.41-129.33,89-266.42,147.64-409.23,66.63-162.3,137.29-310.18,207.85-443.39a312.72,312.72,0,0,1,302.11-165l944.8,78,241.74,20Z"/><path d="M2205.59,3164.15a323.92,323.92,0,0,1-32.54-1.64l-839.41-84.78c-5.91-.59-12-1.44-18.16-2.53a237,237,0,0,1-103.51-46,240.38,240.38,0,0,1-68.7-85.23,236.5,236.5,0,0,1-12.59-173c.8-2.61,1.63-5.25,2.46-7.88.16-.53.32-1.06.49-1.59,43.2-138.22,93-276.36,148.13-410.57,62-150.93,132.14-300.63,208.58-444.93a329.8,329.8,0,0,1,319-174.22l944.8,78,274.95,22.72-18.79,40.57L2498.73,2976.88A323.4,323.4,0,0,1,2205.59,3164.15ZM1781.93,1765.68a294.71,294.71,0,0,0-260.67,156.73c-75.9,143.3-145.59,292-207.12,441.85-54.73,133.3-104.23,270.5-147.13,407.8l-.07.21c-.12.39-.24.77-.35,1.16l0,.15q-1.23,3.9-2.43,7.78a202.52,202.52,0,0,0,157.5,259.38c5.25.93,10.48,1.66,15.53,2.17l839.43,84.78A288.33,288.33,0,0,0,2467,2962.16l509.31-1098.84-225-18.6-944.8-78Q1794.16,1765.67,1781.93,1765.68Z"/><g class="cls-2"><path class="cls-3" d="M1187.05,2973.41a218.55,218.55,0,0,1-11.66-160.22q1.21-3.93,2.46-7.88c.15-.49.3-1,.46-1.47,40.41-129.33,89-266.42,147.64-409.23,66.63-162.3,137.29-310.18,207.85-443.39a312.72,312.72,0,0,1,302.11-165l944.8,78,194.5,16.08,7.22-15.59,8.26-17.83-8.24-.68-241.74-20-944.8-78a312.72,312.72,0,0,0-302.11,165c-70.56,133.21-141.22,281.09-207.85,443.39-58.63,142.81-107.23,279.9-147.64,409.23-.16.49-.31,1-.46,1.47q-1.24,3.95-2.46,7.88a218.55,218.55,0,0,0,11.66,160.22,221.59,221.59,0,0,0,68.38,82.55A222.39,222.39,0,0,1,1187.05,2973.41Z"/></g><path d="M2205.59,3164.15a323.92,323.92,0,0,1-32.54-1.64l-839.41-84.78c-5.91-.59-12-1.44-18.16-2.53a237,237,0,0,1-103.51-46,240.38,240.38,0,0,1-68.7-85.23,236.5,236.5,0,0,1-12.59-173c.8-2.61,1.63-5.25,2.46-7.88.16-.53.32-1.06.49-1.59,43.2-138.22,93-276.36,148.13-410.57,62-150.93,132.14-300.63,208.58-444.93a329.8,329.8,0,0,1,319-174.22l944.8,78,274.95,22.72-18.79,40.57L2498.73,2976.88A323.4,323.4,0,0,1,2205.59,3164.15ZM1781.93,1765.68a294.71,294.71,0,0,0-260.67,156.73c-75.9,143.3-145.59,292-207.12,441.85-54.73,133.3-104.23,270.5-147.13,407.8l-.07.21c-.12.39-.24.77-.35,1.16l0,.15q-1.23,3.9-2.43,7.78a202.52,202.52,0,0,0,157.5,259.38c5.25.93,10.48,1.66,15.53,2.17l839.43,84.78A288.33,288.33,0,0,0,2467,2962.16l509.31-1098.84-225-18.6-944.8-78Q1794.16,1765.67,1781.93,1765.68Z"/><path class="cls-1" d="M2981.26,1840.78q-3.69.72-7.52,1.29a162.8,162.8,0,0,1-20.63,1.76l-200.4-16.55-944.8-78a312.72,312.72,0,0,0-302.11,165c-70.56,133.21-141.22,281.09-207.85,443.39-58.63,142.81-107.23,279.9-147.64,409.23-.16.49-.31,1-.46,1.47q-1.24,3.95-2.46,7.88c-39.52,127.37,42.35,258.82,171.15,281.78l-21.14-2.14c-166.15-16.8-284.81-156-287.19-312.18,3.94.77,7.91,1.52,11.9,2.28q-6.14-2.41-11.93-5.35a318.88,318.88,0,0,1,16.33-102.13c37.69-113.73,81.21-232.47,131.56-355.06,72.22-175.95,148.82-336.28,225.32-480.71a339.53,339.53,0,0,1,328-179.4l916.05,75.66c-189.44-65-396.51-126.78-620.25-180.88-160.94-38.91-315.62-70.21-462.8-95.35a170.56,170.56,0,0,0-181.28,91.54c-90.27,180.25-180.29,379-265.19,595.9-61.9,158.14-115.15,310.79-161.07,456.51-22.1,70.13,11.61,142.78,73.33,173.92,0,1,0,2.05,0,3.07-6.3-1.2-12.52-2.43-18.72-3.67-113.79-22.77-184.26-137.21-153.68-249.17,30.7-112.43,67.27-231.19,111-354.95q42.29-119.81,93.83-245.49,16.53-40.11,33.39-79.11c59.89-138.71,122.43-266.67,185-383.73,14.56-27.22,52.63-82.58,120.88-114.87,62.34-29.49,122.3-25.2,153.25-22.17,392.56,38.46,960.25,238.94,960.25,238.94,78.46,27.26,145.87,52.81,200.32,74.34,85,33.6,151.41,62.54,192.34,80.42,12.19,5.34,29.9,13.06,53.2,23.54q21.15,9.48,40.66,18.46h0a138.3,138.3,0,0,1,25.07,17.73l.82.73C3041.76,1775.35,3026.17,1832,2981.26,1840.78Z"/><path d="M1316.77,3075.38l-21.13-2.14a336.92,336.92,0,0,1-302.41-315.07l-5.16-1A217.56,217.56,0,0,1,820.93,2486.2C853.55,2366.76,891,2246.93,932.26,2130c29-82.32,60.73-165.19,94.15-246.33,11-26.69,22.27-53.4,33.5-79.39,56.3-130.39,118.77-259.94,185.67-385a289.08,289.08,0,0,1,42.94-59.22,283,283,0,0,1,85.89-63.21c69.47-32.87,137-26.25,162.43-23.76,204.1,20,455.51,84.17,630.47,134.48,189.3,54.44,332.48,104.86,333.91,105.37,67.45,23.44,135.08,48.54,200.93,74.57,87.31,34.52,156,64.53,192.9,80.66l2.07.9c12.33,5.39,29.2,12.77,51.31,22.71,12.61,5.65,25.57,11.54,40.78,18.52l.71.32.59.34a156.17,156.17,0,0,1,28.13,19.91l.13.12.33.29.46.41a73.35,73.35,0,0,1-35,126.28h0c-2.68.51-5.45,1-8.22,1.41a184.68,184.68,0,0,1-22.84,1.95l-.92,0-.92-.08-200.4-16.55-944.8-78a294.83,294.83,0,0,0-285.2,155.72c-75.92,143.32-145.61,292-207.13,441.84-54.69,133.2-104.19,270.41-147.13,407.81l0,.1c-.1.32-.21.65-.31,1l-.13.46c-.82,2.58-1.63,5.18-2.43,7.76a202.55,202.55,0,0,0,157.5,259.38Zm-289-328.2c3,108.83,64,204.05,154.45,254.51A238.36,238.36,0,0,1,1122,2872.75a235.71,235.71,0,0,1,8.72-101.75c.8-2.57,1.61-5.18,2.43-7.77.16-.55.33-1.09.5-1.63,43.24-138.36,93.09-276.52,148.15-410.64,62-150.91,132.13-300.61,208.58-444.93a329.79,329.79,0,0,1,319-174.22l944.8,78,199.45,16.48a150,150,0,0,0,17.55-1.56c2.27-.34,4.55-.73,6.76-1.15h0a38.36,38.36,0,0,0,18.35-65.82c-.32-.27-.64-.56-1-.84a120.76,120.76,0,0,0-21.31-15.13c-14.85-6.81-27.55-12.58-39.91-18.13-22-9.86-38.74-17.2-51-22.56l-2.06-.9c-36.7-16-105-45.89-191.76-80.18-65.39-25.86-132.56-50.78-199.63-74.09-1.5-.53-143.88-50.66-332.23-104.82-173.49-49.89-422.58-113.5-624-133.23-38.79-3.8-90.23-4.89-144.06,20.57-69,32.64-103.88,90.38-112.93,107.3C1210,1560,1148,1688.69,1092,1818.2c-11.15,25.81-22.35,52.33-33.27,78.84-33.19,80.58-64.65,162.9-93.5,244.65-41,116.09-78.18,235.1-110.58,353.73a183.18,183.18,0,0,0,87,207.91,163,163,0,0,1-21.51-141.93c48.39-153.58,102.72-307.54,161.46-457.63,79.16-202.22,168.6-403.2,265.85-597.36a188,188,0,0,1,199.86-101c155,26.46,311.06,58.63,464,95.59,209.13,50.57,418.34,111.58,621.81,181.34L2766,1727.94l-1056-87.22a321.64,321.64,0,0,0-311.09,170.15C1316.57,1966.22,1241,2127.43,1174.25,2290c-47.61,115.95-91.73,235-131.12,353.93a301.8,301.8,0,0,0-15.3,85.41l.68.27-.76,2.64c-.06,2.72-.09,5.44-.07,8.16v.89c0,.65,0,1.3,0,2Zm487.3-1309.47a151.94,151.94,0,0,0-136.33,84.38C1282,1715.3,1193,1915.3,1114.21,2116.53c-58.45,149.35-112.51,302.56-160.67,455.39A127.69,127.69,0,0,0,994,2709.27a338.77,338.77,0,0,1,15.9-76.32c39.66-119.67,84.06-239.52,132-356.21,67.17-163.65,143.23-325.9,226-482.25a356.61,356.61,0,0,1,344.9-188.65l769.69,63.57c-158.09-50.46-318.78-95.49-479.44-134.34-152.15-36.78-307.46-68.78-461.64-95.11A156.46,156.46,0,0,0,1515.09,1437.71Z"/><g class="cls-2"><path class="cls-3" d="M864.81,2520.81c30.7-112.43,67.27-231.19,111-354.95q42.29-119.81,93.83-245.49,16.53-40.11,33.39-79.11c59.89-138.71,122.43-266.67,185-383.73,14.56-27.22,52.63-82.58,120.88-114.87,62.34-29.49,122.3-25.2,153.25-22.17,392.56,38.46,960.25,238.94,960.25,238.94,78.46,27.26,145.87,52.81,200.32,74.34,85,33.6,151.41,62.54,192.34,80.42,12.19,5.34,29.9,13.06,53.2,23.54q21.15,9.48,40.66,18.46h0a140.76,140.76,0,0,1,16.72,10.88,54.79,54.79,0,0,0-17.83-33.42l-.82-.73a138.3,138.3,0,0,0-25.07-17.73h0q-19.51-9-40.66-18.46c-23.3-10.48-41-18.2-53.2-23.54-40.93-17.88-107.35-46.82-192.34-80.42-54.45-21.53-121.86-47.08-200.32-74.34,0,0-567.69-200.48-960.25-238.94-31-3-90.91-7.32-153.25,22.17-68.25,32.29-106.32,87.65-120.88,114.87-62.6,117.06-125.14,245-185,383.73q-16.86,39-33.39,79.11-51.69,125.51-93.83,245.49c-43.68,123.76-80.25,242.52-111,354.95a200.07,200.07,0,0,0,40.72,182.8A199.51,199.51,0,0,1,864.81,2520.81Z"/></g><g class="cls-2"><path class="cls-3" d="M1181.07,2320.39c72.22-175.95,148.82-336.28,225.32-480.71,12.81-24.18,62.1-100.07,143.21-142.18a361,361,0,0,1,49.31-20.73,350.32,350.32,0,0,1,135.48-16.49l1020.21,86.51c12.26,1,16.2-16,4.74-20.54-9-3.53-18.48-7-28.34-10.25a583,583,0,0,0-83-21l-940.61-75.72a339.53,339.53,0,0,0-328,179.4c-76.5,144.43-153.1,304.76-225.32,480.71-50.35,122.59-93.87,241.33-131.56,355.06a318.88,318.88,0,0,0-16.33,102.13q5.8,2.93,11.93,5.35c-4-.76-8-1.51-11.9-2.28q.16,10.63,1,21.14a144.3,144.3,0,0,0,25.93,16.79,318.88,318.88,0,0,1,16.33-102.13C1087.2,2561.72,1130.72,2443,1181.07,2320.39Z"/></g><g class="cls-4"><path d="M966,2726c-17.24-26.31-36.32-65.23-35.92-112.57.19-22.58,4.5-39.56,6.77-46.77,45.92-145.72,99.17-298.37,161.07-456.51,84.9-216.9,174.92-415.65,265.19-595.9a170.56,170.56,0,0,1,181.28-91.54c147.18,25.14,301.86,56.44,462.8,95.35,133.07,32.17,260.24,67.09,381.32,103.76L2753,1725c-63.32-25-516.46-203.27-783.07-269.11-42.64-10.53-57.4-12.48-126.83-29.93-125.22-31.48-215.43-59.89-335.6-67.25-34-2.08-73.75-2.69-113.31,19.41-34.59,19.33-53.27,47.22-68.32,71.42-55.68,89.48-80.49,162.61-122.95,255.53-68.87,150.7-78.57,171-144.6,339.31-22.12,56.4-42.1,109.93-48.32,126.62-26.57,71.27-20.29,57.27-61,169-19.28,52.92-33.91,107.47-53.55,160.25A212.72,212.72,0,0,0,883,2550a208.34,208.34,0,0,0,1,59C895.18,2673.27,956.09,2718.78,966,2726Z"/><path d="M3007.82,1744.66l-.82-.73a137.47,137.47,0,0,0-19.2-14.29c-1,24.31-17.58,47.56-45.09,52.82-2.47.46-5,.88-7.53,1.26a167.76,167.76,0,0,1-20.63,1.68l-200.33-17.35-944.49-81.76A312.7,312.7,0,0,0,1467,1850.06c-71.09,132.93-142.34,280.54-209.61,442.57-59.19,142.58-108.33,279.48-149.26,408.64-.15.49-.31,1-.46,1.47-1.3,4.5-2.45,7.77-2.49,7.87-.88,2.77-14.31,53.17-16.16,86.39-5.22,93.63,45,160,45,160,44.64,59,106.34,77.57,128,83-87.54-74.22-123.65-157.62-124.44-190-.43-17.77,8.58-69.71,9.83-73.77q1.21-3.93,2.46-7.88c.15-.49.3-1,.46-1.47,40.41-129.33,89-266.42,147.64-409.23,66.63-162.3,137.29-310.18,207.85-443.39a312.72,312.72,0,0,1,302.11-165l944.8,78,200.4,16.55a162.8,162.8,0,0,0,20.63-1.76c2.55-.38,5.06-.81,7.51-1.29C3026.17,1832,3041.76,1775.35,3007.82,1744.66Z"/></g><path d="M1316.77,3075.38l-21.13-2.14a336.92,336.92,0,0,1-302.41-315.07l-5.16-1A217.56,217.56,0,0,1,820.93,2486.2C853.55,2366.76,891,2246.93,932.26,2130c29-82.32,60.73-165.19,94.15-246.33,11-26.69,22.27-53.4,33.5-79.39,56.3-130.39,118.77-259.94,185.67-385a289.08,289.08,0,0,1,42.94-59.22,283,283,0,0,1,85.89-63.21c69.47-32.87,137-26.25,162.43-23.76,204.1,20,455.51,84.17,630.47,134.48,189.3,54.44,332.48,104.86,333.91,105.37,67.45,23.44,135.08,48.54,200.93,74.57,87.31,34.52,156,64.53,192.9,80.66l2.07.9c12.33,5.39,29.2,12.77,51.31,22.71,12.61,5.65,25.57,11.54,40.78,18.52l.71.32.59.34a156.17,156.17,0,0,1,28.13,19.91l.13.12.33.29.46.41a73.35,73.35,0,0,1-35,126.28h0c-2.68.51-5.45,1-8.22,1.41a184.68,184.68,0,0,1-22.84,1.95l-.92,0-.92-.08-200.4-16.55-944.8-78a294.83,294.83,0,0,0-285.2,155.72c-75.92,143.32-145.61,292-207.13,441.84-54.69,133.2-104.19,270.41-147.13,407.81l0,.1c-.1.32-.21.65-.31,1l-.13.46c-.82,2.58-1.63,5.18-2.43,7.76a202.55,202.55,0,0,0,157.5,259.38Zm-289-328.2c3,108.83,64,204.05,154.45,254.51A238.36,238.36,0,0,1,1122,2872.75a235.71,235.71,0,0,1,8.72-101.75c.8-2.57,1.61-5.18,2.43-7.77.16-.55.33-1.09.5-1.63,43.24-138.36,93.09-276.52,148.15-410.64,62-150.91,132.13-300.61,208.58-444.93a329.79,329.79,0,0,1,319-174.22l944.8,78,199.45,16.48a150,150,0,0,0,17.55-1.56c2.27-.34,4.55-.73,6.76-1.15h0a38.36,38.36,0,0,0,18.35-65.82c-.32-.27-.64-.56-1-.84a120.76,120.76,0,0,0-21.31-15.13c-14.85-6.81-27.55-12.58-39.91-18.13-22-9.86-38.74-17.2-51-22.56l-2.06-.9c-36.7-16-105-45.89-191.76-80.18-65.39-25.86-132.56-50.78-199.63-74.09-1.5-.53-143.88-50.66-332.23-104.82-173.49-49.89-422.58-113.5-624-133.23-38.79-3.8-90.23-4.89-144.06,20.57-69,32.64-103.88,90.38-112.93,107.3C1210,1560,1148,1688.69,1092,1818.2c-11.15,25.81-22.35,52.33-33.27,78.84-33.19,80.58-64.65,162.9-93.5,244.65-41,116.09-78.18,235.1-110.58,353.73a183.18,183.18,0,0,0,87,207.91,163,163,0,0,1-21.51-141.93c48.39-153.58,102.72-307.54,161.46-457.63,79.16-202.22,168.6-403.2,265.85-597.36a188,188,0,0,1,199.86-101c155,26.46,311.06,58.63,464,95.59,209.13,50.57,418.34,111.58,621.81,181.34L2766,1727.94l-1056-87.22a321.64,321.64,0,0,0-311.09,170.15C1316.57,1966.22,1241,2127.43,1174.25,2290c-47.61,115.95-91.73,235-131.12,353.93a301.8,301.8,0,0,0-15.3,85.41l.68.27-.76,2.64c-.06,2.72-.09,5.44-.07,8.16v.89c0,.65,0,1.3,0,2Zm487.3-1309.47a151.94,151.94,0,0,0-136.33,84.38C1282,1715.3,1193,1915.3,1114.21,2116.53c-58.45,149.35-112.51,302.56-160.67,455.39A127.69,127.69,0,0,0,994,2709.27a338.77,338.77,0,0,1,15.9-76.32c39.66-119.67,84.06-239.52,132-356.21,67.17-163.65,143.23-325.9,226-482.25a356.61,356.61,0,0,1,344.9-188.65l769.69,63.57c-158.09-50.46-318.78-95.49-479.44-134.34-152.15-36.78-307.46-68.78-461.64-95.11A156.46,156.46,0,0,0,1515.09,1437.71Z"/><path class="cls-5" d="M1603.72,1007.54l-128.83-4.38a49.68,49.68,0,0,0-51.22,53.52l33.84,433s80,47.55,176,68.78Z"/><path d="M1652.25,1580.52l-22.49-5c-97.7-21.59-177.83-68.83-181.19-70.83l-7.8-4.64-34.54-442a67.18,67.18,0,0,1,69.26-72.38l144.83,4.93Zm-178-101.51c19.76,10.8,75,39.14,140.55,56.83l-27.67-511.35-112.81-3.84a32.17,32.17,0,0,0-33.18,34.67Z"/><g class="cls-2"><path class="cls-3" d="M1462.53,1073.66c-.66-4.17-1.15-8.07-1.53-11.66-1.11-10.58-.63-13.07,0-15a18.93,18.93,0,0,1,6-9c2.74-2.17,5.78-3.14,15-4,4.88-.46,11.43-.88,19.28-.84l104,3.54-1.57-29.16-128.83-4.38a49.68,49.68,0,0,0-51.22,53.52l33.84,433s14.73,8.76,39.13,20.43Z"/></g><path d="M1652.25,1580.52l-22.49-5c-97.7-21.59-177.83-68.83-181.19-70.83l-7.8-4.64-34.54-442a67.18,67.18,0,0,1,69.26-72.38l144.83,4.93Zm-178-101.51c19.76,10.8,75,39.14,140.55,56.83l-27.67-511.35-112.81-3.84a32.17,32.17,0,0,0-33.18,34.67Z"/><g class="cls-4"><path d="M1634.1,1580.26c-62.28-22.23-106.59-48.58-106.59-48.58l-35.6-455.57a29.44,29.44,0,0,1,30.36-31.72l82.67,2.81Z"/></g><path class="cls-6" d="M1542.94,1527.76q-7.11-149.48-14.21-299a31.65,31.65,0,0,1,13.86-27.65c24.1-16.43,69-54.18,65.88-105.79l25.06,463.09Q1615,1553.51,1595,1547C1576.37,1540.92,1559,1534.41,1542.94,1527.76Z"/><path class="cls-5" d="M2471.11,1686c-142.25-10.12-295.66-26.81-458.29-52.76-134.84-21.51-261.47-47.07-379.29-74.81L1598.3,907.41a51.92,51.92,0,0,1,54.21-54.76l740.08,32.57a52,52,0,0,1,49.68,50L2470.11,1660Z"/><path d="M2489.34,1704.87l-19.47-1.38c-153.34-10.91-308-28.72-459.81-52.94C1883,1630.28,1755,1605,1629.52,1575.49l-12.76-3-35.93-664.13a69.39,69.39,0,0,1,72.45-73.19l740.08,32.57a69.51,69.51,0,0,1,66.4,66.77l27.84,724.78Zm-839-160.46c120.51,28.06,243.34,52.13,365.28,71.58,144.34,23,291.35,40.23,437.29,51.16l-.25-6.52-27.84-724.78a34.69,34.69,0,0,0-33-33.15l-740.08-32.57a34.44,34.44,0,0,0-36,36.32Z"/><g class="cls-2"><path class="cls-3" d="M2470.11,1660l-16.13-1.18-26.56-691.65a44.56,44.56,0,0,0-42.57-42.81l-728.76-32.07a37.33,37.33,0,0,0-38.92,39.31l32.73,604.72c-5.47-1.27-10.94-2.54-16.37-3.82l-34.48-637.19a52,52,0,0,1,53.46-42.62l740.08,32.57a52,52,0,0,1,49.68,50Z"/></g><path class="cls-6" d="M2367,1677.59q-88.26-7.87-182.2-19.61-73.62-9.27-150.49-21.31-72.93-11.45-142.33-24.48-79.44-14.82-154.07-31.29Q1729.37,1364,1720.81,1147a28.56,28.56,0,0,1,24.25-29.42c22.45-3.35,55.12-13.77,79-44.9,20.25-26.4,24.43-55,23.94-75.93a28.59,28.59,0,0,1,29.33-29.2l289.1,7.17a28.7,28.7,0,0,1,27.9,28.14c.59,24.69,7.38,61.52,37.4,92.42,31.25,32.16,69.67,39.36,95.09,40a28.68,28.68,0,0,1,28,27.94Q2360.91,1420.45,2367,1677.59Z"/><path class="cls-5" d="M2184.82,1658q-73.62-9.27-150.49-21.31-72.93-11.45-142.33-24.48A152.43,152.43,0,1,1,2184.82,1658Z"/><circle class="cls-5" cx="2016.79" cy="1151.63" r="95.36" transform="translate(-223.62 1763.39) rotate(-45)"/><path d="M2489.34,1704.87l-19.48-1.39c-153.34-10.91-308-28.72-459.79-52.93-127.16-20.28-255.19-45.54-380.55-75l-12.75-3-36-664.13a69.51,69.51,0,0,1,72.46-73.19l740.08,32.57a69.51,69.51,0,0,1,66.4,66.77Zm-839-160.46c120.45,28,243.27,52.11,365.28,71.58,144.34,23,291.35,40.22,437.29,51.16l-28.08-731.3a34.72,34.72,0,0,0-33-33.15l-740.09-32.57a34.51,34.51,0,0,0-36,36.34Z"/><path d="M1653.62,1581.08c-13.32-2.64-26.75-5.72-39.93-9.17a689.56,689.56,0,0,1-109.56-39A700.65,700.65,0,0,1,1399.19,1474l19.7-28.94a665.48,665.48,0,0,0,99.68,56,653.74,653.74,0,0,0,104,37c12.49,3.27,25.23,6.2,37.85,8.69Z"/><path class="cls-1" d="M948.76,2135.86c-64.36-15.87-123.48,3.4-166.15,26.29A82.49,82.49,0,0,1,671,2128.75L593.27,1985a82.54,82.54,0,0,1,27.18-108.11c255.19-168.77,420.42-87,455.53-65.62q-16.86,39-33.39,79.11Q990.9,2015.88,948.76,2135.86Z"/><path d="M743.75,2189.44a100.11,100.11,0,0,1-88.16-52.37l-77.72-143.76a100.06,100.06,0,0,1,32.93-131c60.24-39.84,120.28-69,178.47-86.61,48.6-14.72,96.35-21.59,141.93-20.41,81.58,2.12,134.79,29.42,153.88,41.06l13,7.92-6,14c-11.15,25.81-22.35,52.33-33.27,78.84-33.19,80.58-64.65,162.9-93.5,244.65l-5.29,15-15.41-3.8c-48.91-12.06-100.62-3.75-153.69,24.72A99.41,99.41,0,0,1,743.75,2189.44Zm177.08-399.31c-91.24,0-189,34.06-290.73,101.34a64.73,64.73,0,0,0-21.44,85.19l77.72,143.76a65.13,65.13,0,0,0,88,26.31c54.62-29.3,110.63-39.93,163-31.09,27.64-77.57,57.57-155.52,89-231.93,8.95-21.72,18.08-43.45,27.22-64.79-22.77-11.4-64.51-27.14-123.34-28.67C927.15,1790.17,924,1790.13,920.83,1790.13Z"/><g class="cls-2"><path class="cls-3" d="M723,2144.75l-89.23-165a55.65,55.65,0,0,1,17-72c176.89-124.48,312.73-129.13,394.91-111.65-65.62-27.21-214.84-58.3-425.17,80.81A82.54,82.54,0,0,0,593.27,1985L671,2128.75a82.41,82.41,0,0,0,75.61,43.17A82.06,82.06,0,0,1,723,2144.75Z"/></g><g class="cls-4"><path d="M901,1773a269.51,269.51,0,0,1,42,84c18.1,61.54,10.24,118.39-2,159.84a75.74,75.74,0,0,1-72.52,54.21c-45.32,0-86.15,15.08-117.89,32.1a82.49,82.49,0,0,1-109.82-30.27l30.2,55.87a82.46,82.46,0,0,0,111.52,33.46c42.68-22.92,101.84-42.24,166.25-26.35q42.29-119.81,93.83-245.49,16.53-40.11,33.39-79.11-8.79-5.15-18.43-9.89C1001.49,1774,945.11,1770,901,1773Z"/></g><path d="M743.75,2189.44a100.11,100.11,0,0,1-88.16-52.37l-77.72-143.76a100.06,100.06,0,0,1,32.93-131c60.24-39.84,120.28-69,178.47-86.61,48.6-14.72,96.35-21.59,141.93-20.41,81.58,2.12,134.79,29.42,153.88,41.06l13,7.92-6,14c-11.15,25.81-22.35,52.33-33.27,78.84-33.19,80.58-64.65,162.9-93.5,244.65l-5.29,15-15.41-3.8c-48.91-12.06-100.62-3.75-153.69,24.72A99.41,99.41,0,0,1,743.75,2189.44Zm177.08-399.31c-91.24,0-189,34.06-290.73,101.34a64.73,64.73,0,0,0-21.44,85.19l77.72,143.76a65.13,65.13,0,0,0,88,26.31c54.62-29.3,110.63-39.93,163-31.09,27.64-77.57,57.57-155.52,89-231.93,8.95-21.72,18.08-43.45,27.22-64.79-22.77-11.4-64.51-27.14-123.34-28.67C927.15,1790.17,924,1790.13,920.83,1790.13Z"/><path class="cls-7" d="M1042.74,1311.36c-76.2,105.32-222,129.87-325.73,54.84q-8.35-6-16-12.7c-89.79-77.92-105.87-214.17-33.77-313.83,73.19-101.15,210.6-127.81,313.22-63.3q6.34,4,12.51,8.44C1096.65,1059.84,1118.94,1206,1042.74,1311.36Z"/><path d="M851,1427.21a245,245,0,0,1-144.25-46.83c-6-4.32-11.77-8.92-17.24-13.67-46.92-40.72-76.58-97.57-83.51-160A255.57,255.57,0,0,1,809.38,928.74c62.73-12.53,126.79-.87,180.38,32.81,4.6,2.9,9.13,6,13.46,9.09,54,39.05,89.28,97.1,99.39,163.45s-6.13,132.84-45.69,187.53l-14.18-10.26,14.18,10.26c-39.56,54.68-97.75,90.92-163.83,102.05A253.12,253.12,0,0,1,851,1427.21Zm7.84-468.27a219.25,219.25,0,0,0-177.44,91c-65.65,90.73-52,218.27,31.06,290.35,4.7,4.09,9.67,8,14.8,11.75,46.33,33.51,103.15,46.7,160,37.12s107.14-40.86,141.28-88.05h0c34.15-47.19,48.16-104.63,39.45-161.74S1029,1032.51,982.7,999c-3.72-2.69-7.62-5.32-11.58-7.81A210.28,210.28,0,0,0,858.85,958.94Z"/><path class="cls-7" d="M701,1353.5l-47.76-38.45c-39.79-32-67.69-76.68-78.07-126.68-.21-1-.41-2-.61-3-19.32-100.12,37.35-176,47.59-189.14,13.91-17.9,56.05-66.92,130.54-85.8l3-.75c62.71-15,128.86-1.55,181.38,35.86l43.36,30.88c-102.62-64.51-240-37.85-313.22,63.3C595.13,1139.33,611.21,1275.58,701,1353.5Z"/><path d="M690,1367.14l-47.77-38.46c-43.24-34.81-73.15-83.37-84.22-136.76-.23-1.09-.45-2.18-.66-3.28-19.73-102.27,34-181.38,51-203.2,20.42-26.29,65.78-73.2,140.07-92l3.24-.8c67.23-16.1,138.53-2,195.6,38.62l43.36,30.89-19.47,29.06c-95.29-59.89-222.55-34.09-289.72,58.75-65.65,90.73-52,218.27,31.06,290.35Zm116.84-446a202.19,202.19,0,0,0-47.08,5.55l-2.8.69c-64.14,16.26-103.35,56.83-121,79.57-14.66,18.88-61.17,87.28-44.23,175.1.19.94.37,1.88.57,2.81a198.69,198.69,0,0,0,19.08,52.75A254.77,254.77,0,0,1,843,924.33,204.92,204.92,0,0,0,806.87,921.1Z"/><ellipse class="cls-8" cx="853.9" cy="1175.9" rx="173.02" ry="170.36" transform="translate(-599.33 1178.41) rotate(-54.11)"/><g class="cls-4"><path d="M812.68,1009.48c90.82-12,175,47.24,193.82,131.21,20.51,91.35-41.64,187.84-139.9,206.64,0,0,101.95-2.9,146.07-109.13,0,0,23.13-49.66,6.54-110.06a172.82,172.82,0,0,0-32.27-62.66,170.73,170.73,0,0,0-50.27-41.85C883.44,994.86,829.06,1005.6,812.68,1009.48Z"/></g><g class="cls-9"><path class="cls-3" d="M812.69,1009.49S726,1025.57,691.92,1122.22s32.28,168.06,32.28,168.06,55.14,66.15,142.73,57.34c0,0-133.77,22.77-183.34-106.71S736.05,1017.2,812.69,1009.49Z"/></g><g class="cls-4"><path d="M909.53,1184.4l-17.07-12.35a3,3,0,0,1-.84-3.93c2.56-4.43,6.74-14.46-2.45-21.65-12.12-9.47-16.1-8.83-16.1-8.83S863,1136,857.32,1148.73s6.45,17.32,18.18,37,11.36,25.09,8.5,37.78c0,0-6.73,19-24.84,25.6s-35.73-4.05-35.73-4.05-30.81-16.67-31-40.71c0,0-.78-11.29,8.33-25.07a4.24,4.24,0,0,1,6-1.08l14.29,10.34a3.76,3.76,0,0,1,1,5c-2.88,4.57-7.28,13.78-2.24,21.47,7,10.7,18.92,13.68,18.92,13.68s11.69,4.24,19.6-12.52-28.64-36.19-27.62-62.86,27.3-35.78,27.3-35.78,18.32-7.83,43.61,12.58,15.1,43.25,15.1,43.25a39,39,0,0,1-5.55,10.71,1.22,1.22,0,0,1-1.67.24Z"/></g><g class="cls-4"><path d="M877.29,1127.93l13.08-18.08a2.09,2.09,0,0,1,2.91-.47L913.43,1124a2.1,2.1,0,0,1,.47,2.92l-11.27,15.57a2.11,2.11,0,0,1-2.7.61L878,1131A2.08,2.08,0,0,1,877.29,1127.93Z"/></g><g class="cls-4"><path d="M833.12,1238.67l-13.22,18a2.09,2.09,0,0,1-2.92.45l-20-14.74a2.09,2.09,0,0,1-.45-2.92L807.9,1224a2.09,2.09,0,0,1,2.7-.59l21.86,12.25A2.09,2.09,0,0,1,833.12,1238.67Z"/></g><path class="cls-7" d="M904.5,1181.24l-17.07-12.35a3,3,0,0,1-.84-3.93c2.56-4.43,6.74-14.46-2.45-21.64-12.12-9.47-16.1-8.84-16.1-8.84s-10-1.65-15.76,11.1,6.45,17.31,18.18,37,11.37,25.1,8.51,37.79c0,0-6.74,19-24.85,25.6S818.4,1242,818.4,1242s-30.81-16.67-31-40.7c0,0-.77-11.3,8.34-25.08a4.24,4.24,0,0,1,6-1.08l14.3,10.34a3.76,3.76,0,0,1,1,5c-2.87,4.57-7.27,13.77-2.23,21.46,7,10.7,18.91,13.69,18.91,13.69s11.7,4.24,19.61-12.53-28.64-36.18-27.62-62.85S853,1114.47,853,1114.47s18.32-7.84,43.62,12.57,15.09,43.26,15.09,43.26a38.71,38.71,0,0,1-5.55,10.71,1.21,1.21,0,0,1-1.66.23Z"/><path class="cls-7" d="M872.25,1124.77l13.08-18.07a2.08,2.08,0,0,1,2.92-.47l20.14,14.58a2.07,2.07,0,0,1,.47,2.91l-11.27,15.58a2.08,2.08,0,0,1-2.69.6l-22-12.07A2.1,2.1,0,0,1,872.25,1124.77Z"/><path class="cls-7" d="M828.09,1235.51l-13.22,18a2.09,2.09,0,0,1-2.92.44l-20-14.73a2.09,2.09,0,0,1-.45-2.92l11.39-15.49a2.08,2.08,0,0,1,2.7-.58l21.86,12.24A2.09,2.09,0,0,1,828.09,1235.51Z"/><path class="cls-7" d="M2867.05,2543.43c-12,130.79,82.72,246.38,211.5,258.16q10.39,1,20.63,1c120.12.35,222.89-92.68,234.22-216.44,11.5-125.62-75.38-237.21-196.35-256.29q-7.49-1.18-15.14-1.89C2993.13,2316.15,2879,2412.63,2867.05,2543.43Z"/><path d="M3099.85,2820.06h-.72c-7.3,0-14.76-.36-22.17-1-67-6.13-127.54-38.38-170.48-90.79s-63.07-118.54-56.85-186.4,38.08-129.29,89.75-173,117.14-64.48,184.13-58.34c5.39.5,10.86,1.18,16.26,2,63.13,10,119.59,43.63,159,94.8a258.06,258.06,0,0,1-29.85,346.43C3222.36,2796.54,3162.33,2820.06,3099.85,2820.06Zm-232.8-276.64,17.43,1.6c-5.37,58.65,12.06,115.84,49.08,161s89,72.85,146.59,78.12c6.37.58,12.79.88,19.06.89h.61c111,0,205.85-88,216.16-200.54,10.56-115.39-69.23-219.68-181.66-237.41-4.65-.73-9.36-1.32-14-1.74-118.93-10.89-224.75,78.67-235.83,199.65Z"/><path class="cls-7" d="M3099.18,2802.56l61.91,2.47c51.56,2.06,102.47-13.39,143.59-44.56.83-.63,1.66-1.26,2.49-1.91,81.23-63.38,88.48-158.76,89.44-175.6,1.31-22.86,1.81-88.18-42.35-152-.6-.87-1.2-1.73-1.81-2.58-37.75-53.09-97-86.79-161.88-93.21l-53.52-5.3c121,19.08,207.85,130.67,196.35,256.29C3322.07,2709.88,3219.3,2802.91,3099.18,2802.56Z"/><path d="M3170.13,2822.71q-4.86,0-9.74-.19l-15.55-.62-46.36-1.85.75-35h.6c111,0,205.84-88,216.15-200.54,10.56-115.39-69.23-219.68-181.66-237.41l4.45-34.7,53.52,5.3c70.4,7,134,43.6,174.42,100.49.65.92,1.3,1.83,1.94,2.76,44,63.65,47.36,129.45,45.43,163-1.59,27.85-13.24,123.71-96.15,188.4l-2.68,2.06C3273.94,2805.74,3222.74,2822.71,3170.13,2822.71ZM3275,2380.59a257.22,257.22,0,0,1-31.86,393.94,201.21,201.21,0,0,0,51-28c.77-.59,1.53-1.17,2.29-1.77,71.31-55.63,81.36-138.67,82.74-162.8,1.67-29.07-1.22-86.06-39.28-141.09-.55-.8-1.11-1.6-1.67-2.39A205.34,205.34,0,0,0,3275,2380.59Z"/><ellipse class="cls-8" cx="3100.8" cy="2565.79" rx="174.82" ry="172.13" transform="translate(263 5419.76) rotate(-84.77)"/><g class="cls-4"><path d="M3242.75,2466.5c-61.15-69.49-164.57-80.29-234.71-28.9-76.31,55.9-93.11,170.65-30.81,250.24,0,0-75.68-69.94-38.68-180.12,0,0,15.39-53.17,68.15-88.12a174.69,174.69,0,0,1,66.2-26.26,172.57,172.57,0,0,1,66.07,1.54C3198.6,2408.35,3232.86,2452.66,3242.75,2466.5Z"/></g><g class="cls-9"><path class="cls-3" d="M3242.74,2466.5s55.27,69.81,17,166.05S3123.52,2739,3123.52,2739s-85.92,13.71-146.73-51.19c0,0,86.7,106.21,210.45,40.59S3296,2523.29,3242.74,2466.5Z"/></g><g class="cls-4"><path d="M3145.66,2546.79l-21-3.29a3,3,0,0,1-2.55-3.15c.27-5.17-.57-16.11-12.14-18.36-15.26-3-18.54-.57-18.54-.57s-9.81,3.12-9.1,17.21,13.75,12.63,33.36,25,21.74,17.37,25,30.11c0,0,2.66,20.21-10.63,34.44s-34,12.74-34,12.74-35.38-.88-46.57-22.43c0,0-5.88-9.81-4-26.4a4.28,4.28,0,0,1,4.93-3.73l17.61,2.75a3.8,3.8,0,0,1,3.2,4.09c-.49,5.43-.23,15.74,7.84,20.35,11.22,6.41,23.3,3.64,23.3,3.64s12.47-1.54,11.91-20.27-42.39-19.43-53.7-43.92,8.16-44.73,8.16-44.73,12.9-15.45,45-8.68,33.43,32,33.43,32a39.34,39.34,0,0,1-.08,12.19,1.24,1.24,0,0,1-1.4,1Z"/></g><g class="cls-4"><path d="M3090.74,2510.74l3.48-22.27a2.11,2.11,0,0,1,2.41-1.76l24.82,3.88a2.11,2.11,0,0,1,1.76,2.41l-3,19.19a2.12,2.12,0,0,1-2.15,1.79l-25.31-.8A2.11,2.11,0,0,1,3090.74,2510.74Z"/></g><g class="cls-4"><path d="M3101.77,2630.7l-3.66,22.24a2.1,2.1,0,0,1-2.42,1.74l-24.79-4.07a2.12,2.12,0,0,1-1.74-2.43l3.15-19.16a2.11,2.11,0,0,1,2.16-1.77l25.3,1A2.1,2.1,0,0,1,3101.77,2630.7Z"/></g><path class="cls-7" d="M3139.69,2546.26l-21-3.29a3,3,0,0,1-2.55-3.15c.27-5.17-.57-16.11-12.14-18.36-15.26-3-18.54-.57-18.54-.57s-9.81,3.12-9.1,17.21,13.75,12.63,33.36,25,21.74,17.38,25,30.12c0,0,2.66,20.21-10.62,34.44s-34,12.74-34,12.74-35.39-.88-46.58-22.43c0,0-5.88-9.81-4-26.4a4.29,4.29,0,0,1,4.93-3.73l17.61,2.75a3.79,3.79,0,0,1,3.2,4.09c-.49,5.43-.23,15.74,7.84,20.35,11.22,6.41,23.3,3.64,23.3,3.64s12.47-1.54,11.91-20.27-42.39-19.44-53.7-43.92,8.16-44.73,8.16-44.73,12.9-15.45,45-8.68,33.43,32,33.43,32a39.29,39.29,0,0,1-.08,12.18,1.23,1.23,0,0,1-1.39,1Z"/><path class="cls-7" d="M3084.76,2510.21l3.48-22.27a2.11,2.11,0,0,1,2.41-1.76l24.82,3.88a2.11,2.11,0,0,1,1.76,2.41l-3,19.19a2.11,2.11,0,0,1-2.15,1.79l-25.31-.8A2.11,2.11,0,0,1,3084.76,2510.21Z"/><path class="cls-7" d="M3095.79,2630.17l-3.65,22.24a2.12,2.12,0,0,1-2.43,1.74l-24.79-4.07a2.12,2.12,0,0,1-1.74-2.43l3.15-19.17a2.11,2.11,0,0,1,2.17-1.76l25.29,1A2.1,2.1,0,0,1,3095.79,2630.17Z"/><path class="cls-7" d="M2883.79,1031.35,3075.72,930a39.17,39.17,0,0,1,52.92,16.34l24.61,46.6a39.17,39.17,0,0,1-16.34,52.92l-410.64,216.88a39.17,39.17,0,0,1-52.92-16.34l-24.61-46.6a39.16,39.16,0,0,1,16.34-52.92Z"/><path d="M2708.07,1284.74a56.7,56.7,0,0,1-50.19-30.19l-24.62-46.6a56.72,56.72,0,0,1,23.65-76.56l410.64-216.88a56.65,56.65,0,0,1,76.56,23.64l24.61,46.6a56.72,56.72,0,0,1-23.64,76.56l-410.64,216.88A56.34,56.34,0,0,1,2708.07,1284.74ZM3094,942.94a21.58,21.58,0,0,0-10.09,2.52l-410.64,216.87a21.7,21.7,0,0,0-9,29.27l24.62,46.6a21.67,21.67,0,0,0,29.26,9l410.65-216.88a21.68,21.68,0,0,0,9-29.27l-24.61-46.6a21.53,21.53,0,0,0-12.76-10.58A21.78,21.78,0,0,0,3094,942.94Z"/><g class="cls-10"><rect class="cls-11" x="2852.64" y="996.1" width="228.27" height="131.02" transform="translate(-152.38 1508.39) rotate(-27.84)"/></g><g class="cls-2"><polygon class="cls-3" points="2794.58 1078.46 2855.77 1194.32 2778.53 1235.11 2715.78 1116.3 2794.58 1078.46"/></g><g class="cls-2"><polygon class="cls-3" points="2703.44 1126.6 2764.63 1242.45 2738.37 1256.32 2675.61 1137.51 2703.44 1126.6"/></g><path d="M2708.07,1284.74a56.7,56.7,0,0,1-50.19-30.19l-24.62-46.6a56.72,56.72,0,0,1,23.65-76.56l410.64-216.88a56.65,56.65,0,0,1,76.56,23.64l24.61,46.6a56.72,56.72,0,0,1-23.64,76.56l-410.64,216.88A56.34,56.34,0,0,1,2708.07,1284.74ZM3094,942.94a21.58,21.58,0,0,0-10.09,2.52l-410.64,216.87a21.7,21.7,0,0,0-9,29.27l24.62,46.6a21.67,21.67,0,0,0,29.26,9l410.65-216.88a21.68,21.68,0,0,0,9-29.27l-24.61-46.6a21.53,21.53,0,0,0-12.76-10.58A21.78,21.78,0,0,0,3094,942.94Z"/><ellipse class="cls-12" cx="1551.47" cy="2396.47" rx="96.09" ry="74.71" transform="translate(-1296.12 2599.84) rotate(-61.17)"/><path d="M1534.64,2498.11a71,71,0,0,1-31.1-7c-17.35-8.37-30.58-23.91-37.27-43.75-9-26.87-5.78-58.91,9-87.89,12.64-24.82,32.22-44.52,55.13-55.5,23.74-11.37,48.26-12.11,69-2.08,17.35,8.38,30.58,23.92,37.27,43.76,9,26.87,5.78,58.91-9,87.89-12.64,24.82-32.22,44.52-55.13,55.5A87.93,87.93,0,0,1,1534.64,2498.11Zm33.56-183.26c-27.87,0-58.28,20.55-75.13,53.66-12.34,24.22-15.19,50.62-7.85,72.43,5,14.92,14.37,26,27,32.14a51.42,51.42,0,0,0,22.5,5c27.88,0,58.29-20.55,75.14-53.66,12.33-24.22,15.19-50.62,7.84-72.43-5-14.92-14.36-26-27-32.14A51.44,51.44,0,0,0,1568.2,2314.85Z"/><path d="M1543.41,2449.09a37.92,37.92,0,0,1-16.59-3.72c-9.39-4.54-16.53-12.88-20.11-23.5-4.67-13.87-3-30.3,4.49-45.08,13.64-26.8,42.77-39.9,64.92-29.21,9.39,4.54,16.53,12.88,20.11,23.5,4.67,13.87,3,30.3-4.49,45.07C1581.33,2436.62,1561.88,2449.09,1543.41,2449.09Zm16-85.27c-11,0-23.51,8.62-30.35,22-5,9.87-6.28,20.94-3.35,29.62,1.3,3.87,4.07,9.08,9.84,11.86,12.22,5.9,29.81-3.38,38.41-20.27h0c5-9.87,6.28-20.94,3.35-29.62-1.3-3.87-4.07-9.08-9.84-11.87A18.5,18.5,0,0,0,1559.37,2363.82Z"/><g class="cls-4"><path d="M1612,2330c2.58,52.25-17.94,96.49-51.63,110.76-4.87,2.07-27.25,11.54-51,1.15-27.94-12.22-35.42-42-36.32-45.91a78.09,78.09,0,0,0,0,40c1.58,5.86,6.51,24.24,21.84,36.14,29,22.51,72.15,4.06,81.16-.14,8.34-3.88,38-18.27,50.53-52.62C1643.32,2373.45,1614.42,2333.25,1612,2330Z"/></g><g class="cls-4"><path d="M1522,2415c1.91-17.83,13.62-34.2,27.92-39.84,11.47-4.53,23.15-1.57,30.5,7.46-2.94-21.33-22.29-30-38.78-21.16C1524.92,2370.47,1514.15,2396,1522,2415Z"/></g><ellipse class="cls-12" cx="743.96" cy="1999.67" rx="58.13" ry="74.77" transform="translate(-874.12 608.99) rotate(-28.91)"/><path d="M757,2080.89a65.61,65.61,0,0,1-15.52-1.89c-22-5.33-42.24-21.16-55.49-43.41-11.33-19-16.28-40.59-13.93-60.71,2.46-21,12.52-38,28.33-47.91,13.22-8.26,29.54-10.61,46-6.63,22,5.34,42.25,21.16,55.49,43.42h0c11.33,19,16.28,40.59,13.93,60.71-2.46,21-12.52,38-28.32,47.91A57.16,57.16,0,0,1,757,2080.89Zm-26.29-142.47a36.77,36.77,0,0,0-19.73,5.51c-22.62,14.13-26.13,50.65-7.81,81.43,10.52,17.66,26.2,30.13,43,34.21,11.32,2.74,21.92,1.3,30.67-4.16,22.62-14.12,26.12-50.65,7.8-81.42-10.52-17.67-26.2-30.13-43-34.21A46.12,46.12,0,0,0,730.75,1938.42Z"/><circle cx="746.73" cy="1999.22" r="21.1"/><g class="cls-4"><path d="M725.35,1932.24c35.45,20,56,51.87,51.45,80-.67,4.06-3.72,22.72-20.45,34.06-19.64,13.32-42.36,5.85-45.29,4.84a60.8,60.8,0,0,0,26.33,16.61c4.51,1.4,18.65,5.78,32.85.64,26.84-9.73,32.62-45.8,33.6-53.47.91-7.1,3.74-32.57-13.65-55.1C766.94,1929.67,728.49,1932,725.35,1932.24Z"/></g><path class="cls-3" d="M2855.45,1944.25l-97.83-6.65Z"/><path class="cls-3" d="M2855.46,1954.25c-.23,0-.46,0-.69,0l-97.83-6.65a10,10,0,1,1,1.36-19.95l97.83,6.65a10,10,0,0,1-.67,20Z"/><path class="cls-3" d="M2700.82,1930.64l-97.85-6.4Z"/><path class="cls-3" d="M2700.83,1940.65q-.33,0-.66,0l-97.85-6.4a10,10,0,1,1,1.31-20l97.84,6.41a10,10,0,0,1-.64,20Z"/><path class="cls-3" d="M2547.18,1917.14l-97.81-6.89Z"/><path class="cls-3" d="M2547.19,1927.14l-.71,0-97.81-6.88a10,10,0,1,1,1.4-20l97.81,6.88a10,10,0,0,1-.69,20Z"/><path class="cls-3" d="M2393.52,1905.05l-97.74-8Z"/><path class="cls-3" d="M2393.53,1915.05c-.28,0-.55,0-.83,0l-97.73-8a10,10,0,0,1,1.63-19.94l97.73,8a10,10,0,0,1-.8,20Z"/><path class="cls-3" d="M2236.29,1891.67l-97.82-6.84Z"/><path class="cls-3" d="M2236.3,1901.67l-.71,0-97.82-6.85a10,10,0,0,1,1.4-20l97.82,6.84a10,10,0,0,1-.69,20Z"/><path class="cls-3" d="M2088.39,1880l-97.72-8Z"/><path class="cls-3" d="M2088.4,1890l-.83,0-97.72-8a10,10,0,1,1,1.64-19.93l97.72,8a10,10,0,0,1-.81,20Z"/><path class="cls-3" d="M1937.28,1866l-97.71-8.25Z"/><path class="cls-3" d="M1937.29,1876l-.85,0-97.71-8.26a10,10,0,1,1,1.69-19.93l97.7,8.26a10,10,0,0,1-.83,20Z"/><path class="cls-3" d="M2299.58,3058.46l-97.69-8.42Z"/><path class="cls-3" d="M2299.59,3068.46a8.44,8.44,0,0,1-.87,0L2201,3060a10,10,0,1,1,1.72-19.93l97.69,8.43a10,10,0,0,1-.85,20Z"/><path class="cls-3" d="M2145.22,3042.05l-97.71-8.18Z"/><path class="cls-3" d="M2145.23,3052.05a7.87,7.87,0,0,1-.84,0l-97.71-8.17a10,10,0,1,1,1.66-19.93l97.72,8.17a10,10,0,0,1-.83,20Z"/><path class="cls-3" d="M1991.86,3025.76l-97.68-8.66Z"/><path class="cls-3" d="M1991.87,3035.76c-.3,0-.6,0-.9,0l-97.67-8.66a10,10,0,1,1,1.77-19.92l97.67,8.66a10,10,0,0,1-.87,20Z"/><path class="cls-3" d="M1838.43,3010.89l-97.57-9.74Z"/><path class="cls-3" d="M1838.45,3020.89c-.34,0-.67,0-1,0l-97.57-9.74a10,10,0,1,1,2-19.9l97.57,9.74a10,10,0,0,1-1,19.95Z"/><path class="cls-3" d="M1681.48,2994.65,1583.8,2986Z"/><path class="cls-3" d="M1681.49,3004.65a8.83,8.83,0,0,1-.89,0l-97.68-8.61a10,10,0,0,1,1.76-19.92l97.68,8.61a10,10,0,0,1-.87,20Z"/><path class="cls-3" d="M1533.82,2980.26l-97.57-9.81Z"/><path class="cls-3" d="M1533.83,2990.26a8.54,8.54,0,0,1-1-.05l-97.57-9.81a10,10,0,0,1,2-19.9l97.57,9.81a10,10,0,0,1-1,20Z"/><path class="cls-3" d="M1383,2963.58l-97.54-10Z"/><path class="cls-3" d="M1383,2973.58c-.35,0-.69,0-1,0l-97.54-10a10,10,0,1,1,2-19.9l97.55,10a10,10,0,0,1-1,19.95Z"/><path class="cls-3" d="M1238,2820.34a134.82,134.82,0,0,0,14,97Z"/><path class="cls-3" d="M1252,2927.39a10,10,0,0,1-8.72-5.08,144.79,144.79,0,0,1-15-104.23,10,10,0,1,1,19.48,4.52,124.78,124.78,0,0,0,13,89.87,10,10,0,0,1-8.69,14.92Z"/><path class="cls-3" d="M1647.5,1909.09l-46.92,63.73Z"/><path class="cls-3" d="M1600.58,1982.82a10,10,0,0,1-8-15.93l46.91-63.73a10,10,0,0,1,16.11,11.86l-46.91,63.73A10,10,0,0,1,1600.58,1982.82Z"/><path class="cls-3" d="M1576.13,2016.29,1530,2102.8Z"/><path class="cls-3" d="M1530,2112.8a10,10,0,0,1-8.82-14.71l46.17-86.5A10,10,0,1,1,1585,2021l-46.17,86.51A10,10,0,0,1,1530,2112.8Z"/><path class="cls-3" d="M1505.33,2152.91l-42.89,88.18Z"/><path class="cls-3" d="M1462.43,2251.09a10,10,0,0,1-9-14.38l42.89-88.17a10,10,0,1,1,18,8.75l-42.89,88.17A10,10,0,0,1,1462.43,2251.09Z"/><path class="cls-3" d="M1440.59,2293.09l-39.81,89.61Z"/><path class="cls-3" d="M1400.77,2392.7a10,10,0,0,1-9.13-14.06l39.81-89.61a10,10,0,1,1,18.28,8.12l-39.81,89.61A10,10,0,0,1,1400.77,2392.7Z"/><path class="cls-3" d="M1375.88,2437.56l-36.62,91Z"/><path class="cls-3" d="M1339.26,2538.52a10,10,0,0,1-9.27-13.73l36.61-91a10,10,0,1,1,18.55,7.47l-36.61,91A10,10,0,0,1,1339.26,2538.52Z"/><path class="cls-3" d="M1321.05,2576.84l-34.28,91.86Z"/><path class="cls-3" d="M1286.77,2678.7a10,10,0,0,1-9.37-13.49l34.29-91.87a10,10,0,0,1,18.73,7l-34.28,91.87A10,10,0,0,1,1286.77,2678.7Z"/><path class="cls-3" d="M1269.89,2709l-23,69Z"/><path class="cls-3" d="M1246.9,2788a10,10,0,0,1-9.49-13.16l23-69a10,10,0,1,1,19,6.33l-23,69A10,10,0,0,1,1246.9,2788Z"/><path class="cls-3" d="M1685.16,1885a134.74,134.74,0,0,1,93.41-29.83Z"/><path class="cls-3" d="M1685.17,1895a10,10,0,0,1-6.3-17.77,144.8,144.8,0,0,1,100.32-32,10,10,0,1,1-1.24,20,124.8,124.8,0,0,0-86.49,27.62A10,10,0,0,1,1685.17,1895Z"/><g class="cls-4"><path d="M2992,1838q-254.58,565.76-509.15,1131.52a305.65,305.65,0,0,1-308,175.58l-839.41-84.78c-5.7-.57-11.33-1.37-16.86-2.35-30.1-5.33-56.07-18-56.07-18a205.32,205.32,0,0,1-31.47-19c210.66-29.57,548.16-104.69,906-318C2616.58,2417.11,2876.2,2035.89,2992,1838Z"/></g><g class="cls-4"><path d="M1970.45,1626.33,1657,1618.12S1476,1619,1383,1803s-234.29,503.33-234.29,503.33L1022,2638l-12,103s-121-53-77-176,221.32-594.58,221.32-594.58l228.66-487,26-35.42a494.15,494.15,0,0,0,120,84.41c53.94,26.88,99.23,36.79,161,48.59C1763.34,1595,1858,1611.36,1970.45,1626.33Z"/></g><g class="cls-4"><path d="M1634,1368c162.68,135.14,383.5,164.42,559,75,198.06-100.91,248.73-307.28,255.79-338.22q11.1,290.61,22.21,581.22s-598-47-847-133Z"/></g></svg>