<?xml version="1.0" encoding="UTF-8" standalone="no"?><!DOCTYPE svg PUBLIC "-//W3C//DTD SVG 1.1//EN" "http://www.w3.org/Graphics/SVG/1.1/DTD/svg11.dtd"><svg width="100%" height="100%" viewBox="0 0 267 267" version="1.1" xmlns="http://www.w3.org/2000/svg" xmlns:xlink="http://www.w3.org/1999/xlink" xml:space="preserve" xmlns:serif="http://www.serif.com/" style="fill-rule:evenodd;clip-rule:evenodd;stroke-linejoin:round;stroke-miterlimit:2;"><path d="M87.177,86.492c0,-1.151 -0.932,-2.084 -2.083,-2.084l-36.775,0c-18.619,0 -33.736,15.117 -33.736,33.736l0,42.578c0,18.619 15.117,33.736 33.736,33.736c-0,-0 1.244,-0 2.887,0.078c0.033,0.002 0.066,0.002 0.099,0.002c1.784,0 3.489,0.731 4.719,2.021c1.231,1.29 1.879,3.028 1.795,4.809c-0.001,0.004 -0.001,0.008 -0.001,0.012c-0.174,4.161 -0.867,7.807 -1.715,10.846c-0.91,2.918 -0.001,6.055 2.301,8.006c2.313,1.96 5.578,2.336 8.276,0.952c0.004,-0.001 0.007,-0.003 0.01,-0.004c9.879,-5.127 16.498,-13.893 20.82,-22.929c0.002,-0.003 0.003,-0.006 0.005,-0.01c1.09,-2.309 3.413,-3.782 5.967,-3.783c0,-0 28.387,-0 28.387,-0c13.429,-0 25.037,-7.864 30.464,-19.236c0.308,-0.646 0.263,-1.404 -0.118,-2.009c-0.382,-0.605 -1.047,-0.972 -1.762,-0.972l-27.219,0c-19.9,0 -36.057,-16.156 -36.057,-36.056c0,-0 0,-49.693 0,-49.693Z" style="fill:#1f96db;"/><path d="M76.818,84.408c-1.388,4.07 -2.141,8.433 -2.141,12.971l0,51.306c0,22.199 18.024,40.223 40.223,40.223l25.503,-0c5.121,-3.376 9.268,-8.109 11.93,-13.686c0.308,-0.646 0.263,-1.404 -0.118,-2.009c-0.382,-0.605 -1.047,-0.972 -1.762,-0.972l-27.219,0c-19.9,0 -36.057,-16.156 -36.057,-36.056c0,-0 0,-49.693 0,-49.693c0,-1.151 -0.932,-2.084 -2.083,-2.084l-8.276,0Z" style="fill:#1f7db3;"/><circle cx="53.977" cy="139.433" r="9.998" style="fill:#474966;"/><path d="M87.192,149.129c0.552,-0.138 1.022,-0.496 1.303,-0.99c0.281,-0.494 0.348,-1.082 0.185,-1.627c-0.978,-3.273 -1.503,-6.739 -1.503,-10.327c0,-0 0,-4.659 0,-4.659c0,-1.116 -0.879,-2.033 -1.993,-2.081c-0.143,-0.007 -0.288,-0.01 -0.434,-0.01c-5.518,0 -9.997,4.48 -9.997,9.998c-0,5.518 4.479,9.998 9.997,9.998c0.843,-0 1.661,-0.105 2.442,-0.302Z" style="fill:#38394b;"/><path d="M199.987,185.194c-0,-0.004 -0,-0.008 -0.001,-0.012c-0.107,-2.262 0.717,-4.47 2.28,-6.11c1.563,-1.639 3.73,-2.567 5.995,-2.567c0.033,0 0.066,-0.001 0.099,-0.002c1.992,-0.095 3.5,-0.095 3.5,-0.095c22.2,-0 40.223,-18.024 40.223,-40.223l0,-51.306c0,-22.2 -18.023,-40.223 -40.223,-40.223c0,-0 -88.626,-0 -88.626,-0c-22.2,-0 -40.223,18.023 -40.223,40.223l-0,51.306c-0,22.199 18.023,40.223 40.223,40.223l34.206,-0c3.242,0.001 6.192,1.872 7.576,4.804c0.002,0.003 0.003,0.007 0.005,0.01c5.17,10.808 13.082,21.3 24.899,27.433c0.003,0.002 0.006,0.003 0.01,0.005c3.097,1.588 6.846,1.156 9.502,-1.094c2.648,-2.244 3.69,-5.856 2.648,-9.164c-1.032,-3.687 -1.88,-8.131 -2.093,-13.208Z" style="fill:#cfebfb;"/><path d="M137.722,98.663c-0,1.15 0.933,2.083 2.083,2.083l11.621,0c1.151,0 2.084,-0.933 2.084,-2.083l-0,-6.325c-0,-7.752 6.285,-14.037 14.037,-14.037c7.752,0 14.037,6.285 14.037,14.037c0,0 0,6.325 0,6.325c0,1.15 0.933,2.083 2.084,2.083l11.621,0c1.15,0 2.083,-0.933 2.083,-2.083l0,-6.325c-0,-16.472 -13.353,-29.825 -29.825,-29.825c-16.472,0 -29.825,13.353 -29.825,29.825c-0,0 -0,6.325 -0,6.325Z" style="fill:#474966;"/><path d="M208.01,108.154c-0,-3.07 -1.22,-6.014 -3.39,-8.185c-2.171,-2.17 -5.115,-3.39 -8.184,-3.39c-14.754,0 -43.024,0 -57.778,0c-3.069,0 -6.013,1.22 -8.184,3.39c-2.171,2.171 -3.39,5.115 -3.39,8.185c0,6.061 0,14.239 0,22.143c0,7.493 2.977,14.679 8.275,19.978c5.298,5.298 12.485,8.275 19.978,8.275c7.884,-0 16.536,-0 24.42,-0c7.493,-0 14.68,-2.977 19.978,-8.275c5.298,-5.299 8.275,-12.485 8.275,-19.978l-0,-22.143Z" style="fill:#fcb73e;"/><path d="M208.01,130.317l-80.926,-0c0.005,7.486 2.981,14.664 8.275,19.958c5.298,5.298 12.485,8.275 19.978,8.275c7.884,-0 16.536,-0 24.42,-0c7.493,-0 14.68,-2.977 19.978,-8.275c5.294,-5.294 8.27,-12.472 8.275,-19.958Z" style="fill:#f8952e;"/></svg>