<?xml version="1.0" encoding="UTF-8" standalone="no"?><!DOCTYPE svg PUBLIC "-//W3C//DTD SVG 1.1//EN" "http://www.w3.org/Graphics/SVG/1.1/DTD/svg11.dtd"><svg width="100%" height="100%" viewBox="0 0 267 267" version="1.1" xmlns="http://www.w3.org/2000/svg" xmlns:xlink="http://www.w3.org/1999/xlink" xml:space="preserve" xmlns:serif="http://www.serif.com/" style="fill-rule:evenodd;clip-rule:evenodd;stroke-linejoin:round;stroke-miterlimit:2;"><path d="M88.275,175.914c-0.482,-0.988 -1.65,-1.431 -2.666,-1.012c-4.497,1.853 -8.63,4.587 -12.136,8.093c-6.98,6.98 -10.901,16.447 -10.901,26.319l-0,0.006c-0,9.03 7.32,16.349 16.349,16.349c13.989,0 35.197,0 49.186,0c9.03,0 16.349,-7.319 16.349,-16.349c0,-0.002 0,-0.004 0,-0.006c0,-9.872 -3.921,-19.339 -10.901,-26.319c-3.506,-3.506 -7.639,-6.24 -12.136,-8.093c-1.016,-0.419 -2.184,0.024 -2.666,1.012c-2.752,5.641 -8.545,9.531 -15.239,9.531c-6.694,0 -12.487,-3.89 -15.239,-9.531Z" style="fill:#2e77cf;"/><path d="M40.286,96.276c-0.482,-0.988 -1.649,-1.431 -2.666,-1.012c-4.496,1.853 -8.629,4.587 -12.135,8.093c-6.98,6.98 -10.902,16.447 -10.902,26.319l0,0.006c0,9.03 7.32,16.349 16.35,16.349c13.989,0 35.197,0 49.186,0c9.029,0 16.349,-7.319 16.349,-16.349c-0,-0.002 -0,-0.004 -0,-0.006c0,-9.872 -3.921,-19.339 -10.902,-26.319c-3.506,-3.506 -7.639,-6.24 -12.135,-8.093c-1.017,-0.419 -2.184,0.024 -2.666,1.012c-2.753,5.641 -8.545,9.531 -15.239,9.531c-6.695,0 -12.487,-3.89 -15.24,-9.531Z" style="fill:#2e77cf;"/><path d="M85.105,175.114c4.047,8.881 13.169,15.246 23.132,15.246c8.845,0 16.028,-5.015 19.127,-12.355c-1.888,-1.213 -3.878,-2.251 -5.945,-3.103c-1.016,-0.419 -2.184,0.024 -2.666,1.012c-2.752,5.641 -8.545,9.531 -15.239,9.531c-6.694,0 -12.487,-3.89 -15.239,-9.531c-0.482,-0.988 -1.65,-1.431 -2.666,-1.012c-0.169,0.069 -0.337,0.14 -0.504,0.212Z" style="fill:#2f6eb9;"/><circle cx="103.514" cy="168.5" r="21.112" style="fill:#ffc7b4;"/><path d="M35.699,96.12c3.368,9.827 12.922,17.101 23.525,17.101c9.802,0 17.621,-6.217 20.05,-14.919c-1.858,-1.186 -3.813,-2.202 -5.843,-3.038c-1.017,-0.419 -2.184,0.024 -2.666,1.012c-2.753,5.641 -8.545,9.531 -15.239,9.531c-6.695,0 -12.487,-3.89 -15.24,-9.531c-0.482,-0.988 -1.649,-1.431 -2.666,-1.012c-0.648,0.267 -1.289,0.552 -1.921,0.856Z" style="fill:#2f6eb9;"/><circle cx="55.526" cy="88.862" r="21.112" style="fill:#ffc7b4;"/><path d="M159.539,183.137l-0,4.602c-0,3.542 2.134,6.736 5.406,8.091c3.272,1.355 7.039,0.606 9.544,-1.898l12.983,-12.984c0.581,-0.58 1.368,-0.906 2.189,-0.906l46.235,-0c8.94,-0 16.187,-7.248 16.187,-16.187c0,-8.292 0,-18.741 0,-27.033c0,-8.939 -7.247,-16.187 -16.187,-16.187c-21.798,0 -63.428,0 -85.226,0c-8.94,0 -16.187,7.248 -16.187,16.187c0,8.292 0,18.741 0,27.033c0,8.939 7.247,16.187 16.187,16.187c0,-0 2.94,-0 5.774,-0c1.709,-0 3.095,1.385 3.095,3.095Z" style="fill:#69d17d;"/><path d="M111.551,103.499l-0,4.602c-0,3.542 2.133,6.735 5.406,8.091c3.272,1.355 7.039,0.606 9.543,-1.898l12.984,-12.984c0.58,-0.58 1.368,-0.907 2.188,-0.907l46.236,0c8.94,0 16.187,-7.247 16.187,-16.187c-0,-8.291 -0,-18.74 -0,-27.032c-0,-8.94 -7.247,-16.187 -16.187,-16.187c-21.798,0 -63.428,0 -85.226,0c-8.94,0 -16.187,7.247 -16.187,16.187c-0,8.292 -0,18.741 -0,27.032c-0,8.94 7.247,16.187 16.187,16.187c-0,0 2.94,0 5.773,0c1.71,0 3.095,1.386 3.096,3.096Z" style="fill:#2da2e6;"/><circle cx="166.485" cy="150.338" r="8.333" style="fill:#fff;"/><circle cx="193.283" cy="150.338" r="8.333" style="fill:#fff;"/><circle cx="220.081" cy="150.338" r="8.333" style="fill:#fff;"/><circle cx="118.497" cy="70.7" r="8.333" style="fill:#fff;"/><circle cx="145.295" cy="70.7" r="8.333" style="fill:#fff;"/><circle cx="172.093" cy="70.7" r="8.333" style="fill:#fff;"/></svg>