<?xml version="1.0" encoding="UTF-8" standalone="no"?><!DOCTYPE svg PUBLIC "-//W3C//DTD SVG 1.1//EN" "http://www.w3.org/Graphics/SVG/1.1/DTD/svg11.dtd"><svg width="100%" height="100%" viewBox="0 0 267 267" version="1.1" xmlns="http://www.w3.org/2000/svg" xmlns:xlink="http://www.w3.org/1999/xlink" xml:space="preserve" xmlns:serif="http://www.serif.com/" style="fill-rule:evenodd;clip-rule:evenodd;stroke-linejoin:round;stroke-miterlimit:2;"><path d="M47.096,181.169l-6.661,1.438c-12.926,2.79 -21.32,15.315 -18.985,28.331c1.279,7.133 2.704,15.079 3.94,21.971c2.098,11.7 12.277,20.216 24.164,20.216c13.235,-0 31.173,-0 44.407,-0c11.887,0 22.066,-8.516 24.165,-20.216c1.236,-6.892 2.661,-14.838 3.94,-21.971c2.334,-13.016 -6.06,-25.541 -18.985,-28.331c-0,0 -6.661,-1.438 -6.661,-1.438c2.124,-5.265 3.315,-10.733 3.315,-15.435c-0,-15.441 -12.536,-27.977 -27.977,-27.977c-15.441,0 -27.977,12.536 -27.977,27.977c-0,4.702 1.191,10.17 3.314,15.435l0.001,0Zm123.151,0l-6.661,1.438c-12.926,2.79 -21.319,15.315 -18.985,28.331c1.279,7.133 2.704,15.079 3.94,21.971c2.098,11.7 12.278,20.216 24.164,20.216c13.235,-0 31.173,-0 44.407,-0c11.887,0 22.066,-8.516 24.165,-20.216c1.236,-6.892 2.661,-14.838 3.94,-21.971c2.334,-13.016 -6.06,-25.541 -18.985,-28.331c0,0 -6.661,-1.438 -6.661,-1.438c2.124,-5.265 3.315,-10.733 3.315,-15.435c-0,-15.441 -12.536,-27.977 -27.977,-27.977c-15.441,0 -27.977,12.536 -27.977,27.977c-0,4.702 1.191,10.17 3.314,15.435l0.001,0Z" style="fill:#3596ed;"/><path d="M96.441,181.174c-0.244,0.532 -0.496,1.061 -0.758,1.585c-1.163,2.328 -2.482,4.563 -3.969,6.579c-1.736,2.353 -3.634,4.434 -5.762,5.984c-2.26,1.647 -4.672,2.803 -7.32,2.983c-1.007,0 -1.824,0.817 -1.824,1.824c-0,1.007 0.817,1.824 1.824,1.824c4.082,0.271 8.045,-1.12 11.699,-3.595c2.125,-1.439 4.11,-3.283 5.92,-5.397c2.598,-3.035 4.799,-6.65 6.508,-10.423l-6.318,-1.364Zm123.151,-0c-0.243,0.532 -0.496,1.061 -0.758,1.585c-1.163,2.328 -2.482,4.563 -3.969,6.579c-1.736,2.353 -3.634,4.434 -5.762,5.984c-2.26,1.647 -4.672,2.803 -7.32,2.983c-1.007,0 -1.824,0.817 -1.824,1.824c-0,1.007 0.817,1.824 1.824,1.824c4.082,0.271 8.045,-1.12 11.699,-3.595c2.125,-1.439 4.11,-3.283 5.92,-5.397c2.598,-3.035 4.799,-6.65 6.508,-10.423l-6.318,-1.364Z" style="fill:#3265e5;"/><path d="M61.189,119.792l4.337,6.575c2.844,4.311 7.663,6.906 12.828,6.906c5.165,-0 9.984,-2.595 12.828,-6.906c-0,-0 4.337,-6.575 4.337,-6.575c-0,-0 75.629,-0 75.629,-0c-0,-0 4.337,6.575 4.337,6.575c2.844,4.311 7.663,6.906 12.828,6.906c5.165,-0 9.984,-2.595 12.828,-6.906c-0,-0 4.337,-6.575 4.337,-6.575c-0,-0 5.523,-0 5.523,-0c23.216,-0 42.064,-18.848 42.064,-42.064c-0,0 -0,-19.887 -0,-19.887c-0,-23.215 -18.848,-42.063 -42.064,-42.063l-155.336,-0c-23.215,-0 -42.063,18.848 -42.063,42.063c0,0 0,19.887 0,19.887c0,23.216 18.848,42.064 42.063,42.064l5.524,-0Z" style="fill:#bddef5;"/><path d="M81.467,47.612c0.001,-2.532 -1.165,-4.924 -3.162,-6.482c-1.996,-1.558 -4.599,-2.109 -7.056,-1.493c-0.007,0.002 -0.015,0.004 -0.022,0.006c-12.534,3.242 -21.827,14.608 -21.827,28.142c0,15.973 12.969,28.941 28.942,28.941c13.543,0 24.912,-9.303 28.069,-21.867c0.001,-0 0.001,-0.001 0.001,-0.001c0.61,-2.433 0.065,-5.011 -1.478,-6.988c-1.53,-1.961 -3.873,-3.114 -6.358,-3.133c-2.492,-0.077 -5.309,-0.077 -7.4,-0.077c-0.001,-0 -0.002,-0 -0.003,-0c-3.195,0.004 -5.983,2.167 -6.779,5.261c-0.684,2.652 -3.162,4.505 -6.052,4.505c-3.666,0 -6.642,-2.976 -6.642,-6.641c0,-2.916 1.878,-5.394 4.492,-6.287c2.934,-0.809 4.953,-3.39 5.033,-6.368c0.233,-2.104 0.242,-4.977 0.242,-7.518l-0,0Z" style="fill:#3596ed;"/><path d="M217.266,81.671c0,-5.175 -4.201,-9.375 -9.375,-9.375l-81.53,-0c-5.174,-0 -9.375,4.2 -9.375,9.375c0,5.174 4.201,9.375 9.375,9.375c0,-0 81.53,-0 81.53,-0c5.174,-0 9.375,-4.201 9.375,-9.375Z" style="fill:#66bc6a;"/><path d="M217.266,53.899c0,-5.174 -4.201,-9.375 -9.375,-9.375l-81.53,-0c-5.174,-0 -9.375,4.201 -9.375,9.375c0,5.174 4.201,9.375 9.375,9.375l81.53,-0c5.174,-0 9.375,-4.201 9.375,-9.375Z" style="fill:#66bc6a;"/></svg>