<?xml version="1.0" encoding="UTF-8" standalone="no"?><!DOCTYPE svg PUBLIC "-//W3C//DTD SVG 1.1//EN" "http://www.w3.org/Graphics/SVG/1.1/DTD/svg11.dtd"><svg width="100%" height="100%" viewBox="0 0 267 267" version="1.1" xmlns="http://www.w3.org/2000/svg" xmlns:xlink="http://www.w3.org/1999/xlink" xml:space="preserve" xmlns:serif="http://www.serif.com/" style="fill-rule:evenodd;clip-rule:evenodd;stroke-linejoin:round;stroke-miterlimit:2;"><path d="M126.043,221.772l-0.001,-0.001c-0,7.366 5.98,13.346 13.346,13.346l100.391,0c7.366,0 13.346,-5.98 13.346,-13.346l0,-1.606c0,-7.366 -5.98,-13.346 -13.346,-13.346l-100.391,-0c-7.366,-0 -13.346,5.98 -13.346,13.346l0.001,1.607Zm-0,-39.621l-0.001,-0.001c-0,7.366 5.98,13.346 13.346,13.346l100.391,0c7.366,0 13.346,-5.98 13.346,-13.346l0,-1.606c0,-7.366 -5.98,-13.346 -13.346,-13.346c-0,-0 -100.391,-0 -100.391,-0c-7.366,-0 -13.346,5.98 -13.346,13.346l0.001,1.607Zm-0,-39.621l-0.001,-0.001c-0,7.366 5.98,13.346 13.346,13.346c-0,0 100.391,0 100.391,0c7.366,0 13.346,-5.98 13.346,-13.346l0,-1.606c0,-7.366 -5.98,-13.346 -13.346,-13.346c-0,-0 -100.391,-0 -100.391,-0c-7.366,-0 -13.346,5.98 -13.346,13.346l0.001,1.607Z" style="fill:#75b5ee;"/><path d="M48.177,170.154c-0.687,-1.152 -2.032,-1.737 -3.343,-1.454l-11.474,2.477c-13.222,2.854 -21.808,15.667 -19.421,28.98c1.313,7.321 2.776,15.475 4.044,22.549c2.147,11.968 12.559,20.679 24.718,20.679c13.583,0 31.992,0 45.574,0c12.16,0 22.572,-8.711 24.719,-20.679c1.268,-7.074 2.731,-15.228 4.043,-22.549c2.388,-13.313 -6.198,-26.126 -19.42,-28.98c0,-0 -11.475,-2.477 -11.475,-2.477c-1.31,-0.283 -2.655,0.302 -3.342,1.454c-4.309,7.219 -10.352,13.13 -17.312,13.13c-6.959,0 -13.003,-5.911 -17.311,-13.13Z" style="fill:#087ce6;"/><path d="M79.231,211.454l17.487,-0c1.725,-0 3.125,-1.401 3.125,-3.125c0,-1.725 -1.4,-3.125 -3.125,-3.125l-17.487,-0c-1.725,-0 -3.125,1.4 -3.125,3.125c-0,1.724 1.4,3.125 3.125,3.125Z" style="fill:#e7f2fd;"/><path d="M126.601,27.652c-4.456,7.533 -10.295,17.404 -10.295,17.404c-0.05,0.083 -0.116,0.156 -0.194,0.213c-0.079,0.057 -0.168,0.097 -0.263,0.118c0,0 -11.191,2.503 -19.733,4.414c-3.071,0.686 -5.552,2.944 -6.525,5.937c-0.972,2.993 -0.292,6.277 1.789,8.638c5.787,6.566 13.371,15.17 13.371,15.17c0.064,0.073 0.112,0.158 0.142,0.25c0.03,0.092 0.041,0.19 0.032,0.286c-0,0 -1.078,11.418 -1.901,20.132c-0.296,3.133 1.085,6.189 3.631,8.039c2.546,1.85 5.88,2.219 8.768,0.969c8.033,-3.475 18.559,-8.029 18.559,-8.029c0.089,-0.038 0.185,-0.058 0.282,-0.058c0.097,-0 0.193,0.02 0.282,0.058c-0,0 10.525,4.554 18.559,8.029c2.888,1.25 6.222,0.881 8.768,-0.969c2.546,-1.85 3.926,-4.906 3.63,-8.04c-0.822,-8.713 -1.9,-20.131 -1.9,-20.131c-0.009,-0.096 0.001,-0.194 0.031,-0.286c0.03,-0.092 0.079,-0.177 0.143,-0.25c-0,-0 7.583,-8.604 13.371,-15.17c2.081,-2.361 2.761,-5.645 1.788,-8.638c-0.972,-2.993 -3.453,-5.251 -6.524,-5.937c-8.542,-1.911 -19.734,-4.414 -19.734,-4.414c-0.095,-0.021 -0.184,-0.061 -0.262,-0.118c-0.079,-0.057 -0.145,-0.13 -0.194,-0.213c-0,-0 -5.839,-9.871 -10.295,-17.404c-1.603,-2.709 -4.516,-4.37 -7.663,-4.37c-3.147,-0 -6.061,1.661 -7.663,4.37l-0,-0Z" style="fill:#f68c1e;"/><path d="M126.043,221.772l-0.001,-0.001c-0,7.366 5.98,13.346 13.346,13.346l33.724,0c7.366,0 13.346,-5.98 13.346,-13.346l0,-1.606c0,-7.366 -5.98,-13.346 -13.346,-13.346l-33.724,-0c-7.366,-0 -13.346,5.98 -13.346,13.346l0.001,1.607Z" style="fill:#068bf8;"/><path d="M126.043,182.151l-0.001,-0.001c-0,7.366 5.98,13.346 13.346,13.346l79.557,0c7.366,0 13.347,-5.98 13.347,-13.346l-0,-1.606c-0,-7.366 -5.981,-13.346 -13.347,-13.346c0,-0 -79.557,-0 -79.557,-0c-7.366,-0 -13.346,5.98 -13.346,13.346l0.001,1.607Z" style="fill:#ad1e59;"/><path d="M126.043,142.53l-0.001,-0.001c-0,7.366 5.98,13.346 13.346,13.346c-0,0 53.664,0 53.664,0c7.366,0 13.347,-5.98 13.347,-13.346l-0,-1.606c-0,-7.366 -5.981,-13.346 -13.347,-13.346c0,-0 -53.664,-0 -53.664,-0c-7.366,-0 -13.346,5.98 -13.346,13.346l0.001,1.607Z" style="fill:#59dc71;"/><path d="M65.488,119.309c-16.535,-0 -29.96,13.425 -29.96,29.96c0,9.516 4.599,21.945 11.733,30.354c5.083,5.992 11.447,9.911 18.227,9.911c6.781,0 13.144,-3.919 18.228,-9.911c7.134,-8.409 11.733,-20.838 11.733,-30.354c-0,-16.535 -13.425,-29.96 -29.961,-29.96Z" style="fill:#3596ed;"/></svg>