<svg id="Capa_1" enable-background="new 0 0 510 510" height="512" viewBox="0 0 510 510" width="512" xmlns="http://www.w3.org/2000/svg" xmlns:xlink="http://www.w3.org/1999/xlink"><linearGradient id="lg1"><stop offset="0" stop-color="#5a5a5a"/><stop offset="1" stop-color="#444"/></linearGradient><linearGradient id="SVGID_1_" gradientUnits="userSpaceOnUse" x1="234.783" x2="274.684" xlink:href="#lg1" y1="395.825" y2="395.825"/><linearGradient id="lg2"><stop offset="0" stop-color="#433f43" stop-opacity="0"/><stop offset="1" stop-color="#1a1a1a"/></linearGradient><linearGradient id="SVGID_00000105413926839139618750000010949685156017033398_" gradientUnits="userSpaceOnUse" x1="255" x2="255" xlink:href="#lg2" y1="424.489" y2="451.855"/><linearGradient id="SVGID_00000031204140904778615520000013527963128880624289_" gradientUnits="userSpaceOnUse" x1="270.982" x2="256.032" xlink:href="#lg2" y1="430.458" y2="359.553"/><linearGradient id="SVGID_00000036941903014434997900000001937302081562237837_" gradientUnits="userSpaceOnUse" x1="107.472" x2="425.001" xlink:href="#lg1" y1="71.562" y2="389.092"/><linearGradient id="SVGID_00000124150081907215790880000008158393818128919988_" gradientUnits="userSpaceOnUse" x1="322.347" x2="197.318" xlink:href="#lg1" y1="388.619" y2="73.89"/><linearGradient id="SVGID_00000058561842680162650260000014402379068371707041_" gradientUnits="userSpaceOnUse" x1="426.667" x2="377.329" xlink:href="#lg2" y1="120.13" y2="120.13"/><linearGradient id="SVGID_00000089554948776652255090000004829354769955466410_" gradientUnits="userSpaceOnUse" x1="255" x2="255" xlink:href="#lg2" y1="285.297" y2="394.792"/><linearGradient id="lg3"><stop offset="0" stop-color="#62dbfb"/><stop offset=".1912" stop-color="#57d5fa"/><stop offset=".5232" stop-color="#3bc5f7"/><stop offset=".954" stop-color="#0dabf2"/><stop offset="1" stop-color="#08a9f1"/></linearGradient><linearGradient id="SVGID_00000129207664344373258980000009531016346240465583_" gradientUnits="userSpaceOnUse" x1="230.035" x2="327.53" xlink:href="#lg3" y1="162.631" y2="383.12"/><linearGradient id="lg4"><stop offset="0" stop-color="#0593fc" stop-opacity="0"/><stop offset=".6831" stop-color="#0389fc" stop-opacity=".683"/><stop offset="1" stop-color="#0182fc"/></linearGradient><linearGradient id="SVGID_00000042716816292067982260000007486808496609623953_" gradientUnits="userSpaceOnUse" x1="482.789" x2="364.789" xlink:href="#lg4" y1="223.041" y2="217.707"/><linearGradient id="SVGID_00000160162537494281226380000015190098278789672108_" gradientUnits="userSpaceOnUse" x1="210.533" x2="254.533" xlink:href="#lg3" y1="252.096" y2="351.096"/><linearGradient id="SVGID_00000011728906476063781550000012586987718664673464_" gradientUnits="userSpaceOnUse" x1="255" x2="255" xlink:href="#lg4" y1="292" y2="356.944"/><linearGradient id="SVGID_00000038414667197951179880000001046997115826281111_" gradientUnits="userSpaceOnUse" x1="255" x2="255" xlink:href="#lg1" y1="450.402" y2="500.855"/><linearGradient id="SVGID_00000166661530656638917280000005255397833178376629_" gradientUnits="userSpaceOnUse" x1="255" x2="255" xlink:href="#lg2" y1="486.484" y2="508.307"/><linearGradient id="lg5"><stop offset="0" stop-color="#fe860a"/><stop offset=".2435" stop-color="#fb7c0e"/><stop offset=".6648" stop-color="#f55f19"/><stop offset="1" stop-color="#ef4424"/></linearGradient><linearGradient id="SVGID_00000156547649307224891690000012620902012698160543_" gradientUnits="userSpaceOnUse" x1="98.39" x2="140.89" xlink:href="#lg5" y1="171.738" y2="209.238"/><linearGradient id="lg6"><stop offset="0" stop-color="#ca2e43" stop-opacity="0"/><stop offset=".4202" stop-color="#c71e45" stop-opacity=".42"/><stop offset="1" stop-color="#c00148"/></linearGradient><linearGradient id="SVGID_00000128477987557857254660000013819321227575231627_" gradientUnits="userSpaceOnUse" x1="115" x2="115" xlink:href="#lg6" y1="215.947" y2="242.299"/><linearGradient id="SVGID_00000011033797307355096380000009576094668837695900_" gradientUnits="userSpaceOnUse" x1="371.014" x2="413.587" xlink:href="#lg5" y1="175.266" y2="217.84"/><linearGradient id="SVGID_00000114044889944187701580000006396010132090512801_" gradientTransform="matrix(-1 0 0 1 832 0)" gradientUnits="userSpaceOnUse" x1="437" x2="437" xlink:href="#lg6" y1="215.947" y2="242.299"/><linearGradient id="SVGID_00000080922471883226990330000009462773262202097561_" gradientUnits="userSpaceOnUse" x1="174.989" x2="333.968" y1="134.234" y2="241.11"><stop offset="0" stop-color="#ffdfcf"/><stop offset="1" stop-color="#ffa78f"/></linearGradient><linearGradient id="lg7"><stop offset="0" stop-color="#f89580" stop-opacity="0"/><stop offset=".2616" stop-color="#f1907b" stop-opacity=".262"/><stop offset=".6357" stop-color="#de826c" stop-opacity=".638"/><stop offset=".9972" stop-color="#c5715a"/></linearGradient><linearGradient id="SVGID_00000050654018039682747990000009980528428455528118_" gradientUnits="userSpaceOnUse" x1="255" x2="255" xlink:href="#lg7" y1="230.947" y2="272.366"/><linearGradient id="SVGID_00000129173380880548442010000006035185005021099922_" gradientUnits="userSpaceOnUse" x1="262.148" x2="286.587" xlink:href="#lg7" y1="235.896" y2="241.841"/><linearGradient id="SVGID_00000140730662706002495970000011632545508416469157_" gradientTransform="matrix(-1 0 0 1 510 0)" gradientUnits="userSpaceOnUse" x1="262.148" x2="286.587" y1="235.896" y2="241.841"><stop offset="0" stop-color="#ffddcd" stop-opacity="0"/><stop offset=".9972" stop-color="#ffddcd"/></linearGradient><linearGradient id="SVGID_00000092448155368416483870000002339480649841167551_" gradientUnits="userSpaceOnUse" x1="190.873" x2="214.92" xlink:href="#lg1" y1="198.847" y2="216.548"/><linearGradient id="SVGID_00000091713613715132285760000011595382856532185520_" gradientUnits="userSpaceOnUse" x1="295.362" x2="316.737" xlink:href="#lg1" y1="197.811" y2="213.842"/><linearGradient id="SVGID_00000045607275290246537570000017611037273900733618_" gradientUnits="userSpaceOnUse" x1="134.324" x2="162.324" xlink:href="#lg1" y1="95.064" y2="116.398"/><linearGradient id="SVGID_00000041263031402211583680000013599576630675933604_" gradientUnits="userSpaceOnUse" x1="241.521" x2="293.802" xlink:href="#lg1" y1="43.55" y2="136.824"/><linearGradient id="SVGID_00000107561267930564472960000010793775078802094988_" gradientUnits="userSpaceOnUse" x1="206.36" x2="259.36" y1="23.49" y2="142.49"><stop offset="0" stop-color="#aeffd1"/><stop offset=".1201" stop-color="#a3f9cb"/><stop offset=".3288" stop-color="#87eab9"/><stop offset=".6012" stop-color="#59d19d"/><stop offset=".9235" stop-color="#19af77"/><stop offset="1" stop-color="#09a76d"/></linearGradient><linearGradient id="lg8"><stop offset="0" stop-color="#02905d" stop-opacity="0"/><stop offset=".3274" stop-color="#028857" stop-opacity=".327"/><stop offset=".8532" stop-color="#027046" stop-opacity=".853"/><stop offset="1" stop-color="#026841"/></linearGradient><linearGradient id="SVGID_00000044860939780122343640000003898017457666953866_" gradientUnits="userSpaceOnUse" x1="364.318" x2="364.318" xlink:href="#lg8" y1="101.28" y2="159.495"/><linearGradient id="SVGID_00000091001447669021297200000001543492852400464299_" gradientUnits="userSpaceOnUse" x1="145.688" x2="145.688" xlink:href="#lg8" y1="101.28" y2="159.495"/><linearGradient id="SVGID_00000179641950885765341380000005894631214531594421_" gradientUnits="userSpaceOnUse" x1="174" x2="174" y1="214.781" y2="316.781"><stop offset="0" stop-color="#eaf9fa"/><stop offset="1" stop-color="#b3dafe"/></linearGradient><linearGradient id="SVGID_00000070117321554239561230000001143452429881536143_" gradientUnits="userSpaceOnUse" x1="211" x2="245.5" xlink:href="#lg1" y1="309.526" y2="309.526"/><g><g><g><path d="m328 458.516c-3.228-8.549-7.915-16.382-13.757-23.198-9.67-11.276-15.189-25.525-15.189-40.38v-61.805h-88.116v61.805c0 14.855-5.518 29.104-15.189 40.38-5.839 6.816-10.523 14.649-13.75 23.198z" fill="url(#SVGID_1_)"/><path d="m195.75 435.318c-5.839 6.816-10.523 14.649-13.75 23.198h146c-3.228-8.549-7.915-16.382-13.757-23.198-5.523-6.44-9.685-13.853-12.245-21.792h-94.003c-2.56 7.939-6.722 15.352-12.245 21.792z" fill="url(#SVGID_00000105413926839139618750000010949685156017033398_)"/><path d="m328 458.519h-46.52l-70.48-70.47-.06.01v-54.93h88.11v61.81c0 14.85 5.52 29.1 15.19 40.38 5.85 6.81 10.53 14.651 13.76 23.2z" fill="url(#SVGID_00000031204140904778615520000013527963128880624289_)"/></g><g><path d="m486.992 388.076h-463.984c-12.707 0-23.008-10.301-23.008-23.008v-291.955c0-12.707 10.301-23.008 23.008-23.008h463.983c12.707 0 23.008 10.301 23.008 23.008v291.954c.001 12.708-10.3 23.009-23.007 23.009z" fill="url(#SVGID_00000036941903014434997900000001937302081562237837_)"/><path d="m14.71 354.81v-271.439c0-8.262 6.698-14.959 14.96-14.959h450.66c8.262 0 14.96 6.698 14.96 14.96v271.438c0 8.262-6.698 14.96-14.96 14.96h-450.66c-8.262-.001-14.96-6.698-14.96-14.96z" fill="url(#SVGID_00000124150081907215790880000008158393818128919988_)"/><path d="m486.992 50.105h-160.992v140.05h184v-117.042c0-12.707-10.301-23.008-23.008-23.008z" fill="url(#SVGID_00000058561842680162650260000014402379068371707041_)"/><path d="m0 262.64v102.427c0 12.707 10.301 23.008 23.008 23.008h463.983c12.707 0 23.008-10.301 23.008-23.008v-102.427z" fill="url(#SVGID_00000089554948776652255090000004829354769955466410_)"/><path d="m32 338.604v-239.028c0-7.479 6.063-13.542 13.542-13.542h418.915c7.479 0 13.542 6.063 13.542 13.542v239.028c0 7.479-6.063 13.542-13.542 13.542h-418.915c-7.479.001-13.542-6.062-13.542-13.542z" fill="url(#SVGID_00000129207664344373258980000009531016346240465583_)"/><path d="m464.458 86.034h-138.458v266.113h138.458c7.479 0 13.542-6.063 13.542-13.542v-239.029c0-7.479-6.063-13.542-13.542-13.542z" fill="url(#SVGID_00000042716816292067982260000007486808496609623953_)"/><path d="m118.628 352.147h272.744c-19.853-38.204-59.783-64.303-105.813-64.303h-61.117c-46.031 0-85.961 26.099-105.814 64.303z" fill="url(#SVGID_00000160162537494281226380000015190098278789672108_)"/><path d="m118.628 352.147h272.744c-19.853-38.204-59.783-64.303-105.813-64.303h-61.117c-46.031 0-85.961 26.099-105.814 64.303z" fill="url(#SVGID_00000011728906476063781550000012586987718664673464_)"/></g><g><path d="m376.157 510h-242.314c-2.961 0-5.545-2.01-6.274-4.88l-7.391-29.112c-1.655-6.517-.236-13.299 3.893-18.606 4.128-5.307 10.353-8.351 17.076-8.351h227.705c6.724 0 12.948 3.044 17.077 8.351 4.128 5.307 5.547 12.089 3.892 18.606l-7.391 29.112c-.728 2.87-3.312 4.88-6.273 4.88z" fill="url(#SVGID_00000038414667197951179880000001046997115826281111_)"/><path d="m120.179 476.008 7.391 29.112c.729 2.87 3.312 4.88 6.274 4.88h242.314c2.961 0 5.544-2.01 6.273-4.88l7.391-29.112c.622-2.451.809-4.939.582-7.373h-270.807c-.228 2.433-.041 4.922.582 7.373z" fill="url(#SVGID_00000166661530656638917280000005255397833178376629_)"/></g></g><g><g><g><path d="m143 237.947h-33.333c-12.519 0-22.667-10.149-22.667-22.667v-45.333c0-12.518 10.148-22.667 22.667-22.667h33.333z" fill="url(#SVGID_00000156547649307224891690000012620902012698160543_)"/><path d="m87 189.28v26c0 12.518 10.148 22.667 22.667 22.667h33.333v-48.667z" fill="url(#SVGID_00000128477987557857254660000013819321227575231627_)"/></g><g><path d="m367 237.947h33.333c12.518 0 22.667-10.148 22.667-22.667v-45.333c0-12.518-10.148-22.667-22.667-22.667h-33.333z" fill="url(#SVGID_00000011033797307355096380000009576094668837695900_)"/><path d="m423 189.28v26c0 12.518-10.148 22.667-22.667 22.667h-33.333v-48.667z" fill="url(#SVGID_00000114044889944187701580000006396010132090512801_)"/></g></g><g><g><g><g><g><g><path d="m255 337.759c-65.821 0-119.179-53.358-119.179-119.178v-61.117c0-65.82 53.358-119.178 119.178-119.178 65.82 0 119.178 53.358 119.178 119.178v61.117c.001 65.821-53.357 119.178-119.177 119.178z" fill="url(#SVGID_00000080922471883226990330000009462773262202097561_)"/><g><path d="m261.584 265.858h-13.168c-10.974 0-19.282-9.917-17.36-20.721l6.186-34.778c.788-4.429 4.639-7.656 9.138-7.656h17.24c4.499 0 8.35 3.226 9.138 7.656l6.186 34.778c1.922 10.804-6.386 20.721-17.36 20.721z" fill="url(#SVGID_00000050654018039682747990000009980528428455528118_)"/><path d="m261.584 265.858h-13.168c-10.974 0-19.282-9.917-17.36-20.721l6.186-34.778c.788-4.429 4.639-7.656 9.138-7.656h17.24c4.499 0 8.35 3.226 9.138 7.656l6.186 34.778c1.922 10.804-6.386 20.721-17.36 20.721z" fill="url(#SVGID_00000129173380880548442010000006035185005021099922_)"/><path d="m248.416 265.858h13.168c10.974 0 19.282-9.917 17.36-20.721l-6.186-34.778c-.788-4.429-4.639-7.656-9.138-7.656h-17.24c-4.499 0-8.35 3.226-9.138 7.656l-6.186 34.778c-1.922 10.804 6.386 20.721 17.36 20.721z" fill="url(#SVGID_00000140730662706002495970000011632545508416469157_)"/></g></g></g></g><g><path d="m202.169 228.923c-9.565 0-17.32-7.754-17.32-17.32v-8.882c0-9.565 7.754-17.32 17.32-17.32 9.565 0 17.32 7.754 17.32 17.32v8.882c0 9.566-7.754 17.32-17.32 17.32z" fill="url(#SVGID_00000092448155368416483870000002339480649841167551_)"/><path d="m307.831 228.923c-9.566 0-17.32-7.754-17.32-17.32v-8.882c0-9.565 7.754-17.32 17.32-17.32 9.565 0 17.32 7.754 17.32 17.32v8.882c-.001 9.566-7.755 17.32-17.32 17.32z" fill="url(#SVGID_00000091713613715132285760000011595382856532185520_)"/></g></g><path d="m198.558 100.533c-.541.136-1.069.281-1.607.438-18.966 5.503-29.23 19.826-27.99 34.594.975 11.703-14.733 19.027-29.487 13.787-.017-.006-.033-.012-.05-.018-3.043-1.087-5.352-3.658-6.111-6.798-6.864-28.377.761-57.671 21.546-81.334 18.751 10.653 36.011 27.485 43.699 39.331z" fill="url(#SVGID_00000045607275290246537570000017611037273900733618_)"/></g><path d="m390.02 99.701c-5.65 12.27-9.89 25.15-12.38 38.42-.28 1.44-.59 2.89-.93 4.34-.66 2.71-2.42 4.99-4.83 6.28-.42.23-.85.43-1.31.59l-.04.02c-5.08 1.8-10.26 2.12-14.84 1.28-11.09-2.02-22.52-1.79-33.2 1.81-49.71 16.74-109.55 3.64-152.26-38.09-4.1-4-7.93-8.17-11.5-12.46-1.34-1.6-2.64-3.22-3.91-4.86-7.5-9.75-11.38-21.13-11.55-32.26 27.4-30.74 67.3-50.1 111.73-50.1 59.51 0 110.9 34.73 135.02 85.03z" fill="url(#SVGID_00000041263031402211583680000013599576630675933604_)"/></g><path d="m255 0c-81.99 0-148.59 65.94-149.64 147.69 1.39-.27 2.84-.41 4.31-.41h26.59c5.15-61.05 56.35-108.99 118.74-108.99 32.91 0 62.7 13.34 84.27 34.9 19.32 19.32 32.04 45.24 34.47 74.09h26.59c1.47 0 2.92.14 4.31.41-1.05-81.75-67.65-147.69-149.64-147.69z" fill="url(#SVGID_00000107561267930564472960000010793775078802094988_)"/><g><path d="m375.034 60.28h-51.039c5.449 3.875 10.558 8.196 15.275 12.91 19.32 19.32 32.04 45.24 34.47 74.09h26.59c1.47 0 2.92.14 4.31.41-.421-32.751-11.369-62.958-29.606-87.41z" fill="url(#SVGID_00000044860939780122343640000003898017457666953866_)"/><path d="m105.36 147.69c1.39-.27 2.84-.41 4.31-.41h26.59c3.028-35.893 21.977-67.248 49.756-87h-51.05c-18.237 24.452-29.185 54.659-29.606 87.41z" fill="url(#SVGID_00000091001447669021297200000001543492852400464299_)"/></g><path d="m231 316.781h-31.5c-49.626 0-90-40.374-90-90v-4.5c0-4.142 3.358-7.5 7.5-7.5s7.5 3.358 7.5 7.5v4.5c0 41.355 33.645 75 75 75h31.5c4.142 0 7.5 3.358 7.5 7.5s-3.358 7.5-7.5 7.5z" fill="url(#SVGID_00000179641950885765341380000005894631214531594421_)"/><path d="m235.25 319.776h-14c-5.661 0-10.25-4.589-10.25-10.25 0-5.661 4.589-10.25 10.25-10.25h14c5.661 0 10.25 4.589 10.25 10.25 0 5.661-4.589 10.25-10.25 10.25z" fill="url(#SVGID_00000070117321554239561230000001143452429881536143_)"/></g><g fill="#eaf6ff"><path d="m381.427 284.975h79.24c3.649 0 6.607 2.958 6.607 6.607s-2.958 6.607-6.607 6.607h-79.24c-3.649 0-6.607-2.958-6.607-6.607-.001-3.649 2.957-6.607 6.607-6.607z"/><path d="m381.427 258.308h29.953c3.649 0 6.607 2.958 6.607 6.607s-2.958 6.607-6.607 6.607h-29.953c-3.649 0-6.607-2.958-6.607-6.607-.001-3.649 2.957-6.607 6.607-6.607z"/><path d="m434.286 258.308h7.488c3.649 0 6.607 2.958 6.607 6.607s-2.958 6.607-6.607 6.607h-7.488c-3.649 0-6.607-2.958-6.607-6.607-.001-3.649 2.958-6.607 6.607-6.607z"/></g></g></svg>