<svg id="Capa_1" enable-background="new 0 0 510 510" height="512" viewBox="0 0 510 510" width="512" xmlns="http://www.w3.org/2000/svg" xmlns:xlink="http://www.w3.org/1999/xlink"><linearGradient id="lg1"><stop offset="0" stop-color="#5a5a5a"/><stop offset="1" stop-color="#444"/></linearGradient><linearGradient id="SVGID_1_" gradientUnits="userSpaceOnUse" x1="100.381" x2="401.87" xlink:href="#lg1" y1="137.291" y2="438.779"/><linearGradient id="SVGID_00000127731091295546685950000005716275818022456962_" gradientUnits="userSpaceOnUse" x1="378.618" x2="111.29" xlink:href="#lg1" y1="415.527" y2="148.199"/><linearGradient id="lg2"><stop offset="0" stop-color="#433f43" stop-opacity="0"/><stop offset="1" stop-color="#1a1a1a"/></linearGradient><linearGradient id="SVGID_00000066507303575962064280000003072124112604105142_" gradientTransform="matrix(0 -1 1 0 -86.015 423.986)" gradientUnits="userSpaceOnUse" x1="132.076" x2="132.076" xlink:href="#lg2" y1="513.703" y2="590.559"/><linearGradient id="SVGID_00000072250899902366946600000006965231687076113810_" gradientUnits="userSpaceOnUse" x1="356.253" x2="304.253" xlink:href="#lg2" y1="249.072" y2="152.405"/><linearGradient id="SVGID_00000057846760076291315460000008657298523594691718_" gradientUnits="userSpaceOnUse" x1="140.764" x2="338.244" y1="189.904" y2="387.384"><stop offset="0" stop-color="#ffeee6"/><stop offset="1" stop-color="#ffc4c8"/></linearGradient><linearGradient id="SVGID_00000142147917017492220890000013544642744511319448_" gradientUnits="userSpaceOnUse" x1="375.259" x2="277.259" y1="301.097" y2="191.097"><stop offset="0" stop-color="#fe99a0" stop-opacity="0"/><stop offset="1" stop-color="#fd8087"/></linearGradient><linearGradient id="SVGID_00000173877980684043193700000005358650264559988872_" gradientUnits="userSpaceOnUse" x1="117.576" x2="146.076" y1="296.578" y2="369.578"><stop offset="0" stop-color="#7bacdf" stop-opacity="0"/><stop offset="1" stop-color="#7bacdf"/></linearGradient><linearGradient id="SVGID_00000105386343938981365170000003959163570850862239_" gradientUnits="userSpaceOnUse" x1="197.293" x2="221.624" y1="329.116" y2="353.447"><stop offset="0" stop-color="#aeffd1"/><stop offset=".1201" stop-color="#a3f9cb"/><stop offset=".3288" stop-color="#87eab9"/><stop offset=".6012" stop-color="#59d19d"/><stop offset=".9235" stop-color="#19af77"/><stop offset="1" stop-color="#09a76d"/></linearGradient><linearGradient id="SVGID_00000059300485083560410480000017521138846609096598_" gradientUnits="userSpaceOnUse" x1="167.305" x2="312.272" y1="124.938" y2="269.905"><stop offset="0" stop-color="#fe860a"/><stop offset=".2435" stop-color="#fb7c0e"/><stop offset=".6648" stop-color="#f55f19"/><stop offset="1" stop-color="#ef4424"/></linearGradient><linearGradient id="SVGID_00000013176221152065840560000012707085864465777080_" gradientUnits="userSpaceOnUse" x1="264.937" x2="284.271" y1="227.04" y2="255.04"><stop offset="0" stop-color="#ca2e43" stop-opacity="0"/><stop offset=".7782" stop-color="#c30c47" stop-opacity=".778"/><stop offset="1" stop-color="#c00148"/></linearGradient><g><g><g><path d="m486.992 122.924h-463.984c-12.707 0-23.008 10.301-23.008 23.008v291.954c0 12.707 10.301 23.008 23.008 23.008h463.983c12.707 0 23.008-10.301 23.008-23.008v-291.954c.001-12.707-10.3-23.008-23.007-23.008z" fill="url(#SVGID_1_)"/><path d="m14.71 156.19v271.439c0 8.262 6.698 14.96 14.96 14.96h450.66c8.262 0 14.96-6.698 14.96-14.96v-271.439c0-8.262-6.698-14.96-14.96-14.96h-450.66c-8.262 0-14.96 6.698-14.96 14.96z" fill="url(#SVGID_00000127731091295546685950000005716275818022456962_)"/><path d="m277.333 460.895h209.658c12.707 0 23.008-10.301 23.008-23.008v-291.955c0-12.707-10.301-23.008-23.008-23.008h-209.658z" fill="url(#SVGID_00000066507303575962064280000003072124112604105142_)"/><path d="m486.992 122.924h-323.992v161.652l176.319 176.319h147.673c12.707 0 23.008-10.301 23.008-23.008v-291.955c0-12.707-10.301-23.008-23.008-23.008z" fill="url(#SVGID_00000072250899902366946600000006965231687076113810_)"/></g><path d="m453.54 172.39v239.03c0 7.483-6.067 13.55-13.55 13.55h-394.45c-7.478 0-13.54-6.062-13.54-13.54v-62.185c0-4.786 3.879-8.665 8.665-8.665 4.786 0 8.665-3.879 8.665-8.665v-80.01c0-4.786-3.879-8.665-8.665-8.665-4.786 0-8.665-3.879-8.665-8.665v-62.175c0-7.483 6.067-13.55 13.55-13.55h394.45c7.478 0 13.54 6.062 13.54 13.54z" fill="url(#SVGID_00000057846760076291315460000008657298523594691718_)"/><path d="m440 158.853h-277v125.723l140.39 140.39h136.61c7.479 0 13.542-6.063 13.542-13.542v-239.029c0-7.479-6.063-13.542-13.542-13.542z" fill="url(#SVGID_00000142147917017492220890000013544642744511319448_)"/></g><g><g fill="#ca6e59"><path d="m65.715 397.882h79.24c3.649 0 6.607 2.958 6.607 6.607s-2.958 6.607-6.607 6.607h-79.24c-3.649 0-6.607-2.958-6.607-6.607s2.958-6.607 6.607-6.607z"/><path d="m65.715 371.216h29.953c3.649 0 6.607 2.958 6.607 6.607s-2.958 6.607-6.607 6.607h-29.953c-3.649 0-6.607-2.958-6.607-6.607s2.958-6.607 6.607-6.607z"/><path d="m118.574 371.216h7.488c3.649 0 6.607 2.958 6.607 6.607s-2.958 6.607-6.607 6.607h-7.488c-3.649 0-6.607-2.958-6.607-6.607s2.958-6.607 6.607-6.607z"/></g></g><path d="m65.715 334.216h354.112c3.649 0 6.607 2.958 6.607 6.607s-2.958 6.607-6.607 6.607h-354.112c-3.649 0-6.607-2.958-6.607-6.607s2.958-6.607 6.607-6.607z" fill="#fff"/><path d="m208.5 334.216h-142.785c-3.649 0-6.607 2.958-6.607 6.607s2.958 6.607 6.607 6.607h142.785z" fill="url(#SVGID_00000173877980684043193700000005358650264559988872_)"/><circle cx="208.999" cy="340.823" fill="url(#SVGID_00000105386343938981365170000003959163570850862239_)" r="16"/><g fill="#ca6e59"><path d="m359.48 371.216h29.953c3.649 0 6.607 2.958 6.607 6.607s-2.958 6.607-6.607 6.607h-29.953c-3.649 0-6.607-2.958-6.607-6.607-.001-3.649 2.958-6.607 6.607-6.607z"/><path d="m412.339 371.216h7.488c3.649 0 6.607 2.958 6.607 6.607s-2.958 6.607-6.607 6.607h-7.488c-3.649 0-6.607-2.958-6.607-6.607-.001-3.649 2.958-6.607 6.607-6.607z"/></g><g><path d="m339.7 134.568-117.585-77.605c-31.27-20.638-72.94 1.788-72.94 39.254v155.212c0 37.466 41.67 59.892 72.94 39.254l117.585-77.607c28.166-18.59 28.166-59.917 0-78.508z" fill="url(#SVGID_00000059300485083560410480000017521138846609096598_)"/><path d="m339.7 134.568-44.977-29.685-145.547 96.061v50.483c0 37.466 41.67 59.892 72.94 39.254l117.584-77.605c28.166-18.59 28.166-59.917 0-78.508z" fill="url(#SVGID_00000013176221152065840560000012707085864465777080_)"/></g></g></svg>