<svg xmlns="http://www.w3.org/2000/svg" xmlns:xlink="http://www.w3.org/1999/xlink" viewBox="0 0 48 48" width="48px" height="48px"><defs><linearGradient id="cMA3T~uY9jAepamedWlmxr" x1="26.88" x2="31.12" y1="16.12" y2="11.88" xlink:href="#cMA3T~uY9jAepamedWlmxc"/><linearGradient id="cMA3T~uY9jAepamedWlmxa" x1="35" x2="37" y1="28" y2="28" gradientUnits="userSpaceOnUse"><stop offset=".091" stop-color="#333"/><stop offset=".128" stop-color="#3b3b3b"/><stop offset=".281" stop-color="#555"/><stop offset=".417" stop-color="#656565"/><stop offset=".522" stop-color="#6b6b6b"/><stop offset=".653" stop-color="#5b5b5b"/><stop offset=".897" stop-color="#333"/></linearGradient><linearGradient id="cMA3T~uY9jAepamedWlmxh" x1="6.5" x2="6.5" y1="28" y2="24" gradientUnits="userSpaceOnUse"><stop offset="0" stop-color="#757575"/><stop offset=".204" stop-color="#8f8f8f"/><stop offset=".432" stop-color="#a5a5a5"/><stop offset=".577" stop-color="#adadad"/><stop offset=".788" stop-color="#e0e0e0"/><stop offset="1" stop-color="#adadad"/></linearGradient><linearGradient id="cMA3T~uY9jAepamedWlmxj" x1="36" x2="36" y1="31" y2="25" xlink:href="#cMA3T~uY9jAepamedWlmxa"/><linearGradient id="cMA3T~uY9jAepamedWlmxk" x1="22.021" x2="22.021" y1="30.5" y2="21" gradientTransform="matrix(1.412 0 0 2 -9.588 -20)" gradientUnits="userSpaceOnUse"><stop offset="0" stop-color="#303030"/><stop offset=".038" stop-color="#202020"/><stop offset=".056" stop-color="#171717"/><stop offset=".114" stop-color="#212121"/><stop offset=".19" stop-color="#292929"/><stop offset=".756" stop-color="#292929"/><stop offset=".858" stop-color="#2b2b2b"/><stop offset=".894" stop-color="#323232"/><stop offset=".92" stop-color="#3d3d3d"/><stop offset=".941" stop-color="#4e4e4e"/><stop offset=".959" stop-color="#646464"/><stop offset=".966" stop-color="#707070"/></linearGradient><linearGradient id="cMA3T~uY9jAepamedWlmxl" x1="57.367" x2="57.367" y1="31" y2="12.333" gradientTransform="matrix(.294 0 0 .75 24.127 11.75)" gradientUnits="userSpaceOnUse"><stop offset="0" stop-color="#424242"/><stop offset=".041" stop-color="#3a3a3a"/><stop offset=".165" stop-color="#282828"/><stop offset=".296" stop-color="#1d1d1d"/><stop offset=".445" stop-color="#1a1a1a"/><stop offset=".505" stop-color="#222"/><stop offset=".598" stop-color="#373737"/><stop offset=".712" stop-color="#5a5a5a"/><stop offset=".842" stop-color="#8b8b8b"/><stop offset=".985" stop-color="#c8c8c8"/><stop offset="1" stop-color="#cfcfcf"/></linearGradient><linearGradient id="cMA3T~uY9jAepamedWlmxm" x1="14.5" x2="14.5" y1="28" y2="24" gradientUnits="userSpaceOnUse"><stop offset="0" stop-color="#333"/><stop offset=".204" stop-color="#4d4d4d"/><stop offset=".432" stop-color="#636363"/><stop offset=".577" stop-color="#6b6b6b"/><stop offset=".788" stop-color="#9e9e9e"/><stop offset="1" stop-color="#6b6b6b"/></linearGradient><linearGradient id="cMA3T~uY9jAepamedWlmxn" x1="21.5" x2="21.5" y1="31" y2="38" gradientUnits="userSpaceOnUse"><stop offset="0" stop-color="#333"/><stop offset=".03" stop-color="#4d4d4d"/><stop offset=".062" stop-color="#636363"/><stop offset=".084" stop-color="#6b6b6b"/><stop offset=".91" stop-color="#9e9e9e"/><stop offset="1" stop-color="#828282"/></linearGradient><linearGradient id="cMA3T~uY9jAepamedWlmxo" x1="3.5" x2="3.5" y1="30" y2="22" gradientUnits="userSpaceOnUse"><stop offset="0" stop-color="#424242"/><stop offset=".018" stop-color="#3f3f3f"/><stop offset=".167" stop-color="#2d2d2d"/><stop offset=".323" stop-color="#222"/><stop offset=".501" stop-color="#1f1f1f"/><stop offset=".576" stop-color="#272727"/><stop offset=".692" stop-color="#3c3c3c"/><stop offset=".833" stop-color="#5f5f5f"/><stop offset=".994" stop-color="#8f8f8f"/><stop offset="1" stop-color="#919191"/></linearGradient><linearGradient id="cMA3T~uY9jAepamedWlmxc" x1="10.88" x2="15.12" y1="16.12" y2="11.88" gradientUnits="userSpaceOnUse"><stop offset="0" stop-color="#6b6b6b"/><stop offset=".164" stop-color="#6d6d6d"/><stop offset=".244" stop-color="#757575"/><stop offset=".306" stop-color="#828282"/><stop offset=".358" stop-color="#959595"/><stop offset=".405" stop-color="#adadad"/><stop offset=".447" stop-color="#cacaca"/><stop offset=".486" stop-color="#ededed"/><stop offset=".498" stop-color="#fafafa"/><stop offset=".506" stop-color="#f0f0f0"/><stop offset=".536" stop-color="#d1d1d1"/><stop offset=".57" stop-color="#b5b5b5"/><stop offset=".609" stop-color="#9f9f9f"/><stop offset=".653" stop-color="#8f8f8f"/><stop offset=".709" stop-color="#838383"/><stop offset=".786" stop-color="#7c7c7c"/><stop offset="1" stop-color="#7a7a7a"/></linearGradient><linearGradient id="cMA3T~uY9jAepamedWlmxp" x1="46" x2="46" y1="36" y2="20" gradientUnits="userSpaceOnUse"><stop offset="0" stop-color="#424242"/><stop offset=".138" stop-color="#474747"/><stop offset=".445" stop-color="#4a4a4a"/><stop offset=".497" stop-color="#525252"/><stop offset=".577" stop-color="#676767"/><stop offset=".639" stop-color="#7c7c7c"/><stop offset=".657" stop-color="#818181"/><stop offset=".68" stop-color="#909090"/><stop offset=".704" stop-color="#a9a9a9"/><stop offset=".73" stop-color="#cbcbcb"/><stop offset=".745" stop-color="#e3e3e3"/><stop offset=".758" stop-color="#cdcdcd"/><stop offset=".776" stop-color="#b3b3b3"/><stop offset=".795" stop-color="#a1a1a1"/><stop offset=".814" stop-color="#969696"/><stop offset=".836" stop-color="#929292"/><stop offset=".972" stop-color="#c2c2c2"/><stop offset="1" stop-color="#cfcfcf"/></linearGradient><linearGradient id="cMA3T~uY9jAepamedWlmxA" x1="14.086" x2="28.914" y1="41.914" y2="27.086" gradientUnits="userSpaceOnUse"><stop offset="0" stop-color="#424242"/><stop offset=".204" stop-color="#5c5c5c"/><stop offset=".432" stop-color="#727272"/><stop offset=".577" stop-color="#7a7a7a"/><stop offset=".788" stop-color="#adadad"/><stop offset="1" stop-color="#7a7a7a"/></linearGradient><linearGradient id="cMA3T~uY9jAepamedWlmxz" x1="11" x2="32" y1="34.5" y2="34.5" gradientUnits="userSpaceOnUse"><stop offset="0" stop-color="#333"/><stop offset=".026" stop-color="#3a3a3a" stop-opacity=".596"/><stop offset=".061" stop-color="#424242" stop-opacity=".16"/><stop offset=".084" stop-color="#454545" stop-opacity="0"/><stop offset=".91" stop-color="#707070" stop-opacity="0"/><stop offset="1" stop-color="#333"/></linearGradient><linearGradient id="cMA3T~uY9jAepamedWlmxf" x1="13" x2="13" y1="22" y2="6" gradientUnits="userSpaceOnUse"><stop offset="0" stop-color="#262626"/><stop offset=".005" stop-color="#282828" stop-opacity=".977"/><stop offset=".117" stop-color="#484848" stop-opacity=".537"/><stop offset=".257" stop-color="#5f5f5f" stop-opacity=".228"/><stop offset=".454" stop-color="#6c6c6c" stop-opacity=".049"/><stop offset="1" stop-color="#707070" stop-opacity="0"/></linearGradient><linearGradient id="cMA3T~uY9jAepamedWlmxy" x1="13" x2="21" y1="34.5" y2="34.5" gradientUnits="userSpaceOnUse"><stop offset="0" stop-color="#136356"/><stop offset=".014" stop-color="#1e6b5f" stop-opacity=".868"/><stop offset=".049" stop-color="#357d71" stop-opacity=".599"/><stop offset=".09" stop-color="#498b80" stop-opacity=".377"/><stop offset=".137" stop-color="#57968c" stop-opacity=".207"/><stop offset=".196" stop-color="#619d94" stop-opacity=".087"/><stop offset=".278" stop-color="#67a299" stop-opacity=".019"/><stop offset=".505" stop-color="#69a39a" stop-opacity="0"/><stop offset=".728" stop-color="#67a299" stop-opacity=".019"/><stop offset=".809" stop-color="#619d94" stop-opacity=".087"/><stop offset=".866" stop-color="#57968c" stop-opacity=".207"/><stop offset=".912" stop-color="#498b80" stop-opacity=".377"/><stop offset=".952" stop-color="#357d71" stop-opacity=".599"/><stop offset=".986" stop-color="#1e6b5f" stop-opacity=".868"/><stop offset="1" stop-color="#136356"/></linearGradient><linearGradient id="cMA3T~uY9jAepamedWlmxx" x1="17" x2="17" y1="33" y2="36" gradientUnits="userSpaceOnUse"><stop offset="0" stop-color="#136356"/><stop offset=".037" stop-color="#2e776b"/><stop offset=".078" stop-color="#44877c"/><stop offset=".127" stop-color="#55948a"/><stop offset=".187" stop-color="#609d93"/><stop offset=".271" stop-color="#67a299"/><stop offset=".505" stop-color="#69a39a"/><stop offset=".735" stop-color="#67a299"/><stop offset=".817" stop-color="#609d93"/><stop offset=".876" stop-color="#55948a"/><stop offset=".924" stop-color="#44877c"/><stop offset=".964" stop-color="#2e776b"/><stop offset="1" stop-color="#136356"/></linearGradient><linearGradient id="cMA3T~uY9jAepamedWlmxw" x1="21.5" x2="21.5" y1="28" y2="24" gradientUnits="userSpaceOnUse"><stop offset="0" stop-color="#0f0f0f"/><stop offset=".204" stop-color="#292929"/><stop offset=".432" stop-color="#3f3f3f"/><stop offset=".577" stop-color="#474747"/><stop offset=".788" stop-color="#7a7a7a"/><stop offset="1" stop-color="#474747"/></linearGradient><linearGradient id="cMA3T~uY9jAepamedWlmxv" x1="29" x2="29" xlink:href="#cMA3T~uY9jAepamedWlmxg"/><linearGradient id="cMA3T~uY9jAepamedWlmxu" x1="29" x2="29" xlink:href="#cMA3T~uY9jAepamedWlmxf"/><linearGradient id="cMA3T~uY9jAepamedWlmxg" x1="13" x2="13" y1="13" y2="15" gradientUnits="userSpaceOnUse"><stop offset="0" stop-color="#a8a8a8"/><stop offset="1" stop-color="#454545"/></linearGradient><linearGradient id="cMA3T~uY9jAepamedWlmxD" x1="18.5" x2="18.5" xlink:href="#cMA3T~uY9jAepamedWlmxh"/><radialGradient id="cMA3T~uY9jAepamedWlmxt" cx="29" r="2" xlink:href="#cMA3T~uY9jAepamedWlmxe"/><radialGradient id="cMA3T~uY9jAepamedWlmxs" cx="29" r="8" xlink:href="#cMA3T~uY9jAepamedWlmxd"/><radialGradient id="cMA3T~uY9jAepamedWlmxi" cx="21.313" cy="15.818" r="6.643" gradientTransform="matrix(.941 0 0 1 .941 2.182)" gradientUnits="userSpaceOnUse"><stop offset=".189" stop-color="#707070"/><stop offset=".283" stop-color="#646464"/><stop offset=".587" stop-color="#414141"/><stop offset=".837" stop-color="#2c2c2c"/><stop offset="1" stop-color="#242424"/></radialGradient><radialGradient id="cMA3T~uY9jAepamedWlmxq" cx="29" r="8" xlink:href="#cMA3T~uY9jAepamedWlmxb"/><radialGradient id="cMA3T~uY9jAepamedWlmxe" cx="13" cy="14" r="2" gradientUnits="userSpaceOnUse"><stop offset=".786" stop-color="#545454"/><stop offset="1" stop-color="#383838"/></radialGradient><radialGradient id="cMA3T~uY9jAepamedWlmxd" cx="13" cy="14" r="8" gradientUnits="userSpaceOnUse"><stop offset=".76" stop-color="#787878"/><stop offset=".838" stop-color="gray"/><stop offset=".958" stop-color="#959595"/><stop offset="1" stop-color="#9e9e9e"/></radialGradient><radialGradient id="cMA3T~uY9jAepamedWlmxB" cx="29" cy="34" r="1" gradientUnits="userSpaceOnUse"><stop offset="0" stop-color="#f5334d"/><stop offset=".336" stop-color="#f3324b"/><stop offset=".529" stop-color="#ea3046"/><stop offset=".685" stop-color="#dc2b3d"/><stop offset=".822" stop-color="#c92531"/><stop offset=".945" stop-color="#af1d21"/><stop offset="1" stop-color="#a11818"/></radialGradient><radialGradient id="cMA3T~uY9jAepamedWlmxC" cx="26" cy="34" r="1" gradientUnits="userSpaceOnUse"><stop offset="0" stop-color="#7af564"/><stop offset=".336" stop-color="#78f363"/><stop offset=".529" stop-color="#72ea5e"/><stop offset=".685" stop-color="#68dc57"/><stop offset=".822" stop-color="#59c94d"/><stop offset=".945" stop-color="#46af3f"/><stop offset="1" stop-color="#3ca138"/></radialGradient><radialGradient id="cMA3T~uY9jAepamedWlmxb" cx="13" cy="14" r="8" gradientUnits="userSpaceOnUse"><stop offset=".284" stop-color="#707070"/><stop offset=".373" stop-color="#474747"/><stop offset=".422" stop-color="#595959"/><stop offset=".648" stop-color="#575757"/><stop offset=".75" stop-color="#505050"/><stop offset=".828" stop-color="#434343"/><stop offset=".852" stop-color="#3d3d3d"/></radialGradient></defs><g data-name="video camera"><rect width="2" height="6" x="35" y="25" fill="url(#cMA3T~uY9jAepamedWlmxa)"/><rect width="16" height="8" x="13" y="14" fill="url(#cMA3T~uY9jAepamedWlmxi)"/><circle cx="13" cy="14" r="8" fill="url(#cMA3T~uY9jAepamedWlmxb)"/><rect width="2" height="6" x="35" y="25" fill="url(#cMA3T~uY9jAepamedWlmxj)" opacity=".5"/><rect width="27" height="19" x="8" y="22" fill="url(#cMA3T~uY9jAepamedWlmxk)" rx="2"/><polygon fill="url(#cMA3T~uY9jAepamedWlmxl)" points="45 35 37 31 37 25 45 21 45 35"/><path fill="url(#cMA3T~uY9jAepamedWlmxm)" d="M5,24H22a2,2,0,0,1,2,2h0a2,2,0,0,1-2,2H5Z"/><rect width="21" height="7" x="11" y="31" fill="url(#cMA3T~uY9jAepamedWlmxn)" rx="1"/><polygon fill="url(#cMA3T~uY9jAepamedWlmxo)" points="6 28 1 30 1 22 6 24 6 28"/><path fill="url(#cMA3T~uY9jAepamedWlmxc)" d="M13,17a3,3,0,1,1,3-3A3,3,0,0,1,13,17Zm0-5a2,2,0,1,0,2,2A2,2,0,0,0,13,12Z"/><rect width="2" height="16" x="45" y="20" fill="url(#cMA3T~uY9jAepamedWlmxp)" rx=".5"/><path fill="url(#cMA3T~uY9jAepamedWlmxd)" d="M13,22a8,8,0,1,1,8-8A8.009,8.009,0,0,1,13,22ZM13,7a7,7,0,1,0,7,7A7.008,7.008,0,0,0,13,7Z"/><circle cx="13" cy="14" r="2" fill="url(#cMA3T~uY9jAepamedWlmxe)"/><path fill="url(#cMA3T~uY9jAepamedWlmxf)" d="M13,22a8,8,0,1,1,8-8A8.009,8.009,0,0,1,13,22ZM13,7a7,7,0,1,0,7,7A7.008,7.008,0,0,0,13,7Z"/><circle cx="29" cy="14" r="8" fill="url(#cMA3T~uY9jAepamedWlmxq)"/><path fill="url(#cMA3T~uY9jAepamedWlmxr)" d="M29,17a3,3,0,1,1,3-3A3,3,0,0,1,29,17Zm0-5a2,2,0,1,0,2,2A2,2,0,0,0,29,12Z"/><path fill="url(#cMA3T~uY9jAepamedWlmxs)" d="M29,22a8,8,0,1,1,8-8A8.009,8.009,0,0,1,29,22ZM29,7a7,7,0,1,0,7,7A7.008,7.008,0,0,0,29,7Z"/><circle cx="29" cy="14" r="2" fill="url(#cMA3T~uY9jAepamedWlmxt)"/><path fill="url(#cMA3T~uY9jAepamedWlmxu)" d="M29,22a8,8,0,1,1,8-8A8.009,8.009,0,0,1,29,22ZM29,7a7,7,0,1,0,7,7A7.008,7.008,0,0,0,29,7Z"/><circle cx="13" cy="14" r="1" fill="url(#cMA3T~uY9jAepamedWlmxg)"/><circle cx="29" cy="14" r="1" fill="url(#cMA3T~uY9jAepamedWlmxv)"/><path fill="url(#cMA3T~uY9jAepamedWlmxw)" d="M19,24h3a2,2,0,0,1,2,2h0a2,2,0,0,1-2,2H19Z"/><rect width="8" height="3" x="13" y="33" fill="url(#cMA3T~uY9jAepamedWlmxx)" rx=".5"/><rect width="8" height="3" x="13" y="33" fill="url(#cMA3T~uY9jAepamedWlmxy)" rx=".5"/><rect width="21" height="7" x="11" y="31" fill="url(#cMA3T~uY9jAepamedWlmxz)" rx="1"/><path fill="url(#cMA3T~uY9jAepamedWlmxA)" d="M31,31a1,1,0,0,1,1,1v5a1,1,0,0,1-1,1H12a1,1,0,0,1-1-1V32a1,1,0,0,1,1-1H31m0-1H12a2,2,0,0,0-2,2v5a2,2,0,0,0,2,2H31a2,2,0,0,0,2-2V32a2,2,0,0,0-2-2Z"/><circle cx="29" cy="34" r="1" fill="url(#cMA3T~uY9jAepamedWlmxB)"/><circle cx="26" cy="34" r="1" fill="url(#cMA3T~uY9jAepamedWlmxC)"/><rect width="1" height="4" x="6" y="24" fill="url(#cMA3T~uY9jAepamedWlmxh)"/><rect width="1" height="4" x="18" y="24" fill="url(#cMA3T~uY9jAepamedWlmxD)"/></g></svg>