<svg id="Capa_1" data-name="Capa 1" xmlns="http://www.w3.org/2000/svg" viewBox="0 0 482 512"><defs><style>.cls-1{fill:#b20a0a;}</style></defs><path class="cls-1" d="M381.74,392H70.26a60,60,0,0,0,0,120H381.74a60,60,0,0,0,0-120ZM40.26,452a30,30,0,0,1,30-30H329.81a59.8,59.8,0,0,0,0,60H70.26A30,30,0,0,1,40.26,452Zm341.48,30a30,30,0,1,1,30-30A30,30,0,0,1,381.74,482Z"/><path class="cls-1" d="M452,242.07V0H0V90H67.67V219.1L226,285.38,384.33,219.1V90H422V242.07a45.07,45.07,0,0,0-30,42.42v78h90v-78A45.07,45.07,0,0,0,452,242.07ZM30,30H422V60H30ZM97.67,150.5H211v96.08L97.67,199.14ZM241,246.58V150.5H354.33v48.64ZM354.33,120.5H97.67V90H354.33Zm97.67,212H422v-48a15,15,0,0,1,30,0Z"/></svg>