<svg width="22" height="20" viewBox="0 0 22 20" fill="none" xmlns="http://www.w3.org/2000/svg">
<g clip-path="url(#clip0_158_2684)">
<path d="M10.0902 12.8099C10.0243 12.7949 9.95599 12.7949 9.89016 12.8099H4.56016C4.43816 12.8099 4.32116 12.7615 4.23489 12.6752C4.14863 12.5889 4.10016 12.4719 4.10016 12.3499C4.08951 12.2878 4.09297 12.2241 4.11028 12.1635C4.12759 12.103 4.15831 12.047 4.20016 11.9999L6.50016 9.10994C6.53414 9.0597 6.57793 9.01684 6.62889 8.98394C6.67985 8.95104 6.73693 8.92879 6.79671 8.91851C6.8565 8.90824 6.91774 8.91015 6.97676 8.92415C7.03578 8.93814 7.09136 8.96392 7.14016 8.99994L7.21016 9.06994L9.13016 11.3999L12.0002 7.73994C12.0356 7.69267 12.08 7.65284 12.1309 7.62273C12.1817 7.59262 12.238 7.57282 12.2965 7.56447C12.355 7.55611 12.4146 7.55936 12.4718 7.57402C12.5291 7.58869 12.5829 7.61449 12.6302 7.64994C12.668 7.67451 12.7018 7.70488 12.7302 7.73994L14.1102 9.56994C14.474 8.94189 15.0721 8.48385 15.7733 8.29637C16.4745 8.10889 17.2214 8.20728 17.8502 8.56994C18.1285 8.72732 18.3786 8.93011 18.5902 9.16994C18.6195 9.20772 18.656 9.23928 18.6976 9.26279C18.7392 9.2863 18.7851 9.30128 18.8326 9.30687C18.8801 9.31245 18.9282 9.30853 18.9741 9.29532C19.0201 9.28211 19.0629 9.25989 19.1002 9.22994C19.1812 9.15814 19.2313 9.05783 19.2402 8.94994V2.69994C19.2402 2.45622 19.1916 2.21494 19.0971 1.99027C19.0027 1.7656 18.8643 1.56205 18.6901 1.39159C18.5159 1.22112 18.3094 1.08717 18.0828 0.997594C17.8561 0.908016 17.6138 0.864617 17.3702 0.869944H2.72016C2.23482 0.869944 1.76935 1.06275 1.42616 1.40594C1.08297 1.74913 0.890164 2.2146 0.890164 2.69994V13.6999C0.888846 13.9411 0.935208 14.1801 1.02658 14.4033C1.11796 14.6265 1.25255 14.8294 1.42261 15.0004C1.59267 15.1714 1.79486 15.3071 2.01754 15.3997C2.24022 15.4923 2.479 15.5399 2.72016 15.5399H10.2102C10.1078 15.2438 10.0538 14.9332 10.0502 14.6199C10.0506 14.2189 10.1393 13.8228 10.3102 13.4599C10.3421 13.4036 10.3618 13.3411 10.3679 13.2766C10.374 13.2121 10.3664 13.1471 10.3457 13.0857C10.3249 13.0243 10.2914 12.968 10.2474 12.9205C10.2033 12.873 10.1498 12.8353 10.0902 12.8099Z" stroke="#B20A0A" stroke-miterlimit="10"/>
<path d="M5.25 12.45H9.46C9.41003 12.0348 9.41003 11.6151 9.46 11.2L9.13 11.54L6.88 9.69995L4.88 11.35L4.75 11.54C4.94661 11.8258 5.11411 12.1307 5.25 12.45Z" fill="#B20A0A" stroke="#B20A0A" stroke-miterlimit="10"/>
<path d="M11.29 8.87005L9.45004 11.4301C9.39571 11.5092 9.36388 11.6015 9.35795 11.6973C9.35201 11.7931 9.37219 11.8887 9.41634 11.9739C9.46048 12.0591 9.52693 12.1307 9.6086 12.1811C9.69027 12.2315 9.78409 12.2588 9.88004 12.2601H13.69C13.8306 12.2601 13.9654 12.2042 14.0648 12.1048C14.1642 12.0054 14.22 11.8706 14.22 11.7301V10.0001C14.2194 9.8669 14.1695 9.73869 14.08 9.64005L13.29 8.79005C13.1642 8.6446 13.0073 8.52937 12.8308 8.45291C12.6544 8.37646 12.4629 8.34075 12.2708 8.34843C12.0786 8.35612 11.8907 8.40701 11.7209 8.49731C11.5511 8.58762 11.4038 8.71502 11.29 8.87005Z" fill="#B20A0A" stroke="#B20A0A" stroke-width="0.75" stroke-miterlimit="10"/>
<path d="M19.9999 13.55H17.2799V10.8C17.2933 10.6718 17.2796 10.5422 17.2398 10.4196C17.1999 10.297 17.1347 10.1842 17.0484 10.0884C16.9622 9.99267 16.8567 9.91609 16.739 9.86368C16.6212 9.81126 16.4938 9.78418 16.3649 9.78418C16.236 9.78418 16.1085 9.81126 15.9908 9.86368C15.873 9.91609 15.7676 9.99267 15.6813 10.0884C15.595 10.1842 15.5299 10.297 15.49 10.4196C15.4501 10.5422 15.4364 10.6718 15.4499 10.8V13.55H12.6999C12.5717 13.5365 12.4421 13.5502 12.3195 13.5901C12.1969 13.63 12.0841 13.6951 11.9883 13.7814C11.8926 13.8677 11.816 13.9731 11.7636 14.0909C11.7112 14.2086 11.6841 14.3361 11.6841 14.465C11.6841 14.5939 11.7112 14.7213 11.7636 14.8391C11.816 14.9568 11.8926 15.0623 11.9883 15.1485C12.0841 15.2348 12.1969 15.3 12.3195 15.3398C12.4421 15.3797 12.5717 15.3934 12.6999 15.38H15.4499V18.12C15.4364 18.2482 15.4501 18.3777 15.49 18.5003C15.5299 18.6229 15.595 18.7357 15.6813 18.8315C15.7676 18.9273 15.873 19.0038 15.9908 19.0563C16.1085 19.1087 16.236 19.1358 16.3649 19.1358C16.4938 19.1358 16.6212 19.1087 16.739 19.0563C16.8567 19.0038 16.9622 18.9273 17.0484 18.8315C17.1347 18.7357 17.1999 18.6229 17.2398 18.5003C17.2796 18.3777 17.2933 18.2482 17.2799 18.12V15.38H19.9999C20.1281 15.3934 20.2576 15.3797 20.3802 15.3398C20.5028 15.3 20.6156 15.2348 20.7114 15.1485C20.8072 15.0623 20.8837 14.9568 20.9362 14.8391C20.9886 14.7213 21.0157 14.5939 21.0157 14.465C21.0157 14.3361 20.9886 14.2086 20.9362 14.0909C20.8837 13.9731 20.8072 13.8677 20.7114 13.7814C20.6156 13.6951 20.5028 13.63 20.3802 13.5901C20.2576 13.5502 20.1281 13.5365 19.9999 13.55Z" stroke="#B20A0A" stroke-width="0.5" stroke-miterlimit="10"/>
<path d="M17.02 10.29H15.73V18.56H17.02V10.29Z" fill="#B20A0A" stroke="#B20A0A" stroke-width="0.5" stroke-miterlimit="10"/>
<path d="M20.47 13.8H12.27V15.12H20.47V13.8Z" fill="#B20A0A" stroke="#B20A0A" stroke-width="0.5" stroke-miterlimit="10"/>
</g>
<defs>
<clipPath id="clip0_158_2684">
<rect width="21.19" height="19.31" fill="white"/>
</clipPath>
</defs>
</svg>
