<svg id="Capa_1" data-name="Capa 1" xmlns="http://www.w3.org/2000/svg" viewBox="0 0 512 512"><defs><style>.cls-1{fill:#b20a0a;}</style></defs><path class="cls-1" d="M468,326.33V96H348V242.52a150.54,150.54,0,0,0-32-19V0H196V223.53a150.54,150.54,0,0,0-32,19V149.33H44v177H0v120H131.76a150.35,150.35,0,0,0,248.47,0H512v-120ZM226,30h60V214.05a151,151,0,0,0-60,0ZM30,416.33v-60h75.62c0,22.92,3.57,43,10.24,60Zm104-142.8a150.11,150.11,0,0,0-24.32,52.8H74v-147h60ZM256,482A120.48,120.48,0,1,1,376.48,361.52,120.62,120.62,0,0,1,256,482ZM378,273.53V126h60V326.33H402.32A150,150,0,0,0,378,273.53Zm104,142.8H396.14c6.67-17,10.24-33.83,10.24-60H482Z"/><path class="cls-1" d="M271.79,347.16q-2.9-1-5.56-1.93c-4.94-1.69-14.52-3.39-17.16-8.38-2.37-4.48-.15-8.84,4.15-10.77,7.6-3.42,16.6,3.86,19,6.9l23.48-18.67a54.37,54.37,0,0,0-24.72-17v-24.5H241v25.83l-.08,0a38.65,38.65,0,0,0-22.38,27.79,36.3,36.3,0,0,0,9.65,32.08c5.21,5.34,11.75,8.84,18.63,11.55,6.23,2.46,16.15,3.66,20.43,9.21,6.32,8.18-3.24,16.34-11.25,16.34-9,0-16-3.48-22.08-11l-23.26,18.95c8.33,10.22,18.65,17,30.34,20.09v26.42h30V423.14c11.4-4,20.81-12.4,25.28-23.35a39.64,39.64,0,0,0-.47-31.08C291.32,358.7,282.79,351.05,271.79,347.16Z"/></svg>