<svg id="Capa_1" enable-background="new 0 0 512 512" height="512" viewBox="0 0 512 512" width="512" xmlns="http://www.w3.org/2000/svg">
  <g>
    <path fill="#b20a0a" d="m478.395 71.922c-1.622-39.932-34.6-71.922-74.922-71.922h-271.159l-98.787 98.787v413.213h384.945v-225.451l60 29.564v-244.191zm-29.922 3.078c0 24.813-20.187 45-45 45s-45-20.187-45-45 20.187-45 45-45 45 20.187 45 45zm-324.946-23.787v38.787h-38.787zm-60 430.787v-362h90v-90h189.986c-8.859 11.774-14.324 26.232-14.963 41.914h-.078v244.199l60-29.564v195.451zm339.946-236.285-45 22.172v-132.928c12.544 9.438 28.129 15.041 45 15.041s32.456-5.603 45-15.041v132.928z"/>
    <path fill="#b20a0a" d="m94.027 153.2h30v30h-30z"/>
    <path fill="#b20a0a" d="m94.027 219.6h30v30h-30z"/>
    <path fill="#b20a0a" d="m94.027 286h30v30h-30z"/>
    <path fill="#b20a0a" d="m94.027 352.4h30v30h-30z"/>
    <path fill="#b20a0a" d="m94.027 418.8h30v30h-30z"/>
    <path fill="#b20a0a" d="m154.027 153.2h144v30h-144z"/>
    <path fill="#b20a0a" d="m154.027 219.6h144v30h-144z"/>
    <path fill="#b20a0a" d="m154.027 286h144v30h-144z"/>
    <path fill="#b20a0a" d="m154.027 352.4h203v30h-203z"/>
    <path fill="#b20a0a" d="m154.027 418.8h203v30h-203z"/>
  </g>
</svg>
