<?xml version="1.0" encoding="UTF-8" standalone="no"?><!DOCTYPE svg PUBLIC "-//W3C//DTD SVG 1.1//EN" "http://www.w3.org/Graphics/SVG/1.1/DTD/svg11.dtd"><svg width="100%" height="100%" viewBox="0 0 267 267" version="1.1" xmlns="http://www.w3.org/2000/svg" xmlns:xlink="http://www.w3.org/1999/xlink" xml:space="preserve" xmlns:serif="http://www.serif.com/" style="fill-rule:evenodd;clip-rule:evenodd;stroke-linejoin:round;stroke-miterlimit:2;"><path d="M139.203,72.042c0.539,-0.615 0.668,-1.489 0.33,-2.233c-0.337,-0.745 -1.079,-1.223 -1.897,-1.223l-83.996,-0c-21.556,-0 -39.057,17.5 -39.057,39.056l0,65.749c0,21.556 17.501,39.056 39.057,39.056c-0,0 1.195,0.001 2.753,0.097c0.042,0.003 0.085,0.004 0.128,0.004c3.379,0 6.26,2.446 6.811,5.777c0.848,6.591 0.719,13.139 0.106,18.865c-0.002,0.023 -0.004,0.046 -0.006,0.068c-0.276,3.747 1.801,7.271 5.213,8.844c3.411,1.572 7.44,0.862 10.109,-1.782c0.005,-0.004 0.009,-0.009 0.014,-0.013c9.925,-10.017 17.88,-20.324 23.698,-28.77c0.003,-0.004 0.006,-0.009 0.009,-0.013c1.302,-1.923 3.472,-3.075 5.793,-3.077c0.001,0 56.29,0 56.29,0c21.556,0 39.057,-17.5 39.057,-39.056c-0,0 -0,-65.749 -0,-65.749c-0,-14.948 -8.415,-27.947 -20.766,-34.511c-0.396,-0.21 -0.85,-0.287 -1.294,-0.219c-8.754,1.348 -15.981,4.368 -21.895,8.598c-12.476,8.924 -19.616,21.852 -23.547,32.395c-0.012,0.031 -0.023,0.063 -0.033,0.095c-1.411,4.425 -6.15,6.872 -10.575,5.46c-4.425,-1.411 -6.871,-6.149 -5.46,-10.574c0.01,-0.032 0.019,-0.064 0.028,-0.097c3.053,-11.452 8.913,-25.082 19.13,-36.747Z" style="fill:#2da2e6;"/><path d="M55.378,181.574l88.476,-0c4.995,-0 9.05,-4.056 9.05,-9.05c0,-4.995 -4.055,-9.05 -9.05,-9.05c-0,-0 -88.476,-0 -88.476,-0c-4.995,-0 -9.05,4.055 -9.05,9.05c-0,4.994 4.055,9.05 9.05,9.05Z" style="fill:#e9f6fd;"/><path d="M55.378,149.567l107.442,-0c4.995,-0 9.05,-4.056 9.05,-9.05c0,-4.995 -4.055,-9.051 -9.05,-9.051l-107.442,0c-4.995,0 -9.05,4.056 -9.05,9.051c-0,4.994 4.055,9.05 9.05,9.05Z" style="fill:#e9f6fd;"/><path d="M122.072,102.218c0.218,-0.637 0.115,-1.339 -0.276,-1.887c-0.391,-0.547 -1.022,-0.872 -1.695,-0.872l-45.015,0c-4.995,0 -9.05,4.056 -9.05,9.05c-0,4.995 4.055,9.051 9.05,9.051l43.285,-0c0.697,-0 1.348,-0.349 1.734,-0.928c0.386,-0.58 0.457,-1.315 0.189,-1.958c-0.74,-1.775 -0.879,-3.813 -0.249,-5.788c0.01,-0.032 0.019,-0.064 0.028,-0.097c0.567,-2.124 1.23,-4.324 1.999,-6.571Z" style="fill:#e9f6fd;"/><path d="M134.579,116.77c1.511,1.984 3.625,3.541 6.181,4.356c6.61,2.109 13.689,-1.542 15.805,-8.148c3.682,-9.855 10.337,-22.012 22.04,-30.382c3.064,-2.192 6.513,-4.022 10.38,-5.421c-1.908,-1.532 -3.961,-2.888 -6.136,-4.044c-0.396,-0.21 -0.85,-0.287 -1.294,-0.219c-8.754,1.348 -15.981,4.368 -21.895,8.598c-12.476,8.924 -19.616,21.852 -23.547,32.395c-0.012,0.031 -0.023,0.063 -0.033,0.095c-0.332,1.041 -0.848,1.973 -1.501,2.77Z" style="fill:#1f96db;"/><path d="M193.015,42.487c-21.657,1.618 -37.604,8.968 -49.306,19.176c-15.501,13.521 -23.768,31.456 -27.658,46.039c-2.066,6.572 1.59,13.624 8.188,15.728c6.611,2.108 13.689,-1.542 15.806,-8.148c3.682,-9.856 10.337,-22.012 22.039,-30.383c7.701,-5.508 17.836,-8.727 30.909,-8.604c-1.358,5.785 0.1,12.119 4.45,16.788c6.933,7.441 18.602,7.853 26.042,0.921c0,-0 22.733,-21.182 22.733,-21.182c3.741,-3.485 5.865,-8.368 5.865,-13.481c0,-5.112 -2.124,-9.995 -5.865,-13.481c0,0 -22.733,-21.181 -22.733,-21.181c-7.44,-6.932 -19.109,-6.52 -26.042,0.921c-4.375,4.696 -5.825,11.076 -4.428,16.887l0,0Z" style="fill:#69d17d;"/></svg>