<svg width="31" height="34" viewBox="0 0 31 34" fill="none" xmlns="http://www.w3.org/2000/svg">
<path d="M22.2318 14.2161C23.4088 14.2161 24.5375 14.6674 25.3698 15.4707C26.202 16.2741 26.6695 17.3636 26.6695 18.4997C26.6695 19.7027 26.1237 21.339 25.2612 22.5684C24.4847 23.6743 23.4342 24.4851 22.2316 24.4851C21.0291 24.4851 19.9783 23.6743 19.2023 22.5684C18.3396 21.339 17.7939 19.7027 17.7939 18.4997C17.7939 17.3636 18.2615 16.2741 19.0937 15.4707C19.9259 14.6674 21.0547 14.2161 22.2316 14.2161H22.2318ZM24.3295 16.4751C23.9147 16.0746 23.3861 15.8018 22.8107 15.6912C22.2352 15.5807 21.6387 15.6374 21.0967 15.8542C20.5546 16.0709 20.0913 16.438 19.7654 16.909C19.4395 17.3799 19.2656 17.9336 19.2657 18.5C19.2657 19.4544 19.7111 20.7714 20.4154 21.7751C20.9378 22.5193 21.5814 23.0649 22.2318 23.0649C22.8823 23.0649 23.5261 22.5193 24.0483 21.7751C24.7526 20.7714 25.198 19.455 25.198 18.5C25.1985 18.1239 25.122 17.7514 24.9729 17.4039C24.8238 17.0564 24.6051 16.7407 24.3293 16.4751H24.3295Z" fill="#b20a0a" stroke="#b20a0a" stroke-width="0.7" stroke-miterlimit="10"/>
<path d="M22.2318 32.5673C22.8149 32.5673 22.4348 32.5698 23.2313 32.5722C26.7748 32.5824 29.5172 32.5906 29.5172 31.5474C29.5172 30.657 28.4763 29.0902 26.8461 27.8522C25.5791 26.8898 23.9703 26.1653 22.2318 26.1653C20.4933 26.1653 18.8845 26.8898 17.6178 27.8522C15.9876 29.0902 14.9457 30.657 14.9457 31.5474C14.9457 32.5906 17.6881 32.5824 21.2316 32.5722C22.0278 32.5698 21.648 32.5673 22.2309 32.5673H22.2318ZM23.2313 33.9878C23.0897 33.9878 23.4918 33.9878 22.2318 33.9878C20.9718 33.9878 21.3739 33.9878 21.2325 33.9878C16.8595 34.0005 13.4751 34.01 13.4751 31.5481C13.4751 30.2903 14.7356 28.2366 16.7093 26.7373C18.2055 25.6011 20.1256 24.7455 22.2318 24.7455C24.338 24.7455 26.2581 25.6011 27.7543 26.7373C29.7282 28.2366 30.9887 30.2903 30.9887 31.5481C30.9887 34.0104 27.6044 34.0005 23.2313 33.9878Z" fill="#b20a0a" stroke="#b20a0a" stroke-width="0.7" stroke-miterlimit="10"/>
<path d="M22.159 6.95594H15.7002V0.0263672L16.9563 0.219244L22.6793 5.74364L22.159 6.95594ZM17.1718 5.53545H20.3827L17.1718 2.43588V5.53545Z" fill="#b20a0a" stroke="#b20a0a" stroke-width="0.7" stroke-miterlimit="10"/>
<path d="M12.5529 30.5518H0.747498H0.0117188V29.8415V0.721356V0.0111084H0.747498H15.7298H16.4362H16.7408L16.9563 0.2193L22.6795 5.74369L22.8949 5.95166V6.24575V13.4372H21.4234V6.53984L16.1315 1.4316H1.48328V29.1313H13.1638L12.5529 30.5518Z" fill="#b20a0a" stroke="#b20a0a" stroke-width="0.7" stroke-miterlimit="10"/>
<path d="M4.50043 9.24438C4.30529 9.24438 4.11814 9.31921 3.98015 9.45241C3.84217 9.58561 3.76465 9.76626 3.76465 9.95463C3.76465 10.143 3.84217 10.3237 3.98015 10.4569C4.11814 10.5901 4.30529 10.6649 4.50043 10.6649H14.0656C14.2607 10.6649 14.4479 10.5901 14.5858 10.4569C14.7238 10.3237 14.8013 10.143 14.8013 9.95463C14.8013 9.76626 14.7238 9.58561 14.5858 9.45241C14.4479 9.31921 14.2607 9.24438 14.0656 9.24438H4.50043Z" fill="#b20a0a" stroke="#b20a0a" stroke-width="0.7" stroke-miterlimit="10"/>
<path d="M4.50043 13.5059C4.30529 13.5059 4.11814 13.5807 3.98015 13.7139C3.84217 13.8471 3.76465 14.0277 3.76465 14.2161C3.76465 14.4045 3.84217 14.5851 3.98015 14.7183C4.11814 14.8515 4.30529 14.9264 4.50043 14.9264H17.0087C17.2038 14.9264 17.391 14.8515 17.529 14.7183C17.6669 14.5851 17.7445 14.4045 17.7445 14.2161C17.7445 14.0277 17.6669 13.8471 17.529 13.7139C17.391 13.5807 17.2038 13.5059 17.0087 13.5059H4.50043Z" fill="#b20a0a" stroke="#b20a0a" stroke-width="0.7" stroke-miterlimit="10"/>
<path d="M4.50043 17.7673C4.30529 17.7673 4.11814 17.8422 3.98015 17.9754C3.84217 18.1086 3.76465 18.2892 3.76465 18.4776C3.76465 18.666 3.84217 18.8466 3.98015 18.9798C4.11814 19.113 4.30529 19.1878 4.50043 19.1878H14.8013C14.9965 19.1878 15.1836 19.113 15.3216 18.9798C15.4596 18.8466 15.5371 18.666 15.5371 18.4776C15.5371 18.2892 15.4596 18.1086 15.3216 17.9754C15.1836 17.8422 14.9965 17.7673 14.8013 17.7673H4.50043Z" fill="#b20a0a" stroke="#b20a0a" stroke-width="0.7" stroke-miterlimit="10"/>
<path d="M4.50043 22.0288C4.30529 22.0288 4.11814 22.1036 3.98015 22.2368C3.84217 22.37 3.76465 22.5507 3.76465 22.7391C3.76465 22.9274 3.84217 23.1081 3.98015 23.2413C4.11814 23.3745 4.30529 23.4493 4.50043 23.4493H15.5371C15.7323 23.4493 15.9194 23.3745 16.0574 23.2413C16.1954 23.1081 16.2729 22.9274 16.2729 22.7391C16.2729 22.5507 16.1954 22.37 16.0574 22.2368C15.9194 22.1036 15.7323 22.0288 15.5371 22.0288H4.50043Z" fill="#b20a0a" stroke="#b20a0a" stroke-width="0.7" stroke-miterlimit="10"/>
</svg>
