<svg id="Outline" xmlns="http://www.w3.org/2000/svg" viewBox="0 0 51 51"><defs><style>.cls-1{stroke:#b20a0a;stroke-miterlimit:10;}</style></defs><path class="cls-1" d="M49.5.5H1.5a1,1,0,0,0-1,1v48a1,1,0,0,0,1,1h8a1,1,0,0,0,0-2h-7v-38h46v38h-31a1,1,0,0,0,0,2h32a1,1,0,0,0,1-1V1.5A1,1,0,0,0,49.5.5Zm-47,2h46v2h-30a1,1,0,0,0-.8.4L15,8.5H2.5Zm15,6,1.5-2H48.5v2Z"/><circle class="cls-1" cx="5.5" cy="5.5" r="1"/><circle class="cls-1" cx="9.5" cy="5.5" r="1"/><circle class="cls-1" cx="13.5" cy="5.5" r="1"/><path class="cls-1" d="M27.5,25.5a1,1,0,0,0,1-1v-7a4,4,0,0,0-8,0v7a1,1,0,0,0,2,0v-3h4v3A1,1,0,0,0,27.5,25.5Zm-5-6v-2a2,2,0,0,1,4,0v2Z"/><path class="cls-1" d="M17.5,13.5h-5a1,1,0,0,0-1,1v10a1,1,0,0,0,2,0v-5h3a1,1,0,0,0,0-2h-3v-2h4a1,1,0,0,0,0-2Z"/><path class="cls-1" d="M34.5,13.5a4,4,0,0,0-4,4v3A4,4,0,0,0,36,24.2l.68.9a1,1,0,1,0,1.6-1.2L37.61,23a3.93,3.93,0,0,0,.89-2.48v-3A4,4,0,0,0,34.5,13.5Zm.8,6.4a1,1,0,1,0-1.6,1.2l1,1.38-.23,0a2,2,0,0,1-2-2v-3a2,2,0,0,1,4,0v3a2.1,2.1,0,0,1-.16.79Z"/><path class="cls-1" d="M10.7,29.9,8.5,32.83,6.3,29.9a1,1,0,1,0-1.6,1.2l3,4a1,1,0,0,0,1.6,0l3-4a1,1,0,1,0-1.6-1.2Z"/><path class="cls-1" d="M14.5,30.5a1,1,0,0,0,1,1h22a1,1,0,0,0,0-2h-22A1,1,0,0,0,14.5,30.5Z"/><path class="cls-1" d="M46.5,34.5a1,1,0,0,0-1-1h-30a1,1,0,0,0,0,2h30A1,1,0,0,0,46.5,34.5Z"/><path class="cls-1" d="M10.7,38.9,8.5,41.83,6.3,38.9a1,1,0,0,0-1.6,1.2l3,4a1,1,0,0,0,1.6,0l3-4a1,1,0,1,0-1.6-1.2Z"/><path class="cls-1" d="M15.5,38.5a1,1,0,0,0,0,2h22a1,1,0,0,0,0-2Z"/><path class="cls-1" d="M46.5,43.5a1,1,0,0,0-1-1h-30a1,1,0,0,0,0,2h30A1,1,0,0,0,46.5,43.5Z"/><circle class="cls-1" cx="13.5" cy="49.5" r="1"/></svg>