<svg width="32" height="33" viewBox="0 0 32 33" fill="none" xmlns="http://www.w3.org/2000/svg">
<path d="M11.9502 8.27C11.3239 7.46825 10.9879 6.47795 10.9968 5.46065C11.0057 4.44335 11.359 3.45909 11.9991 2.6684C12.6393 1.87772 13.5285 1.32729 14.5217 1.10688C15.5148 0.886477 16.5534 1.00911 17.4679 1.45478C18.3824 1.90045 19.119 2.64285 19.5574 3.56089C19.9957 4.47893 20.1101 5.51843 19.8818 6.50982C19.6535 7.50121 19.096 8.38599 18.3003 9.01984C17.5045 9.65369 16.5175 9.99919 15.5002 10" stroke="#b20a0a" stroke-width="2" stroke-linecap="round" stroke-linejoin="round"/>
<path d="M22.25 25.75C21.3217 25.75 20.4315 25.3813 19.7751 24.7249C19.1187 24.0685 18.75 23.1783 18.75 22.25C18.75 21.3217 19.1187 20.4315 19.7751 19.7751C20.4315 19.1187 21.3217 18.75 22.25 18.75H29.75C30.0152 18.75 30.2696 18.8554 30.4571 19.0429C30.6446 19.2304 30.75 19.4848 30.75 19.75V24.75C30.75 25.0152 30.6446 25.2696 30.4571 25.4571C30.2696 25.6446 30.0152 25.75 29.75 25.75H22.25Z" stroke="#b20a0a" stroke-width="2" stroke-linecap="round" stroke-linejoin="round"/>
<path d="M22.25 23.75C23.0784 23.75 23.75 23.0784 23.75 22.25C23.75 21.4216 23.0784 20.75 22.25 20.75C21.4216 20.75 20.75 21.4216 20.75 22.25C20.75 23.0784 21.4216 23.75 22.25 23.75Z" stroke="#b20a0a" stroke-width="2" stroke-linecap="round" stroke-linejoin="round"/>
<path d="M1.75 25.5V9.5C1.75 9.10218 1.90804 8.72064 2.18934 8.43934C2.47064 8.15804 2.85218 8 3.25 8H8.75" stroke="#b20a0a" stroke-width="2" stroke-linecap="round" stroke-linejoin="round"/>
<path d="M29.75 25.75V30.25C29.75 30.6478 29.592 31.0294 29.3107 31.3107C29.0294 31.592 28.6478 31.75 28.25 31.75H3.25C2.85218 31.75 2.47064 31.592 2.18934 31.3107C1.90804 31.0294 1.75 30.6478 1.75 30.25V14.25C1.75 13.8522 1.90804 13.4706 2.18934 13.1893C2.47064 12.908 2.85218 12.75 3.25 12.75H28.25C28.6478 12.75 29.0294 12.908 29.3107 13.1893C29.592 13.4706 29.75 13.8522 29.75 14.25V16.75" stroke="#b20a0a" stroke-width="2" stroke-linecap="round" stroke-linejoin="round"/>
<path d="M19.5 8.02002H28.5" stroke="#b20a0a" stroke-width="2" stroke-linecap="round" stroke-linejoin="round"/>
</svg>
