<svg id="Capa_1" data-name="Capa 1" xmlns="http://www.w3.org/2000/svg" viewBox="0 0 512 512"><defs><style>.cls-1{fill:#b20a0a;}</style></defs><path class="cls-1" d="M314.5,0C205.6,0,117,88.6,117,197.5a196.21,196.21,0,0,0,29.75,104.11L121.33,327l-10.61-10.6L17.55,409.6a60,60,0,0,0,84.85,84.85l93.17-93.17L185,390.67l25.41-25.42A196.24,196.24,0,0,0,314.5,395C423.4,395,512,306.4,512,197.5S423.4,0,314.5,0ZM81.18,473.24a30,30,0,1,1-42.42-42.43l72-72,42.43,42.43Zm82.57-103.78-21.21-21.21,22.17-22.17a200.35,200.35,0,0,0,21.21,21.21ZM314.5,365C222.14,365,147,289.86,147,197.5S222.14,30,314.5,30,482,105.14,482,197.5,406.86,365,314.5,365Z"/><path class="cls-1" d="M359.5,104.5a45,45,0,0,0-90,0v15h-62v164h214v-164h-62Zm-60,0a15,15,0,0,1,30,0v15h-30Zm-62,149V207a44.88,44.88,0,0,0,15,2.58h124a44.93,44.93,0,0,0,15-2.58V253.5Zm154-88.89a15,15,0,0,1-15,15h-124a15,15,0,0,1-15-15V149.5h154Z"/></svg>