<svg id="Capa_1" enable-background="new 0 0 510 510" height="512" viewBox="0 0 510 510" width="512" xmlns="http://www.w3.org/2000/svg" xmlns:xlink="http://www.w3.org/1999/xlink"><linearGradient id="lg1"><stop offset="0" stop-color="#5a5a5a"/><stop offset="1" stop-color="#444"/></linearGradient><linearGradient id="SVGID_1_" gradientUnits="userSpaceOnUse" x1="136.777" x2="411.478" xlink:href="#lg1" y1="95.324" y2="370.024"/><linearGradient id="SVGID_00000065791484081207499540000007265776690964372640_" gradientUnits="userSpaceOnUse" x1="390.291" x2="146.717" xlink:href="#lg1" y1="348.838" y2="105.263"/><linearGradient id="SVGID_00000068671854056126189790000007688330165896995502_" gradientUnits="userSpaceOnUse" x1="196.381" x2="141.381" y1="178.391" y2="61.391"><stop offset="0" stop-color="#433f43" stop-opacity="0"/><stop offset=".2942" stop-color="#3e3a3e" stop-opacity=".294"/><stop offset=".6796" stop-color="#2d2b2d" stop-opacity=".68"/><stop offset="1" stop-color="#1a1a1a"/></linearGradient><linearGradient id="lg2"><stop offset="0" stop-color="#433f43" stop-opacity="0"/><stop offset="1" stop-color="#1a1a1a"/></linearGradient><linearGradient id="SVGID_00000064325832734225267140000004998210414368615095_" gradientUnits="userSpaceOnUse" x1="220.932" x2="161.932" xlink:href="#lg2" y1="425.298" y2="357.798"/><linearGradient id="SVGID_00000114795198402385910020000002241745982125262247_" gradientTransform="matrix(0 -1 1 0 -86.015 -640.015)" gradientUnits="userSpaceOnUse" x1="-876.219" x2="-876.219" xlink:href="#lg2" y1="521.017" y2="591.043"/><linearGradient id="SVGID_00000174604447909748485430000002971749794632464774_" gradientUnits="userSpaceOnUse" x1="173.572" x2="353.507" y1="143.261" y2="323.197"><stop offset="0" stop-color="#fef0ae"/><stop offset="1" stop-color="#fbc56d"/></linearGradient><linearGradient id="lg3"><stop offset="0" stop-color="#dc8758" stop-opacity="0"/><stop offset=".2153" stop-color="#dd8654" stop-opacity=".215"/><stop offset=".4291" stop-color="#e28448" stop-opacity=".429"/><stop offset=".6424" stop-color="#ea8034" stop-opacity=".642"/><stop offset=".8542" stop-color="#f47b18" stop-opacity=".854"/><stop offset="1" stop-color="#fe7701"/></linearGradient><linearGradient id="SVGID_00000167380897599190263560000000551973029286608308_" gradientUnits="userSpaceOnUse" x1="211.993" x2="159.993" xlink:href="#lg3" y1="197.502" y2="93.501"/><linearGradient id="SVGID_00000166660012824911495690000006693640428357920667_" gradientUnits="userSpaceOnUse" x1="239.012" x2="124.262" xlink:href="#lg3" y1="378.445" y2="318.945"/><linearGradient id="SVGID_00000152960351057684894950000008487671709467226779_" gradientUnits="userSpaceOnUse" x1="92.196" x2="92.196" y1="159.529" y2="503.385"><stop offset="0" stop-color="#ffeee6"/><stop offset="1" stop-color="#ffb09e"/></linearGradient><linearGradient id="SVGID_00000084497269966627589370000012242717972123054212_" gradientUnits="userSpaceOnUse" x1="115.066" x2="116.716" y1="432.582" y2="459.803"><stop offset="0" stop-color="#f89580" stop-opacity="0"/><stop offset=".9972" stop-color="#c5715a"/></linearGradient><linearGradient id="SVGID_00000011003893719450233890000004511468857995633048_" gradientUnits="userSpaceOnUse" x1="129.248" x2="129.248" y1="440.339" y2="512.269"><stop offset="0" stop-color="#62dbfb"/><stop offset=".1912" stop-color="#57d5fa"/><stop offset=".5232" stop-color="#3bc5f7"/><stop offset=".954" stop-color="#0dabf2"/><stop offset="1" stop-color="#08a9f1"/></linearGradient><linearGradient id="SVGID_00000179638787316380693890000016601624972396821379_" gradientUnits="userSpaceOnUse" x1="307.339" x2="337.855" xlink:href="#lg3" y1="278.095" y2="361.224"/><linearGradient id="SVGID_00000016039493458393271610000000870910721979189157_" gradientUnits="userSpaceOnUse" x1="237.594" x2="400.187" xlink:href="#lg3" y1="136.403" y2="298.996"/><linearGradient id="SVGID_00000105394392250431338560000010959289840519419523_" gradientUnits="userSpaceOnUse" x1="30.555" x2="173.245" y1="14.382" y2="157.072"><stop offset="0" stop-color="#aeffd1"/><stop offset=".1201" stop-color="#a3f9cb"/><stop offset=".3288" stop-color="#87eab9"/><stop offset=".6012" stop-color="#59d19d"/><stop offset=".9235" stop-color="#19af77"/><stop offset="1" stop-color="#09a76d"/></linearGradient><linearGradient id="SVGID_00000113321852456772214320000016924387715624269203_" gradientTransform="matrix(-1 0 0 1 258.53 0)" gradientUnits="userSpaceOnUse" x1="188.539" x2="188.539" y1="137.3" y2="169.674"><stop offset="0" stop-color="#02905d" stop-opacity="0"/><stop offset=".3274" stop-color="#028857" stop-opacity=".327"/><stop offset=".8532" stop-color="#027046" stop-opacity=".853"/><stop offset="1" stop-color="#026841"/></linearGradient><g><g><g><g><g><path d="m489.036 82.234h-422.757c-11.578 0-20.964 9.386-20.964 20.964v266.013c0 11.578 9.386 20.964 20.964 20.964h422.757c11.578 0 20.964-9.386 20.964-20.964v-266.014c0-11.578-9.386-20.963-20.964-20.963z" fill="url(#SVGID_1_)"/><path d="m58.719 112.544v247.32c0 7.528 6.102 13.63 13.63 13.63h410.617c7.528 0 13.63-6.103 13.63-13.63v-247.32c0-7.528-6.103-13.63-13.63-13.63h-410.617c-7.528 0-13.63 6.102-13.63 13.63z" fill="url(#SVGID_00000065791484081207499540000007265776690964372640_)"/><path d="m358 296.997v-214.763h-291.721c-11.578 0-20.964 9.386-20.964 20.964v193.8h312.685z" fill="url(#SVGID_00000068671854056126189790000007688330165896995502_)"/><path d="m147.333 304.378v85.797h85.797z" fill="url(#SVGID_00000064325832734225267140000004998210414368615095_)"/><path d="m298.007 390.175h191.03c11.578 0 20.964-9.386 20.964-20.964v-266.014c0-11.578-9.386-20.964-20.964-20.964h-191.03z" fill="url(#SVGID_00000114795198402385910020000002241745982125262247_)"/></g><path d="m458.56 127.31v217.79c0 6.815-5.525 12.34-12.34 12.34h-359.41c-6.815 0-12.34-5.525-12.34-12.34v-50.795c0-5.211 4.224-9.435 9.435-9.435 5.211 0 9.435-4.224 9.435-9.435v-78.46c0-5.211-4.224-9.435-9.435-9.435-5.211 0-9.435-4.224-9.435-9.435v-50.795c0-6.815 5.525-12.34 12.34-12.34h359.41c6.815 0 12.34 5.525 12.34 12.34z" fill="url(#SVGID_00000174604447909748485430000002971749794632464774_)"/><path d="m358 114.97v182.03h-283.53v-2.695c0-5.211 4.224-9.435 9.435-9.435 5.211 0 9.435-4.224 9.435-9.435v-78.46c0-5.211-4.224-9.435-9.435-9.435-5.211 0-9.435-4.224-9.435-9.435v-50.795c0-6.815 5.525-12.34 12.34-12.34z" fill="url(#SVGID_00000167380897599190263560000000551973029286608308_)"/><g><g><g fill="#f6ab31"><path d="m184.22 325.261h79.24c3.649 0 6.607 2.958 6.607 6.607s-2.958 6.607-6.607 6.607h-79.24c-3.649 0-6.607-2.958-6.607-6.607s2.958-6.607 6.607-6.607z"/><path d="m184.22 298.594h29.953c3.649 0 6.607 2.958 6.607 6.607s-2.958 6.607-6.607 6.607h-29.953c-3.649 0-6.607-2.958-6.607-6.607s2.958-6.607 6.607-6.607z"/><path d="m237.079 298.594h7.488c3.649 0 6.607 2.958 6.607 6.607s-2.958 6.607-6.607 6.607h-7.488c-3.649 0-6.607-2.958-6.607-6.607s2.958-6.607 6.607-6.607z"/></g></g></g><path d="m147.333 304.378v53.06h53.06z" fill="url(#SVGID_00000166660012824911495690000006693640428357920667_)"/></g></g><g><g><g><g><g><g><path d="m183.062 461.648h-117.218l-18.198-29.125-18.155-29.64c-28.074-46.679-36.535-102.57-23.528-155.329l3.7-13.018c3.035-12.332 15.496-19.828 27.828-16.729 2.905.729 5.538 1.983 7.828 3.636v68.105h.054c-.236 16.761 3.678 33.468 11.185 48.685 8.933 18.048 13.104 25.05 35.302 44.245 3.871 3.335 8.643 2.188 10.584-2.531l.536-1.308c.418-21.576 2.82-43.055 7.185-64.169 2.499-12.118 14.552-19.742 26.594-16.879 10.016 2.37 16.879 11.324 16.879 21.372 0 .944-.054 1.898-.182 2.863-2.477 19.174-1.008 38.712 4.365 57.371 1.029 3.56 2.445 7.002 4.118 10.305 5.255 10.445 17.801 35.774 20.353 44.889.021.086.043.172.064.257 2.508 9.028 2.647 18.282.706 27z" fill="url(#SVGID_00000152960351057684894950000008487671709467226779_)"/></g></g><path d="m183.061 461.653h-117.214l-18.205-29.126-1.081-1.765 112.776-47.125c.767 1.996 1.633 3.959 2.598 5.865 5.254 10.443 17.801 35.775 20.35 44.889.025.083.049.165.066.256 2.508 9.032 2.648 18.278.71 27.006z" fill="url(#SVGID_00000084497269966627589370000012242717972123054212_)"/></g></g></g><path d="m206.066 471.884v17.717c0 11.265-9.132 20.397-20.397 20.397h-112.843c-11.265 0-20.397-9.132-20.397-20.397v-17.717c0-11.265 9.132-20.397 20.397-20.397h112.844c11.264 0 20.396 9.132 20.396 20.397z" fill="url(#SVGID_00000011003893719450233890000004511468857995633048_)"/></g></g><g><path d="m445.3 357.438h-217.67c11.1-21.37 30.08-38 53.1-46.03 14.27 14.24 33.97 23.04 55.73 23.04s41.47-8.8 55.74-23.04c23.02 8.03 42 24.66 53.1 46.03z" fill="url(#SVGID_00000179638787316380693890000016601624972396821379_)"/><path d="m336.464 334.45c-43.596 0-78.937-35.341-78.937-78.937v-40.481c0-43.596 35.341-78.937 78.937-78.937 43.596 0 78.937 35.341 78.937 78.937v40.481c0 43.596-35.341 78.937-78.937 78.937z" fill="url(#SVGID_00000016039493458393271610000000870910721979189157_)"/></g><g><path d="m65.887.003h64.703c36.388 0 65.887 29.499 65.887 65.887v32.352c0 19.192-8.211 36.461-21.305 48.503v34.471c0 6.444-7.791 9.671-12.347 5.114l-22.875-22.875c-3.059.435-6.181.674-9.36.674h-64.703c-36.388-.001-65.887-29.499-65.887-65.888v-32.351c0-36.389 29.499-65.887 65.887-65.887z" fill="url(#SVGID_00000105394392250431338560000010959289840519419523_)"/><g fill="#fff"><path d="m102.155 76.353h-48.641c-4.496 0-8.14 3.644-8.14 8.14s3.644 8.14 8.14 8.14h48.641c4.496 0 8.14-3.645 8.14-8.14s-3.645-8.14-8.14-8.14z"/><path d="m142.964 49.02h-48.641c-4.496 0-8.14 3.644-8.14 8.14s3.645 8.14 8.14 8.14h48.641c4.496 0 8.14-3.645 8.14-8.14 0-4.496-3.644-8.14-8.14-8.14z"/><path d="m69.316 49.02h-15.802c-4.496 0-8.14 3.644-8.14 8.14s3.645 8.14 8.14 8.14h15.803c4.496 0 8.14-3.645 8.14-8.14 0-4.496-3.645-8.14-8.141-8.14z"/></g><path d="m75.92 99.425 64.032 64.032c-3.059.435-6.182.672-9.362.672h-64.703c-35.992 0-65.223-28.863-65.857-64.704z" fill="url(#SVGID_00000113321852456772214320000016924387715624269203_)"/></g></g></svg>