<svg id="Capa_1" data-name="Capa 1" xmlns="http://www.w3.org/2000/svg" viewBox="0 0 482 512"><defs><style>.cls-1{fill:#b20a0a;}</style></defs><path class="cls-1" d="M372,262.9V0H98.79L0,98.79V512H357A125.14,125.14,0,0,0,482,387C482,323.15,433.88,270.34,372,262.9ZM90,51.21V90H51.21ZM30,482V120h90V30H342V262.9c-61.88,7.44-110,60.25-110,124.1a124.74,124.74,0,0,0,43.86,95Zm327,0a95,95,0,1,1,95-95A95.11,95.11,0,0,1,357,482Z"/><path class="cls-1" d="M60.5,153.2h30v30h-30Z"/><path class="cls-1" d="M60.5,219.6h30v30h-30Z"/><path class="cls-1" d="M60.5,286h30v30h-30Z"/><path class="cls-1" d="M60.5,352.4h30v30h-30Z"/><path class="cls-1" d="M60.5,418.8h30v30h-30Z"/><path class="cls-1" d="M120.5,153.2h194v30h-194Z"/><path class="cls-1" d="M120.5,219.6h194v30h-194Z"/><path class="cls-1" d="M120.5,286h81v30h-81Z"/><path class="cls-1" d="M120.5,352.4h81v30h-81Z"/><path class="cls-1" d="M120.5,418.8h81v30h-81Z"/><path class="cls-1" d="M372,324.5H342V372H294.5v30H342v47.5h30V402h47.5V372H372Z"/><path class="cls-1" d="M224.5,61.47h90v30h-90Z"/></svg>