<svg width="512" height="512" viewBox="0 0 512 512" fill="none" xmlns="http://www.w3.org/2000/svg">
<path d="M439.359 223.64L267.099 88.3699C263.742 86.3722 259.907 85.3177 255.999 85.3177C252.092 85.3177 248.257 86.3722 244.899 88.3699L70.7895 225.1C70.4221 226.687 70.2342 228.311 70.2295 229.94V397.32H441.229V229.94C441.229 229.94 441.309 228.94 441.329 227.73C441.337 226.943 441.163 226.164 440.822 225.455C440.48 224.746 439.98 224.125 439.359 223.64Z" fill="#E5A930"/>
<path d="M97.0297 204.5L249.32 327.31V368.15L70.2197 258.65L70.7997 225.1L97.0297 204.5Z" fill="#CE9530"/>
<path d="M369.53 55.22H141.98C135.8 55.22 130.79 60.2299 130.79 66.41V389.2C130.79 395.38 135.8 400.39 141.98 400.39H369.53C375.71 400.39 380.72 395.38 380.72 389.2V66.41C380.72 60.2299 375.71 55.22 369.53 55.22Z" fill="white"/>
<path d="M249.32 327.31V368.14L130.79 295.67V231.72L249.32 327.31Z" fill="#E2E1E0"/>
<path d="M441.77 229.94V442.88C441.77 444.488 441.453 446.081 440.837 447.566C440.221 449.052 439.319 450.402 438.181 451.538C437.043 452.675 435.693 453.577 434.207 454.191C432.721 454.806 431.128 455.121 429.52 455.12H82.4596C80.8526 455.12 79.2615 454.803 77.777 454.188C76.2926 453.573 74.9439 452.671 73.8081 451.534C72.6723 450.398 71.7717 449.048 71.1576 447.563C70.5436 446.078 70.2282 444.487 70.2296 442.88V229.94C70.2253 228.685 70.4142 227.437 70.7896 226.24L244.89 363C248.249 364.998 252.086 366.052 255.995 366.052C259.903 366.052 263.74 364.998 267.1 363L441.2 226.23C441.578 227.43 441.77 228.681 441.77 229.94Z" fill="#F7BB38"/>
<path d="M441.769 421.66V442.87C441.769 446.119 440.479 449.235 438.182 451.532C435.884 453.829 432.768 455.12 429.519 455.12H82.4595C79.215 455.117 76.1042 453.827 73.811 451.532C71.5177 449.236 70.2295 446.125 70.2295 442.88V421.66L227.509 328.09C236.131 322.96 245.977 320.251 256.01 320.251C266.042 320.251 275.888 322.96 284.51 328.09L441.769 421.66Z" fill="#F6C752"/>
<path d="M124.46 455.12H82.4596C80.8526 455.12 79.2615 454.803 77.777 454.188C76.2926 453.573 74.9439 452.671 73.8081 451.534C72.6723 450.398 71.7717 449.048 71.1576 447.563C70.5436 446.078 70.2282 444.487 70.2296 442.88V229.94C70.2253 228.685 70.4142 227.437 70.7896 226.24L112.23 258.77V442.88C112.228 444.487 112.544 446.078 113.158 447.563C113.772 449.048 114.672 450.398 115.808 451.534C116.944 452.671 118.293 453.573 119.777 454.188C121.261 454.803 122.853 455.12 124.46 455.12Z" fill="#E5AB35"/>
<path d="M124.459 455.12H82.4595C80.8526 455.12 79.2614 454.803 77.777 454.188C76.2925 453.573 74.9438 452.671 73.808 451.534C72.6722 450.398 71.7716 449.048 71.1576 447.563C70.5435 446.078 70.2282 444.487 70.2295 442.88V421.66L112.229 396.66V442.86C112.226 444.468 112.539 446.062 113.152 447.549C113.765 449.037 114.665 450.388 115.801 451.527C116.937 452.666 118.287 453.57 119.772 454.186C121.258 454.803 122.851 455.12 124.459 455.12Z" fill="#F7BB38"/>
<path d="M417.19 327.88C424.038 327.88 429.59 322.328 429.59 315.48C429.59 308.632 424.038 303.08 417.19 303.08C410.342 303.08 404.79 308.632 404.79 315.48C404.79 322.328 410.342 327.88 417.19 327.88Z" fill="#F6C752"/>
<path d="M417.19 298.43C422.039 298.43 425.97 294.499 425.97 289.65C425.97 284.801 422.039 280.87 417.19 280.87C412.341 280.87 408.41 284.801 408.41 289.65C408.41 294.499 412.341 298.43 417.19 298.43Z" fill="#F6C752"/>
<path d="M248 93.22H168.76C167.434 93.22 166.162 92.6932 165.224 91.7555C164.287 90.8178 163.76 89.5461 163.76 88.22C163.76 86.8939 164.287 85.6221 165.224 84.6844C166.162 83.7468 167.434 83.22 168.76 83.22H248C249.326 83.22 250.598 83.7468 251.535 84.6844C252.473 85.6221 253 86.8939 253 88.22C253 89.5461 252.473 90.8178 251.535 91.7555C250.598 92.6932 249.326 93.22 248 93.22Z" fill="#32314B"/>
<path d="M343.43 128.05H168.76C167.434 128.05 166.162 127.523 165.224 126.585C164.287 125.648 163.76 124.376 163.76 123.05C163.76 121.724 164.287 120.452 165.224 119.514C166.162 118.577 167.434 118.05 168.76 118.05H343.43C344.756 118.05 346.028 118.577 346.965 119.514C347.903 120.452 348.43 121.724 348.43 123.05C348.43 124.376 347.903 125.648 346.965 126.585C346.028 127.523 344.756 128.05 343.43 128.05Z" fill="#32314B"/>
<path d="M343.43 162.88H168.76C167.434 162.88 166.162 162.353 165.224 161.416C164.287 160.478 163.76 159.206 163.76 157.88C163.76 156.554 164.287 155.282 165.224 154.344C166.162 153.407 167.434 152.88 168.76 152.88H343.43C344.756 152.88 346.028 153.407 346.965 154.344C347.903 155.282 348.43 156.554 348.43 157.88C348.43 159.206 347.903 160.478 346.965 161.416C346.028 162.353 344.756 162.88 343.43 162.88Z" fill="#32314B"/>
<path d="M343.43 197.72H168.76C167.434 197.72 166.162 197.193 165.224 196.256C164.287 195.318 163.76 194.046 163.76 192.72C163.76 191.394 164.287 190.122 165.224 189.184C166.162 188.247 167.434 187.72 168.76 187.72H343.43C344.756 187.72 346.028 188.247 346.965 189.184C347.903 190.122 348.43 191.394 348.43 192.72C348.43 194.046 347.903 195.318 346.965 196.256C346.028 197.193 344.756 197.72 343.43 197.72Z" fill="#32314B"/>
<path d="M343.43 232.55H168.76C167.434 232.55 166.162 232.023 165.224 231.085C164.287 230.148 163.76 228.876 163.76 227.55C163.76 226.224 164.287 224.952 165.224 224.014C166.162 223.077 167.434 222.55 168.76 222.55H343.43C344.756 222.55 346.028 223.077 346.965 224.014C347.903 224.952 348.43 226.224 348.43 227.55C348.43 228.876 347.903 230.148 346.965 231.085C346.028 232.023 344.756 232.55 343.43 232.55Z" fill="#32314B"/>
<path d="M343.43 267.38H168.76C167.434 267.38 166.162 266.853 165.224 265.916C164.287 264.978 163.76 263.706 163.76 262.38C163.76 261.054 164.287 259.782 165.224 258.844C166.162 257.907 167.434 257.38 168.76 257.38H343.43C344.756 257.38 346.028 257.907 346.965 258.844C347.903 259.782 348.43 261.054 348.43 262.38C348.43 263.706 347.903 264.978 346.965 265.916C346.028 266.853 344.756 267.38 343.43 267.38Z" fill="#32314B"/>
</svg>
