<svg id="Capa_1" data-name="Capa 1" xmlns="http://www.w3.org/2000/svg" viewBox="0 0 512 512"><defs><style>.cls-1{fill:#b20a0a;}</style></defs><path class="cls-1" d="M512,316.69V195.3H458.69a210.67,210.67,0,0,0-16.46-39.7l37.71-37.7L394.1,32.06,356.4,69.77a210.4,210.4,0,0,0-39.7-16.46V0H195.3V53.31a210,210,0,0,0-39.7,16.46L117.9,32.06,32.06,117.9l37.71,37.7a210.4,210.4,0,0,0-16.46,39.7H0V316.69H53.31a209.47,209.47,0,0,0,16.46,39.7L32.06,394.1l85.84,85.84,37.7-37.71a211.06,211.06,0,0,0,39.7,16.46V512H316.7V458.69a210.4,210.4,0,0,0,39.7-16.46l37.7,37.71,85.84-85.84-37.71-37.7a210.4,210.4,0,0,0,16.46-39.7H512ZM437.51,394.1,394.1,437.51l-33-33L351,410.72a180.73,180.73,0,0,1-52.79,21.88l-11.52,2.74V482H225.3V435.34l-11.52-2.74A180.73,180.73,0,0,1,161,410.72l-10.09-6.21-33,33L74.49,394.1l33-33L101.28,351a180.27,180.27,0,0,1-21.87-52.78l-2.75-11.53H30V225.3H76.66l2.74-11.52A180.73,180.73,0,0,1,101.28,161l6.21-10.09-33-33L117.9,74.49l33,33L161,101.28a180.44,180.44,0,0,1,52.79-21.87l11.52-2.75V30h61.4V76.66l11.52,2.74A180.73,180.73,0,0,1,351,101.28l10.09,6.21,33-33,43.41,43.41-33,33L410.72,161a180.73,180.73,0,0,1,21.88,52.79l2.74,11.52H482v61.39H435.34l-2.74,11.53A180.56,180.56,0,0,1,410.72,351l-6.21,10.1Z"/><path class="cls-1" d="M256,104.5c-83.54,0-151.5,68-151.5,151.5s68,151.5,151.5,151.5,151.5-68,151.5-151.5S339.54,104.5,256,104.5Zm30,60a30,30,0,1,1-30-30A30,30,0,0,1,286,164.5ZM134.5,256A121.6,121.6,0,0,1,198,149.28a59.86,59.86,0,0,0,8.86,49.52A45.05,45.05,0,0,0,181,239.5v112A121.35,121.35,0,0,1,134.5,256ZM211,368.86V239.5a15,15,0,0,1,15-15h15V284h30V224.5h15a15,15,0,0,1,15,15V368.86a121.51,121.51,0,0,1-90,0Zm120-17.33v-112a45.05,45.05,0,0,0-25.82-40.7A59.86,59.86,0,0,0,314,149.28a121.43,121.43,0,0,1,17,202.25Z"/></svg>