<svg width="899" height="838" viewBox="0 0 899 838" fill="none" xmlns="http://www.w3.org/2000/svg">
<g clip-path="url(#clip0_1395_2953)">
<path d="M521.917 294H376.083C362.275 294.017 349.037 299.509 339.273 309.273C329.509 319.037 324.017 332.275 324 346.083V491.917C324.017 505.725 329.509 518.963 339.273 528.727C349.037 538.491 362.275 543.983 376.083 544H521.917C535.725 543.983 548.963 538.491 558.727 528.727C568.491 518.963 573.983 505.725 574 491.917V346.083C573.983 332.275 568.491 319.037 558.727 309.273C548.963 299.509 535.725 294.017 521.917 294ZM376.083 314.833H521.917C530.205 314.833 538.153 318.126 544.014 323.986C549.874 329.847 553.167 337.795 553.167 346.083V491.917C553.149 496.557 552.08 501.133 550.042 505.302L454.594 409.854C449.757 405.016 444.015 401.179 437.695 398.56C431.375 395.942 424.601 394.594 417.76 394.594C410.92 394.594 404.146 395.942 397.826 398.56C391.506 401.179 385.764 405.016 380.927 409.854L344.833 445.938V346.083C344.833 337.795 348.126 329.847 353.986 323.986C359.847 318.126 367.795 314.833 376.083 314.833ZM376.083 523.167C367.795 523.167 359.847 519.874 353.986 514.014C348.126 508.153 344.833 500.205 344.833 491.917V475.396L395.646 424.583C398.548 421.679 401.994 419.376 405.787 417.804C409.579 416.232 413.645 415.423 417.75 415.423C421.855 415.423 425.921 416.232 429.713 417.804C433.506 419.376 436.952 421.679 439.854 424.583L535.302 520.042C531.133 522.08 526.557 523.149 521.917 523.167H376.083Z" fill="#F1F2F3"/>
<path d="M490.667 403.375C497.877 403.375 504.926 401.237 510.922 397.231C516.917 393.225 521.59 387.53 524.35 380.869C527.109 374.207 527.831 366.876 526.424 359.804C525.018 352.732 521.545 346.235 516.447 341.137C511.348 336.038 504.852 332.566 497.779 331.159C490.707 329.752 483.377 330.474 476.715 333.233C470.053 335.993 464.359 340.666 460.353 346.661C456.347 352.657 454.208 359.706 454.208 366.917C454.208 376.586 458.049 385.859 464.887 392.697C471.724 399.534 480.997 403.375 490.667 403.375ZM490.667 351.292C493.757 351.292 496.778 352.208 499.347 353.925C501.917 355.642 503.92 358.082 505.102 360.937C506.285 363.792 506.594 366.934 505.991 369.965C505.389 372.996 503.9 375.78 501.715 377.965C499.53 380.15 496.746 381.638 493.715 382.241C490.684 382.844 487.542 382.535 484.687 381.352C481.832 380.17 479.392 378.167 477.675 375.597C475.958 373.028 475.042 370.007 475.042 366.917C475.042 362.773 476.688 358.798 479.618 355.868C482.548 352.938 486.523 351.292 490.667 351.292Z" fill="#F1F2F3"/>
</g>
<defs>
<clipPath id="clip0_1395_2953">
<rect width="250" height="250" fill="white" transform="translate(324 294)"/>
</clipPath>
</defs>
</svg>
