<svg width="1920" height="1291" viewBox="0 0 1920 1291" fill="none" xmlns="http://www.w3.org/2000/svg">
<path d="M1615.47 625.478L1615.18 625.587L1501.12 778.944L1273.28 855.532L1272.99 855.641L1158.92 1009L931.087 1085.59L930.797 1085.69L816.734 1239.05L663.528 1290.53H668.118L817.926 1240.17L818.216 1240.06L932.315 1086.7L1160.15 1010.12L1160.44 1010.01L1274.54 856.651L1502.38 780.062L1502.67 779.954L1616.73 626.597L1844.57 550.008L1844.86 549.9L1919.93 448.997V445.894L1843.34 548.854L1615.47 625.478ZM1586.92 606.322L1586.63 606.43L1472.56 759.788L1244.73 836.376L1244.44 836.484L1130.37 989.842L902.534 1066.43L902.245 1066.54L788.182 1219.9L577.944 1290.57H582.534L789.374 1221.05L789.663 1220.94L903.727 1067.58L1131.57 990.996L1131.85 990.888L1245.92 837.531L1473.76 760.942L1474.05 760.834L1588.11 607.477L1815.95 530.888L1816.24 530.78L1919.82 391.528V388.426L1814.72 529.734L1586.92 606.322ZM1700.69 223.019L1586.63 376.376L1358.79 452.965L1358.5 453.073L1244.44 606.43L1016.56 683.019L1016.27 683.127L902.209 836.484L674.335 913.073L674.046 913.181L559.982 1066.54L332.144 1143.13L331.855 1143.23L222.272 1290.57H224.585L333.409 1144.25L561.247 1067.66L561.536 1067.55L675.6 914.191L903.438 837.603L903.727 837.494L1017.79 684.137L1245.67 607.549L1245.95 607.441L1360.02 454.083L1587.86 377.495L1588.15 377.387L1702.21 224.029L1919.89 150.868V149.317L1701.02 222.875L1700.69 223.019ZM1729.24 242.175L1615.18 395.533L1387.34 472.121L1387.05 472.229L1272.99 625.587L1045.15 702.175L1044.86 702.283L930.797 855.641L702.923 932.229L702.634 932.337L588.57 1085.69L360.696 1162.28L360.407 1162.39L264.92 1290.53H267.233L361.816 1163.4L589.654 1086.81L589.944 1086.7L704.007 933.347L931.882 856.759L932.171 856.651L1046.23 703.293L1274.07 626.705L1274.36 626.597L1388.46 473.239L1616.3 396.651L1616.59 396.543L1730.69 243.185L1919.82 179.62V178.069L1729.53 242.067L1729.24 242.175ZM1871.82 798.136L1757.76 951.493L1529.92 1028.08L1529.63 1028.19L1415.57 1181.55L1187.73 1258.14L1187.44 1258.24L1163.41 1290.57H1165.72L1188.99 1259.29L1416.83 1182.7L1417.12 1182.59L1531.19 1029.24L1759.02 952.648L1759.31 952.54L1873.38 799.182L1919.93 783.525V781.974L1872.15 798.028L1871.82 798.136ZM1900.34 817.292L1786.28 970.649L1558.44 1047.24L1558.15 1047.35L1444.08 1200.7L1216.25 1277.29L1215.96 1277.4L1206.16 1290.53H1208.48L1217.47 1278.41L1445.31 1201.82L1445.6 1201.71L1559.67 1048.36L1787.5 971.768L1787.79 971.66L1901.86 818.302L1919.89 812.242V810.69L1900.63 817.148L1900.34 817.292ZM1672.5 663.827L1672.21 663.935L1558.15 817.292L1330.31 893.881L1330.02 893.989L1215.96 1047.35L988.118 1123.93L987.829 1124.04L873.766 1277.4L834.66 1290.53H839.25L874.994 1278.52L875.283 1278.41L989.347 1125.05L1217.19 1048.46L1217.47 1048.36L1331.54 894.999L1559.38 818.411L1559.67 818.302L1673.73 664.945L1901.57 588.357L1901.86 588.248L1919.89 564.006V560.903L1900.34 587.202L1672.5 663.827ZM1643.98 644.671L1643.7 644.779L1529.63 798.136L1301.79 874.724L1301.5 874.833L1187.44 1028.19L959.602 1104.78L959.313 1104.89L845.25 1258.24L749.112 1290.57H753.702L846.478 1259.4L846.768 1259.29L960.831 1105.93L1188.67 1029.34L1188.96 1029.24L1303.02 875.879L1530.86 799.29L1531.15 799.182L1645.21 645.825L1873.05 569.237L1873.34 569.128L1919.89 506.537V503.435L1871.82 568.082L1643.98 644.671ZM1843.31 318.872L1729.24 472.229L1501.41 548.818L1501.12 548.926L1387.05 702.283L1159.21 778.872L1158.92 778.98L1044.86 932.337L817.023 1008.93L816.734 1009.03L702.67 1162.39L474.832 1238.98L474.543 1239.09L436.232 1290.57H438.545L476.061 1240.1L703.899 1163.51L704.188 1163.4L818.252 1010.04L1046.09 933.456L1046.38 933.347L1160.44 779.99L1388.28 703.402L1388.57 703.293L1502.63 549.936L1730.47 473.348L1730.76 473.239L1844.82 319.882L1919.89 294.665V293.114L1843.6 318.764L1843.31 318.872ZM1900.34 357.184L1786.28 510.542L1558.44 587.13L1558.15 587.238L1444.08 740.596L1216.25 817.184L1215.96 817.292L1101.86 970.649L874.018 1047.24L873.729 1047.35L759.666 1200.7L531.827 1277.29L531.538 1277.4L521.744 1290.53H524.057L533.056 1278.41L760.894 1201.82L761.184 1201.71L875.247 1048.36L1103.09 971.768L1103.37 971.66L1217.47 818.302L1445.31 741.714L1445.6 741.606L1559.67 588.248L1787.5 511.66L1787.79 511.552L1901.86 358.194L1919.89 352.134V350.582L1900.63 357.04L1900.34 357.184ZM1871.82 338.028L1757.76 491.385L1529.92 567.974L1529.63 568.082L1415.57 721.439L1187.73 798.028L1187.44 798.136L1073.38 951.493L845.539 1028.08L845.25 1028.19L731.186 1181.55L503.348 1258.14L503.059 1258.24L479.024 1290.57H481.337L504.613 1259.29L732.451 1182.7L732.74 1182.59L846.804 1029.24L1074.64 952.648L1074.93 952.54L1188.99 799.182L1416.83 722.594L1417.12 722.486L1531.19 569.128L1759.02 492.54L1759.31 492.432L1873.38 339.074L1919.93 323.418V321.866L1872.15 337.92L1871.82 338.028ZM1757.76 261.331L1643.66 414.689L1415.82 491.277L1415.53 491.385L1301.47 644.743L1073.63 721.331L1073.34 721.439L959.277 874.797L731.439 951.385L731.15 951.493L617.086 1104.85L389.248 1181.44L388.959 1181.55L307.892 1290.53H310.206L390.332 1182.56L618.17 1105.97L618.459 1105.86L732.523 952.503L960.361 875.915L960.65 875.807L1074.71 722.449L1302.55 645.861L1302.84 645.753L1416.91 492.396L1644.78 415.807L1645.07 415.699L1759.13 262.342L1919.75 208.373V206.821L1757.9 261.223L1757.76 261.331ZM1672.5 203.719L1672.21 203.827L1558.15 357.184L1330.31 433.773L1330.02 433.881L1215.96 587.238L988.118 663.827L987.829 663.935L873.766 817.292L645.927 893.881L645.638 893.989L531.574 1047.35L303.736 1123.93L303.447 1124.04L189.383 1277.4L150.278 1290.53H154.868L190.612 1278.52L190.901 1278.41L304.965 1125.05L532.803 1048.46L533.092 1048.36L647.156 894.999L874.994 818.411L875.283 818.302L989.347 664.945L1217.19 588.357L1217.47 588.248L1331.54 434.891L1559.38 358.303L1559.67 358.194L1673.73 204.837L1901.57 128.249L1901.86 128.14L1919.89 103.898V100.795L1900.34 127.094L1672.5 203.719ZM1786.28 280.524L1672.21 433.881L1444.34 510.469L1444.05 510.578L1329.98 663.935L1102.15 740.523L1101.86 740.632L987.793 893.989L759.955 970.577L759.666 970.686L645.602 1124.04L417.764 1200.63L417.475 1200.74L350.648 1290.57H352.961L418.993 1201.79L646.831 1125.2L647.12 1125.09L761.184 971.732L989.022 895.143L989.311 895.035L1103.37 741.678L1331.21 665.089L1331.5 664.981L1445.57 511.624L1673.4 435.035L1673.69 434.927L1787.76 281.57L1919.86 237.161V235.61L1786.53 280.415L1786.28 280.524ZM1843.31 778.944L1729.24 932.301L1501.41 1008.89L1501.12 1009L1387.05 1162.36L1159.18 1238.94L1158.89 1239.05L1120.58 1290.53H1122.89L1160.41 1240.06L1388.24 1163.47L1388.53 1163.37L1502.6 1010.01L1730.44 933.419L1730.73 933.311L1844.79 779.954L1919.86 754.737V753.186L1843.56 778.836L1843.31 778.944ZM1871.82 107.974L1643.98 184.563L1643.7 184.671L1529.6 338.028L1301.76 414.617L1301.47 414.725L1187.4 568.082L959.566 644.671L959.277 644.779L845.213 798.136L617.375 874.724L617.086 874.833L503.022 1028.19L275.184 1104.78L274.895 1104.89L160.831 1258.24L64.6939 1290.57H69.2839L162.06 1259.4L162.349 1259.29L276.413 1105.93L504.251 1029.34L504.54 1029.24L618.604 875.879L846.442 799.29L846.731 799.182L960.795 645.825L1188.63 569.237L1188.92 569.128L1302.99 415.771L1530.82 339.183L1531.11 339.074L1645.18 185.717L1873.02 109.129L1873.3 109.02L1919.86 46.4653V43.3628L1871.82 107.974ZM1814.79 299.68L1700.73 453.037L1472.85 529.625L1472.56 529.734L1358.5 683.091L1130.66 759.68L1130.37 759.788L1016.31 913.145L788.471 989.733L788.182 989.842L674.118 1143.2L446.28 1219.79L445.991 1219.9L393.44 1290.57H395.753L447.545 1220.94L675.383 1144.35L675.672 1144.25L789.772 990.888L1017.61 914.299L1017.9 914.191L1132 760.834L1359.84 684.245L1360.13 684.137L1474.19 530.78L1702.06 454.192L1702.35 454.083L1816.42 300.726L1920 265.913V264.362L1815.19 299.572L1814.79 299.68ZM1757.76 1181.55L1676.69 1290.53H1679.01L1759.31 1182.56L1919.93 1128.59V1127.04L1758.08 1181.44L1757.76 1181.55ZM1786.28 1200.7L1719.45 1290.53H1721.76L1787.83 1201.75L1919.93 1157.34V1155.79L1786.6 1200.6L1786.28 1200.7ZM1700.69 1143.2L1591.11 1290.53H1593.42L1702.25 1144.21L1919.93 1071.05V1069.5L1701.05 1143.05L1700.69 1143.2ZM1814.79 1219.9L1762.24 1290.57H1764.55L1816.35 1220.94L1919.93 1186.13V1184.58L1815.12 1219.79L1814.79 1219.9ZM1672.5 1123.93L1672.21 1124.04L1558.15 1277.4L1519.04 1290.53H1523.63L1559.38 1278.52L1559.67 1278.41L1673.73 1125.05L1901.57 1048.46L1901.86 1048.36L1919.89 1024.11V1021.01L1900.34 1047.31L1672.5 1123.93ZM1900.34 1277.4L1890.54 1290.53H1892.86L1901.86 1278.41L1919.89 1272.35V1270.8L1900.63 1277.26L1900.34 1277.4ZM1871.82 1258.24L1847.79 1290.57H1850.1L1873.38 1259.29L1919.93 1243.63V1242.08L1872.15 1258.14L1871.82 1258.24ZM1814.79 759.788L1700.73 913.145L1472.85 989.733L1472.56 989.842L1358.5 1143.2L1130.66 1219.79L1130.37 1219.9L1077.82 1290.57H1080.14L1131.93 1220.94L1359.77 1144.35L1360.05 1144.25L1474.12 990.888L1701.99 914.299L1702.28 914.191L1816.35 760.834L1919.93 726.021V724.47L1815.12 759.68L1814.79 759.788ZM1843.31 1239.05L1805 1290.53H1807.31L1844.82 1240.06L1919.89 1214.84V1213.29L1843.6 1238.94L1843.31 1239.05ZM1643.98 1104.74L1643.7 1104.85L1529.63 1258.21L1433.49 1290.53H1438.08L1530.86 1259.36L1531.15 1259.25L1645.21 1105.9L1873.05 1029.31L1873.34 1029.2L1919.89 966.609V963.506L1871.82 1028.15L1643.98 1104.74ZM1729.24 702.283L1615.18 855.641L1387.34 932.229L1387.05 932.337L1272.99 1085.69L1045.15 1162.28L1044.86 1162.39L949.519 1290.57H951.832L1046.42 1163.44L1274.25 1086.85L1274.54 1086.74L1388.61 933.383L1616.44 856.795L1616.73 856.687L1730.8 703.329L1919.93 639.764V638.213L1729.57 702.211L1729.24 702.283ZM1786.28 740.632L1672.21 893.989L1444.34 970.577L1444.05 970.686L1329.98 1124.04L1102.15 1200.63L1101.86 1200.74L1035.03 1290.57H1037.27L1103.3 1201.79L1331.14 1125.2L1331.43 1125.09L1445.49 971.732L1673.33 895.143L1673.62 895.035L1787.68 741.678L1919.78 697.269V695.717L1786.46 740.523L1786.28 740.632ZM1757.76 721.439L1643.7 874.797L1415.86 951.385L1415.57 951.493L1301.5 1104.85L1073.63 1181.44L1073.34 1181.55L992.275 1290.53H994.588L1074.9 1182.56L1302.73 1105.97L1303.02 1105.86L1417.09 952.503L1644.96 875.915L1645.25 875.807L1759.31 722.449L1919.93 668.48V666.929L1758.08 721.331L1757.76 721.439ZM1700.69 683.091L1586.63 836.484L1358.79 913.073L1358.5 913.181L1244.44 1066.54L1016.56 1143.13L1016.27 1143.23L906.691 1290.57H909.004L1017.83 1144.25L1245.7 1067.66L1245.99 1067.55L1360.05 914.191L1587.89 837.603L1588.18 837.494L1702.25 684.137L1919.93 610.976V609.425L1701.05 682.983L1700.69 683.091ZM1615.47 1085.59L1615.18 1085.69L1501.12 1239.05L1347.95 1290.53H1352.54L1502.34 1240.17L1502.63 1240.06L1616.7 1086.7L1844.54 1010.12L1844.82 1010.01L1919.89 909.104V906.002L1843.31 1008.96L1615.47 1085.59ZM1586.92 1066.43L1586.63 1066.54L1472.56 1219.9L1262.33 1290.57H1266.92L1473.76 1221.05L1474.05 1220.94L1588.11 1067.58L1815.95 990.996L1816.24 990.888L1919.82 851.636V848.534L1814.72 989.842L1586.92 1066.43ZM1729.24 1162.36L1633.9 1290.53H1636.21L1730.8 1163.4L1919.93 1099.84V1098.28L1729.57 1162.28L1729.24 1162.36ZM133.653 549.936L361.491 473.348L361.78 473.239L475.844 319.882L703.682 243.294L703.971 243.185L818.071 89.8282L1045.91 13.2397L1046.2 13.1315L1056.07 0H1053.75L1044.75 12.1214L816.914 88.7098L816.625 88.8181L702.562 242.175L474.723 318.764L474.434 318.872L360.262 472.229L132.424 548.818L132.135 548.926L18.0348 702.283L0 708.344V709.895L19.5527 703.329L133.653 549.936ZM76.5846 741.642L190.648 588.284L418.487 511.696L418.776 511.588L532.839 358.23L760.678 281.642L760.967 281.534L875.03 128.177L1102.87 51.5881L1103.16 51.4798L1141.61 0H1139.3L1101.75 50.4697L873.91 127.058L873.621 127.166L759.557 280.524L531.719 357.112L531.43 357.22L417.366 510.578L189.528 587.166L189.239 587.274L75.0666 740.632L0 765.848V767.4L76.2955 741.75L76.5846 741.642ZM275.943 875.951L276.232 875.843L390.332 722.486L618.17 645.897L618.459 645.789L732.523 492.432L960.361 415.843L960.65 415.735L1074.71 262.378L1302.55 185.789L1302.84 185.681L1416.91 32.3237L1513.19 0H1508.6L1415.78 31.2054L1415.5 31.3136L1301.43 184.671L1073.56 261.259L1073.27 261.368L959.205 414.725L731.367 491.313L731.077 491.422L617.014 644.779L389.176 721.367L388.886 721.475L274.823 874.833L46.9844 951.421L46.6953 951.529L0 1014.08V1017.19L48.0687 952.54L275.943 875.951ZM247.427 856.759L247.716 856.651L361.78 703.293L589.618 626.705L589.907 626.597L703.971 473.239L931.845 396.651L932.135 396.543L1046.2 243.185L1274.04 166.597L1274.33 166.489L1388.39 13.1315L1427.64 0H1423.05L1387.31 12.0132L1387.02 12.1214L1272.92 165.479L1045.04 242.067L1044.75 242.175L930.689 395.533L702.815 472.121L702.525 472.229L588.462 625.587L360.587 702.175L360.298 702.283L246.234 855.641L18.3239 932.229L18.0348 932.337L0 956.544V959.646L19.5527 933.347L247.427 856.759ZM58.6944 0H54.1044L18.3239 12.0132L18.0348 12.1214L0 36.3642V39.4667L19.5527 13.1676L58.6944 0ZM162.169 799.146L276.232 645.789L504.07 569.2L504.36 569.092L618.423 415.735L846.262 339.146L846.551 339.038L960.65 185.681L1188.49 109.093L1188.78 108.984L1269.95 0H1267.64L1187.33 107.974L959.494 184.563L959.205 184.671L845.105 338.028L617.267 414.617L616.978 414.725L502.914 568.082L275.003 644.671L274.714 644.779L160.651 798.136L0 852.105V853.656L161.843 799.254L162.169 799.146ZM133.653 779.99L247.716 626.633L475.591 550.044L475.88 549.936L589.944 396.579L817.782 319.99L818.071 319.882L932.135 166.525L1159.97 89.9364L1160.26 89.8282L1227.2 0H1224.88L1158.82 88.8181L930.978 165.407L930.689 165.515L816.625 318.872L588.787 395.46L588.498 395.569L474.434 548.926L246.487 625.478L246.198 625.587L132.135 778.944L0 823.353V824.904L133.327 780.098L133.653 779.99ZM105.101 760.798L219.164 607.441L447.039 530.852L447.328 530.744L561.391 377.387L789.23 300.798L789.519 300.69L903.583 147.333L1131.42 70.7442L1131.71 70.636L1184.4 0H1182.09L1130.3 69.6259L902.462 146.214L902.173 146.323L788.109 299.68L560.199 376.268L559.91 376.376L445.846 529.734L217.972 606.322L217.682 606.43L103.619 759.788L0 794.601V796.152L104.811 760.942L105.101 760.798ZM76.5846 1201.75L190.684 1048.39L418.523 971.804L418.812 971.696L532.876 818.338L760.714 741.75L761.003 741.642L875.067 588.284L1102.9 511.696L1103.19 511.588L1217.26 358.23L1445.1 281.642L1445.39 281.534L1559.45 128.177L1787.29 51.5881L1787.58 51.4798L1826.1 0H1823.79L1786.28 50.4697L1558.44 127.058L1558.15 127.166L1444.08 280.524L1216.17 357.076L1215.88 357.184L1101.82 510.542L873.982 587.13L873.693 587.238L759.63 740.596L531.791 817.184L531.502 817.292L417.438 970.649L189.6 1047.24L189.311 1047.35L75.2473 1200.7L0 1225.96V1227.51L76.2955 1201.86L76.5846 1201.75ZM48.0687 1182.56L162.132 1029.2L389.971 952.612L390.26 952.503L504.323 799.146L732.162 722.558L732.451 722.449L846.515 569.092L1074.35 492.504L1074.64 492.396L1188.71 339.038L1416.54 262.45L1416.83 262.342L1530.9 108.984L1758.73 32.3959L1759.02 32.2876L1783.31 0H1781L1757.72 31.2775L1529.88 107.866L1529.6 107.974L1415.53 261.331L1187.69 337.92L1187.4 338.028L1073.34 491.385L845.503 567.974L845.213 568.082L731.15 721.439L503.311 798.028L503.022 798.136L388.959 951.493L161.12 1028.08L160.831 1028.19L46.7676 1181.55L0 1197.2V1198.76L47.7795 1182.7L48.0687 1182.56ZM133.653 1010.04L361.491 933.456L361.78 933.347L475.844 779.99L703.682 703.402L703.971 703.293L818.035 549.936L1045.87 473.348L1046.16 473.239L1160.23 319.882L1388.06 243.294L1388.35 243.185L1502.42 89.8282L1730.26 13.2397L1730.54 13.1315L1740.52 0H1738.21L1729.21 12.1214L1501.37 88.7098L1501.08 88.8181L1387.02 242.175L1159.14 318.764L1158.85 318.872L1044.75 472.229L816.914 548.818L816.625 548.926L702.562 702.283L474.723 778.872L474.434 778.98L360.37 932.337L132.532 1008.93L132.243 1009.03L18.0348 1162.36L0 1168.42V1169.97L19.5527 1163.4L133.653 1010.04ZM304.459 895.107L304.748 894.999L418.812 741.642L646.65 665.053L646.939 664.945L761.003 511.588L988.841 434.999L989.13 434.891L1103.19 281.534L1331.03 204.945L1331.32 204.837L1445.39 51.4798L1598.77 0H1594.18L1444.34 50.3615L1444.05 50.4697L1329.95 203.827L1102.11 280.415L1101.82 280.524L987.757 433.881L759.919 510.469L759.63 510.578L645.566 663.935L417.728 740.523L417.438 740.632L303.23 893.989L75.3919 970.577L75.1028 970.686L0 1071.59V1074.69L76.5846 971.696L304.459 895.107ZM133.653 1240.1L247.716 1086.74L475.591 1010.15L475.88 1010.04L589.944 856.687L817.782 780.098L818.071 779.99L932.171 626.633L1160.01 550.044L1160.3 549.936L1274.36 396.579L1502.2 319.99L1502.49 319.882L1616.55 166.525L1844.39 89.9364L1844.68 89.8282L1911.65 0H1909.34L1843.27 88.8181L1615.43 165.407L1615.14 165.515L1501.08 318.872L1273.24 395.46L1272.95 395.569L1158.89 548.926L931.05 625.514L930.761 625.623L816.661 778.98L588.823 855.568L588.534 855.677L474.47 1009.03L246.487 1085.59L246.198 1085.69L132.135 1239.05L0 1283.46V1285.01L133.327 1240.21L133.653 1240.1ZM332.975 914.299L333.264 914.191L447.328 760.834L675.166 684.245L675.455 684.137L789.519 530.78L1017.36 454.192L1017.65 454.083L1131.71 300.726L1359.55 224.138L1359.84 224.029L1473.9 70.6721L1684.32 0H1679.73L1472.85 69.5176L1472.56 69.6259L1358.5 222.983L1130.66 299.572L1130.37 299.68L1016.31 453.037L788.471 529.625L788.182 529.734L674.118 683.091L446.28 759.68L445.991 759.788L331.927 913.145L104.089 989.733L103.799 989.842L0 1129.09V1132.2L105.101 990.888L332.975 914.299ZM190.684 818.338L304.748 664.981L532.586 588.393L532.876 588.284L646.939 434.927L874.777 358.339L875.067 358.23L989.13 204.873L1216.97 128.285L1217.26 128.177L1312.74 0H1310.43L1215.85 127.13L988.01 203.719L987.721 203.827L873.657 357.184L645.819 433.773L645.53 433.881L531.466 587.238L303.628 663.827L303.339 663.935L189.275 817.292L0 880.857V882.409L190.359 818.411L190.684 818.338ZM105.101 1220.91L219.164 1067.55L447.039 990.96L447.328 990.852L561.391 837.494L789.23 760.906L789.519 760.798L903.583 607.441L1131.42 530.852L1131.71 530.744L1245.77 377.387L1473.61 300.798L1473.9 300.69L1587.96 147.333L1815.8 70.7442L1816.09 70.636L1868.9 0H1866.58L1814.79 69.6259L1586.95 146.214L1586.63 146.323L1472.56 299.68L1244.73 376.268L1244.44 376.376L1130.37 529.734L902.534 606.322L902.245 606.43L788.182 759.788L560.199 836.376L559.91 836.484L445.846 989.842L217.972 1066.43L217.682 1066.54L103.619 1219.9L0 1254.71V1256.26L104.811 1221.05L105.101 1220.91ZM48.0687 722.486L162.132 569.128L389.971 492.54L390.26 492.432L504.323 339.074L732.162 262.486L732.451 262.378L846.515 109.02L1074.5 32.4319L1074.79 32.3237L1098.82 0H1096.51L1073.23 31.2775L845.394 107.866L845.105 107.974L731.041 261.331L503.203 337.92L502.914 338.028L388.85 491.385L161.012 567.974L160.723 568.082L46.6591 721.439L0 737.096V738.647L47.7795 722.594L48.0687 722.486ZM105.101 300.726L219.164 147.369L447.039 70.7803L447.328 70.6721L499.914 0H497.601L445.81 69.6259L217.972 146.214L217.682 146.323L103.583 299.68L0 334.493V336.044L104.811 300.834L105.101 300.726ZM162.169 339.038L276.232 185.681L504.07 109.093L504.36 108.984L585.462 0H583.149L502.842 107.974L275.003 184.563L274.714 184.671L160.614 338.028L0 391.997V393.548L161.843 339.146L162.169 339.038ZM190.684 358.23L304.748 204.873L532.586 128.285L532.876 128.177L628.254 0H625.941L531.358 127.13L303.519 203.719L303.23 203.827L189.166 357.184L0 420.785V422.337L190.359 358.339L190.684 358.23ZM133.653 319.882L247.716 166.525L475.591 89.9364L475.88 89.8282L542.706 0H540.393L474.326 88.8181L246.487 165.37L246.198 165.479L132.098 318.872L0 363.245V364.796L133.327 319.99L133.653 319.882ZM219.2 377.387L333.264 224.029L561.102 147.441L561.391 147.333L671.046 0H668.733L559.91 146.323L332.035 222.911L331.746 223.019L217.682 376.376L0 449.538V451.089L218.875 377.531L219.2 377.387ZM144.242 0H139.652L46.8398 31.2054L46.5507 31.3136L0 93.8687V96.9711L48.0687 32.3237L144.242 0ZM315.374 0H310.784L103.908 69.5176L103.619 69.6259L0 208.914V212.016L105.101 70.7081L315.374 0ZM229.79 0H225.2L75.3558 50.3615L75.0666 50.4697L0 151.373V154.476L76.5846 51.5159L229.79 0ZM247.427 396.687L247.716 396.579L361.78 243.222L589.618 166.633L589.907 166.525L704.043 13.1676L743.149 0H738.559L702.815 12.0132L702.525 12.1214L588.462 165.479L360.587 242.067L360.298 242.175L246.234 395.533L18.3239 472.121L18.0348 472.229L0 496.472V499.575L19.5527 473.276L247.427 396.687ZM76.5846 281.534L190.648 128.177L418.523 51.5881L418.812 51.4798L457.158 0H454.845L417.294 50.4697L189.456 127.058L189.166 127.166L75.0666 280.524L0 305.741V307.292L76.2955 281.642L76.5846 281.534ZM332.975 454.192L333.264 454.083L447.328 300.726L675.166 224.138L675.455 224.029L789.519 70.6721L999.828 0H995.238L788.362 69.5176L788.073 69.6259L674.01 222.983L446.171 299.572L445.882 299.68L331.818 453.037L103.98 529.625L103.691 529.734L0 668.985V672.088L105.101 530.78L332.975 454.192ZM275.943 415.843L276.232 415.735L390.332 262.378L618.17 185.789L618.459 185.681L732.523 32.3237L828.733 0H824.143L731.331 31.2054L731.041 31.3136L616.941 184.671L389.103 261.259L388.814 261.368L274.75 414.725L46.9121 491.313L46.623 491.422L0 553.977V557.079L48.0687 492.432L275.943 415.843ZM304.459 434.999L304.748 434.891L418.848 281.534L646.686 204.945L646.975 204.837L761.039 51.4798L914.281 0H909.69L759.846 50.3615L759.557 50.4697L645.457 203.827L417.619 280.415L417.33 280.524L303.23 433.881L75.3558 510.469L75.0666 510.578L0 611.481V614.583L76.5846 511.624L304.459 434.999ZM48.0687 262.378L162.132 109.02L389.971 32.4319L390.332 32.3237L414.366 0H412.053L388.778 31.2775L160.94 107.866L160.651 107.974L46.5507 261.331L0 276.988V278.54L47.7795 262.486L48.0687 262.378ZM133.653 89.8282L361.491 13.2397L361.78 13.1315L371.574 0H369.261L360.262 12.1214L132.424 88.7098L132.135 88.8181L18.0348 242.175L0 248.236V249.787L19.5527 243.222L133.653 89.8282ZM219.2 837.494L333.264 684.137L561.102 607.549L561.391 607.441L675.455 454.083L903.293 377.495L903.583 377.387L1017.75 224.029L1245.63 147.441L1245.92 147.333L1355.5 0H1353.19L1244.36 146.323L1016.49 222.911L1016.2 223.019L902.137 376.376L674.263 452.965L673.973 453.073L559.91 606.43L332.071 683.019L331.782 683.127L217.719 836.484L0 909.61V911.161L218.875 837.603L219.2 837.494Z" fill="#82BCAA" fill-opacity="0.24"/>
</svg>
