<svg width="1352" height="811" viewBox="0 0 1352 811" fill="none" xmlns="http://www.w3.org/2000/svg">
<path d="M690.142 2.69863H784.105C785.725 3.7778 786.265 4.85697 786.805 5.93615C788.425 10.2528 790.046 14.5695 791.666 18.8862C796.526 32.3759 801.926 46.9447 805.706 60.974C807.866 69.6073 810.026 78.2407 812.186 86.3345C813.806 92.27 814.886 97.6658 816.506 103.601C820.826 121.408 828.387 135.437 840.267 147.847C843.507 151.085 846.747 154.862 849.987 158.1C855.388 163.495 860.788 168.891 865.648 174.287C880.228 192.093 888.329 213.677 891.029 241.196L891.569 247.131C892.649 261.161 894.269 275.729 896.969 289.759C902.909 321.594 907.229 354.509 909.389 390.661C909.929 400.374 911.549 412.784 915.87 424.655C921.81 439.764 932.07 449.476 946.111 452.174C949.891 452.714 953.131 453.253 956.911 453.253C968.251 453.253 979.052 449.476 989.312 441.382C1003.89 430.591 1014.15 414.403 1021.71 392.82C1028.19 374.474 1028.73 355.049 1029.27 338.321C1029.81 325.371 1030.35 311.882 1032.51 298.392C1037.37 269.254 1050.87 244.973 1072.47 227.167C1080.57 220.152 1089.76 214.216 1098.4 208.281L1104.34 203.964C1141.06 178.604 1136.2 134.897 1132.42 117.631C1131.34 112.774 1128.64 108.997 1125.94 105.22C1118.38 95.5075 1107.58 92.8096 1097.86 91.7304C1090.3 90.6512 1082.19 90.6512 1076.79 90.6512C1073.55 90.6512 1070.85 90.6512 1067.61 90.6512C1064.37 90.6512 1061.67 90.6512 1058.43 90.6512C1056.81 90.6512 1055.19 90.6512 1053.57 90.6512C1044.93 90.6512 1037.91 89.572 1030.89 87.9533C1002.27 80.3991 977.432 64.2115 954.751 38.3113C947.731 30.2175 941.79 19.4258 936.39 5.93615C935.31 3.7778 935.31 2.69863 935.85 2.15904H980.132C981.752 3.23821 982.832 4.85697 983.912 7.01532C990.932 20.505 998.492 30.7571 1007.13 38.3113C1024.41 52.8802 1044.93 59.8948 1070.85 59.8948C1075.17 59.8948 1080.03 59.8948 1084.9 59.3552C1098.4 58.276 1112.44 57.1968 1126.48 55.5781C1135.66 54.4989 1144.84 53.4197 1154.02 51.2614C1162.12 49.1031 1166.98 44.2468 1170.22 36.153C1172.92 29.1384 1174.54 21.0446 1176.16 10.7924V9.17367C1176.16 6.47573 1176.7 4.31739 1178.32 2.69863H1219.9C1221.52 3.7778 1222.6 5.39656 1223.68 7.01532C1230.16 16.1883 1237.18 22.1237 1245.28 25.9008C1252.84 29.1384 1260.94 31.2967 1268.5 33.4551H1269.04C1271.74 33.9946 1273.9 34.5342 1276.6 35.6134C1286.32 38.3113 1296.58 41.0093 1306.3 45.326C1320.34 51.801 1328.98 58.8156 1334.38 69.0677C1344.1 86.3345 1347.34 105.76 1344.64 125.724C1340.32 155.941 1326.28 177.525 1301.98 191.014C1281.46 202.346 1260.4 208.821 1243.66 213.677C1240.42 214.756 1237.18 215.296 1234.48 216.375C1223.68 219.073 1212.88 222.31 1202.62 227.167C1184.26 235.26 1172.92 249.829 1169.14 270.333C1166.98 280.046 1166.98 290.298 1166.98 300.011V305.407C1166.98 314.58 1168.6 324.292 1171.3 335.623C1179.4 365.301 1197.22 389.582 1225.84 409.007C1241.5 419.259 1257.7 427.353 1274.44 435.447C1278.22 437.605 1282.54 439.224 1286.32 441.382C1301.44 448.937 1317.1 457.57 1332.22 468.362C1339.24 473.218 1346.26 479.153 1350.58 487.247V588.15C1350.04 588.15 1348.96 587.071 1348.42 586.531C1347.88 585.991 1347.34 585.452 1346.8 585.452C1334.92 574.66 1325.2 566.027 1316.56 557.933C1299.82 541.745 1285.24 523.399 1267.96 501.816C1252.84 482.93 1240.42 468.901 1227.46 456.491C1224.22 453.793 1220.98 450.555 1218.28 447.857C1206.94 437.605 1195.6 426.274 1184.8 414.943C1174 403.072 1164.28 389.042 1156.18 372.315C1145.38 350.732 1140.52 326.99 1136.74 306.486L1135.12 303.788C1133.5 292.996 1131.34 282.204 1127.56 271.952C1123.78 262.779 1116.76 257.383 1108.12 257.383C1106.5 257.383 1104.34 257.383 1102.72 257.923C1098.4 259.002 1094.08 260.621 1089.22 263.319C1074.63 271.413 1068.15 285.442 1063.83 298.392C1058.43 313.5 1057.35 329.148 1055.73 344.796L1055.19 351.811C1053.03 380.949 1044.39 408.468 1030.35 432.749C1019.55 451.095 1006.05 465.664 990.392 475.376C976.351 484.01 960.691 488.326 942.87 488.326C934.77 488.326 927.75 487.787 919.11 486.168C902.909 483.47 892.109 474.297 887.249 458.649C884.549 449.476 884.009 439.764 883.469 431.67C882.928 423.576 882.928 415.482 882.388 407.388C882.388 398.215 881.848 389.042 881.308 379.87C880.228 360.444 876.448 341.559 869.968 323.213C863.488 304.867 854.848 285.981 842.967 262.779C831.627 241.196 818.126 226.087 800.846 217.454C792.206 213.137 784.645 209.9 777.625 209.9C768.445 209.9 760.885 215.296 752.784 228.246C739.824 248.21 726.323 265.477 712.283 281.665C699.323 296.234 684.742 310.263 663.141 327.53C644.781 342.098 632.36 356.667 623.72 373.394C622.1 378.251 619.4 383.107 617.24 388.503C614 395.518 610.76 401.993 606.98 409.007C593.479 433.828 576.199 449.476 554.058 457.03C547.578 459.189 540.557 460.807 533.537 462.966C523.817 466.203 514.097 468.901 504.376 472.678C472.515 484.549 452.535 503.974 442.814 532.572C436.334 551.458 434.714 567.646 437.414 583.294C440.114 597.323 446.054 610.812 456.315 622.683C476.295 646.965 493.036 670.707 507.616 695.528C513.017 704.161 517.337 711.176 522.197 717.111C532.457 728.982 543.258 734.917 556.218 734.917H557.838C576.199 734.378 592.939 726.284 610.22 709.557C623.72 697.146 631.82 680.419 639.921 664.232L640.461 663.152C652.341 639.411 666.922 619.446 684.202 603.798C701.483 588.15 718.763 572.502 736.044 556.854C745.764 548.22 755.484 539.587 765.205 530.414C785.185 512.608 805.166 503.974 826.767 503.974C828.387 503.974 830.007 503.974 831.627 503.974C846.747 505.054 857.008 509.37 865.108 519.083C870.508 525.558 874.828 532.572 879.148 541.206C881.308 546.062 883.468 550.379 885.629 554.695C892.649 570.344 900.749 585.991 909.929 600.56C920.19 616.748 930.99 627.54 943.41 635.094C954.211 641.569 965.011 644.806 975.271 644.806C982.292 644.806 988.772 643.188 995.792 640.49C1002.81 637.792 1008.75 634.554 1014.15 631.317C1017.93 629.158 1021.17 627 1024.95 624.842C1033.59 619.446 1042.77 613.51 1052.49 608.654C1066.53 601.64 1080.57 598.402 1095.16 598.402C1101.1 598.402 1107.58 598.942 1114.06 600.56C1141.6 605.956 1161.04 627 1165.9 656.677C1168.06 667.469 1168.06 679.88 1165.9 694.448C1163.2 719.269 1147.54 737.076 1124.86 742.472C1111.9 745.169 1098.94 745.709 1085.97 746.249C1080.03 746.249 1074.09 746.788 1068.69 747.328C1065.45 747.328 1062.21 747.328 1058.97 747.328C1054.11 747.328 1048.71 747.328 1043.31 748.407C1019.55 751.645 1001.73 762.436 989.312 780.243C984.992 786.718 981.212 793.732 977.432 802.905C976.351 805.064 975.271 806.682 973.651 807.761H916.95C916.41 806.682 915.87 806.143 915.87 805.603C915.87 803.445 915.33 801.286 915.33 799.128C915.33 796.97 914.789 794.811 914.789 792.114C914.789 775.926 915.329 756.501 919.11 737.615C921.27 725.744 919.11 714.413 912.629 703.082C906.689 691.75 900.749 679.34 894.809 663.692C892.649 658.296 890.489 652.361 888.329 646.965C882.388 631.317 875.908 615.129 868.348 600.021C860.788 584.912 853.768 574.121 845.667 565.487C835.947 555.235 824.607 549.839 811.646 549.839C811.106 549.839 810.026 549.839 809.486 549.839C798.146 550.379 787.345 554.156 776.545 561.171C761.425 570.883 747.384 582.214 733.344 593.006L724.163 600.021C710.663 610.273 698.243 622.683 686.902 636.173C673.942 651.821 665.842 670.707 658.821 688.513C647.481 716.571 631.82 741.932 609.68 766.753C601.039 776.465 591.859 788.336 588.079 804.524C587.539 806.682 586.999 807.761 585.379 808.841H520.577C519.497 807.761 518.417 806.682 517.877 805.064C513.017 791.574 504.376 780.243 491.416 770.53L486.016 766.213C474.675 757.58 462.795 748.407 452.535 738.155C436.874 722.507 422.834 705.24 409.333 684.736C397.453 666.39 383.952 652.361 368.292 640.49C361.272 635.094 354.251 628.619 346.151 619.985C333.191 606.496 320.77 591.387 308.89 576.819C305.11 571.962 301.33 567.646 297.55 562.789C286.749 549.3 278.649 537.429 272.709 525.018C258.668 494.262 255.428 461.347 253.808 433.289C253.268 414.403 255.428 394.438 261.368 370.697C265.149 355.588 268.389 338.861 267.849 321.594C266.769 295.694 260.288 271.952 247.868 250.908C235.448 230.944 216.547 220.692 192.246 220.692C191.166 220.692 190.086 220.692 188.466 220.692C172.806 221.231 157.145 225.548 141.485 234.181C128.524 240.656 116.644 249.29 103.143 259.542C76.1425 280.586 45.3615 294.075 9.72036 300.55C9.18034 300.55 8.64032 300.55 8.1003 301.09C7.02027 301.09 5.94023 301.629 5.40022 301.629C4.8602 301.629 4.32018 301.629 3.78017 301.09V244.973C4.8602 244.433 5.40022 243.894 5.94023 243.894C9.18034 243.894 11.8804 243.354 14.0405 243.354C16.2006 243.354 18.3606 242.815 19.9807 242.815C31.8611 242.275 43.2014 240.656 53.4618 237.419C66.9622 233.642 79.9226 227.167 92.343 221.231C96.6632 219.073 100.443 217.454 104.223 215.296C132.844 201.806 159.845 195.331 186.846 195.331C194.406 195.331 201.967 195.871 209.527 196.95C233.288 200.187 251.648 212.598 264.069 235.26C274.869 253.606 282.429 275.729 288.369 304.327C292.149 321.594 292.689 337.242 290.529 351.811C289.449 362.063 287.289 371.776 285.129 381.488C284.049 385.265 283.509 388.503 282.429 392.28C277.029 415.482 275.949 436.526 278.649 457.57C284.589 500.737 305.11 533.652 340.211 554.156C349.391 559.552 358.032 562.25 365.592 562.25C377.472 562.25 387.733 555.775 397.453 543.364C404.473 534.731 409.873 525.018 415.273 515.845C417.434 512.608 419.594 508.831 421.214 505.593C435.794 481.851 456.315 463.505 481.696 451.095C492.496 446.239 503.296 441.922 513.557 437.605C520.037 434.907 525.977 432.749 532.457 430.051C562.158 417.101 578.359 396.057 583.219 364.761C585.379 350.192 586.459 335.084 585.919 319.975C585.919 314.58 586.459 308.644 588.079 303.248C590.779 292.457 597.259 286.521 607.52 284.902C611.84 283.823 616.7 283.823 621.02 283.823H623.18H625.34H626.96C644.781 283.823 661.521 275.729 673.402 261.7C686.362 246.052 692.302 225.548 689.062 205.044C685.282 180.223 676.102 157.56 667.462 137.595C665.841 133.818 664.221 130.041 662.601 126.264C657.201 113.314 651.261 100.364 647.481 86.3345C641.541 66.3698 643.161 50.7218 652.881 36.6926C658.281 28.5988 665.301 22.1237 671.782 16.1883C673.402 14.5695 675.562 12.9508 677.182 11.332C681.502 8.09449 685.282 4.31739 690.142 2.69863ZM690.142 0.540283C682.042 2.69863 677.182 10.2528 671.242 15.1091C664.221 21.0446 657.201 27.5196 651.801 35.6134C641.001 51.801 641.001 69.0678 646.401 86.8741C651.801 104.68 659.361 120.868 666.381 138.135C675.022 159.718 684.202 181.841 687.442 205.583C693.382 245.512 664.762 281.665 627.5 281.665C626.96 281.665 626.42 281.665 625.88 281.665C624.26 281.665 622.64 281.665 621.02 281.665C616.16 281.665 611.84 281.665 607.52 282.744C596.179 284.902 589.699 291.377 586.459 302.709C584.839 308.105 584.299 314.04 584.299 319.975C584.299 335.084 583.759 349.653 581.599 364.761C576.739 396.597 559.458 416.561 531.917 428.432C514.637 435.447 497.356 441.382 481.156 449.476C455.775 461.347 435.254 479.693 419.594 504.514C412.033 516.924 404.473 530.414 395.833 542.285C386.652 554.695 376.932 560.631 366.132 560.631C358.572 560.631 350.471 557.933 341.831 553.077C306.73 532.033 286.749 499.658 280.809 457.57C278.109 435.447 279.729 414.403 284.589 392.82C287.829 379.33 291.069 365.84 293.229 352.351C295.39 336.163 294.31 319.975 291.069 304.327C285.669 279.506 279.189 255.765 266.769 234.181C253.808 212.058 234.908 198.568 210.607 195.331C202.507 194.252 194.946 193.712 187.386 193.712C158.765 193.712 130.684 201.266 103.683 213.677C86.9428 221.231 70.7423 230.404 52.9217 235.26C42.1214 238.498 30.781 240.117 19.9807 240.656C15.1205 240.656 10.8004 241.735 5.94023 241.735C5.94023 241.735 5.94023 241.735 5.40022 241.735C3.78016 241.735 2.16011 242.815 1.08008 243.894C1.08008 263.319 1.08008 282.744 1.08008 302.169C2.16011 303.248 3.78017 303.788 4.8602 303.788C6.48025 303.788 8.1003 303.248 9.72036 302.709C44.2815 296.234 76.1425 283.284 104.763 261.16C116.644 251.988 129.064 242.815 142.565 235.8C157.145 228.246 172.806 222.85 189.006 222.31C190.086 222.31 191.166 222.31 192.786 222.31C214.927 222.31 233.288 230.944 246.248 251.988C258.668 273.031 265.149 296.773 265.689 321.594C266.229 338.321 262.989 353.969 259.208 369.617C253.808 390.661 250.568 411.705 251.648 433.289C253.268 465.124 257.048 496.42 271.089 525.018C277.569 539.047 286.749 551.458 295.93 563.329C312.13 582.754 327.251 602.719 344.531 620.525C351.551 628.079 359.112 635.094 367.212 641.029C383.412 652.9 396.373 667.469 407.713 684.736C420.674 704.161 434.714 721.967 451.455 738.694C463.335 750.565 476.835 760.817 490.336 771.07C501.676 779.703 510.856 790.495 516.257 805.064C517.337 807.222 518.957 808.841 520.577 810.459C542.717 810.459 564.858 810.459 586.999 810.459C589.159 808.841 590.239 807.222 590.779 804.524C594.559 789.955 602.659 778.084 611.84 767.832C632.36 744.63 649.641 718.73 661.521 689.052C669.082 670.707 677.182 652.361 689.602 637.252C700.403 623.763 712.823 611.892 726.323 601.64C743.604 588.15 760.344 574.66 778.705 562.789C788.425 556.314 799.226 552.537 810.566 551.998C811.106 551.998 812.186 551.998 812.726 551.998C825.147 551.998 836.487 557.393 845.127 567.106C854.308 576.819 861.328 588.689 867.808 601.1C878.068 621.604 885.629 643.188 894.269 664.771C899.669 678.261 905.609 691.75 912.629 704.701C918.57 714.953 920.73 725.744 918.57 738.155C915.33 756.501 914.79 774.847 914.25 793.193C914.25 798.049 915.33 802.366 915.33 806.682C915.33 808.841 916.41 809.92 917.49 810.999C936.93 810.999 956.371 810.999 975.811 810.999C978.512 809.92 979.592 807.761 980.672 805.064C983.912 797.509 987.692 789.416 992.552 782.941C1005.51 764.055 1023.87 754.882 1044.93 751.645C1053.03 750.565 1061.67 751.105 1070.31 750.565C1089.22 748.947 1108.12 750.026 1127.02 745.709C1150.24 740.313 1166.98 722.507 1169.68 696.067C1171.3 683.117 1171.84 670.167 1169.68 657.217C1164.28 627 1144.84 604.877 1116.22 598.942C1109.74 597.323 1103.26 596.783 1097.32 596.783C1082.19 596.783 1068.15 600.56 1054.11 607.575C1040.61 614.05 1028.73 622.683 1015.77 630.238C1009.83 634.015 1003.89 636.713 997.412 639.411C990.932 642.109 984.452 643.727 977.972 643.727C967.171 643.727 957.451 640.49 947.191 634.015C933.69 625.921 923.43 614.05 914.25 600.56C902.369 581.675 893.189 561.171 883.469 541.206C879.688 533.112 874.828 525.558 868.888 518.543C859.168 507.212 847.287 503.435 833.787 502.895C832.167 502.895 830.547 502.895 828.387 502.895C804.086 502.895 783.565 513.687 765.205 529.875C738.204 554.156 711.203 578.437 684.202 602.719C665.841 619.446 651.261 639.95 639.921 662.613C631.82 679.34 623.18 696.067 610.22 708.478C595.639 722.507 579.439 732.759 559.458 733.299C558.918 733.299 558.378 733.299 557.838 733.299C544.878 733.299 534.077 726.284 525.437 716.571C518.417 709.017 514.097 702.003 509.776 694.448C494.656 668.548 476.835 644.267 457.935 621.604C448.754 610.273 442.274 597.862 439.574 583.294C436.874 566.027 439.574 549.839 444.974 533.652C455.775 502.895 477.375 485.628 504.916 474.837C521.657 468.362 538.397 464.585 555.138 458.649C579.439 450.016 596.719 432.749 609.14 409.547C615.62 398.215 620.48 385.805 626.42 373.934C635.601 355.588 649.641 341.559 665.302 329.148C682.582 315.119 699.863 300.011 714.443 282.744C729.024 266.017 742.524 247.671 754.944 228.785C763.045 216.375 770.065 211.519 778.165 211.519C784.645 211.519 791.666 214.216 800.306 219.073C819.206 228.785 831.627 244.433 841.347 263.858C851.607 283.284 860.788 302.709 868.348 323.753C874.828 342.098 878.608 360.444 879.688 379.87C880.768 397.136 880.768 414.403 881.848 431.67C882.388 440.843 883.468 450.016 886.169 459.189C890.489 476.995 902.909 486.168 919.11 488.326C926.67 489.406 934.77 490.485 942.33 490.485C959.071 490.485 975.811 486.708 990.932 477.535C1008.21 466.743 1021.17 452.174 1031.97 434.368C1046.55 409.547 1054.65 382.028 1057.35 352.89C1058.97 335.084 1059.51 317.278 1065.99 300.011C1070.85 285.981 1077.33 273.571 1090.3 266.017C1094.62 263.858 1098.4 261.7 1103.26 260.621C1104.88 260.081 1106.5 260.081 1108.12 260.081C1116.22 260.081 1122.16 264.398 1125.4 273.031C1129.72 283.823 1131.34 295.694 1133.5 307.025C1137.28 330.228 1142.14 352.89 1152.94 373.394C1161.04 389.042 1170.22 403.611 1182.1 416.022C1195.6 431.13 1210.72 444.08 1225.3 457.57C1239.88 471.06 1252.84 486.708 1265.26 502.356C1280.38 522.32 1296.58 541.745 1313.86 559.012C1323.58 568.725 1333.84 577.898 1344.1 587.071C1345.72 588.15 1347.34 590.848 1349.5 590.848C1350.04 590.848 1350.58 590.848 1351.66 590.308C1351.66 555.775 1351.66 521.241 1351.66 487.247C1346.8 478.614 1339.78 472.678 1332.22 467.282C1317.64 456.491 1301.98 447.857 1286.32 439.764C1265.8 429.511 1245.28 420.338 1226.38 407.388C1200.46 390.122 1181.02 367.459 1172.38 335.623C1169.68 325.911 1168.06 316.198 1168.06 305.946C1168.06 294.615 1167.52 282.744 1170.22 271.413C1174 250.908 1184.8 237.419 1202.62 229.325C1215.04 223.389 1229.08 220.152 1243.12 216.375C1263.1 210.439 1283.08 203.425 1301.98 193.173C1327.9 179.143 1341.4 156.481 1345.72 126.803C1348.42 106.299 1345.18 86.8741 1335.46 68.5282C1328.44 56.1177 1318.18 49.1031 1306.3 43.7072C1294.42 38.3113 1281.46 35.6134 1269.04 31.8363C1260.94 29.6779 1253.38 27.5196 1245.28 24.2821C1236.64 20.505 1230.16 14.0299 1224.76 6.47573C1223.14 4.31739 1221.52 2.15904 1219.36 0.540283C1204.78 0.540283 1190.2 0.540283 1176.16 0.540283C1173.46 3.23822 1173.46 7.01532 1172.92 10.7924C1171.84 19.4258 1170.22 27.5196 1167.52 35.6134C1164.82 43.1676 1159.96 47.4843 1152.94 49.1031C1143.76 51.801 1135.12 52.3406 1125.94 53.4198C1111.9 55.0385 1097.86 56.1177 1084.35 57.1968C1080.03 57.7364 1075.17 57.7364 1070.85 57.7364C1048.17 57.7364 1027.11 52.8802 1008.21 36.6926C998.492 28.0592 991.472 17.807 985.532 5.93615C983.372 4.31739 982.292 2.15904 979.592 0.540283C964.471 0.540283 949.351 0.540283 934.23 0.540283C932.07 2.69863 932.61 4.85697 933.69 7.55491C938.01 19.4258 943.95 31.2967 952.051 41.0093C973.651 65.2906 998.492 83.097 1029.27 91.1908C1036.83 93.3491 1044.39 93.8887 1052.49 93.8887C1054.11 93.8887 1055.73 93.8887 1057.35 93.8887C1063.29 93.8887 1069.77 93.8887 1075.71 93.8887C1082.73 93.8887 1089.76 93.8887 1096.78 94.9679C1107.04 96.5867 1116.76 98.745 1123.78 107.918C1126.48 111.155 1128.64 114.933 1129.72 119.249C1136.2 148.387 1131.88 182.92 1102.72 203.425C1091.92 210.979 1081.11 217.994 1070.85 226.627C1048.17 244.973 1035.21 269.794 1029.81 299.471C1027.65 312.961 1027.11 326.45 1026.57 339.94C1026.03 358.286 1024.95 376.632 1019.01 393.899C1012.53 412.784 1003.35 429.511 987.692 441.382C977.972 448.937 967.711 452.714 956.371 452.714C953.131 452.714 949.351 452.174 946.111 451.634C932.07 448.397 922.89 438.684 917.49 425.195C913.169 414.403 911.549 403.072 911.009 391.74C908.849 357.746 905.069 324.292 898.589 290.298C895.889 274.111 894.269 257.923 893.189 241.735C891.029 216.375 883.469 193.173 867.268 173.748C859.168 164.575 850.527 155.941 841.887 147.308C830.547 134.897 822.987 120.868 818.666 104.141C814.886 90.1116 812.186 75.5428 808.406 61.5135C803.006 42.628 795.986 24.8217 789.505 5.93615C788.425 3.23822 786.805 1.61946 784.645 0.540283C753.324 0.540283 721.463 0.540283 690.142 0.540283Z" fill="#CE4545"/>
<path d="M5.94024 490.485C6.48025 490.485 6.48025 490.485 7.02027 490.485C19.9807 492.104 29.701 493.723 38.8813 495.342C76.1425 502.356 106.924 521.242 129.604 550.38C136.084 558.473 141.485 566.567 145.805 574.661C159.305 600.561 163.625 628.08 165.785 654.52V656.138C167.405 672.866 169.026 690.672 173.886 707.399C179.286 726.824 187.386 740.853 199.806 750.566C208.447 757.581 217.627 763.516 226.807 769.452C230.047 771.61 233.828 773.768 237.068 776.466C247.868 783.481 257.048 792.654 265.149 803.446C266.769 805.604 267.309 806.683 266.769 807.762H217.087C213.847 806.683 210.607 806.143 207.907 805.604C205.747 805.064 203.587 804.525 201.427 803.985C197.646 802.906 193.866 802.366 190.086 802.366C183.066 802.366 176.586 803.985 170.106 807.762C115.024 807.762 59.942 807.762 5.40022 807.762C4.32018 807.762 4.32018 807.762 3.78017 807.762C3.78017 807.762 3.78017 807.223 3.78017 806.143C3.78017 798.589 3.78017 790.495 3.78017 782.941V773.768C4.8602 773.229 5.40022 772.689 7.02027 772.689C8.1003 772.689 8.64032 772.689 9.72036 772.689C14.0405 773.229 18.3606 773.229 22.1408 773.229H29.701H37.8013C47.5216 773.229 57.7819 773.229 68.0422 772.15C81.5427 771.07 97.2032 768.912 111.784 764.056C124.204 759.739 132.304 750.566 135.544 736.537C138.785 721.428 139.865 706.32 140.405 689.053C140.945 673.405 142.025 658.297 140.945 642.649C139.325 616.749 133.924 596.784 124.744 579.517C111.244 554.696 92.883 537.969 68.5823 529.336C55.0818 524.479 42.1214 523.94 32.4011 523.94C26.4609 523.94 21.0607 523.94 15.1205 524.479H11.8804C11.3404 524.479 10.8004 524.479 10.2604 524.479C9.18034 524.479 8.64032 524.479 8.1003 524.479C6.48025 524.479 5.94024 523.94 4.8602 523.4V491.565C3.78017 490.486 4.8602 490.485 5.94024 490.485ZM5.94024 488.327C4.32018 488.327 2.70013 488.867 1.08008 490.485C1.08008 502.356 1.08008 513.688 1.08008 525.559C2.70013 527.717 4.32018 527.717 6.48025 527.717C8.1003 527.717 9.18034 527.717 10.8004 527.177C17.8206 527.177 24.3008 526.638 31.3211 526.638C43.2014 526.638 55.0818 527.717 66.9622 531.494C91.803 540.127 109.624 556.855 122.044 580.596C132.304 600.022 136.624 621.065 138.245 643.188C139.325 658.836 138.785 673.945 137.704 689.593C137.164 705.241 136.084 720.889 132.844 736.537C129.604 749.487 122.584 758.12 110.704 762.437C96.6632 767.293 82.0827 768.912 67.5022 770.531C57.2419 771.61 47.5216 771.61 37.2612 771.61C31.8611 771.61 27.0009 771.61 21.6007 771.61C17.2806 771.61 13.5005 771.61 9.18034 771.07C8.10031 771.07 7.02027 771.07 6.48025 771.07C4.32018 771.07 2.70013 771.61 1.08008 773.768C1.08008 784.56 1.08008 795.891 1.08008 806.683C1.08008 809.381 1.6201 809.921 4.8602 809.921C59.942 809.921 115.024 809.921 170.106 809.921C176.586 806.143 183.066 804.525 189.546 804.525C193.326 804.525 197.106 805.064 200.347 806.143C205.747 807.762 211.147 808.302 216.547 809.921C233.828 809.921 251.648 809.921 268.929 809.921C271.089 806.683 269.469 804.525 267.849 802.366C259.748 791.575 250.028 781.862 239.228 774.847C226.807 766.214 213.847 758.66 201.967 748.947C189.006 738.156 181.446 723.587 177.126 706.86C172.266 689.593 170.646 672.326 169.025 654.52C166.325 626.461 162.005 598.942 148.505 573.582C143.645 564.948 138.245 556.315 132.304 548.761C107.464 518.544 76.6825 500.738 39.4213 493.183C28.621 491.025 17.8206 489.406 7.02027 488.327C7.02027 488.327 6.48025 488.327 5.94024 488.327Z" fill="#CE4545"/>
<path d="M289.99 2.69863H309.971C311.591 3.7778 312.131 5.39656 312.671 8.63408C315.911 23.7425 321.851 39.3905 332.112 58.276C336.972 66.9094 341.292 75.5428 346.152 83.6366C353.712 97.1262 361.272 111.155 368.833 124.645C377.473 140.833 386.653 158.099 400.694 171.05C417.974 186.698 434.715 194.252 451.995 194.252C453.615 194.252 455.235 194.252 456.856 194.252C473.056 193.173 486.016 186.158 495.737 172.668C508.157 155.941 512.477 135.976 515.177 118.71C517.878 105.22 518.418 91.1908 519.498 78.2407L520.038 71.2261C521.118 50.7218 524.358 30.7571 527.058 10.7924L527.598 7.5549C527.598 5.93615 528.678 4.85697 529.758 3.23821H576.739C574.579 14.0299 571.339 24.2821 566.479 34.5342C555.139 57.7364 547.038 83.097 541.638 112.235L540.558 115.472C537.318 134.358 533.538 153.243 527.058 171.589C523.818 181.841 520.038 192.633 512.477 200.727C500.597 213.677 486.016 220.152 467.116 220.152C462.796 220.152 458.476 219.612 453.615 219.073C421.754 214.216 394.754 196.95 370.993 165.114C360.732 151.085 351.552 135.437 342.912 119.789L341.832 118.17C338.592 112.774 335.352 107.378 332.112 101.983C321.851 84.1762 311.051 65.8302 302.951 46.4051C295.93 29.6779 291.61 16.1883 289.99 2.69863ZM287.83 0.540283C289.45 16.7279 294.85 32.3759 300.791 47.4843C311.591 72.8448 326.171 95.5075 339.672 119.249C348.852 135.437 358.032 151.624 369.373 166.733C390.973 195.871 418.514 216.375 453.615 221.231C457.936 221.771 462.796 222.31 467.116 222.31C484.396 222.31 500.597 216.914 514.097 202.346C521.658 193.712 525.438 183.46 529.218 172.668C536.238 153.243 539.478 132.199 543.258 112.235C548.118 85.2553 556.219 59.8948 568.099 35.0738C573.499 24.2821 577.279 12.9508 579.439 1.07987C562.699 1.07987 545.958 1.07987 529.218 1.07987C527.058 2.15904 525.978 3.7778 525.438 7.01532C522.198 28.0592 518.958 49.103 517.877 70.6865C516.797 86.8741 515.717 102.522 513.557 118.71C510.857 137.595 506.537 155.941 494.657 171.589C484.936 184 471.976 191.014 456.856 191.554C455.235 191.554 453.615 191.554 451.995 191.554C433.095 192.093 416.894 182.92 402.314 169.431C388.813 157.02 379.633 140.293 370.993 124.106C359.112 101.443 346.152 79.3199 334.272 57.1968C326.171 41.5488 318.611 25.9008 315.371 8.63408C314.291 5.39656 313.751 2.15904 310.511 0.540283C302.951 0.540283 295.39 0.540283 287.83 0.540283Z" fill="#CE4545"/>
<path d="M87.4829 2.69887H150.125C148.505 10.2531 146.885 16.7281 143.645 23.7427C132.844 48.0241 115.564 69.068 92.343 85.2556C78.3026 94.9681 63.1821 99.8244 47.5216 99.8244C43.2014 99.8244 38.3413 99.2848 34.0211 98.7452L9.18034 94.4285L3.24015 93.889V21.5844C4.8602 20.5052 6.48025 19.9656 8.64032 19.9656C10.2604 19.9656 11.3404 19.9656 12.9605 20.5052C14.0405 20.5052 15.1205 21.0448 16.2006 21.0448L21.6007 21.5844C27.5409 22.124 34.0211 22.6636 40.5013 22.6636C44.2815 22.6636 47.5216 22.6636 50.2217 22.124C63.7221 21.0448 74.5224 16.1885 82.6227 7.55515C84.2428 4.85722 85.8628 3.77804 87.4829 2.69887ZM86.9428 0.540527C84.7828 1.6197 83.1627 3.23846 81.0027 4.85722C72.3624 14.0302 62.102 18.3469 50.2217 19.426C46.9816 19.426 43.7415 19.9656 40.5013 19.9656C32.4011 19.9656 24.3008 19.426 16.2006 18.8865C14.0405 18.8865 11.3404 18.3469 8.64032 18.3469C5.94023 18.3469 3.24015 18.8865 1.08008 21.0448C1.08008 45.8658 1.08008 70.6867 1.08008 95.5077C11.8804 97.1265 22.6808 99.2848 33.4811 100.904C38.3413 101.443 42.6614 101.983 47.5216 101.983C63.7221 101.983 79.3826 96.5869 93.9631 86.8743C116.644 71.2263 134.464 50.722 145.805 24.2823C149.045 16.7281 151.205 8.63432 153.365 0.540527C131.224 0.540527 109.084 0.540527 86.9428 0.540527Z" fill="#CE4545"/>
<path d="M1348.96 671.247V740.853C1348.42 741.932 1347.88 742.472 1347.88 743.551C1347.34 745.17 1346.26 746.789 1345.72 747.328C1338.7 753.264 1330.6 760.278 1321.42 765.674C1309.54 772.689 1296.04 777.545 1283.62 781.862C1279.84 783.48 1275.52 784.56 1271.74 786.178C1260.94 789.956 1251.76 793.733 1244.2 801.287C1241.5 803.985 1238.8 806.143 1235.56 807.762H1191.82C1192.9 787.258 1204.78 771.07 1223.14 764.055C1230.16 761.357 1237.18 759.199 1244.2 757.041C1251.76 754.343 1259.32 752.184 1266.88 749.487C1284.7 743.011 1300.36 733.299 1312.24 720.888C1319.8 712.795 1326.28 704.161 1332.22 694.988L1336 690.132C1337.62 687.434 1339.24 685.276 1340.86 682.578C1343.56 678.801 1346.26 675.024 1348.96 671.247ZM1351.12 665.311C1344.64 672.326 1339.78 680.959 1334.38 688.513C1326.82 698.765 1319.8 709.557 1311.16 718.73C1298.2 731.68 1283.08 740.853 1266.34 746.789C1251.76 752.184 1236.64 756.501 1222.06 761.357C1202.08 768.372 1189.66 787.258 1189.12 808.841C1204.78 808.841 1219.9 808.841 1235.56 808.841C1239.34 807.222 1242.04 804.524 1245.28 801.826C1253.38 794.812 1262.56 791.035 1272.28 787.258C1289.02 780.783 1306.3 775.926 1322.5 766.753C1331.68 761.357 1339.24 754.882 1346.8 748.407C1348.96 746.249 1349.5 743.551 1351.12 740.853C1351.12 716.032 1351.12 690.672 1351.12 665.311Z" fill="#CE4545"/>
<path d="M787.885 2.69838H832.706C834.866 4.31714 835.946 6.47549 836.486 9.17342L837.026 10.7922C841.346 22.1235 847.827 32.3756 857.007 42.0882C859.707 44.7861 862.947 48.0236 867.267 48.0236C868.347 48.0236 869.427 48.0236 870.507 47.484C875.907 45.3257 876.987 40.4694 877.527 36.1527V35.0736C878.608 29.1381 878.608 23.2027 878.608 17.2672C878.608 14.0297 878.608 11.3318 878.608 8.09425V7.55466C878.608 5.39632 878.608 4.31714 879.688 3.23797H931.529C934.229 12.4109 938.549 22.1235 945.03 31.836C954.75 46.9445 968.79 59.8945 987.691 72.305C1006.05 84.1759 1023.87 91.1905 1041.69 92.8093C1048.71 93.3489 1055.73 93.8885 1060.59 93.8885C1063.29 93.8885 1066.53 93.8885 1069.23 93.8885C1071.93 93.8885 1075.17 93.8885 1077.87 93.8885C1080.03 93.8885 1081.65 93.8885 1083.81 93.8885C1093.53 93.8885 1101.09 94.9676 1107.57 97.126C1120 100.903 1127.56 109.536 1129.72 123.026C1131.34 131.659 1131.88 140.293 1130.8 151.624C1129.18 172.128 1121.08 188.316 1105.41 200.727C1099.47 205.583 1092.99 209.9 1086.51 214.216C1083.81 216.375 1080.57 219.072 1077.33 221.231C1052.49 239.037 1036.83 264.398 1030.35 295.694C1027.65 310.263 1027.11 324.831 1026.57 338.861C1026.57 343.717 1026.03 349.113 1026.03 353.969C1024.95 377.171 1020.09 395.517 1011.99 411.165C999.031 435.447 983.371 448.397 962.31 452.174C960.15 452.713 957.99 452.713 955.83 452.713C938.009 452.713 922.349 440.842 916.949 423.036C912.089 408.467 911.009 393.359 909.929 379.869L909.389 371.236C908.308 357.746 907.228 344.256 905.068 330.767C900.208 301.629 894.808 267.635 891.568 233.641C888.868 208.281 879.148 185.618 861.327 167.272C858.627 164.574 855.387 161.337 852.687 158.639C847.827 153.783 842.966 148.926 838.106 143.53C831.626 136.516 826.226 127.882 822.986 118.709C818.126 106.299 815.426 92.8093 812.185 79.8592C807.325 58.2758 799.765 37.7715 792.745 17.8068C791.665 12.9505 789.505 7.55466 787.885 2.69838ZM784.645 0.540039C793.825 26.9798 804.625 52.3403 810.565 79.8592C813.265 93.3489 816.506 106.299 821.366 119.249C825.146 128.962 830.006 137.055 837.026 144.61C844.586 152.703 852.147 160.797 859.707 168.351C876.987 186.158 887.248 207.741 889.408 233.102C892.648 265.477 897.508 297.852 902.908 330.227C905.608 346.415 906.688 363.142 907.769 379.33C908.849 393.898 909.929 409.007 914.789 423.036C920.729 441.922 937.469 453.792 955.83 453.792C957.99 453.792 960.15 453.793 962.85 453.253C987.151 448.936 1002.81 432.749 1014.15 411.165C1023.33 394.438 1027.11 375.013 1028.19 354.509C1029.27 335.084 1028.73 315.658 1032.51 296.233C1038.45 264.937 1054.11 240.656 1078.41 222.85C1088.13 215.835 1097.85 209.36 1107.57 201.806C1123.24 189.395 1132.42 172.668 1134.04 151.085C1134.58 141.372 1134.58 131.66 1132.96 121.947C1130.26 107.378 1121.62 98.7447 1109.19 94.428C1101.09 91.7301 1092.99 91.1905 1084.89 91.1905C1082.73 91.1905 1081.11 91.1905 1078.95 91.1905C1073.01 91.1905 1067.61 91.1905 1061.67 91.1905C1055.19 91.1905 1049.25 91.1905 1042.77 90.6509C1023.33 88.4926 1006.05 80.9384 989.851 70.1467C973.651 59.3549 958.53 46.9445 947.73 30.2173C941.79 21.0443 936.389 11.3318 934.229 0.540039C916.409 0.540039 898.048 0.540039 879.688 0.540039C876.988 2.69838 877.527 5.39632 877.527 8.09425C876.987 17.2672 878.607 25.9006 876.447 35.0736C875.367 39.3902 875.367 44.2465 870.507 45.8653C869.427 46.4049 868.887 46.4049 867.807 46.4049C864.027 46.4049 861.327 43.7069 859.167 41.009C850.527 31.836 844.046 22.1235 839.186 10.7922C838.106 7.01507 837.026 2.69838 833.246 0.540039C817.046 0.540039 800.845 0.540039 784.645 0.540039Z" fill="#CE4545"/>
<path d="M812.186 550.918C821.367 550.918 829.467 553.616 836.487 559.012C843.507 564.408 849.447 571.422 855.928 580.595C868.348 599.481 876.448 620.525 884.549 641.569L886.709 646.964L887.249 649.123C894.269 667.469 901.829 686.894 911.55 704.7C917.49 714.952 919.11 725.744 916.95 737.075C914.25 753.803 912.629 772.688 912.629 793.192C912.629 795.351 913.169 798.049 913.169 800.207C913.169 802.365 913.71 805.063 913.71 807.761H851.068C848.907 806.142 847.287 803.444 845.667 800.747C845.127 799.667 844.587 798.588 844.047 797.509C837.567 787.257 831.627 777.544 827.847 766.213C817.586 736.536 814.346 703.621 817.046 665.85L817.586 660.454C818.666 650.742 819.206 640.489 817.586 630.237C815.426 615.129 804.086 604.877 790.046 604.877C788.425 604.877 787.345 604.877 785.725 604.877C770.065 607.035 754.404 612.971 736.584 623.762C726.864 629.698 718.223 637.252 710.663 645.885C698.783 659.915 689.602 677.181 683.662 697.146C672.862 734.917 664.221 768.911 658.281 800.747V801.826C657.741 804.524 657.201 806.682 655.581 807.222H588.619C591.319 796.43 594.559 787.796 599.959 780.782C605.9 772.148 612.38 764.594 618.32 757.58C630.2 743.55 639.381 730.6 646.941 716.571C652.881 705.779 657.741 694.448 662.601 683.656C665.842 676.642 669.082 669.088 672.322 662.073C680.962 644.267 692.842 628.619 709.043 614.05C729.564 595.704 752.244 578.977 773.305 564.408C781.945 557.933 790.586 554.156 799.766 551.997C804.086 551.458 807.866 550.918 812.186 550.918ZM812.186 548.76C807.866 548.76 803.546 549.299 799.226 550.379C789.506 552.537 780.325 556.854 772.225 562.789C750.084 578.437 727.944 594.625 707.423 612.971C692.302 626.46 679.342 642.648 670.162 661.533C661.521 679.879 654.501 698.765 644.781 716.032C636.681 730.6 626.96 744.09 616.7 756.5C610.22 764.055 603.74 771.609 598.339 779.703C591.859 788.876 588.619 798.588 586.459 809.38C609.68 809.38 633.441 809.38 656.661 809.38C659.901 807.761 660.441 804.524 660.981 801.286C667.462 766.213 676.642 732.219 686.362 698.225C691.762 679.34 700.403 662.073 712.823 647.504C720.383 638.871 729.024 631.856 738.204 625.921C753.324 616.748 768.985 609.733 786.805 607.035C787.885 607.035 789.506 607.035 790.586 607.035C803.546 607.035 813.806 616.208 815.966 630.777C818.126 642.648 816.506 653.979 815.426 665.85C812.726 700.384 814.886 734.377 826.227 767.292C830.007 778.624 836.487 788.876 842.967 799.128C845.127 802.905 847.287 807.761 851.068 809.92C872.668 809.92 894.269 809.92 916.41 809.92C916.95 803.984 915.33 798.588 915.33 793.192C915.33 774.307 916.41 755.421 919.65 737.075C921.81 725.204 919.65 713.873 913.71 703.081C903.989 684.736 896.429 665.31 888.869 645.885C880.228 623.223 871.588 600.02 858.088 579.516C852.688 570.883 846.207 563.329 838.107 557.393C829.467 551.458 820.827 548.76 812.186 548.76Z" fill="#CE4545"/>
<path d="M189.546 801.826V803.985C196.026 803.985 201.966 805.064 207.907 807.762H174.426C176.046 806.143 177.666 805.603 179.286 805.064C182.526 804.524 186.306 803.985 189.546 803.985V801.826M189.546 801.826C185.766 801.826 182.526 802.366 178.746 802.905C175.506 803.445 172.266 806.143 170.105 809.92C185.766 809.92 200.886 809.92 216.547 809.92C207.907 804.524 199.266 801.826 189.546 801.826Z" fill="#CE4545"/>
<path d="M1095.7 626.459V628.617C1109.74 628.617 1120.54 634.553 1128.1 646.424C1136.74 659.913 1137.82 687.972 1116.76 704.159C1105.96 712.793 1093 714.412 1081.11 714.412C1064.37 713.872 1050.87 710.634 1039.53 704.699C1034.13 702.001 1029.27 698.764 1028.19 692.288C1027.11 684.734 1028.19 677.72 1031.97 671.784C1035.21 666.388 1038.99 662.072 1042.23 657.755C1056.81 639.949 1071.93 630.776 1089.22 629.157C1091.38 629.157 1093.54 628.617 1095.7 628.617V626.459M1095.7 626.459C1093.54 626.459 1091.38 626.459 1088.68 626.999C1068.69 629.696 1053.57 641.028 1040.61 656.676C1036.83 660.992 1033.59 665.849 1030.35 670.705C1026.03 677.72 1024.95 685.274 1026.03 692.828C1027.11 699.843 1033.05 703.62 1038.45 706.857C1051.95 713.872 1066.53 716.03 1081.11 716.57C1094.08 716.03 1107.04 714.412 1117.84 705.778C1139.44 689.051 1138.9 659.913 1129.72 645.344C1121.62 631.855 1109.74 626.459 1095.7 626.459Z" fill="#CE4545"/>
<path d="M1101.1 379.329C1103.26 379.329 1105.42 379.869 1108.12 381.488C1115.68 385.265 1121.08 392.279 1126.48 398.754L1129.18 401.992C1141.6 417.64 1155.1 434.367 1169.14 450.015C1173.46 454.871 1177.78 459.188 1182.1 464.044C1198.84 481.851 1216.66 500.197 1231.24 520.701C1239.34 532.032 1247.98 542.824 1256.08 553.616C1267.42 568.724 1279.3 583.832 1290.1 600.02C1301.44 616.747 1305.76 630.776 1303.6 645.885C1299.28 678.26 1279.84 702.541 1252.3 709.016C1248.52 710.096 1244.74 710.635 1240.96 710.635C1231.24 710.635 1213.96 707.398 1206.94 684.196C1204.24 675.562 1202.08 666.929 1200.46 658.295C1199.38 653.979 1198.3 649.662 1197.22 644.806C1189.66 614.049 1174 593.005 1149.7 581.674C1131.34 573.041 1111.36 568.724 1088.68 568.724C1080.04 568.724 1070.85 569.264 1061.67 570.343C1044.93 572.501 1029.81 579.516 1015.23 585.991C1005.51 590.308 994.712 594.624 982.832 595.164C964.471 595.164 945.571 579.516 940.711 560.63C938.01 550.918 941.791 541.205 949.891 535.27C955.831 530.953 962.851 527.176 970.412 524.478C997.952 514.765 1021.17 496.419 1039.53 468.361C1050.33 452.173 1060.59 434.367 1072.47 413.323L1074.63 409.007C1079.49 399.834 1084.36 391.2 1091.38 383.646C1095.7 380.948 1098.4 379.329 1101.1 379.329ZM1101.1 377.171C1097.32 377.171 1094.08 378.79 1090.84 382.567C1082.74 391.2 1077.33 401.992 1071.93 412.244C1061.67 431.13 1050.87 449.475 1038.99 467.282C1021.71 493.182 999.572 512.607 970.951 522.859C963.391 525.557 956.371 528.795 949.891 533.651C941.251 540.126 936.93 550.378 940.17 561.17C945.031 581.135 965.011 597.322 983.912 597.322C995.792 596.783 1006.59 593.005 1017.39 588.149C1032.51 581.674 1047.09 574.66 1063.29 572.501C1072.47 571.422 1081.12 570.882 1090.3 570.882C1110.82 570.882 1131.34 574.66 1150.78 583.832C1175.62 595.703 1190.2 617.826 1197.22 645.345C1200.46 658.295 1203.16 671.785 1206.94 684.735C1212.88 704.7 1227.46 712.254 1242.58 712.254C1246.36 712.254 1250.68 711.714 1254.46 710.635C1285.24 703.081 1303.6 676.102 1307.38 645.345C1309.54 627.539 1303.06 611.891 1293.34 597.862C1274.98 570.343 1253.92 545.522 1234.48 519.082C1215.58 493.182 1193.44 471.059 1171.84 448.396C1157.8 433.288 1144.84 417.1 1131.88 400.373C1125.4 392.279 1119.46 383.646 1110.28 378.79C1106.5 378.25 1103.8 377.171 1101.1 377.171Z" fill="#CE4545"/>
<path d="M791.665 606.494C797.606 606.494 802.466 608.653 807.326 612.969C817.046 622.682 817.586 634.553 817.046 648.582C817.046 654.517 816.506 660.453 815.966 666.388C815.426 673.403 814.886 680.418 814.346 687.432C813.806 702.001 815.426 716.57 817.046 729.52C820.286 752.722 826.767 772.147 837.027 788.874C838.107 790.493 839.187 792.112 839.727 793.731C842.427 798.047 845.667 802.904 847.827 808.3H658.821C663.141 782.399 669.622 757.039 676.102 732.218L679.882 718.189C687.442 689.051 697.702 659.374 722.003 638.33C743.064 619.984 764.665 610.271 788.425 607.573C790.045 606.494 791.125 606.494 791.665 606.494ZM791.665 604.336C790.585 604.336 789.505 604.336 788.425 604.336C763.045 607.034 740.364 618.365 720.923 635.632C696.622 656.676 685.822 685.814 678.262 716.57C670.702 746.787 662.601 776.464 657.201 807.22C657.201 807.76 656.661 808.839 656.661 809.379C721.463 809.379 786.265 809.379 851.067 809.379C848.367 800.745 843.507 794.27 839.187 787.256C828.387 769.449 822.446 749.485 819.746 728.98C817.586 714.951 816.506 700.922 816.506 686.893C817.046 673.943 818.666 660.993 819.206 648.042C819.746 634.553 819.746 621.063 808.946 610.811C803.546 606.494 798.146 604.336 791.665 604.336Z" fill="#CE4545"/>
<path d="M1286.32 239.577C1294.42 239.577 1303.06 240.117 1312.24 241.736C1320.34 242.815 1328.44 246.052 1336.54 248.75C1340.32 250.369 1344.64 251.988 1348.96 253.067V378.251C1343.56 379.87 1337.62 380.949 1332.22 382.568C1316.56 386.345 1301.98 388.503 1288.48 388.503C1276.06 388.503 1264.18 386.884 1252.84 383.647C1226.92 376.093 1197.76 349.653 1194.52 315.659C1192.36 288.68 1203.16 264.938 1224.22 254.686C1243.12 244.434 1263.64 239.577 1286.32 239.577ZM1286.32 237.419C1264.72 237.419 1243.12 241.736 1222.6 252.527C1199.92 263.859 1189.66 289.219 1191.82 315.659C1195.06 349.113 1222.6 377.172 1251.76 385.266C1263.64 388.503 1276.06 390.122 1287.94 390.122C1302.52 390.122 1317.64 387.964 1332.22 384.186C1338.16 382.568 1344.64 380.949 1350.58 379.33C1350.58 336.703 1350.58 293.536 1350.58 250.909C1337.62 247.131 1325.74 240.656 1312.24 239.038C1304.14 237.959 1294.96 237.419 1286.32 237.419Z" fill="#CE4545"/>
<path d="M43.2014 554.696C47.5216 554.696 51.3017 555.235 55.0818 555.775C82.6227 560.631 100.983 579.516 109.624 610.812C115.024 630.777 114.484 652.9 108.004 678.261C100.983 705.78 85.3228 722.507 60.482 728.982C43.2014 733.838 25.9209 733.838 5.40022 733.838H3.24015V692.83C4.32018 691.75 5.40022 691.75 7.56029 691.75H8.1003C9.72036 691.75 11.3404 691.75 12.9605 691.75H14.0405H15.1205C21.0607 691.75 26.4609 691.75 32.4011 690.671C63.1821 685.275 82.0827 660.454 81.0027 628.079C80.4626 607.575 68.0422 593.006 49.6816 589.769C48.6016 589.229 46.4415 588.689 44.2815 588.689C41.5814 588.689 38.8813 588.689 36.1812 589.229C26.4609 590.848 17.8206 593.546 7.56029 596.244H7.02027C5.94023 596.783 5.40022 596.783 4.8602 596.783C4.32018 596.783 4.32018 596.783 3.78017 596.244V559.012C8.64032 558.473 14.0405 557.393 18.9007 556.314C25.3809 555.775 34.5612 554.696 43.2014 554.696ZM43.2014 552.537C35.1012 552.537 26.4609 553.616 18.3606 555.235C12.4204 556.314 7.02027 557.393 1.08008 557.933C1.08008 571.423 1.08008 584.912 1.08008 597.862C2.16011 598.942 3.24015 599.481 4.32018 599.481C5.40022 599.481 6.48025 598.942 8.1003 598.402C17.2806 595.704 27.0009 592.467 36.1812 591.387C38.8813 590.848 41.5814 590.848 44.2815 590.848C46.4415 590.848 48.0616 590.848 50.2217 591.387C68.0422 594.085 79.3826 608.115 79.9226 627.54C81.0027 659.375 62.6421 682.577 32.9411 687.973C27.5409 689.052 21.6007 689.052 16.2006 689.052C15.1205 689.052 14.5805 689.052 13.5005 689.052C11.8804 689.052 10.2604 689.052 8.64032 689.052C5.94023 689.052 3.24015 689.052 1.6201 691.75C1.6201 706.319 1.6201 721.428 1.6201 735.996C3.24015 735.996 4.32018 735.996 5.94023 735.996C24.8408 735.996 43.2014 735.996 61.562 730.601C87.4829 723.586 103.683 705.78 110.704 678.261C116.644 655.598 118.264 632.396 112.324 609.733C104.223 579.516 86.4028 558.473 56.1619 553.077C51.3017 552.537 47.5216 552.537 43.2014 552.537Z" fill="#CE4545"/>
<path d="M930.451 102.521V104.68C947.191 104.68 961.772 110.076 979.592 117.09C999.573 125.184 1023.33 134.357 1047.63 139.753C1051.41 140.293 1056.27 141.372 1059.51 143.53C1069.24 150.005 1070.86 154.322 1066.54 164.574C1064.92 168.891 1062.76 172.128 1060.6 174.826L1058.43 177.524C1051.95 185.618 1045.47 193.712 1038.99 202.345C1021.71 224.468 1009.83 245.512 1002.81 268.174C996.873 285.981 994.713 306.485 995.793 329.148C995.793 332.925 995.793 336.702 995.793 339.939C995.793 346.414 995.793 351.271 995.793 356.127C995.253 366.919 994.173 379.329 988.233 391.2C984.993 397.675 980.672 403.071 975.272 406.848C971.492 409.546 967.172 411.165 963.392 411.165C955.292 411.165 948.271 405.229 944.491 394.977C940.711 385.265 940.171 374.473 939.631 363.681V361.523C939.091 353.429 939.091 345.335 939.091 337.242C939.091 328.608 939.091 319.435 938.551 310.262C937.471 289.758 937.471 268.714 937.471 248.749V236.339C937.471 224.468 936.391 212.058 933.691 196.949C932.071 186.157 929.371 175.366 926.671 165.113C925.051 159.718 923.971 154.322 922.891 149.465C922.351 146.768 921.811 144.609 920.731 141.911C918.57 133.817 916.41 125.724 916.95 117.09C916.95 111.694 919.11 105.759 927.751 105.219C928.831 105.219 929.911 105.219 930.451 105.219V102.521ZM930.451 102.521C929.371 102.521 928.291 102.521 927.211 102.521C919.11 103.061 914.79 107.917 914.25 116.551C913.71 127.882 917.49 138.674 920.19 149.465C923.971 165.113 928.831 180.762 931.531 196.949C933.691 209.899 935.311 222.849 935.311 236.339C935.311 260.62 934.771 285.441 936.391 309.723C937.471 326.989 936.391 343.717 937.471 360.983C938.011 372.315 938.551 384.186 942.331 394.977C946.651 406.848 954.752 412.784 963.392 412.784C967.712 412.784 972.032 411.165 976.352 408.467C982.292 404.69 986.613 398.754 990.393 392.279C996.333 380.948 997.953 368.538 998.493 356.127C999.033 348.573 998.493 340.479 998.493 329.148C997.953 311.341 999.033 289.758 1005.51 268.714C1013.07 244.433 1026.03 223.389 1041.15 203.964C1048.17 194.791 1055.73 185.618 1062.76 176.445C1065.46 173.207 1067.08 169.43 1068.7 165.653C1073.02 154.861 1071.94 148.926 1060.6 141.911C1056.81 139.753 1052.49 138.674 1048.17 137.595C1024.95 132.199 1002.27 124.105 980.132 114.932C963.932 108.997 947.731 102.521 930.451 102.521Z" fill="#CE4545"/>
<path d="M44.8215 590.846C45.3615 590.846 45.9015 590.846 46.4415 590.846C61.022 591.385 72.9024 601.098 77.7626 615.667C82.0827 630.775 79.9226 648.042 71.8224 662.071C64.2621 675.561 51.8417 684.734 37.8013 687.971C29.701 689.59 21.6007 690.13 12.9605 690.13H11.3404H9.18034C7.02027 690.13 5.40022 690.13 3.24015 690.13V599.479C4.8602 598.94 6.48025 598.4 8.64032 597.86L10.2604 597.321C21.6007 594.083 32.9411 590.846 44.8215 590.846ZM44.8215 588.688C31.8611 588.688 19.9807 592.465 7.56029 596.242C5.40022 596.781 3.24015 597.321 1.08008 597.86C1.08008 629.156 1.08008 660.453 1.08008 691.749C3.78017 691.749 6.48025 691.749 9.18034 691.749C10.2604 691.749 11.8804 691.749 12.9605 691.749C21.6007 691.749 29.701 691.749 38.3413 689.59C69.6623 682.576 89.6429 646.423 79.9226 614.588C75.0625 599.479 62.1021 589.227 46.9816 588.688C46.4415 588.688 45.9015 588.688 44.8215 588.688Z" fill="#CE4545"/>
<path d="M342.372 230.404C343.992 230.404 346.152 230.944 348.312 231.484C358.572 234.182 367.753 240.117 376.933 246.052L379.093 247.132C397.994 259.542 417.434 271.953 435.255 284.363C448.215 292.996 460.096 301.09 469.816 312.422C480.076 324.292 484.936 336.163 483.856 349.653C484.396 359.905 481.156 369.078 473.056 378.251C462.796 389.043 449.835 397.137 440.115 402.532L432.555 406.849C417.974 414.943 403.394 423.576 389.353 433.289C382.873 437.606 378.013 440.843 372.613 443.541C369.913 444.62 367.213 445.699 364.513 445.699C357.492 445.699 352.632 439.764 352.092 430.051C352.092 424.116 352.092 417.641 353.712 410.087C357.492 386.345 356.412 364.222 351.552 343.178C349.392 333.465 346.152 323.213 343.452 314.04C340.212 303.249 336.972 291.917 334.812 281.126C332.111 270.334 329.951 258.463 330.491 246.052C331.031 235.8 334.812 230.404 342.372 230.404ZM342.372 228.246C333.732 228.246 328.871 234.182 328.331 246.052C327.791 257.923 329.951 269.794 332.651 281.665C336.972 302.709 344.532 322.674 349.392 343.718C354.792 365.301 354.792 387.424 351.552 409.547C350.472 416.022 349.932 423.037 349.932 429.512C350.472 440.843 355.872 447.318 364.513 447.318C367.213 447.318 370.453 446.779 373.693 445.16C379.633 442.462 385.033 438.685 390.433 434.908C406.634 423.576 423.914 413.864 441.195 404.151C453.615 397.137 464.956 389.582 474.676 378.791C482.236 370.697 487.096 360.984 486.556 349.653C487.096 334.005 481.156 321.595 471.436 310.803C461.176 299.471 449.295 290.838 436.875 282.744C417.974 269.794 399.074 257.384 380.173 244.973C370.453 239.038 360.192 232.563 348.852 229.325C346.692 228.786 344.532 228.246 342.372 228.246Z" fill="#CE4545"/>
<path d="M743.063 690.67C744.683 690.67 746.303 691.749 748.463 693.368C755.484 700.383 757.644 712.793 752.784 721.426C749.544 727.362 746.303 730.06 741.443 730.599C739.283 730.599 737.123 729.52 734.963 727.901C729.023 723.045 728.483 716.031 729.023 711.714C729.563 703.62 733.883 694.987 738.743 691.749C740.903 691.21 741.983 690.67 743.063 690.67ZM743.063 688.512C741.443 688.512 739.823 689.051 737.663 690.13C727.943 695.526 720.383 719.268 733.883 729.52C736.043 731.679 738.743 732.218 741.443 732.758C747.923 732.218 751.704 727.362 754.404 722.506C759.804 713.333 757.104 699.303 749.543 692.289C747.923 690.13 745.763 688.512 743.063 688.512Z" fill="#CE4545"/>
<path d="M370.992 794.27C373.152 794.27 375.853 794.81 378.553 795.889C386.113 798.587 392.053 802.904 396.373 808.299H355.332C355.332 807.76 355.332 807.76 355.872 807.22C358.032 800.745 362.352 794.27 370.992 794.27ZM370.992 791.572C362.892 791.572 356.952 796.429 353.712 805.602C353.172 807.22 352.632 808.299 352.092 809.918C368.292 809.918 384.493 809.918 400.693 809.918C395.293 801.824 388.273 796.429 379.633 793.731C376.393 792.112 373.692 791.572 370.992 791.572Z" fill="#CE4545"/>
<path d="M183.605 296.771C189.546 296.771 195.486 300.008 199.266 306.483C201.426 309.721 202.506 312.958 203.586 317.815C205.746 329.146 204.666 341.017 203.046 352.348C202.506 355.586 202.506 358.823 201.966 362.061C200.346 379.867 199.806 393.896 200.886 407.386L201.426 417.638C202.506 431.667 203.046 445.696 203.586 459.726C204.126 475.913 201.966 489.403 197.646 501.274C194.406 509.368 190.086 513.684 183.065 513.684C180.905 513.684 178.745 513.145 176.585 512.605C169.565 510.447 162.545 506.67 154.444 500.734L151.204 498.576C130.684 484.007 109.083 468.359 88.0223 453.251C80.4621 447.855 72.9018 441.919 66.9616 434.365C51.8412 416.559 50.7611 400.371 63.7215 383.104C66.9616 378.248 71.2818 373.931 76.682 370.154C85.3222 363.679 93.9625 357.204 102.063 351.269C116.643 340.477 131.764 329.685 145.804 317.275C153.904 310.26 164.165 302.167 177.125 297.85C179.825 296.771 181.985 296.771 183.605 296.771ZM183.605 294.612C181.445 294.612 178.745 295.152 176.585 295.691C164.705 299.469 154.444 307.023 144.724 315.656C122.583 334.542 98.2827 350.729 75.6019 368.536C70.2017 372.313 65.8816 376.629 61.5615 382.025C46.981 401.45 50.7611 418.717 64.8016 435.984C71.2818 443.538 78.842 449.474 86.4023 454.869C108.543 471.057 130.684 486.705 152.824 502.353C160.385 507.749 167.945 512.066 176.045 514.764C178.745 515.303 180.905 515.843 183.065 515.843C190.626 515.843 196.566 510.986 199.806 502.353C204.666 488.324 206.286 474.295 205.746 459.726C205.206 441.919 204.126 424.653 203.046 407.386C201.966 392.277 203.046 377.169 204.126 362.061C205.206 346.952 208.446 332.383 205.746 317.275C204.666 312.958 203.586 308.642 201.426 304.864C197.106 298.389 190.626 294.612 183.605 294.612Z" fill="#CE4545"/>
<path d="M769.525 342.098C771.685 342.098 773.305 342.637 775.465 343.177H776.545C785.185 345.335 793.286 351.271 798.146 359.904C803.006 369.077 804.626 379.329 801.386 388.502C798.686 396.596 794.366 403.611 788.426 410.086C782.485 416.561 776.545 421.957 770.605 427.892C767.365 431.13 764.125 434.367 760.885 437.605C743.064 455.411 725.244 475.915 703.643 502.355C692.303 516.384 678.262 532.032 659.361 542.824C648.021 549.839 637.761 553.076 627.5 553.616C626.96 553.616 626.42 553.616 625.88 553.616C619.94 553.616 615.62 551.457 612.92 547.141C609.68 542.284 610.76 537.968 613.46 531.493C616.16 525.557 619.4 519.082 623.18 513.686C642.621 488.865 657.741 461.886 668.002 432.748C675.562 411.704 685.282 394.977 698.243 382.567C711.203 369.077 726.864 357.746 743.604 349.112C752.784 344.256 760.885 342.098 768.445 341.558C768.985 342.098 769.525 342.098 769.525 342.098ZM769.525 339.939C768.985 339.939 768.445 339.939 767.905 339.939C758.725 340.479 750.084 343.717 741.984 348.033C725.244 357.206 710.123 367.998 696.083 382.027C682.042 396.056 672.322 413.863 665.302 433.288C655.041 462.965 639.921 489.405 621.02 513.686C616.7 519.082 614 525.018 610.76 531.493C608.06 537.428 605.9 543.363 610.22 549.299C614 554.695 619.4 556.314 624.8 556.314C625.34 556.314 625.88 556.314 626.96 556.314C638.841 555.774 649.641 550.918 659.361 544.982C676.642 534.73 690.682 520.161 704.183 503.974C722.544 481.851 741.444 459.728 761.425 439.763C770.605 430.59 780.325 421.957 788.966 412.244C794.906 405.769 799.226 398.215 802.466 389.581C808.946 369.617 795.986 345.875 776.005 341.558C774.925 340.479 772.225 339.939 769.525 339.939Z" fill="#CE4545"/>
<path d="M1107.04 453.253V455.411C1112.44 455.411 1118.92 457.57 1126.48 462.965C1143.76 474.836 1158.34 489.405 1169.68 507.212C1175.62 516.385 1178.86 523.939 1180.48 531.493C1181.02 534.73 1180.48 537.968 1178.86 540.126C1177.24 542.285 1175.08 543.903 1172.38 544.443C1168.6 544.983 1165.36 545.522 1162.12 545.522C1161.58 545.522 1161.04 545.522 1160.5 545.522C1143.76 544.443 1127.56 542.285 1112.44 539.587C1100.56 537.428 1087.59 534.73 1076.25 528.255C1067.61 523.399 1063.83 514.226 1066.53 503.974C1069.77 491.024 1075.17 479.693 1082.19 471.599C1091.37 460.268 1098.94 455.411 1107.04 455.411V453.253M1107.04 453.253C1097.86 453.253 1089.21 459.188 1080.57 469.98C1072.47 479.693 1067.61 491.024 1064.37 503.434C1061.67 514.766 1065.99 524.478 1075.17 529.874C1086.51 536.889 1098.94 539.047 1111.9 541.745C1128.1 544.443 1144.3 546.601 1160.5 547.681C1161.04 547.681 1161.58 547.681 1162.12 547.681C1165.9 547.681 1169.14 547.141 1172.92 546.601C1179.94 545.522 1184.26 538.508 1182.64 531.493C1181.02 522.32 1176.7 514.226 1171.3 506.672C1159.42 488.866 1144.84 473.757 1127.56 461.886C1120 455.411 1112.98 453.253 1107.04 453.253Z" fill="#CE4545"/>
</svg>
