<svg width="984" height="600" viewBox="0 0 984 600" fill="none" xmlns="http://www.w3.org/2000/svg">
<g clip-path="url(#clip0_1373_2949)">
<path d="M760.141 533.07C753.099 542.225 744.817 549.014 746.62 552.084C746.62 552.084 750.366 554.817 760.732 554.817C778.479 554.817 795.944 553.465 793.07 551.662C789.099 549.183 777.606 548.253 766.62 544.479C763.915 543.549 772.563 538.282 770.197 537.408C765.296 535.634 761.493 534.084 760.141 533.07Z" fill="#790808"/>
<path d="M943.096 551.549C943.096 551.549 945.434 554.817 954.392 554.817C969.744 554.817 985.744 552.732 983.265 551.183C979.829 549.042 952.927 543.408 952.927 543.408L946.899 535.915L936.674 541.577L943.125 551.549H943.096Z" fill="#790808"/>
<path d="M894.453 325.295C883.439 325.295 875.101 323.098 874.425 322.901C868.679 321.324 865.298 315.408 866.876 309.662C868.425 303.915 874.341 300.535 880.087 302.084C880.453 302.197 904.707 308.394 918.848 296.253C928.313 288.112 931.918 272.817 929.552 250.732L928.791 243.69L950.594 231.324C955.777 228.394 962.369 230.197 965.298 235.38C968.228 240.563 966.425 247.126 961.242 250.084L951.608 255.549C953.129 281.549 946.82 300.76 932.791 312.704C920.96 322.788 906.228 325.267 894.51 325.267L894.453 325.295Z" fill="#E20000"/>
<path d="M931.775 265.465C931.353 281.155 927.212 292.479 919.296 299.267C903.775 312.591 877.184 305.803 876.733 305.69C870.423 304 863.944 307.718 862.226 314C860.508 320.31 864.226 326.817 870.536 328.535C871.296 328.732 880.451 333.296 892.536 332.873C938.395 331.239 966.085 291.69 966.592 268.62L931.775 265.493V265.465Z" fill="#E1F3F6"/>
<path d="M868.702 210.591C864.59 208.76 860.561 206.76 856.59 204.647C818.59 226.281 770.026 254.028 769.068 254.986C769.068 254.986 793.209 293.408 794.759 294.957C795.744 295.943 855.604 253.014 898.646 221.915C888.702 218.056 878.477 214.957 868.73 210.591H868.702Z" fill="#C40000"/>
<path d="M869.326 209.492C879.27 213.887 889.749 217.07 899.861 221.042C923.58 203.915 941.889 190.591 941.889 190.591L901.382 179.211C901.382 179.211 881.889 190.281 857.861 203.943C861.636 205.915 865.439 207.774 869.326 209.492Z" fill="#E20000"/>
<path d="M799.465 159.042L823.324 223.605L869.944 240.732L810.901 132.817L799.465 159.042Z" fill="#B21D1D"/>
<path d="M872.509 256.591H837.945L868.706 310.31L915.579 330.056L872.509 256.591Z" fill="#B21D1D"/>
<path d="M915.58 330.056L888.087 283.127L770.426 352.112L747.299 312.648L761.834 77.9998L814.707 47.0139L909.89 209.352L941.919 190.591L968.538 236.028L936.51 254.789L964.003 301.69L915.609 330.056H915.58ZM808.848 147.972L805.862 149.718L797.778 275.042L861.44 237.718L808.82 147.972H808.848Z" fill="#AD0000"/>
<path d="M708.17 301.915L747.269 312.676L770.423 352.141L729.071 341.662L708.17 301.915Z" fill="#C40000"/>
<path d="M708.17 301.915L747.269 312.676L761.804 77.9998L725.916 69.4082L708.17 301.915Z" fill="#E20000"/>
<path d="M725.918 69.4082L761.805 77.9997L814.678 47.0138L778.34 36.4504L725.918 69.4082Z" fill="#FD0000"/>
<path d="M804.593 395.436C804.593 395.436 810.34 457.436 810.34 479.155C810.34 479.155 765.185 514.338 754.143 532.76C758.903 536.366 768.283 541.183 774.424 540.986C804.565 512.225 837.607 491.69 837.607 491.69C837.607 491.69 851.861 450.309 856.312 415.267L804.593 395.436Z" fill="#3F322B"/>
<path d="M836.792 398.366C846.961 398.45 857.355 396.676 866.088 391.943C863.158 379.549 869.412 343.014 877.242 323.493C877.242 323.493 883.44 309.887 879.102 305.718C863.045 290.281 849.383 291.521 845.13 291.352C830.397 303.803 802.961 340.535 804.059 389.07C811.637 397.042 827.017 398.281 836.792 398.338V398.366Z" fill="#E1F3F6"/>
<path d="M936.398 543.295C942.285 541.662 947.919 538.957 951.524 534.141C934.088 505.859 870.144 402 866.679 393.859C866.595 393.662 866.51 393.408 866.426 393.183C857.046 398.253 845.834 400.028 834.961 399.605C825.496 399.239 811.806 397.915 804.088 390.901C804.088 391.408 804.088 391.887 804.144 392.394C805.468 419.493 895.412 509.915 930.82 544.479C932.764 544.197 934.651 543.774 936.398 543.295Z" fill="#400E0E"/>
<path d="M750.735 370.253C748.228 370.253 745.834 369.887 743.552 369.126C738.792 367.549 732.51 363.521 729.524 353.521C727.834 347.803 731.073 341.803 736.792 340.112C742.51 338.422 748.51 341.69 750.2 347.38C750.397 348.056 750.594 348.479 750.707 348.704C751.862 348.76 756.115 348.366 766.51 342.281C775.806 336.817 786.792 328.704 797.411 320.845C815.355 307.577 832.313 295.014 846.313 290.591C851.975 288.788 858.031 291.943 859.834 297.605C861.637 303.295 858.482 309.352 852.82 311.126C842.256 314.479 825.975 326.507 810.228 338.141C787.186 355.183 766.876 370.225 750.735 370.225V370.253Z" fill="#E20000"/>
<path d="M770.904 362.197C769.58 355.859 768.2 348.845 764.172 343.633C755.468 348.45 751.777 348.76 750.707 348.732C750.566 348.478 750.397 348.056 750.2 347.408C748.51 341.69 742.51 338.45 736.792 340.14C731.073 341.831 727.834 347.831 729.524 353.549C732.482 363.577 738.792 367.577 743.552 369.155C745.834 369.915 748.228 370.281 750.735 370.281C756.989 370.281 763.89 368.028 771.327 364.253C771.186 363.577 771.045 362.901 770.904 362.225V362.197Z" fill="#E20000"/>
<path d="M859.835 297.605C858.032 291.943 851.976 288.788 846.314 290.591C832.314 295.014 815.356 307.549 797.412 320.845C786.793 328.704 775.807 336.817 766.511 342.281C766.088 342.535 765.694 342.76 765.271 342.986C769.3 348.31 776.286 374.563 776.398 375.183C787.835 369.211 842.652 327.464 854.539 314.873C858.624 310.535 861.61 303.324 859.807 297.633L859.835 297.605Z" fill="#E1F3F6"/>
<path d="M735.495 361.521C734.847 361.521 734.227 361.324 733.664 360.929C725.213 354.873 720.791 343.239 720.622 342.76C720.002 341.127 720.847 339.296 722.481 338.676C724.114 338.084 725.945 338.901 726.565 340.535C726.565 340.535 730.509 350.873 737.354 355.774C738.791 356.789 739.1 358.76 738.086 360.197C737.467 361.07 736.481 361.521 735.495 361.521Z" fill="#E20000"/>
<path d="M735.495 353.803C734.509 353.803 733.523 353.324 732.903 352.45C728.847 346.704 725.607 333.098 725.269 331.577C724.875 329.859 725.945 328.169 727.636 327.774C729.354 327.38 731.044 328.45 731.438 330.141C732.34 333.972 735.269 344.817 738.086 348.789C739.1 350.225 738.762 352.197 737.326 353.211C736.762 353.605 736.143 353.803 735.495 353.803Z" fill="#E20000"/>
<path d="M739.858 352.028C738.619 352.028 737.408 351.296 736.929 350.056C734.027 342.929 732.901 328 732.844 327.38C732.703 325.634 734.027 324.113 735.774 323.972C737.52 323.831 739.041 325.155 739.182 326.901C739.492 330.929 740.703 342.535 742.816 347.662C743.492 349.296 742.703 351.127 741.07 351.803C740.675 351.972 740.281 352.028 739.887 352.028H739.858Z" fill="#E20000"/>
<path d="M744.621 350.479C743.212 350.479 741.917 349.521 741.55 348.112C739.55 340.366 741.381 332.479 741.466 332.141C741.86 330.422 743.579 329.38 745.269 329.774C746.959 330.169 748.029 331.887 747.635 333.577C747.607 333.718 746.114 340.366 747.691 346.507C748.142 348.197 747.1 349.943 745.41 350.366C745.156 350.45 744.874 350.479 744.621 350.479Z" fill="#E20000"/>
<path d="M872.085 314.845C870.621 314.845 869.156 314.535 867.747 313.859C862.677 311.464 860.508 305.408 862.902 300.366C865.409 295.07 869.916 289.634 870.424 289.042C874.029 284.76 880.423 284.225 884.733 287.831C889.015 291.436 889.55 297.831 885.945 302.112C884.677 303.634 882.283 306.845 881.24 309.042C879.494 312.704 875.86 314.845 872.057 314.845H872.085Z" fill="#E20000"/>
<path d="M873.549 309.633C874.76 310.957 876 312.197 877.324 313.408C878.986 312.422 880.394 310.929 881.267 309.07C882.31 306.873 884.704 303.662 885.972 302.14C889.577 297.859 889.042 291.464 884.76 287.859C880.479 284.253 874.084 284.788 870.451 289.07C870.253 289.324 869.436 290.309 868.338 291.746C868.422 298.14 869.098 304.788 873.549 309.662V309.633Z" fill="#982C2C"/>
<path d="M906.876 298.422C902.848 308.225 891.636 312.873 881.834 308.845C872.031 304.817 867.383 293.606 871.411 283.803L876.481 271.493C880.51 261.69 891.749 257.042 901.524 261.07C911.327 265.098 915.974 276.31 911.946 286.113L906.876 298.422Z" fill="#E20000"/>
<path d="M873.552 282.366C872.003 288.958 862.51 286.845 858.961 283.408C854.059 278.676 851.13 265.267 862.003 265.972C854.172 254.169 880.707 241.38 883.496 255.014C885.581 251.493 887.693 248.338 892.285 248.028C895.609 247.803 901.412 250.394 900.933 254.451C905.862 250.563 913.045 250.845 917.919 254.789C919.468 256.056 922.285 258.845 920.876 260.901C920.116 262.028 916.116 262.366 914.764 262.789C917.073 261.746 926.51 263.859 924.651 267.774C923.778 269.605 919.158 267.972 917.806 267.577V268C922.848 270.76 924.933 273.577 924.341 279.859C924.059 282.76 922.707 288.197 919.271 288.62C917.524 288.817 915.468 287.718 915.496 285.887C919.721 290.084 913.75 301.352 908.426 295.803C906.341 293.634 907.355 289.972 909.327 288.084C906.172 286.282 899.355 276.704 904.2 274.141C901.919 274.197 891.412 270.62 894.764 267.605C895.637 271.127 891.299 275.662 887.834 273.859C889.975 278.535 883.665 282.028 879.778 282.197C882.144 285.183 874.82 288.732 872.595 284.394L873.552 282.394V282.366Z" fill="#AF0000"/>
<path d="M513.159 244.085C513.159 244.085 506.99 220.507 537.553 214.93L535.215 243.24L513.159 244.085Z" fill="#E00000"/>
<path d="M390.764 303.606C384.088 303.606 377.863 302.254 372.116 299.55C344.37 286.451 341.299 247.042 341.158 245.381C340.736 239.437 345.215 234.282 351.158 233.859C357.074 233.437 362.229 237.916 362.651 243.831C363.243 251.747 367.778 273.69 381.356 280.057C392.567 285.324 409.919 279.972 431.609 264.564C436.454 261.127 443.187 262.254 446.651 267.099C450.088 271.944 448.961 278.676 444.088 282.141C423.975 296.423 406.116 303.578 390.736 303.578L390.764 303.606Z" fill="#CDE5E8"/>
<path d="M448.114 323.831C451.1 315.972 453.889 307.972 457.128 300.197C454.959 300.028 452.734 299.747 450.508 299.324C440.058 297.324 431.185 293.071 423.945 286.564C416.677 280.057 411.1 271.803 407.128 261.831C403.185 251.859 400.875 240.507 400.227 227.775C399.579 215.071 400.593 201.634 403.297 187.493C406.058 173.071 410.058 160.141 415.325 148.704C420.593 137.268 426.903 127.634 434.255 119.803C441.607 111.972 449.861 106.366 458.987 102.986C468.114 99.6058 477.917 98.9016 488.396 100.902C496.678 102.479 503.973 105.606 510.311 110.226C513.354 104.141 516.649 98.141 519.776 92.1692C523.466 85.0988 526.903 77.9157 530.199 70.6481C531.607 67.5495 532.818 64.3382 534.086 61.1833C523.494 55.127 511.607 50.8453 498.452 48.3382C479.804 44.7889 462.227 45.4368 445.776 50.3664C429.297 55.2678 414.48 63.4931 401.297 75.0424C388.114 86.5917 376.903 101.071 367.72 118.507C358.537 135.944 351.889 155.409 347.776 176.873C343.663 198.366 342.677 218.902 344.79 238.479C346.903 258.057 351.973 275.662 359.973 291.24C367.973 306.845 378.734 319.944 392.227 330.564C404.79 340.479 419.607 347.296 436.649 351.071C440.677 342.057 444.593 333.014 448.086 323.803L448.114 323.831Z" fill="#E20000"/>
<path d="M594.113 161.747C592.001 142.169 586.93 124.564 578.93 108.986C570.93 93.3805 560.17 80.2819 546.677 69.6622C543.043 66.789 539.212 64.1974 535.212 61.8594C533.944 65.0143 532.733 68.2256 531.324 71.296C527.972 78.5354 524.62 85.7467 520.902 92.8171C517.747 98.8171 514.423 104.845 511.353 110.986C512.451 111.831 513.522 112.676 514.536 113.606C521.775 120.113 527.465 128.366 531.55 138.395C535.634 148.395 538.029 159.69 538.705 172.282C539.381 184.873 538.339 198.366 535.578 212.761C532.874 226.902 528.874 239.747 523.606 251.352C518.31 262.93 511.916 272.62 504.423 280.423C496.93 288.226 488.62 293.803 479.465 297.183C472.733 299.662 465.719 300.704 458.423 300.31C454.846 308.817 451.803 317.578 448.536 326.197C445.296 334.733 441.662 343.071 437.916 351.381C438.761 351.55 439.606 351.719 440.451 351.888C459.099 355.465 476.648 354.789 493.127 349.859C509.578 344.958 524.423 336.733 537.606 325.183C550.789 313.634 561.972 299.155 571.184 281.719C580.367 264.282 587.015 244.845 591.127 223.352C595.24 201.888 596.226 181.324 594.113 161.747Z" fill="#B21D1D"/>
<path d="M473.407 363.099C454.759 359.521 438.675 352.423 425.182 341.803C411.689 331.183 400.928 318.056 392.928 302.479C384.928 286.873 379.858 269.296 377.745 249.718C375.633 230.141 376.618 209.606 380.731 188.113C384.844 166.648 391.464 147.183 400.675 129.747C409.858 112.31 421.041 97.8311 434.252 86.2818C447.435 74.7325 462.252 66.5072 478.731 61.6058C495.182 56.7044 512.759 56.0283 531.407 59.5776C550.055 63.1269 566.14 70.2537 579.633 80.8734C593.126 91.5213 603.886 104.62 611.886 120.197C619.886 135.803 624.956 153.38 627.069 172.986C629.182 192.592 628.196 213.127 624.083 234.592C619.971 256.085 613.323 275.521 604.14 292.958C594.956 310.395 583.773 324.873 570.562 336.423C557.379 347.972 542.534 356.197 526.083 361.099C509.604 366 492.055 366.676 473.407 363.127V363.099ZM483.464 310.535C493.633 312.479 503.295 311.775 512.449 308.366C521.576 304.986 529.914 299.409 537.407 291.606C544.9 283.803 551.295 274.113 556.59 262.535C561.886 250.958 565.886 238.085 568.562 223.944C571.323 209.521 572.365 196.028 571.689 183.465C571.013 170.902 568.618 159.578 564.534 149.578C560.449 139.578 554.759 131.296 547.52 124.789C540.252 118.282 531.548 114.056 521.379 112.113C510.928 110.113 501.125 110.817 491.971 114.197C482.816 117.578 474.59 123.183 467.238 131.014C459.886 138.845 453.576 148.479 448.309 159.916C443.041 171.352 439.041 184.282 436.28 198.704C433.576 212.845 432.562 226.254 433.21 238.986C433.858 251.718 436.14 263.042 440.111 273.042C444.055 283.014 449.661 291.268 456.928 297.775C464.168 304.282 473.041 308.535 483.492 310.535H483.464Z" fill="#AD0000"/>
<path d="M663.605 204.789L664.422 244.423C664.422 244.423 653.098 254.564 642.957 244.423L646.704 199.803L663.605 204.817V204.789Z" fill="#AF0000"/>
<path d="M616.929 520.93C616.281 520.423 611.859 518.366 611.267 517.859C608.901 521.409 607.239 523.381 604.394 526.31C611.38 532.395 609.577 539.803 609.577 539.803C609.577 539.803 604.647 544.057 602.704 545.014C596.535 548.057 585.154 552.282 585.154 552.282L613.802 554.535L635.042 532.789C627.521 528.592 621.746 524.761 616.929 520.958V520.93Z" fill="#790808"/>
<path d="M504.704 522.479C500.141 521.69 494.394 525.183 490.676 522.479C489.803 530.451 489.972 534.789 489.972 534.789L447.605 552.254H501.718C502.197 546.479 501.183 540.958 501.944 535.606C502.338 532.873 504.197 525.099 504.704 522.451V522.479Z" fill="#790808"/>
<path d="M554.026 330.169L506.139 421.155C506.139 421.155 525.547 437.578 544.646 443.042L580.533 335.859L554.026 330.197V330.169Z" fill="#CDE5E8"/>
<path d="M606.449 528.592C609.323 525.662 611.689 522.141 614.055 518.592C601.661 507.972 595.604 497.043 578.787 478.226C571.83 470.423 590.28 425.831 594.759 418.338C602.816 404.902 604.055 395.155 610.337 372.141L563.576 389.606C552.449 429.465 539.492 469.352 552.478 488.366C566.224 508.479 590.59 524.676 602.365 532.761C602.816 533.071 606.083 528.31 606.478 528.592H606.449Z" fill="#790808"/>
<path d="M527.721 239.409C527.073 239.409 526.425 239.211 525.862 238.817C524.453 237.803 524.115 235.803 525.129 234.395C528.904 229.155 529.721 224.817 529.721 224.789C530.031 223.071 531.664 221.916 533.411 222.226C535.129 222.535 536.284 224.169 535.974 225.888C535.946 226.113 534.96 231.578 530.284 238.085C529.664 238.958 528.679 239.409 527.693 239.409H527.721Z" fill="#E20000"/>
<path d="M607.015 381.747C620.931 343.521 632.818 283.549 637.269 259.634C634.79 258.592 632.339 257.831 630.395 257.296C626.255 256.169 621.325 254.817 617.072 256.141C614.931 256.817 613.015 257.916 611.128 259.099C609.381 264.282 608.677 268.676 608.677 268.676C608.677 268.676 578.79 325.831 559.297 364.789C575.832 368.507 592.029 373.944 606.987 381.775L607.015 381.747Z" fill="#9ED1F6"/>
<path d="M558.76 365.944C557.042 369.409 555.408 372.704 553.887 375.803C550.056 382.592 545.915 388.873 541.915 394.902C503.437 452.902 488.929 499.127 486.338 521.014C490 523.887 503.915 525.493 508.535 526.31C515.634 490.028 534.113 466.902 567.183 439.549C578.253 430.395 586.535 418.761 593.831 409.099C598.169 403.352 602.479 394.113 606.62 382.93C591.634 375.071 575.38 369.634 558.817 365.944H558.76Z" fill="#AF0000"/>
<path d="M521.436 381.916C516.957 381.916 512.788 379.127 511.238 374.676C509.295 369.042 512.281 362.902 517.886 360.958C530.957 356.423 551.013 338.535 564.562 319.352C591.999 280.423 611.266 258.845 612.083 257.944C616.055 253.521 622.872 253.155 627.295 257.127C631.717 261.099 632.083 267.916 628.112 272.338C627.914 272.563 608.816 293.972 582.168 331.775C568.816 350.704 545.21 374.282 524.957 381.324C523.802 381.718 522.59 381.916 521.436 381.916Z" fill="#E20000"/>
<path d="M629.692 263.211C629.438 263.211 629.185 263.211 628.931 263.211C623.354 262.789 619.157 257.944 619.551 252.338C619.974 246.507 622.255 239.803 622.509 239.07C624.34 233.775 630.114 230.958 635.41 232.789C640.706 234.62 643.523 240.394 641.692 245.69C641.044 247.549 639.974 251.409 639.805 253.831C639.41 259.155 634.959 263.239 629.692 263.239V263.211Z" fill="#E20000"/>
<path d="M632.678 252.507C634.481 254.563 636.424 256.394 638.509 258.085C639.241 256.817 639.692 255.352 639.833 253.803C640.002 251.38 641.1 247.521 641.72 245.662C643.551 240.366 640.734 234.592 635.439 232.761C631.044 231.24 626.34 232.93 623.805 236.563C624.734 242.282 629.41 248.761 632.678 252.507Z" fill="#982C2C"/>
<path d="M658.814 230.535C658.589 241.127 649.8 249.521 639.209 249.268C628.617 249.014 620.223 240.254 620.476 229.662L620.786 216.338C621.012 205.747 629.8 197.352 640.392 197.578C650.983 197.803 659.378 206.592 659.152 217.183L658.842 230.507L658.814 230.535Z" fill="#E20000"/>
<path d="M506.225 378.93C501.802 378.93 496.732 377.747 491.07 375.352C489.464 374.676 488.704 372.817 489.38 371.212C490.056 369.606 491.915 368.845 493.521 369.521C501.859 373.042 508.507 373.521 512.732 370.986C514.225 370.085 516.169 370.564 517.098 372.057C517.999 373.55 517.521 375.493 516.028 376.423C513.239 378.113 509.943 378.958 506.225 378.958V378.93Z" fill="#E20000"/>
<path d="M510.002 383.549C504.96 383.549 500.904 382.563 496.312 381.465L494.876 381.127C493.185 380.732 492.115 379.014 492.538 377.296C492.932 375.606 494.65 374.535 496.369 374.958L497.805 375.296C505.495 377.155 510.566 378.394 521.833 375.493C523.552 375.07 525.27 376.085 525.693 377.775C526.143 379.465 525.101 381.211 523.411 381.634C518.002 383.042 513.749 383.549 510.031 383.549H510.002Z" fill="#E20000"/>
<path d="M505.998 372.676C496.054 372.676 489.237 366.563 488.871 366.225C487.575 365.042 487.491 363.042 488.674 361.746C489.857 360.451 491.857 360.366 493.153 361.549C493.463 361.831 500.758 368.254 510.561 365.746C512.279 365.296 513.998 366.338 514.42 368.028C514.871 369.718 513.829 371.465 512.139 371.887C509.998 372.451 507.913 372.676 505.97 372.676H505.998Z" fill="#E20000"/>
<path d="M512.649 369.268C512.649 369.268 512.395 369.268 512.283 369.268C501.494 368 497.099 360.226 496.902 359.888C496.057 358.366 496.621 356.423 498.17 355.578C499.691 354.733 501.607 355.296 502.452 356.817C502.592 357.071 505.607 362.085 513.015 362.958C514.761 363.155 516.001 364.733 515.804 366.479C515.607 368.085 514.254 369.296 512.649 369.296V369.268Z" fill="#E20000"/>
<path d="M550.536 243.972C550.367 243.972 550.198 243.972 550.029 243.916C544.789 243.043 530.423 240.789 527.099 240.789C525.353 240.789 523.916 239.381 523.916 237.606C523.916 235.831 525.324 234.423 527.099 234.423C531.55 234.423 549.099 237.296 551.071 237.634C552.789 237.916 553.972 239.55 553.691 241.268C553.437 242.817 552.085 243.916 550.564 243.916L550.536 243.972Z" fill="#E20000"/>
<path d="M548.506 250.648C548.225 250.648 547.943 250.62 547.661 250.535C547.52 250.507 532.422 246.395 525.408 246C523.661 245.888 522.337 244.395 522.422 242.648C522.534 240.902 524.027 239.521 525.774 239.662C533.464 240.113 548.675 244.254 549.323 244.423C551.013 244.874 551.999 246.62 551.549 248.31C551.154 249.719 549.887 250.648 548.506 250.648Z" fill="#E20000"/>
<path d="M546.985 257.606C546.647 257.606 546.337 257.549 545.999 257.465C531.718 252.845 528.197 252.563 526.309 252.423C525.492 252.366 524.732 252.282 523.661 252.028C521.971 251.578 520.957 249.859 521.408 248.141C521.859 246.451 523.605 245.437 525.295 245.887C525.802 246.028 526.168 246.056 526.816 246.113C529.126 246.31 532.957 246.62 547.943 251.437C549.605 251.972 550.535 253.775 549.999 255.437C549.577 256.789 548.309 257.634 546.985 257.634V257.606Z" fill="#E20000"/>
<path d="M540.703 262.676C540.703 262.676 540.562 262.676 540.478 262.676C526.168 261.662 525.576 253.888 525.576 253.014L531.914 252.873C531.914 252.873 531.914 252.789 531.914 252.676C531.914 252.704 532.562 255.775 540.956 256.366C542.703 256.479 544.027 258 543.886 259.747C543.773 261.409 542.365 262.704 540.731 262.704L540.703 262.676Z" fill="#E20000"/>
<path d="M528.731 258.874C528.731 258.874 525.971 257.606 521.689 257.606C518.083 257.606 513.182 251.493 513.182 245.127C513.182 245.127 511.436 226.395 531.182 234.874L528.731 258.874Z" fill="#E20000"/>
<path d="M590.96 314.535L563.242 450.958C563.242 450.958 606.144 461.296 632.482 446.141L639.13 256.592C639.13 256.592 609.665 246.282 590.96 314.535Z" fill="#CDE5E8"/>
<path d="M597.38 389.578L623.916 388.141C623.916 388.141 624.564 428.733 608.704 427.155C608.704 427.155 587.014 431.888 597.38 389.578Z" fill="#E1F3F6"/>
<path d="M630.702 253.352C627.801 250.733 624.026 249.296 620.111 249.296C615.604 249.296 611.322 251.212 608.308 254.564C607.491 255.465 588.111 277.155 560.421 316.423C558.618 318.986 556.618 321.606 554.477 324.226L551.66 327.691L554.731 330.93C557.998 334.395 561.435 337.747 564.731 341.014C566.533 342.789 568.336 344.536 570.111 346.338L574.026 350.254L577.576 346C580.759 342.198 583.688 338.423 586.308 334.733C612.787 297.183 631.717 275.972 631.886 275.775C637.717 269.268 637.181 259.212 630.674 253.381L630.702 253.352Z" fill="#E1F3F6"/>
<path d="M557.894 315.506L547.182 327.428L575.071 352.487L585.783 340.564L557.894 315.506Z" fill="#F8FDFF"/>
<path d="M601.21 238.169L625.576 247.719C625.576 247.719 635.942 197.268 628.365 189.719C628.365 189.719 601.182 187.155 601.182 238.169H601.21Z" fill="#AF0000"/>
<path d="M629.802 198.479C630.676 199.775 649.577 212.395 664.422 208.902C664.422 208.902 661.887 186.62 627.211 189.831L629.802 198.507V198.479Z" fill="#AF0000"/>
<path d="M644.394 222.282C644.394 228.141 639.633 232.874 633.802 232.874C627.971 232.874 623.211 228.141 623.211 222.282C623.211 216.423 627.943 211.69 633.802 211.69C639.662 211.69 644.394 216.423 644.394 222.282Z" stroke="#67C1DD" stroke-width="0.87" stroke-miterlimit="10"/>
<path d="M668.339 224.338C668.339 229.437 664.226 233.55 659.127 233.55C654.029 233.55 649.916 229.409 649.916 224.338C649.916 219.268 654.057 215.127 659.127 215.127C664.198 215.127 668.339 219.268 668.339 224.338Z" stroke="#67C1DD" stroke-width="0.75" stroke-miterlimit="10"/>
<path d="M644.393 222.282C644.393 222.282 647.914 220.902 649.998 223.014" stroke="#67C1DD" stroke-width="0.87" stroke-miterlimit="10"/>
<path d="M335.975 240.846C335.722 240.846 335.468 240.846 335.215 240.817C329.637 240.423 325.44 235.55 325.834 229.972C326.257 224.141 328.538 217.437 328.792 216.705C330.623 211.409 336.398 208.592 341.693 210.423C346.989 212.254 349.806 218.029 347.975 223.324C347.327 225.184 346.257 229.043 346.088 231.465C345.693 236.789 341.243 240.874 335.975 240.874V240.846Z" fill="#982C2C"/>
<path d="M329.945 522.423C346.762 530.169 360.537 530.028 361.664 530.169C372.621 510.676 405.635 457.859 375.607 414.535L333.128 391.719C333.128 391.719 375.607 436.028 329.945 522.423Z" fill="#790808"/>
<path d="M351.943 539.69C351.943 539.69 355.859 531.718 358.929 526.394C356.619 526.113 346.338 525.69 342.112 524.084C338.141 532.197 329.493 544.056 323.408 552.197H380.479L351.943 539.718V539.69Z" fill="#790808"/>
<path d="M422.535 417.071C415.437 403.296 363.887 361.803 359.211 337.972C358.789 335.859 358.451 333.69 358.141 331.493C349.859 335.859 339.127 337.071 330.591 337.493C320.93 337.972 315.155 338.592 305.803 334.028C306.591 348.817 304.197 363.099 312.817 378.085C329.944 407.803 386.817 433.268 393.183 443.071C405.69 462.451 410.028 504.507 414.282 530.169C420.986 530.169 436.873 529.888 443.38 527.55C441.183 514.395 444.76 460.226 422.507 417.071H422.535Z" fill="#AF0000"/>
<path d="M440.31 537.381C440.31 537.381 438.451 529.888 437.915 526.366C431.38 528.648 427.577 526.366 420.873 526.366C421.887 532.733 421.127 544.62 421.718 551.606H475.831L440.31 537.381Z" fill="#790808"/>
<path d="M330.987 345.296C339.241 344.93 356.537 342.62 363.494 335.69C362.086 324.366 357.016 306.169 358.79 291.521C364.818 241.859 340.593 226.986 340.593 226.986C340.593 226.986 329.438 219.183 320.396 228.507C306.762 242.564 293.438 282.282 294.79 341.014C304.199 345.859 321.156 345.747 331.016 345.296H330.987Z" fill="#CDE5E8"/>
<path d="M455.355 360.958C454.538 360.958 453.721 360.874 452.904 360.676C413.834 351.606 380.735 328.197 357.214 292.958C339.58 266.564 333.496 242.874 333.242 241.888C331.777 236.113 335.298 230.254 341.073 228.817C346.848 227.352 352.707 230.845 354.144 236.62C354.256 237.043 359.862 258.366 375.552 281.606C396.228 312.282 423.918 331.803 457.777 339.69C463.58 341.043 467.186 346.817 465.834 352.62C464.679 357.606 460.256 360.958 455.355 360.958Z" fill="#E20000"/>
<path d="M431.58 328.563C410.058 318.366 391.72 302.197 377.101 280.535C361.608 257.578 356.002 236.338 355.974 236.141C354.537 230.507 349.495 226.563 343.692 226.563C342.65 226.563 341.608 226.704 340.594 226.958C337.298 227.775 334.537 229.831 332.819 232.761C331.073 235.662 330.594 239.071 331.411 242.366L331.467 242.592C333.129 249.859 339.805 275.38 355.664 299.099C374.65 327.521 400.396 348.761 430.115 360.592C430.34 360.676 430.566 360.732 430.819 360.732C431.185 360.732 431.58 360.62 431.889 360.394C432.397 360.056 432.735 359.465 432.735 358.817V330.282C432.735 329.549 432.312 328.873 431.636 328.563H431.58Z" fill="#E1F3F6"/>
<path d="M463.354 361.719C459.889 361.719 456.227 361.324 452.368 360.564C450.65 360.226 449.551 358.564 449.889 356.846C450.227 355.127 451.889 354.001 453.636 354.367C463.072 356.254 470.96 355.578 477.044 352.31C478.593 351.493 480.509 352.085 481.326 353.606C482.143 355.155 481.551 357.071 480.03 357.888C475.241 360.451 469.664 361.719 463.382 361.719H463.354Z" fill="#E20000"/>
<path d="M463.805 354.62C462.284 354.62 460.735 354.507 459.157 354.282C457.411 354.029 456.228 352.423 456.481 350.676C456.735 348.93 458.341 347.747 460.087 348C470.228 349.493 479.608 344.226 479.721 344.169C481.242 343.296 483.186 343.831 484.059 345.352C484.932 346.874 484.397 348.789 482.904 349.691C482.51 349.916 474.172 354.62 463.862 354.62H463.805Z" fill="#E20000"/>
<path d="M460.988 348.395C460.509 348.395 460.002 348.395 459.466 348.338C457.72 348.226 456.396 346.733 456.509 344.986C456.621 343.24 458.114 341.916 459.861 342.028C467.354 342.479 471.297 337.944 471.326 337.887C472.424 336.535 474.424 336.31 475.776 337.437C477.128 338.535 477.354 340.535 476.227 341.887C476.002 342.169 470.819 348.395 460.931 348.395H460.988Z" fill="#E20000"/>
<path d="M450.029 343.043C448.282 343.043 446.846 341.634 446.846 339.888C446.846 338.141 448.254 336.733 450.001 336.733C450.282 336.733 456.536 336.592 460.113 331.437C461.099 330 463.099 329.634 464.536 330.648C465.972 331.634 466.339 333.606 465.325 335.071C459.803 343.014 450.395 343.099 450.001 343.099L450.029 343.043Z" fill="#E20000"/>
<path d="M439.663 271.493C438.677 271.493 437.691 271.042 437.072 270.169C432.395 263.662 431.41 258.197 431.381 257.944C431.072 256.226 432.255 254.592 433.973 254.282C435.691 253.972 437.325 255.127 437.635 256.873C437.635 256.873 438.48 261.211 442.226 266.451C443.241 267.888 442.931 269.859 441.494 270.873C440.931 271.268 440.283 271.465 439.663 271.465V271.493Z" fill="#E20000"/>
<path d="M440.308 272.874C440.111 272.874 439.914 272.874 439.717 272.817C432.787 271.493 419.013 271.465 418.872 271.465C417.125 271.465 415.717 270.057 415.717 268.31C415.717 266.564 417.125 265.155 418.872 265.155C419.463 265.155 433.379 265.155 440.9 266.62C442.618 266.958 443.745 268.592 443.407 270.338C443.125 271.859 441.773 272.902 440.308 272.902V272.874Z" fill="#E20000"/>
<path d="M417.127 279.493C415.549 279.493 414.197 278.31 413.972 276.704C413.746 274.958 414.986 273.38 416.732 273.155C418.732 272.902 436.563 270.733 442.31 271.747C444.028 272.056 445.183 273.69 444.873 275.409C444.563 277.127 442.93 278.282 441.211 277.972C437.577 277.324 424.76 278.535 417.521 279.409C417.38 279.409 417.268 279.409 417.127 279.409V279.493Z" fill="#E20000"/>
<path d="M421.27 286.648C419.777 286.648 418.453 285.606 418.171 284.085C417.833 282.366 418.96 280.704 420.678 280.366C428.368 278.874 430.397 278.226 434.115 277.043C435.861 276.479 438.03 275.775 441.27 274.845C442.96 274.366 444.706 275.324 445.185 277.014C445.664 278.704 444.706 280.451 443.016 280.93C439.861 281.831 437.833 282.507 436.059 283.071C432.228 284.31 429.918 285.043 421.861 286.592C421.664 286.62 421.467 286.648 421.27 286.648Z" fill="#E20000"/>
<path d="M428.085 291.691C426.564 291.691 425.24 290.592 424.958 289.043C424.677 287.324 425.832 285.662 427.55 285.381C437.832 283.634 439.86 279.803 439.888 279.747C440.451 278.085 442.226 277.183 443.888 277.719C445.55 278.282 446.451 280.057 445.916 281.719C445.522 282.958 442.761 289.183 428.648 291.606C428.479 291.606 428.282 291.662 428.113 291.662L428.085 291.691Z" fill="#E20000"/>
<path d="M440.311 287.888L437.889 262.057C437.889 262.057 449.213 262.874 449.213 274.761C449.213 278.733 448.058 283.155 440.311 287.888Z" fill="#E20000"/>
<path d="M368.961 203.69C371.834 214.507 365.384 225.606 354.539 228.451C343.722 231.324 332.623 224.874 329.75 214.057L326.144 200.451C323.271 189.634 329.722 178.536 340.567 175.69C351.384 172.817 362.482 179.268 365.355 190.085L368.961 203.69Z" fill="#E20000"/>
<path d="M367.047 196.507C365.497 200.789 363.328 205.043 359.976 207.944C351.807 214.986 339.3 216.874 329.385 212.648L329.751 214.057C332.624 224.874 343.695 231.324 354.54 228.451C365.357 225.578 371.807 214.507 368.962 203.69L367.075 196.507H367.047Z" fill="#AF0000"/>
<path d="M329.722 213.296C322.116 208.423 313.891 189.831 325.919 185.775C333.356 183.268 330.37 206.197 330.37 212.676L329.722 213.296Z" fill="#AF0000"/>
<path d="M323.609 187.296C314.397 180.62 325.806 161.775 348.538 161.775C362.595 161.775 362.482 172.535 352.764 178.338C344.707 183.155 332.2 180.338 326.144 188.564L323.609 187.296Z" fill="#AF0000"/>
<path d="M367.046 200.648C363.835 195.775 357.469 185.86 355.018 180.31C353.44 176.761 351.3 170.733 358.398 175.014C364.342 178.592 367.553 191.24 366.99 197.662L367.046 200.648Z" fill="#AF0000"/>
<path d="M206.424 245.747C202.931 248.986 199.072 252 195.917 255.606L150.143 351.211L184.227 307.24L220.424 232.423C215.805 236.901 211.157 241.38 206.452 245.747H206.424Z" fill="#B21D1D"/>
<path d="M179.265 230.056C182.589 225.521 185.772 220.169 189.546 215.493L109.434 176.366L33.4336 183.972L166.617 245.38C170.983 240.394 175.377 235.352 179.265 230.028V230.056Z" fill="#B21D1D"/>
<path d="M190.705 216.028C186.451 221.352 182.987 227.634 178.902 232.591C175.24 237.07 171.55 241.521 167.775 245.915L228.311 273.831L250.282 245.127L190.677 216.028H190.705Z" fill="#E20000"/>
<path d="M99.5493 326.986L123.042 277.944L0 219.042L19.7465 177.775L222.338 58.479L277.606 84.9579L196.338 254.704L229.831 270.733L207.099 318.225L173.606 302.197L150.113 351.24L99.493 327.014L99.5493 326.986ZM190.676 136.62L187.549 135.127L79.1831 198.564L145.746 230.423L190.648 136.592L190.676 136.62Z" fill="#AD0000"/>
<path d="M229.858 270.704L250.309 245.155L234.253 280.76L206.365 319.718L229.858 270.704Z" fill="#B21D1D"/>
<path d="M221.998 231.014L301.885 55.8872L277.604 84.9295L196.336 254.676C198.589 252.479 220.674 232.31 221.97 231.014H221.998Z" fill="#B21D1D"/>
<path d="M19.7461 177.775L55.8588 146.366L253.802 32.7324L222.338 58.4789L19.7461 177.775Z" fill="#E70000"/>
<path d="M222.338 58.4789L277.634 84.9296L301.887 55.8873L253.803 32.7324L222.338 58.4789Z" fill="#FD0000"/>
<path d="M154.505 186.394C147.716 181.549 143.012 183.69 139.744 184.169C136.167 184.732 133.519 182.761 133.519 182.761C132.054 181.803 130.082 182.225 129.125 183.69C128.167 185.155 128.589 187.127 130.054 188.085C130.195 188.169 132.984 189.944 137.801 191.211C132.533 196.028 127.153 201.831 126.843 202.141C125.66 203.437 125.744 205.437 127.012 206.62C127.632 207.183 128.392 207.465 129.153 207.465C129.998 207.465 130.871 207.127 131.491 206.451C131.547 206.394 135.294 202.338 139.491 198.31C135.603 203.183 131.97 208.225 131.294 209.155C130.279 210.592 130.589 212.563 132.026 213.577C132.589 213.972 133.237 214.169 133.885 214.169C134.871 214.169 135.857 213.718 136.448 212.845C138.533 209.944 141.463 206.028 144.251 202.535C143.209 204.592 141.885 206.93 139.237 211.183C138.308 212.676 138.758 214.62 140.251 215.549C140.758 215.859 141.35 216.028 141.913 216.028C142.984 216.028 143.998 215.493 144.617 214.535C145.716 212.789 146.589 211.324 147.322 210.085C146.758 211.465 147.237 213.07 148.533 213.916C149.068 214.254 149.66 214.423 150.251 214.423C151.294 214.423 152.308 213.916 152.899 212.986C155.857 208.423 157.322 204.676 157.941 201.746L158.082 201.831C159.857 192.93 157.688 188.676 154.477 186.394H154.505ZM148.167 208.704C149.209 206.873 149.941 205.465 150.617 204.085C150.054 205.437 149.265 206.986 148.167 208.704Z" fill="#E20000"/>
<path d="M57.3813 222.338C47.3532 221.775 32.7898 241.409 47.6912 246.761C34.1982 246.451 30.9025 265.521 43.2687 270.789C21.6067 266.564 24.1419 294.648 34.3672 304.789C27.4377 303.69 20.3954 310.31 21.4658 317.549C22.5363 324.817 25.4095 334.902 43.4095 340.31C61.4095 345.718 72.4236 335.606 81.3532 326.056C87.0996 337.775 115.41 321.944 112.283 307.916C122.987 311.718 132.564 299.578 132.762 289.887C132.959 280.423 126.339 273.211 120.029 267.042C124.48 262.986 125.325 255.437 124.142 249.69C122.198 240.113 110.226 239.155 110.226 231.549C110.226 228.873 110.733 220.592 108.48 216.958C104.874 211.183 98.5644 205.437 90.6489 208.282C57.3813 192.507 57.3813 222.338 57.3813 222.338Z" fill="#AF0000"/>
<path d="M76.7869 530.169C67.6319 528.563 66.1671 529.042 57.1249 526.817L36.1953 552.394H117.35L70.2235 539.718L76.7869 530.169Z" fill="#790808"/>
<path d="M227.915 537.493L223.127 531.183C218.788 533.972 214.281 536.366 209.408 538.084L222.225 552.394H269.774L227.915 537.493Z" fill="#790808"/>
<path d="M48.5371 530.254C57.6357 532.479 66.7343 534.789 75.9174 536.366L142.931 453.916L131.523 421.155L84.5935 367.042L98.1146 443.719L48.5371 530.254Z" fill="#790808"/>
<path d="M139.688 344.338C121.293 339.465 96.3639 345.634 78.4766 352.394C78.4766 352.394 89.4625 396.085 96.6456 409.127C117.631 447.071 208.364 541.775 208.364 541.775C213.35 540.085 222.955 533.042 227.35 530.197L139.688 344.338Z" fill="#AF0000"/>
<path d="M76.0265 369.465C93.7729 362.789 129.407 351.549 147.688 356.113C147.688 356.113 123.491 299.239 112.505 286.704C105.097 278.253 64.5898 254.423 64.5898 285.577C64.5898 328.254 76.0265 369.465 76.0265 369.465Z" fill="#CDE5E8"/>
<path d="M91.8297 282.901C91.6044 282.986 91.3509 283.042 91.0974 283.127C85.6889 284.591 80.1114 281.38 78.6466 275.972C77.1255 270.31 77.041 263.239 77.041 262.479C77.041 256.873 81.5481 252.31 87.1537 252.281C92.7593 252.281 97.3227 256.789 97.3509 262.366C97.3509 264.338 97.6326 268.338 98.2523 270.676C99.6607 275.859 96.7875 281.155 91.8297 282.901Z" fill="#E20000"/>
<path d="M98.5904 272.873C98.5623 272.141 98.4496 271.408 98.2524 270.676C97.6327 268.338 97.3792 264.338 97.351 262.366C97.3228 256.761 92.7595 252.253 87.1538 252.282C81.5482 252.282 77.013 256.873 77.0411 262.479C77.0411 262.591 77.0411 262.901 77.0411 263.324C82.0552 268.958 90.2806 271.634 98.5623 272.873H98.5904Z" fill="#982C2C"/>
<path d="M108.505 242.451C111.772 252.536 106.251 263.352 96.1949 266.62C86.1104 269.888 75.2934 264.366 72.0258 254.31L67.9132 241.634C64.6456 231.55 70.1667 220.733 80.223 217.465C90.3075 214.197 101.124 219.69 104.392 229.775L108.505 242.451Z" fill="#E20000"/>
<path d="M221.491 232.282C221.096 231.943 220.617 231.746 220.139 231.634C220.589 231.127 221.096 230.591 221.66 229.972C222.843 228.676 222.758 226.676 221.462 225.493C221.293 225.352 221.124 225.211 220.955 225.127C221.829 223.859 221.688 222.112 220.533 221.014C219.631 220.169 218.364 219.972 217.293 220.366C218.73 218.901 219.631 217.887 219.744 217.774C220.899 216.45 220.786 214.451 219.462 213.296C218.139 212.141 216.139 212.253 214.984 213.577C214.899 213.662 208.026 221.436 200.927 225.465C197.857 220.817 193.716 219.183 193.491 219.098C191.857 218.479 190.082 219.296 189.434 220.901C188.815 222.507 189.603 224.338 191.209 225.014C191.35 225.07 193.772 226.084 195.66 228.986C195.406 229.69 195.096 230.732 194.927 231.915C148.279 295.07 86.392 272.648 83.6033 271.577C78.054 269.465 71.8287 272.197 69.6878 277.746C67.547 283.296 70.2794 289.549 75.8287 291.69C76.5892 291.972 91.716 297.746 113.322 297.746C117.66 297.746 122.279 297.521 127.068 296.958C150.364 294.253 184.815 280.845 212.336 245.352C212.786 245.098 213.434 244.704 214.279 244.084C214.843 243.718 215.406 243.324 215.998 242.845L215.913 242.789C217.547 241.408 219.547 239.493 221.829 236.76C222.955 235.408 222.786 233.408 221.434 232.31L221.491 232.282Z" fill="#E20000"/>
<path d="M135.605 271.747L132.986 272.31C126.591 273.69 119.943 274.394 113.267 274.394C96.901 274.394 85.5489 270.282 84.3095 269.803C82.8447 269.239 81.3236 268.958 79.7743 268.958C74.5067 268.958 69.8588 272.141 67.9433 277.07C66.732 280.225 66.5067 283.831 68.1687 286.761C74.3658 297.747 91.3518 302.197 113.38 302.197C118.056 302.197 122.76 301.916 127.352 301.408C130.169 301.07 133.098 300.592 136.112 299.972L137.971 299.493C137.971 299.493 135.324 291.493 134.76 283.352C134.535 280.254 135.633 271.775 135.633 271.775L135.605 271.747Z" fill="#E1F3F6"/>
<path d="M67.4929 251.831C74.1407 247.606 76.4506 239.662 75.7182 231.747C81.5492 235.662 86.1689 233.268 89.8309 226.535C100.901 242.028 117.746 218.986 94.7605 210.62C76.3661 203.944 58.3379 222.141 63.0422 240.423L67.4929 251.831Z" fill="#AF0000"/>
</g>
<defs>
<clipPath id="clip0_1373_2949">
<rect width="983.099" height="600" fill="white"/>
</clipPath>
</defs>
</svg>
