<svg width="14" height="26" viewBox="0 0 14 26" fill="none" xmlns="http://www.w3.org/2000/svg">
<path d="M3.9402 14.653C3.83972 14.653 1.73188 14.6537 0.759724 14.6527C0.259244 14.6524 0.080684 14.4725 0.080684 13.9689C0.080044 12.6751 0.079724 11.3813 0.080684 10.0876C0.081004 9.5903 0.269804 9.40054 0.763884 9.40022C1.73604 9.39958 3.83236 9.3999 3.9402 9.3999C3.9402 9.31126 3.93988 7.44342 3.9402 6.58326C3.94084 5.31158 4.16772 4.0943 4.8138 2.97974C5.47524 1.83894 6.4378 1.0575 7.6714 0.605664C8.46148 0.316064 9.28164 0.200544 10.12 0.199904C11.169 0.199264 12.218 0.200224 13.2672 0.202144C13.7181 0.202784 13.9181 0.402144 13.9191 0.856224C13.921 2.07318 13.921 3.29014 13.9191 4.50678C13.9184 4.96566 13.7268 5.14998 13.2656 5.1551C12.4058 5.16438 11.5453 5.15862 10.6864 5.19318C9.81892 5.19318 9.3626 5.61686 9.3626 6.51478C9.3418 7.46454 9.35396 8.41527 9.35396 9.39958C9.43524 9.39958 11.904 9.39926 13.058 9.39958C13.5821 9.39958 13.7613 9.57974 13.7613 10.1068C13.7613 11.3935 13.761 12.6805 13.76 13.9673C13.7597 14.4866 13.5914 14.6524 13.064 14.6527C11.9101 14.6533 9.45092 14.653 9.3434 14.653V25.0674C9.3434 25.6226 9.16868 25.7996 8.62084 25.7996C7.28516 25.7996 5.94916 25.7999 4.61348 25.7996C4.12932 25.7996 3.94052 25.6114 3.94052 25.1273C3.9402 21.7356 3.9402 14.7721 3.9402 14.653Z" fill="white"/>
</svg>
