<svg width="32" height="32" viewBox="0 0 32 32" fill="none" xmlns="http://www.w3.org/2000/svg">
<path d="M31.9917 32V31.9986H31.9997V20.2626C31.9997 14.5213 30.7637 10.0986 24.0517 10.0986C20.825 10.0986 18.6597 11.8693 17.7757 13.548H17.6824V10.6346H11.3184V31.9986H17.945V21.42C17.945 18.6346 18.473 15.9413 21.9224 15.9413C25.321 15.9413 25.3717 19.12 25.3717 21.5986V32H31.9917Z" fill="white"/>
<path d="M0.527344 10.636H7.16201V32H0.527344V10.636Z" fill="white"/>
<path d="M3.84267 0C1.72133 0 0 1.72133 0 3.84267C0 5.964 1.72133 7.72133 3.84267 7.72133C5.964 7.72133 7.68533 5.964 7.68533 3.84267C7.684 1.72133 5.96267 0 3.84267 0V0Z" fill="white"/>
</svg>
