<svg width="26" height="22" viewBox="0 0 26 22" fill="none" xmlns="http://www.w3.org/2000/svg">
<path d="M25.7992 3.0625C24.8472 3.4801 23.8328 3.7569 22.7752 3.8913C23.8632 3.2417 24.6936 2.2209 25.084 0.990497C24.0696 1.5953 22.9496 2.0225 21.756 2.2609C20.7928 1.2353 19.42 0.600098 17.9224 0.600098C15.0168 0.600098 12.6776 2.9585 12.6776 5.8497C12.6776 6.2657 12.7128 6.6657 12.7992 7.0465C8.43602 6.8337 4.57522 4.7425 1.98162 1.5569C0.126899 4.89866 2.19922 7.6385 3.59442 8.5713C2.75122 8.5553 1.92402 8.3105 1.22322 7.9249C1.22322 10.53 3.04242 12.6513 5.42802 13.1393C4.90642 13.3124 3.7669 13.4065 3.05842 13.2225C3.73842 15.3009 5.66802 16.8289 7.96242 16.8785C6.17682 18.2753 3.54546 19.4139 0.199219 19.0449C2.52402 20.5441 5.27922 21.4001 8.25042 21.4001C17.908 21.4001 23.188 13.4001 23.188 6.4657C23.188 6.2337 23.18 6.0097 23.1688 5.7873C24.2104 5.0481 25.0856 4.1249 25.7992 3.0625Z" fill="white"/>
</svg>
