<svg width="25" height="22" viewBox="0 0 25 22" fill="none" xmlns="http://www.w3.org/2000/svg">
<path fill-rule="evenodd" clip-rule="evenodd" d="M22.7294 2.38178C21.4586 1.00349 19.7119 0.243164 17.8185 0.243164C16.3964 0.243164 15.0888 0.69454 13.9449 1.57928C13.6315 1.8216 13.3346 2.09322 13.0555 2.3926L12.7824 2.70119C12.4264 2.27774 12.0379 1.90254 11.62 1.57931C10.476 0.69454 9.16845 0.243164 7.74638 0.243164C5.85288 0.243164 4.10627 1.00345 2.83547 2.38176C1.58588 3.73721 0.900391 5.58166 0.900391 7.57238C0.900391 9.61954 1.6617 11.4896 3.27223 13.433L3.67206 13.9017C4.35906 14.683 5.12956 15.4362 6.35068 16.5213L7.35675 17.403L11.4029 20.8774L11.5907 21.0414C11.9202 21.33 12.3435 21.4891 12.7823 21.4891C13.2208 21.4891 13.6443 21.3301 13.974 21.0416L16.2805 19.0554L17.9116 17.6594C19.9999 15.8576 21.049 14.8733 21.971 13.8121L22.2926 13.4328C23.903 11.4898 24.6643 9.61966 24.6643 7.57238C24.6643 5.58155 23.9789 3.73714 22.7294 2.38178Z" fill="#EF5350"/>
</svg>
