<svg width="69" height="50" viewBox="0 0 69 50" fill="none" xmlns="http://www.w3.org/2000/svg">
<path d="M19.549 0.188374C19.242 0.202594 18.9417 0.283173 18.6689 0.424424C18.6689 0.424424 14.7058 2.44553 10.5278 6.4755C6.18312 10.6666 3.09547 16.7452 1.45661 22.8546C-0.203517 29.0455 -0.132341 34.6628 1.88029 39.486C3.88961 44.3019 7.68052 47.6298 12.6908 48.9713C16.8384 50.0814 21.025 49.4614 24.7713 47.2294C28.5148 44.9997 31.0863 41.6105 32.2108 37.4166C33.3708 33.0923 32.847 28.8623 30.6086 25.2397C30.5991 25.2283 30.5892 25.2174 30.5797 25.2065C28.3155 21.6647 24.7439 19.2455 20.2546 18.0434C19.3939 17.8131 18.2733 17.9017 17.2907 17.824C17.8002 16.074 18.3032 14.496 20.0639 12.3697C22.1372 9.86598 27.3164 5.65922 27.3164 5.65922C27.7301 5.33026 28.0063 4.8591 28.0912 4.33765C28.1761 3.81621 28.0632 3.28206 27.7747 2.8393C27.4863 2.39658 27.0431 2.07662 26.5317 1.94296L20.1925 0.267315C19.9833 0.208065 19.7665 0.181521 19.5492 0.188631L19.549 0.188374ZM55.0398 0.18838C54.7328 0.2026 54.4325 0.28318 54.1597 0.42443C54.1597 0.42443 50.1799 2.44554 46.0019 6.47551C41.6572 10.6666 38.5861 16.7452 36.9474 22.8546C35.2872 29.0456 35.3584 34.6628 37.371 39.486C39.3799 44.3019 43.1584 47.6298 48.1686 48.9713C52.3163 50.0814 56.5029 49.4614 60.2497 47.2294C63.9931 44.9997 66.5766 41.6105 67.7015 37.4166C68.8616 33.0923 68.3255 28.8623 66.0865 25.2397C66.0813 25.2283 66.0756 25.2174 66.0699 25.2065C63.8067 21.6647 60.2346 19.2455 55.7453 18.0435C54.8822 17.8126 53.7506 17.9017 52.7647 17.824C53.2729 16.0717 53.7957 14.4984 55.5583 12.3697C57.6322 9.86599 62.7904 5.65922 62.7904 5.65922C63.2042 5.33027 63.4803 4.8591 63.5652 4.33766C63.6497 3.81626 63.5372 3.28206 63.2488 2.8393C62.9603 2.39659 62.5172 2.07663 62.0058 1.94297L55.6666 0.267321C55.4626 0.209967 55.2515 0.183423 55.0398 0.188637L55.0398 0.18838Z" fill="#B1FDAF"/>
</svg>
