<?xml version="1.0" encoding="UTF-8"?>
<svg id="Layer_1" data-name="Layer 1" xmlns="http://www.w3.org/2000/svg" xmlns:xlink="http://www.w3.org/1999/xlink" viewBox="0 0 95.03 84.43">
  <defs>
    <style>
      .cls-1 {
        fill: url(#linear-gradient-3);
        opacity: .31;
      }

      .cls-1, .cls-2, .cls-3, .cls-4 {
        isolation: isolate;
      }

      .cls-2 {
        fill: url(#linear-gradient-2);
      }

      .cls-2, .cls-4 {
        opacity: .05;
      }

      .cls-5 {
        fill: #b20a0a;
        fill-rule: evenodd;
      }

      .cls-3 {
        fill: url(#linear-gradient);
        opacity: .1;
      }

      .cls-6 {
        fill: #072a30;
      }

      .cls-4 {
        fill: url(#linear-gradient-4);
      }
    </style>
    <linearGradient id="linear-gradient" x1="-896.94" y1="580.55" x2="-897.71" y2="581.35" gradientTransform="translate(-42943.66 66444.58) rotate(90) scale(74 -74)" gradientUnits="userSpaceOnUse">
      <stop offset="0" stop-color="#000"/>
      <stop offset="1" stop-color="#000" stop-opacity="0"/>
    </linearGradient>
    <linearGradient id="linear-gradient-2" x1="-792.43" y1="633.78" x2="-793.2" y2="634.58" gradientTransform="translate(.78 8135.96) rotate(51.98) scale(8 -8)" gradientUnits="userSpaceOnUse">
      <stop offset="0" stop-color="#000"/>
      <stop offset="1" stop-color="#000" stop-opacity="0"/>
    </linearGradient>
    <linearGradient id="linear-gradient-3" x1="-734.04" y1="659.33" x2="-734.81" y2="660.13" gradientTransform="translate(-353.9 5349.91) rotate(51.98) scale(5.36 -5.36)" gradientUnits="userSpaceOnUse">
      <stop offset="0" stop-color="#9effc1"/>
      <stop offset="1" stop-color="#43d477"/>
    </linearGradient>
    <linearGradient id="linear-gradient-4" x1="-792.43" y1="633.78" x2="-793.2" y2="634.58" gradientTransform="translate(-86.26 8141.56) rotate(51.98) scale(8 -8)" gradientUnits="userSpaceOnUse">
      <stop offset="0" stop-color="#000"/>
      <stop offset="1" stop-color="#000" stop-opacity="0"/>
    </linearGradient>
  </defs>
  <rect class="cls-3" x="9.61" y="5.22" width="74" height="74" rx="20" ry="20" transform="translate(-10.23 69.13) rotate(-67.5)"/>
  <path class="cls-2" d="m94.19,11.95h0c1.36,1.74,1.05,4.25-.69,5.61h0c-1.74,1.36-4.25,1.05-5.61-.69h0c-1.36-1.74-1.05-4.25.69-5.61h0c1.74-1.36,4.25-1.05,5.61.69Z"/>
  <path class="cls-1" d="m9.19,71.01h0c.91,1.17.71,2.85-.46,3.76h0c-1.17.91-2.85.71-3.76-.46h0c-.91-1.17-.71-2.85.46-3.76h0c1.17-.91,2.85-.71,3.76.46Z"/>
  <path class="cls-4" d="m7.15,17.55h0c1.36,1.74,1.05,4.25-.69,5.61h0c-1.74,1.36-4.25,1.05-5.61-.69h0c-1.36-1.74-1.05-4.25.69-5.61h0c1.74-1.36,4.25-1.05,5.61.69Z"/>
  <g>
    <path class="cls-6" d="m56.85,59.68c0-.12.01-.21.01-.3,0-2.98-3.38-4.43-10.33-4.43-2.45-.1-4.89.2-7.24.87-2.04.71-3.08,1.89-3.09,3.5-2.11-1.61-3.84-3.67-5.04-6.04-4.36-8.62-.91-19.15,7.71-23.52,8.62-4.36,19.15-.91,23.52,7.71,1.24,2.45,1.88,5.15,1.88,7.89,0,5.69-2.77,11.03-7.42,14.31h0Zm-10.32-21.75c-3.78,0-6.84,3.06-6.83,6.84s3.06,6.84,6.84,6.83c3.78,0,6.84-3.06,6.83-6.84,0-3.77-3.06-6.83-6.84-6.83Z"/>
    <path class="cls-5" d="m82.18,38.42l-12.03-20.88c-2.38-4.13-6.79-6.68-11.56-6.67h-24.11c-4.77,0-9.17,2.54-11.56,6.67l-12.05,20.88c-2.37,4.13-2.37,9.21,0,13.34l12.03,20.88c2.4,4.12,6.8,6.65,11.56,6.67h24.11c4.77,0,9.17-2.54,11.56-6.67l12.03-20.88c2.4-4.12,2.41-9.21.02-13.34h0Zm-35.64,29.37c-12.54,0-22.7-10.16-22.7-22.7s10.16-22.7,22.7-22.7,22.7,10.16,22.7,22.7h0c0,12.54-10.16,22.7-22.7,22.7Z"/>
  </g>
</svg>