<svg width="55" height="54" viewBox="0 0 65 64" fill="none" xmlns="http://www.w3.org/2000/svg">
<path d="M22.8997 50.5866H21.5545C10.7932 50.5866 5.4126 47.92 5.4126 34.5866V21.2533C5.4126 10.5866 10.7932 5.2533 21.5545 5.2533H43.0771C53.8384 5.2533 59.219 10.5866 59.219 21.2533V34.5866C59.219 45.2533 53.8384 50.5866 43.0771 50.5866H41.7319C40.8979 50.5866 40.0909 50.9867 39.5797 51.6534L35.5442 56.9867C33.7686 59.3334 30.863 59.3334 29.0874 56.9867L25.0519 51.6534C24.6215 51.0667 23.653 50.5866 22.8997 50.5866Z" stroke="#081A28" stroke-width="3" stroke-miterlimit="10" stroke-linecap="round" stroke-linejoin="round"/>
<path d="M21.5545 23.2001L16.1738 28.5334L21.5545 33.8667" stroke="#081A28" stroke-width="3" stroke-miterlimit="10" stroke-linecap="round" stroke-linejoin="round"/>
<path d="M43.0771 23.2001L48.4578 28.5334L43.0771 33.8667" stroke="#081A28" stroke-width="3" stroke-miterlimit="10" stroke-linecap="round" stroke-linejoin="round"/>
<path d="M35.0061 22.3199L29.6255 34.7467" stroke="#081A28" stroke-width="3" stroke-miterlimit="10" stroke-linecap="round" stroke-linejoin="round"/>
</svg>
