<svg width="1927" height="568" viewBox="0 0 1927 568" fill="none" xmlns="http://www.w3.org/2000/svg">
<mask id="mask0_546_2799" style="mask-type:alpha" maskUnits="userSpaceOnUse" x="0" y="0" width="1927" height="568">
<rect width="1927" height="568" fill="#1D2939"/>
</mask>
<g mask="url(#mask0_546_2799)">
<path d="M1609.92 231.432L1608.7 232.129L1617.06 246.664L1618.27 245.967L1609.92 231.432Z" fill="#2E5675"/>
<path d="M1617.71 225.975L1616.5 226.672L1624.85 241.207L1626.06 240.51L1617.71 225.975Z" fill="#2E5675"/>
<path d="M1625.93 221.166L1624.72 221.864L1633.08 236.392L1634.29 235.694L1625.93 221.166Z" fill="#2E5675"/>
<path d="M1644.65 234.911C1643.47 233.361 1641.54 232.177 1640.48 232.535C1640.54 232.397 1640.58 232.263 1640.62 232.108C1640.69 232.052 1640.79 231.993 1640.87 231.958C1641.52 231.587 1641.73 230.764 1641.36 230.109C1640.99 229.454 1640.17 229.24 1639.52 229.611C1639 229.935 1638.49 230.26 1637.99 230.581C1635.61 232.106 1633.24 233.672 1630.84 235.222L1619.47 241.758C1616.07 243.506 1612.67 245.255 1609.29 247C1608.64 247.371 1608.42 248.194 1608.8 248.849C1609.17 249.504 1609.99 249.718 1610.64 249.348C1610.72 249.292 1610.62 249.437 1610.7 249.402C1610.79 249.449 1610.71 249.611 1610.77 249.686C1610.79 249.703 1610.8 249.724 1610.82 249.74C1610.82 249.74 1611 249.56 1610.98 249.564C1609.83 250.002 1609.97 252.499 1610.82 254.491C1611.65 256.462 1613.05 257.041 1614.18 256.607C1615.04 256.286 1615.57 255.45 1615.41 254.226C1618.98 258.3 1623.02 262.946 1623.1 263.037L1623.28 263.303L1623.3 263.3C1624.66 265.135 1625.14 264.499 1626.17 264.529C1627.43 265.089 1631.91 263.318 1636.92 260.457C1642.05 257.489 1645.95 254.485 1645.89 253.202C1646.28 252.285 1647.05 252.339 1646.17 250.227L1645.98 249.899C1645.96 249.796 1644.01 244.058 1642.27 238.917C1643.27 239.672 1644.21 239.59 1644.91 238.979C1645.87 238.152 1645.96 236.63 1644.65 234.911Z" fill="#0D273C" stroke="#133249" stroke-width="2" stroke-miterlimit="10" stroke-linecap="round" stroke-linejoin="round"/>
<path d="M1604.21 224.113C1604.21 224.113 1585.43 212.33 1557.53 196.483C1557.3 196.355 1557.06 196.207 1556.83 196.079C1545.65 189.731 1535.42 182.494 1526.86 174.577C1518.34 166.677 1511.48 158.056 1507 148.949C1504.61 144.073 1502.89 139.056 1501.98 133.918C1500.94 128.039 1501.19 123.011 1502.19 118.741C1500.39 120.078 1490.75 128.597 1496.1 154.893C1496.12 154.996 1496.14 155.099 1496.18 155.198C1498.54 166.462 1503.96 175.953 1511.09 183.676C1520.12 193.417 1531.89 200.359 1543.73 204.469C1546.46 205.425 1549.17 206.217 1551.87 206.861C1575.64 212.584 1602.6 227.579 1602.6 227.579C1602.6 227.579 1605.1 226.351 1605.42 224.258C1604.79 224.244 1604.21 224.113 1604.21 224.113Z" stroke="#275579" stroke-width="2" stroke-miterlimit="10" stroke-linecap="round" stroke-linejoin="round"/>
<path d="M1615.84 86.3003C1615.77 86.2291 1615.69 86.1578 1615.62 86.0865C1595.55 68.2556 1583.36 72.3082 1581.29 73.1848C1585.48 74.4549 1589.96 76.7757 1594.5 80.6335C1598.5 84.0166 1601.99 88.0194 1604.99 92.5319C1610.63 100.988 1614.63 111.239 1617.18 122.576C1619.75 133.951 1620.86 146.433 1620.73 159.285C1620.73 159.56 1620.72 159.838 1620.73 160.113C1620.42 192.184 1621.18 214.356 1621.18 214.356C1621.18 214.356 1621 214.918 1620.68 215.463C1622.64 216.239 1624.95 214.704 1624.95 214.704C1624.95 214.704 1625.52 183.858 1632.51 160.417C1633.31 157.752 1633.98 155.002 1634.52 152.171C1636.91 139.872 1636.84 126.209 1632.93 113.502C1629.89 103.44 1624.4 93.9838 1615.84 86.3003Z" stroke="#275579" stroke-width="2" stroke-miterlimit="10" stroke-linecap="round" stroke-linejoin="round"/>
<path d="M1507.78 150.424C1508.45 151.704 1509.17 152.997 1509.94 154.259L1511.12 156.127C1511.94 157.382 1512.8 158.65 1513.7 159.889L1515.03 161.667C1515.88 162.767 1516.76 163.863 1517.67 164.931L1518.47 165.89L1519 166.495C1519.22 166.733 1519.43 166.992 1519.64 167.23L1521.17 168.889C1522.97 170.816 1524.88 172.704 1526.89 174.574C1535.44 182.511 1545.67 189.727 1556.85 196.075C1557.08 196.203 1557.32 196.352 1557.56 196.48C1585.45 212.326 1604.23 224.109 1604.23 224.109C1604.23 224.109 1604.81 224.24 1605.44 224.233C1606.44 224.226 1607.58 223.854 1607.03 222.064C1606.55 222.001 1606.19 221.895 1606.19 221.895C1606.19 221.895 1586.08 203.35 1569 189.888C1567.52 188.73 1566.07 187.609 1564.65 186.547C1557.09 180.83 1548.87 174.337 1541.22 166.325C1540.88 165.982 1540.54 165.618 1540.22 165.251L1538.7 163.592C1538.46 163.316 1538.2 163.045 1537.96 162.769L1536.49 161.058C1535.66 160.082 1534.82 159.085 1534.03 158.081L1533.97 158.113L1533.91 158.144L1533.45 157.356C1532.8 156.539 1532.18 155.695 1531.55 154.854L1532 155.621L1530.78 153.78C1529.91 152.578 1529.08 151.348 1528.26 150.093L1527.06 148.229C1526.35 147.083 1525.66 145.934 1524.98 144.739L1523.92 142.808C1523.44 141.917 1522.96 141.006 1522.48 140.095C1519.96 135.093 1517.76 129.652 1515.97 123.736C1512.82 113.311 1513.32 105.824 1515.42 100.447C1513.38 101.169 1505.02 106.959 1502.27 118.726C1501.27 122.997 1501.02 128.024 1502.06 133.903C1502.98 139.042 1504.7 144.079 1507.09 148.935" stroke="#275579" stroke-width="2" stroke-miterlimit="10" stroke-linecap="round" stroke-linejoin="round"/>
<path d="M1605.34 92.3429C1602.33 87.8304 1598.85 83.8275 1594.85 80.4444C1590.31 76.5866 1585.81 74.2901 1581.61 72.9994C1570.07 69.4734 1560.87 73.7791 1559.21 75.1765C1564.88 76.0774 1571.62 79.397 1579.06 87.3635C1583.27 91.8735 1586.85 96.4967 1589.93 101.207C1596.28 110.915 1600.38 120.894 1603.19 130.636C1606.27 141.285 1607.78 151.662 1608.92 161.065C1609.12 162.831 1609.38 164.63 1609.63 166.495C1612.69 188.024 1618.62 214.747 1618.62 214.747C1618.62 214.747 1618.53 215.081 1618.34 215.54C1619.6 216.927 1620.49 216.111 1621.02 215.254C1621.35 214.708 1621.52 214.147 1621.52 214.147C1621.52 214.147 1620.77 191.975 1621.07 159.903C1621.06 159.629 1621.08 159.35 1621.07 159.076C1621.21 146.224 1620.09 133.742 1617.52 122.367C1614.98 111.029 1610.97 100.778 1605.34 92.3429Z" stroke="#275579" stroke-width="2" stroke-miterlimit="10" stroke-linecap="round" stroke-linejoin="round"/>
<path d="M1608.67 219.397C1599.45 206.023 1589.03 195.555 1578.33 184.52C1570.57 176.527 1562.7 168.235 1555.03 158.359C1548.98 150.57 1543.07 141.802 1537.5 131.406C1537.21 130.863 1536.92 130.32 1536.63 129.778C1524.3 106.311 1525.58 94.0407 1529.27 87.7443C1526.56 88.566 1518.81 91.5967 1515.35 100.458C1513.28 105.831 1512.76 113.322 1515.91 123.747C1517.7 129.663 1519.89 135.083 1522.42 140.106C1527.63 150.461 1534.2 159.027 1541.2 166.349C1548.88 174.358 1557.09 180.871 1564.64 186.571C1566.06 187.633 1567.51 188.754 1568.98 189.912C1586.06 203.354 1606.18 221.919 1606.18 221.919C1606.18 221.919 1606.53 222.004 1607.01 222.089C1608.25 222.271 1610.44 222.286 1610.19 220.147C1609.35 219.85 1608.67 219.397 1608.67 219.397Z" stroke="#275579" stroke-width="2" stroke-miterlimit="10" stroke-linecap="round" stroke-linejoin="round"/>
<path d="M1589.95 101.204C1586.89 96.5099 1583.29 91.8699 1579.08 87.3599C1571.64 79.3934 1564.9 76.0737 1559.23 75.1729C1549.83 73.7041 1543.3 78.8703 1541.23 80.8282C1548.55 80.8021 1559.81 85.8619 1573.89 108.318C1574.22 108.853 1574.55 109.368 1574.87 109.883C1581.07 119.936 1585.68 129.463 1589.38 138.581C1594.07 150.174 1597.27 161.161 1600.3 171.883C1604.47 186.663 1608.3 200.952 1615.22 215.648C1615.22 215.648 1615.28 216.465 1615.11 217.321C1616.82 218.607 1617.91 216.718 1618.38 215.553C1618.58 215.094 1618.66 214.76 1618.66 214.76C1618.66 214.76 1612.73 188.037 1609.67 166.508C1609.4 164.647 1609.17 162.823 1608.96 161.078C1607.82 151.676 1606.32 141.298 1603.24 130.65C1600.4 120.891 1596.3 110.912 1589.95 101.204Z" stroke="#275579" stroke-width="2" stroke-miterlimit="10" stroke-linecap="round" stroke-linejoin="round"/>
<path d="M1574.87 109.883C1574.55 109.368 1574.22 108.833 1573.89 108.318C1559.81 85.8619 1548.55 80.8021 1541.23 80.8282C1539.69 80.8274 1538.33 81.0684 1537.14 81.4071C1537.14 81.3865 1537.11 81.3696 1537.11 81.3491C1537.11 81.3491 1535.89 81.6298 1534.26 82.5978C1532.61 83.5042 1531.76 84.4194 1531.76 84.4194C1531.76 84.44 1531.79 84.4569 1531.81 84.4738C1530.92 85.331 1530.03 86.3805 1529.25 87.7274C1525.56 94.0238 1524.28 106.315 1536.61 129.761C1536.9 130.303 1537.18 130.846 1537.47 131.389C1543.05 141.785 1548.96 150.574 1555 158.342C1562.67 168.218 1570.55 176.51 1578.31 184.504C1589 195.518 1599.43 206.006 1608.65 219.38C1608.65 219.38 1609.33 219.854 1610.16 220.13C1611.13 220.445 1612.32 220.488 1612.9 219.218C1614.31 219.351 1614.86 218.298 1615.07 217.308C1615.25 216.448 1615.17 215.635 1615.17 215.635C1608.26 200.939 1604.43 186.65 1600.25 171.87C1597.23 161.148 1594.02 150.161 1589.34 138.568C1585.68 129.442 1581.05 119.939 1574.87 109.883Z" stroke="#275579" stroke-width="2" stroke-miterlimit="10" stroke-linecap="round" stroke-linejoin="round"/>
<path d="M1601.22 226.828C1601.22 226.828 1609.21 214.318 1625.44 212.687C1625.44 212.687 1625.51 218.209 1626.96 222.447C1626.96 222.447 1615.29 226.535 1609.15 233.667C1609.15 233.667 1606.31 229.74 1601.22 226.828Z" fill="#0D273B" stroke="#2E5675" stroke-width="2" stroke-miterlimit="10" stroke-linecap="round" stroke-linejoin="round"/>
<path d="M1607.24 231.357C1607.24 231.357 1613.12 223.294 1626.26 220.027L1627.02 222.903C1627.02 222.903 1615.51 226.474 1609.15 233.667L1607.24 231.357Z" fill="#193C57"/>
<path d="M1600.1 226.178C1600.1 226.178 1607.97 212.948 1625.58 211.687L1625.47 212.831C1625.47 212.831 1610.49 213.498 1601.31 226.875L1600.1 226.178Z" fill="#193C57"/>
<path d="M1601.22 226.828C1601.22 226.828 1609.21 214.318 1625.44 212.687C1625.44 212.687 1625.51 218.209 1626.96 222.447C1626.96 222.447 1615.29 226.535 1609.15 233.667C1609.15 233.667 1606.31 229.74 1601.22 226.828Z" stroke="#2E5675" stroke-width="2" stroke-miterlimit="10" stroke-linecap="round" stroke-linejoin="round"/>
<path d="M409.237 384.424L405.729 386.092L410.588 483.38C410.588 483.38 462.465 446.897 514.373 442.151C537.057 424.773 588.661 400.296 628.85 393.597L569.536 314.849L560.273 318.745" stroke="#205075" stroke-width="3" stroke-miterlimit="10" stroke-linecap="round" stroke-linejoin="round"/>
<path d="M415.557 450.496L416.163 468.664C416.163 468.664 463.108 428.674 514.016 439.713C514.016 439.713 543.145 405.718 615.501 388.537L566.686 319.268L561.157 321.445" stroke="#205075" stroke-width="3" stroke-miterlimit="10" stroke-linecap="round" stroke-linejoin="round"/>
<path d="M412.756 451.658C412.756 451.658 472.446 417.687 514.016 439.713C514.016 439.713 520.785 405.809 602.486 382.439L549.501 305.557C549.501 305.557 497.028 309.202 482.727 344.616C482.727 344.616 448.969 339.942 409.279 360.653L412.756 451.658Z" stroke="#205075" stroke-width="3" stroke-miterlimit="10" stroke-linecap="round" stroke-linejoin="round"/>
<path d="M482.705 344.623C482.705 344.623 502.677 409.343 513.994 439.72" stroke="#205075" stroke-width="3" stroke-miterlimit="10" stroke-linecap="round" stroke-linejoin="round"/>
<path d="M409.958 378.748L399.737 382.187L404.644 498.805L506.534 454.047C506.534 454.047 503.826 446.723 514.38 442.173C514.38 442.173 525.882 437.109 531.342 446.383L643.226 400.407L573.929 308.352L556.97 315.373" stroke="#205075" stroke-width="3" stroke-miterlimit="10" stroke-linecap="round" stroke-linejoin="round"/>
<path d="M423.082 433.686C423.082 433.686 463.362 412.41 498.852 422.813" stroke="#205075" stroke-width="3" stroke-miterlimit="10" stroke-linecap="round" stroke-linejoin="round"/>
<path d="M421.428 419.502C421.428 419.502 457.119 397.187 493.93 407.388" stroke="#205075" stroke-width="3" stroke-miterlimit="10" stroke-linecap="round" stroke-linejoin="round"/>
<path d="M419.289 404.018C419.289 404.018 449.871 385.64 488.51 391.279" stroke="#205075" stroke-width="3" stroke-miterlimit="10" stroke-linecap="round" stroke-linejoin="round"/>
<path d="M417.249 387.527C417.249 387.527 453.719 367.241 484.222 375.057" stroke="#205075" stroke-width="3" stroke-miterlimit="10" stroke-linecap="round" stroke-linejoin="round"/>
<path d="M418.217 370.925C418.217 370.925 447.486 352.842 478.957 359.407" stroke="#205075" stroke-width="3" stroke-miterlimit="10" stroke-linecap="round" stroke-linejoin="round"/>
<path d="M583.077 372.474C583.077 372.474 538.351 381.186 517.259 411.552" stroke="#205075" stroke-width="3" stroke-miterlimit="10" stroke-linecap="round" stroke-linejoin="round"/>
<path d="M575.455 360.394C575.455 360.394 533.677 365.411 511.397 396.444" stroke="#205075" stroke-width="3" stroke-miterlimit="10" stroke-linecap="round" stroke-linejoin="round"/>
<path d="M567.414 346.994C567.414 346.994 532.069 351.869 505.524 380.511" stroke="#205075" stroke-width="3" stroke-miterlimit="10" stroke-linecap="round" stroke-linejoin="round"/>
<path d="M558.648 332.888C558.648 332.888 517.518 339.977 498.668 365.202" stroke="#205075" stroke-width="3" stroke-miterlimit="10" stroke-linecap="round" stroke-linejoin="round"/>
<path d="M547.462 320.57C547.462 320.57 513.313 324.872 492.951 349.729" stroke="#205075" stroke-width="3" stroke-miterlimit="10" stroke-linecap="round" stroke-linejoin="round"/>
<path d="M425.016 213.122C399.184 270.647 331.115 284.575 331.115 284.575C323.1 263.989 294.817 232.457 294.817 232.457C319.211 186.144 357.427 169.978 387.76 164.998C398.572 196.983 418.066 209.553 425.016 213.122Z" stroke="#205075" stroke-width="2" stroke-miterlimit="10" stroke-linecap="round" stroke-linejoin="round"/>
<path d="M434.79 164.785C434.843 183.587 431.115 199.566 425.016 213.122C418.066 209.527 398.572 196.956 387.786 164.998C414.284 160.63 434.79 164.785 434.79 164.785Z" stroke="#205075" stroke-width="2" stroke-miterlimit="10" stroke-linecap="round" stroke-linejoin="round"/>
<path d="M309.731 200.498C309.731 200.498 286.748 227.024 282.887 239.008C282.887 239.008 257.96 234.055 248 235.333C248 235.306 273.939 205.692 309.731 200.498Z" stroke="#205075" stroke-width="2" stroke-miterlimit="10" stroke-linecap="round" stroke-linejoin="round"/>
<path d="M367.973 277.252C367.973 277.252 336.122 292.006 323.552 292.432C323.552 292.432 321.422 317.759 317.454 327C317.454 326.973 353.059 310.222 367.973 277.252Z" stroke="#205075" stroke-width="2" stroke-miterlimit="10" stroke-linecap="round" stroke-linejoin="round"/>
<path d="M259.105 274.322C259.052 274.375 258.972 274.189 258.919 274.162C259.052 274.136 259.132 274.375 259.105 274.322Z" fill="#205075"/>
<path d="M260.25 274.136L260.17 274.082L260.41 274.162L260.25 274.136Z" fill="#205075"/>
<path d="M261.049 273.576C261.182 273.923 260.73 273.736 260.65 273.923L260.676 274.002L260.463 273.816C260.623 273.736 260.969 273.763 261.049 273.576Z" fill="#205075"/>
<path d="M261.023 272.644C261.076 272.777 261.182 272.671 260.943 272.751C260.943 272.724 260.943 272.724 260.943 272.698C260.969 272.698 260.996 272.698 261.023 272.644Z" fill="#205075"/>
<path d="M260.943 272.724C260.863 272.777 260.943 272.591 260.943 272.724V272.724Z" fill="#205075"/>
<path d="M261.395 272.511L261.209 272.484C261.182 272.405 261.262 272.325 261.209 272.298C261.342 272.271 261.369 272.351 261.395 272.511Z" fill="#205075"/>
<path d="M261.635 272.644H261.529C261.529 272.618 261.555 272.591 261.635 272.644Z" fill="#205075"/>
<path d="M261.369 272.644H261.555C261.582 272.698 261.635 272.804 261.475 272.644C261.529 272.751 261.449 272.671 261.369 272.644Z" fill="#205075"/>
<path d="M261.316 272.724C261.289 272.831 261.236 272.937 261.422 272.964C261.209 273.07 261.076 272.831 261.316 272.724Z" fill="#205075"/>
<path d="M261.289 273.869L261.262 274.003L261.129 273.949C261.182 273.976 261.236 273.763 261.289 273.869Z" fill="#205075"/>
<path d="M261.981 271.899C262.035 271.952 262.061 272.085 262.114 272.165H261.981C261.981 272.085 262.035 271.978 261.981 271.899Z" fill="#205075"/>
<path d="M262.088 272.165L262.301 272.192C262.194 272.271 262.141 272.245 262.088 272.165Z" fill="#205075"/>
<path d="M261.875 272.964L261.529 272.884L261.928 272.937L261.875 272.964Z" fill="#205075"/>
<path d="M262.434 271.552L262.274 271.446L262.541 271.606L262.434 271.552Z" fill="#205075"/>
<path d="M262.754 271.366C262.62 271.286 262.674 271.1 262.594 271.073C262.7 271.046 262.834 271.1 262.967 271.126C262.86 271.153 262.78 271.206 262.754 271.366Z" fill="#205075"/>
<path d="M263.153 271.206C263.1 271.206 263.02 271.179 262.94 271.153C263.02 271.153 263.073 271.153 263.153 271.206Z" fill="#205075"/>
<path d="M262.487 272.005C262.461 271.952 262.434 271.845 262.461 271.765L262.541 271.978L262.487 272.005Z" fill="#205075"/>
<path d="M262.514 271.978C262.567 271.925 262.594 271.899 262.62 271.899C262.62 271.899 262.594 271.925 262.514 271.978Z" fill="#205075"/>
<path d="M262.088 272.591C262.221 272.644 262.461 272.644 262.407 272.884C262.274 272.804 262.301 272.671 262.088 272.591Z" fill="#205075"/>
<path d="M262.567 272.298L262.461 272.431C262.434 272.378 262.407 272.298 262.328 272.271L262.567 272.298Z" fill="#205075"/>
<path d="M262.674 272.298H262.567L262.594 272.245L262.674 272.298Z" fill="#205075"/>
<path d="M263.047 271.526C263.153 271.552 263.233 271.526 263.286 271.499C263.233 271.579 263.18 271.659 263.1 271.712C263.073 271.659 262.967 271.579 263.047 271.526Z" fill="#205075"/>
<path d="M262.807 271.765C262.833 271.792 262.833 271.792 262.807 271.765V271.765Z" fill="#205075"/>
<path d="M263.979 271.02L264.005 271.073L263.979 271.02Z" fill="#205075"/>
<path d="M263.126 271.739C263.1 271.819 263.02 271.792 262.967 271.765C263.02 271.765 263.073 271.739 263.126 271.712C263.153 271.712 263.153 271.739 263.126 271.739Z" fill="#205075"/>
<path d="M263.419 271.153C263.419 271.206 263.393 271.259 263.393 271.313C263.366 271.259 263.366 271.126 263.419 271.153Z" fill="#205075"/>
<path d="M262.807 271.712C262.78 271.659 262.807 271.659 262.807 271.712V271.712Z" fill="#205075"/>
<path d="M262.807 271.712C262.86 271.712 262.913 271.739 262.967 271.765C262.913 271.765 262.887 271.792 262.833 271.765C262.833 271.765 262.834 271.712 262.807 271.712Z" fill="#205075"/>
<path d="M264.964 272.005C264.831 271.845 264.591 271.792 264.591 272.058C264.378 272.005 264.085 271.419 264.005 271.046C264.058 271.1 264.112 271.179 264.298 271.179C264.298 271.286 264.165 271.579 264.378 271.659C264.591 271.632 264.485 271.499 264.485 271.366C264.564 271.632 264.911 271.526 265.07 271.845H264.857C264.884 271.899 264.991 271.952 264.964 272.005Z" fill="#205075"/>
<path d="M263.766 271.259L263.712 271.286C263.739 271.206 263.739 271.126 263.739 270.94C263.872 270.966 263.952 271.02 263.979 271.046L263.739 271.259H263.766Z" fill="#205075"/>
<path d="M263.473 271.419C263.633 271.579 263.819 271.552 263.872 271.792C263.712 271.899 263.659 271.712 263.526 271.712C263.792 271.606 263.366 271.659 263.473 271.419C263.419 271.446 263.366 271.472 263.313 271.499C263.34 271.446 263.366 271.393 263.393 271.339V271.366C263.393 271.393 263.393 271.419 263.393 271.393L263.473 271.419C263.499 271.339 263.446 271.366 263.419 271.366L263.393 271.339L263.712 271.259C263.659 271.313 263.606 271.366 263.473 271.419Z" fill="#205075"/>
<path d="M262.807 273.177C262.807 273.15 262.807 273.15 262.78 273.124C262.833 273.15 262.833 273.15 262.807 273.177Z" fill="#205075"/>
<path d="M262.833 273.017C262.807 273.017 262.727 272.937 262.674 273.017C262.674 273.097 262.727 273.097 262.78 273.15C262.727 273.124 262.567 273.097 262.62 272.937H262.647C262.7 272.804 262.674 272.484 262.647 272.484C262.754 272.671 262.807 272.804 262.833 273.017Z" fill="#205075"/>
<path d="M263.18 272.271L263.446 272.218V272.431L263.393 272.325C263.313 272.458 263.26 272.325 263.18 272.271Z" fill="#205075"/>
<path d="M263.952 270.913L263.792 270.753L264.112 270.94L263.952 270.913Z" fill="#205075"/>
<path d="M264.245 270.753L264.112 270.594L264.272 270.647L264.245 270.753Z" fill="#205075"/>
<path d="M280.996 262.231H281.102C281.076 262.258 281.049 262.258 280.996 262.231Z" fill="#205075"/>
<path d="M280.57 262.551L280.49 262.471C280.57 262.524 280.596 262.551 280.57 262.551Z" fill="#205075"/>
<path d="M270.956 266.173C270.956 265.96 270.876 265.667 270.983 265.853L271.089 266.066C270.983 266.066 270.956 266.119 270.956 266.173Z" fill="#205075"/>
<path d="M276.255 264.122V264.202C276.202 264.149 276.122 264.095 276.069 264.069C276.149 264.069 276.202 264.095 276.255 264.122Z" fill="#205075"/>
<path d="M276.841 264.814L276.895 264.601C276.868 264.681 276.868 264.735 276.841 264.814Z" fill="#205075"/>
<path d="M283.579 260.766L283.766 260.9C283.659 260.979 283.659 260.846 283.579 260.766Z" fill="#205075"/>
<path d="M267.068 268.889C267.094 268.783 267.148 268.703 267.174 268.649C267.174 268.836 267.201 269.049 267.068 268.889Z" fill="#205075"/>
<path d="M279.531 260.447C279.584 260.447 279.638 260.473 279.664 260.527C279.584 260.527 279.558 260.5 279.531 260.447Z" fill="#205075"/>
<path d="M267.414 268.516C267.414 268.543 267.414 268.57 267.414 268.596C267.334 268.596 267.254 268.623 267.201 268.676C267.201 268.543 267.254 268.436 267.414 268.516Z" fill="#205075"/>
<path d="M292.314 254.561C292.314 254.535 292.314 254.535 292.314 254.535C292.341 254.561 292.314 254.561 292.314 254.561Z" fill="#205075"/>
<path d="M293.646 250.992C293.619 250.992 293.566 251.019 293.539 251.046C293.539 251.019 293.566 250.992 293.646 250.992Z" fill="#205075"/>
<path d="M265.284 269.928C265.23 269.954 265.257 269.901 265.284 269.928V269.928Z" fill="#205075"/>
<path d="M265.497 270.833C265.523 270.833 265.55 270.86 265.576 270.913C265.55 270.86 265.523 270.833 265.497 270.833Z" fill="#205075"/>
<path d="M265.257 270.061C265.257 270.034 265.284 269.981 265.284 269.954C265.284 269.981 265.284 270.008 265.257 270.061Z" fill="#205075"/>
<path d="M265.204 269.981C265.177 270.008 265.177 270.008 265.177 270.034C265.15 270.008 265.124 269.981 265.204 269.981Z" fill="#205075"/>
<path d="M265.363 269.875C265.337 269.901 265.31 269.928 265.284 269.954C265.284 269.928 265.284 269.928 265.284 269.928C265.31 269.901 265.337 269.901 265.363 269.875Z" fill="#205075"/>
<path d="M287.254 257.331C287.254 257.304 287.254 257.304 287.254 257.331C287.334 257.331 287.361 257.331 287.254 257.331Z" fill="#205075"/>
<path d="M274.018 266.998C273.779 266.838 273.752 266.892 273.726 266.998L273.433 266.439L274.018 266.998Z" fill="#205075"/>
<path d="M281.928 261.645C281.955 261.272 282.354 261.459 282.54 261.539C282.567 261.406 282.194 261.139 282.46 261.113C282.833 261.033 282.7 261.565 282.913 261.512L282.833 261.139C283.206 261.219 283.259 260.9 283.419 260.713C283.472 260.713 283.526 260.713 283.552 260.74C283.659 260.473 284.165 260.74 284.271 260.527C284.192 260.5 284.245 260.287 284.192 260.207H284.591C284.431 260.207 284.298 260.047 284.165 259.888C284.271 259.834 284.378 259.914 284.431 259.888C284.351 259.861 284.271 259.808 284.271 259.701L284.751 259.781C284.751 259.834 284.724 259.861 284.698 259.888C284.777 259.834 284.99 259.834 285.017 259.621C284.964 259.568 284.884 259.515 284.831 259.461C284.884 259.701 284.724 259.568 284.591 259.488C284.804 259.382 284.618 259.408 284.618 259.222C284.751 259.115 284.964 259.302 285.044 259.461C285.15 259.302 285.177 259.222 285.443 259.275L285.257 259.062L285.47 259.035L285.15 258.849C285.337 258.503 285.47 259.195 285.709 258.849L285.576 258.662C285.763 258.636 286.029 258.955 285.949 258.662C286.162 258.689 285.949 259.089 286.242 258.929C286.215 258.796 286.269 258.636 286.322 258.556C286.455 258.583 286.429 258.849 286.349 258.849C286.828 258.636 286.136 257.97 286.695 257.997C286.668 258.236 287.068 258.316 286.748 258.503C286.988 258.529 286.828 258.023 287.148 258.13L286.881 257.943C286.934 257.917 287.068 257.943 287.121 257.97L286.961 257.784C287.387 257.997 287.201 257.384 287.627 257.757C287.307 257.464 287.787 257.677 287.76 257.491C287.441 257.358 287.334 257.81 287.068 257.491C287.068 257.358 287.254 257.464 287.254 257.304C287.174 257.278 287.041 257.251 286.988 257.198C287.094 256.851 287.494 257.144 287.707 257.118L287.414 257.224C287.654 257.544 287.574 257.198 287.813 257.411C287.813 257.144 288.106 257.331 288.133 257.144C288.106 257.171 288.08 257.144 288.053 257.144C288.346 256.958 288.053 256.372 288.16 256.292C288.239 256.186 288.559 256.212 288.586 256.399C288.745 256.425 288.16 256.559 288.612 256.878C288.426 256.266 289.065 256.825 289.172 256.266C288.905 256.212 289.065 255.946 288.852 255.893C289.038 255.813 289.092 255.893 289.278 255.973L289.225 255.786C289.677 255.973 289.491 256.053 289.944 255.999C289.757 255.946 289.917 255.68 289.757 255.626C289.837 255.547 289.97 255.547 290.077 255.6H290.05C290.423 255.44 290.184 255.227 290.61 255.174L290.636 255.28C291.195 255.254 291.568 254.748 292.074 254.588L291.968 254.748C291.968 254.668 292.341 254.721 292.367 254.481C292.341 254.481 292.261 254.481 292.234 254.508C292.154 254.401 292.101 254.215 292.181 254.135L292.314 254.268L292.261 254.108C292.394 254.002 292.367 254.375 292.527 254.268C292.314 253.762 293.113 253.762 292.98 253.283C293.299 253.549 292.74 253.523 293.033 253.736C293.06 253.656 293.033 253.576 293.113 253.496L293.219 253.709C293.592 253.283 293.646 253.017 294.072 252.777L294.018 252.75C294.098 252.564 294.205 252.564 294.391 252.697C294.365 252.59 294.231 252.617 294.231 252.484C294.817 252.83 294.471 251.791 294.871 252.031C294.578 251.632 294.657 251.046 294.285 250.833L294.418 250.806C294.205 250.566 294.098 251.019 293.859 250.779L293.725 251.259C293.672 251.152 293.512 251.046 293.539 250.992C293.459 251.046 293.379 251.072 293.379 250.859C293.06 252.058 291.835 251.951 291.302 252.83C291.222 252.83 291.195 252.724 291.169 252.644C291.195 252.99 290.956 252.617 290.849 252.617L290.903 253.123C290.743 253.07 290.743 252.91 290.69 252.857C290.237 253.043 290.104 253.656 289.651 253.656C289.651 253.869 289.891 253.922 289.784 254.082C289.704 253.576 289.278 254.162 289.225 253.842C289.358 254.321 288.799 254.242 289.251 254.774C289.118 254.907 288.958 254.614 288.958 254.535C288.799 254.668 288.639 254.774 288.373 254.721C288.346 254.907 287.44 255.147 287.547 255.68C287.467 255.333 287.441 255.547 287.254 255.493L287.174 255.174L286.961 255.36C286.881 255.36 286.881 255.387 286.908 255.413C286.881 255.467 287.014 255.547 286.935 255.68C286.775 255.813 286.695 255.68 286.508 255.626V255.573L286.375 255.626C286.295 255.68 286.828 255.653 286.642 255.973C286.588 255.893 286.215 255.706 286.269 255.919C286.402 255.813 286.508 255.999 286.508 256.106L286.322 256.266L286.162 255.919C285.63 256.319 285.203 256.931 284.591 257.304C284.777 257.571 284.192 257.597 284.511 257.97V257.917C284.671 257.837 284.671 258.263 284.538 258.29C284.564 258.077 284.058 258.05 284.325 257.784L283.978 257.757C283.339 257.091 283.419 258.236 282.887 258.236C282.94 258.236 282.966 258.29 282.993 258.29C282.514 258.263 282.434 258.982 282.274 258.902L282.381 259.115C281.901 258.982 281.848 258.982 281.608 259.328C281.635 259.355 281.715 259.382 281.688 259.461C281.502 259.355 281.315 259.275 281.129 259.461L281.182 259.515L280.809 259.728C281.262 260.367 279.957 259.728 280.33 260.5C280.144 260.367 279.851 260.473 279.664 260.447C279.691 260.473 279.691 260.5 279.691 260.553C279.318 260.287 279.398 260.926 279.211 260.979C279.052 260.953 279.025 260.82 278.998 260.687C278.998 261.086 278.279 260.74 278.279 260.9C278.173 261.006 278.386 261.166 278.466 261.352C278.226 261.432 278.12 260.766 278.013 261.192C278.066 261.192 278.146 261.166 278.146 261.219C278.066 261.352 278.386 262.205 278.2 262.125V261.965C277.907 261.938 278.093 262.79 277.773 262.391L277.667 262.178C277.534 262.657 277.481 262.205 277.294 262.657L277.321 262.684C277.161 262.737 277.241 263.03 276.948 262.764L276.974 262.684C276.788 262.79 276.788 262.817 276.602 262.95C276.548 262.95 276.442 262.95 276.468 263.03C276.282 262.764 275.963 263.19 275.909 263.27C276.069 263.217 276.096 263.376 276.122 263.51C275.883 263.35 275.803 263.376 275.803 263.616C275.563 263.296 275.297 262.95 275.057 263.11C275.137 263.137 275.19 263.11 275.243 263.217C275.27 263.296 275.164 263.27 275.11 263.243C275.137 263.323 275.244 263.323 275.297 263.456C274.924 263.243 275.004 263.616 274.711 263.669C274.844 263.723 274.844 263.829 274.897 263.962C274.631 263.616 274.817 264.522 274.551 263.962C274.311 264.548 273.433 264.761 273.486 265.187C273.539 265.347 273.273 265.214 273.166 265.267L273.299 265.427C272.873 265.267 273.06 265.427 272.607 265.294C272.847 265.427 272.847 265.534 272.847 265.773L272.447 265.56L272.58 265.826C272.447 265.773 272.394 265.88 272.341 265.96C272.394 265.933 272.367 265.96 272.394 266.013C272.128 265.693 271.835 265.933 271.675 265.8C271.835 266.199 271.409 265.853 271.568 266.226C271.515 266.199 271.462 266.173 271.382 266.173C271.329 265.986 271.222 265.826 271.196 265.933C271.196 265.933 271.196 265.933 271.169 265.933L271.275 266.146C271.169 266.146 271.089 266.173 271.036 266.199C271.036 266.173 271.036 266.119 271.036 266.04C271.036 266.093 271.036 266.146 271.009 266.199L270.982 266.226H271.009C271.009 266.306 270.956 266.359 270.849 266.332C270.823 266.812 269.997 266.306 269.997 266.918C269.997 266.838 270.05 266.785 270.13 266.838C269.891 266.972 269.837 267.424 269.598 267.371L269.491 267.185C269.251 267.211 269.092 267.238 268.959 267.345L268.799 267.131C268.666 267.344 268 267.291 268.16 267.824C268 267.691 267.92 268.064 267.76 268.09L267.84 268.277C267.734 268.436 267.6 268.436 267.467 268.463C267.387 268.996 266.881 268.863 266.642 269.076L266.668 269.129L266.322 269.209C266.482 269.289 266.216 269.155 266.136 269.235C266.003 269.209 265.896 269.342 265.869 269.528L265.71 269.661C265.976 269.635 265.843 269.901 265.976 270.088L265.763 270.008C265.789 270.114 265.923 270.114 265.869 270.194C265.736 270.141 265.523 270.301 265.31 270.141C265.284 270.088 265.284 270.034 265.284 269.981C265.31 269.981 265.31 269.981 265.284 269.981V269.954V269.981C265.257 269.954 265.23 269.954 265.204 269.928C265.097 270.061 265.097 269.954 265.044 269.875C265.097 270.274 264.857 270.141 264.991 270.567C264.884 270.088 264.644 270.807 264.485 270.381C264.564 270.753 264.405 270.46 264.511 270.753C264.618 270.567 264.964 270.727 265.177 270.753V271.02C265.497 271.286 265.39 270.7 265.523 270.753C265.417 270.7 265.363 270.86 265.417 270.94L265.284 270.673C265.39 270.46 265.683 270.54 265.896 270.594C265.843 270.753 266.162 270.647 266.189 270.887L266.082 270.913C266.082 271.046 266.242 271.046 266.349 271.073C266.535 270.673 267.201 270.46 267.174 270.194C267.148 270.301 267.014 270.327 266.908 270.274L266.988 270.088C266.855 270.167 266.935 270.434 266.695 270.487C266.615 270.301 266.349 270.167 266.322 269.875C266.482 269.395 266.881 270.114 267.228 269.768C267.307 269.795 266.961 269.555 267.228 269.502C267.6 269.475 268.053 269.715 268.293 270.061C268.106 270.034 267.76 269.981 267.893 270.247C268.08 270.274 268.319 270.194 268.426 270.354C268.346 269.981 268.16 270.407 268.133 270.061C268.213 270.008 268.319 270.088 268.373 270.114C268.24 270.034 268.293 269.848 268.293 269.768C268.532 269.582 268.612 269.369 268.852 269.155C268.825 269.102 268.799 268.996 268.746 268.916C268.932 268.916 269.411 269.209 269.491 269.422C269.651 269.315 269.571 269.182 269.757 269.182C269.731 269.582 269.784 269.102 269.997 269.369C270.157 269.315 269.971 269.182 269.971 269.102C270.024 269.102 270.13 269.182 270.184 269.235C270.13 268.969 269.651 268.783 269.571 268.49C269.518 268.277 269.624 267.797 269.624 267.771C269.837 267.957 270.503 268.969 270.636 269.342C270.77 269.502 270.636 269.076 270.69 269.022C270.69 268.649 271.089 269.049 271.169 268.863L270.956 268.783C270.929 268.703 271.196 268.649 271.302 268.729C271.249 268.649 270.876 268.33 270.849 268.17C271.062 267.957 271.675 268.303 271.835 268.57H271.249C271.382 268.809 271.702 268.596 271.861 268.889L272.181 268.57C272.128 268.596 271.941 268.623 271.915 268.463C272.074 268.357 271.968 268.357 271.994 268.17C271.622 268.01 270.769 267.478 270.423 267.185L270.716 267.211L270.663 267.052C271.036 267.078 271.888 267.824 272.101 268.01C272.208 267.851 271.808 267.398 271.702 267.318C271.968 267.105 272.447 267.824 272.687 267.558L272.66 267.744C272.767 267.744 272.927 267.478 272.953 267.584C272.927 267.424 272.74 267.078 272.634 267.025L273.193 267.318C273.113 267.291 272.873 266.865 272.82 266.812C272.9 266.732 273.299 267.158 273.299 267.265C273.299 266.838 273.353 267.025 273.273 266.599C273.353 266.599 273.566 267.025 273.539 267.105C273.752 267.131 273.779 267.025 273.805 266.945C273.459 266.918 273.14 266.093 272.873 265.826L274.152 266.705C274.098 266.652 273.779 266.279 273.752 266.253C274.045 266.572 274.578 266.253 274.817 266.04L274.764 266.066C274.631 265.986 274.791 265.72 274.951 265.8C274.871 265.747 274.871 265.773 274.844 265.8C274.844 265.427 275.43 266.173 275.403 265.747C275.27 265.88 275.137 265.773 275.057 265.613C275.27 265.64 275.483 265.32 275.696 265.773C275.723 265.64 275.829 265.64 275.67 265.427L276.149 265.454C276.096 265.427 275.989 265.32 276.069 265.241C275.936 265.427 275.483 265.134 275.59 265.48C275.403 265.214 275.377 265.027 275.137 264.894C275.563 264.788 276.042 265.081 276.468 265.241L276.655 264.841L276.735 264.948L276.575 264.601C276.655 264.655 276.735 264.681 276.708 264.655C276.682 264.628 276.655 264.601 276.602 264.548C276.655 264.548 276.708 264.548 276.735 264.575C276.628 264.415 276.468 264.282 276.309 264.149C276.309 264.229 276.335 264.308 276.335 264.362C276.176 264.255 276.016 264.122 276.042 263.989L276.122 264.016C276.016 263.936 275.909 263.856 275.909 263.802L276.229 263.776C276.229 263.829 276.229 263.962 276.255 264.069C276.522 264.175 276.868 264.282 276.868 264.575L276.921 264.282C277.321 264.442 277.241 264.388 277.667 264.442C277.614 264.335 277.48 264.282 277.48 264.175C277.88 264.388 277.667 263.483 277.907 263.749C278.093 263.723 278.146 263.962 278.306 263.989C278.279 263.962 278.226 263.909 278.253 263.882L278.519 264.016C278.519 263.909 278.306 263.936 278.386 263.776C278.705 263.776 278.919 263.802 279.025 263.589C279.318 263.456 279.211 264.095 279.398 263.909C279.318 263.723 279.211 263.483 279.318 263.376C279.478 263.43 279.558 263.589 279.717 263.589L279.531 263.323C279.638 263.27 279.771 263.243 279.638 263.03C279.797 263.083 279.851 263.03 279.877 262.95C280.144 262.977 280.117 263.589 280.144 263.696C280.17 263.376 280.357 263.403 280.25 263.03L280.064 263.057C280.144 262.497 280.623 263.217 280.383 262.551C280.303 262.631 280.064 262.604 280.037 262.418L280.277 262.444C280.25 262.364 280.17 262.444 280.17 262.338C280.25 262.364 280.436 262.444 280.543 262.497L280.863 262.338C280.809 262.391 280.73 262.311 280.783 262.258H281.076C280.969 262.231 280.969 262.098 281.022 262.018C281.209 261.778 281.608 262.471 281.608 262.098C281.582 262.125 281.555 262.098 281.528 262.125L281.555 261.938C281.954 262.497 282.168 261.592 282.567 262.151C282.54 261.832 282.487 262.018 282.114 261.858L282.141 261.592C282.034 261.592 282.034 261.645 281.928 261.645ZM280.037 262.87C280.09 263.003 279.904 262.924 279.851 262.924C279.877 262.817 279.824 262.684 280.037 262.87ZM276.309 264.575C276.309 264.681 276.282 264.761 276.202 264.708C276.229 264.628 276.255 264.601 276.309 264.575ZM266.029 269.661C266.082 269.528 266.082 269.555 266.029 269.661V269.661ZM265.949 269.768C265.896 269.821 265.869 269.848 265.816 269.795C265.816 269.821 265.843 269.848 265.896 269.875C265.976 269.875 265.976 269.821 265.949 269.768ZM286.935 255.626V255.547C287.014 255.6 287.068 255.626 286.935 255.626Z" fill="#205075"/>
<path d="M276.761 264.735C276.735 264.681 276.735 264.655 276.708 264.601C276.761 264.628 276.788 264.681 276.761 264.735Z" fill="#205075"/>
<path d="M283.552 260.74L283.579 260.766L283.552 260.74Z" fill="#205075"/>
<path d="M270.077 269.475C270.104 269.422 270.104 269.369 270.077 269.315C270.13 269.369 270.13 269.448 270.077 269.475Z" fill="#205075"/>
<path d="M264.618 270.247L264.778 270.221C264.698 270.247 264.724 270.327 264.698 270.354C264.698 270.301 264.671 270.221 264.618 270.247Z" fill="#205075"/>
<path d="M264.378 272.218C264.351 272.218 264.325 272.245 264.298 272.245L264.245 272.138C264.325 272.085 264.431 272.138 264.378 272.218Z" fill="#205075"/>
<path d="M264.964 270.993C265.071 271.153 264.964 271.153 264.831 271.206H264.857C264.671 270.966 264.831 270.966 264.964 270.993Z" fill="#205075"/>
<path d="M264.831 271.179C264.804 271.206 264.778 271.206 264.751 271.233C264.671 271.153 264.751 271.206 264.831 271.179Z" fill="#205075"/>
<path d="M265.577 269.928C265.577 270.008 265.417 269.715 265.417 269.821C265.23 269.635 265.869 269.875 265.577 269.928Z" fill="#205075"/>
<path d="M265.284 271.579L265.15 271.366L265.31 271.499L265.284 271.579Z" fill="#205075"/>
<path d="M265.869 270.966L265.763 271.126C265.736 271.1 265.71 271.1 265.683 271.1C265.763 270.993 265.816 270.887 265.869 270.966Z" fill="#205075"/>
<path d="M265.683 271.073C265.63 271.1 265.603 271.126 265.55 271.1C265.55 271.1 265.63 271.073 265.683 271.073Z" fill="#205075"/>
<path d="M265.497 271.526L265.523 271.446L265.603 271.366L265.497 271.526Z" fill="#205075"/>
<path d="M267.334 269.875L267.521 269.821C267.6 269.875 267.574 269.954 267.494 269.954C267.441 269.954 267.361 269.981 267.334 269.875Z" fill="#205075"/>
<path d="M267.281 270.78C267.281 270.7 267.254 270.673 267.254 270.594L267.441 270.833L267.281 270.78Z" fill="#205075"/>
<path d="M267.76 270.54C267.84 270.594 268.133 270.594 267.92 270.7C267.84 270.647 267.654 270.674 267.76 270.54Z" fill="#205075"/>
<path d="M269.838 268.623L269.811 268.649L269.518 268.223L269.838 268.623Z" fill="#205075"/>
<path d="M272.554 268.25C272.447 268.463 272.341 268.01 272.261 268.25C272.154 268.17 272.314 268.064 272.208 267.984C272.394 268.037 272.421 267.93 272.554 268.25Z" fill="#205075"/>
<path d="M272.208 267.984C272.181 267.984 272.154 267.984 272.101 267.957C272.181 267.984 272.208 267.984 272.208 267.984Z" fill="#205075"/>
<path d="M293.912 250.46L293.965 250.3L293.992 250.486L293.912 250.46Z" fill="#205075"/>
<path d="M294.338 250.62L294.178 250.327L294.418 250.513C294.391 250.54 294.311 250.54 294.338 250.62Z" fill="#205075"/>
<path d="M279.904 263.696L279.851 263.643C279.824 263.563 279.851 263.536 279.877 263.483L279.904 263.696Z" fill="#205075"/>
<path d="M281.342 262.418L281.315 262.444L281.182 262.151L281.342 262.418Z" fill="#205075"/>
<path d="M282.887 261.805C282.833 261.858 282.727 261.858 282.7 261.885C282.833 261.858 282.674 261.485 282.887 261.805Z" fill="#205075"/>
<path d="M274.178 280.368C274.152 280.421 274.045 280.234 274.019 280.208C274.125 280.181 274.205 280.394 274.178 280.368Z" fill="#205075"/>
<path d="M275.297 280.154L275.244 280.101L275.483 280.208L275.297 280.154Z" fill="#205075"/>
<path d="M276.096 279.622C276.229 279.968 275.776 279.782 275.696 279.968L275.723 280.048L275.483 279.862C275.723 279.782 276.043 279.782 276.096 279.622Z" fill="#205075"/>
<path d="M276.096 278.69C276.149 278.823 276.256 278.716 276.016 278.796C276.016 278.77 276.016 278.77 276.016 278.77C276.043 278.743 276.069 278.716 276.096 278.69Z" fill="#205075"/>
<path d="M276.016 278.743C275.936 278.796 276.016 278.61 276.016 278.743V278.743Z" fill="#205075"/>
<path d="M276.442 278.53L276.256 278.503C276.229 278.423 276.309 278.343 276.256 278.317C276.415 278.317 276.442 278.397 276.442 278.53Z" fill="#205075"/>
<path d="M276.708 278.69H276.628C276.602 278.636 276.628 278.636 276.708 278.69Z" fill="#205075"/>
<path d="M276.442 278.663H276.628C276.655 278.716 276.708 278.823 276.548 278.663C276.602 278.77 276.522 278.69 276.442 278.663Z" fill="#205075"/>
<path d="M276.389 278.77C276.389 278.876 276.309 278.956 276.495 278.983C276.256 279.089 276.149 278.876 276.389 278.77Z" fill="#205075"/>
<path d="M276.362 279.888L276.335 280.021L276.202 279.968C276.256 280.021 276.309 279.808 276.362 279.888Z" fill="#205075"/>
<path d="M277.054 277.917C277.108 277.971 277.134 278.104 277.161 278.184L277.028 278.157C277.054 278.104 277.108 278.024 277.054 277.917Z" fill="#205075"/>
<path d="M277.161 278.184L277.347 278.21C277.267 278.317 277.214 278.264 277.161 278.184Z" fill="#205075"/>
<path d="M276.948 279.009L276.602 278.903L277.001 278.983L276.948 279.009Z" fill="#205075"/>
<path d="M277.507 277.598L277.347 277.491L277.614 277.624L277.507 277.598Z" fill="#205075"/>
<path d="M277.827 277.385C277.694 277.305 277.747 277.118 277.64 277.092C277.747 277.038 277.88 277.092 278.013 277.145C277.933 277.172 277.853 277.225 277.827 277.385Z" fill="#205075"/>
<path d="M278.226 277.225C278.173 277.225 278.093 277.198 278.013 277.172C278.093 277.172 278.146 277.198 278.226 277.225Z" fill="#205075"/>
<path d="M277.56 278.051C277.534 277.997 277.481 277.891 277.534 277.811L277.614 278.024L277.56 278.051Z" fill="#205075"/>
<path d="M277.587 278.024C277.64 277.971 277.667 277.944 277.694 277.944C277.694 277.944 277.667 277.971 277.587 278.024Z" fill="#205075"/>
<path d="M277.534 278.051C277.56 278.051 277.56 278.077 277.534 278.051V278.051Z" fill="#205075"/>
<path d="M277.161 278.61C277.294 278.663 277.534 278.663 277.48 278.903C277.347 278.849 277.374 278.69 277.161 278.61Z" fill="#205075"/>
<path d="M277.614 278.317L277.507 278.45C277.481 278.397 277.454 278.317 277.374 278.29L277.614 278.317Z" fill="#205075"/>
<path d="M277.72 278.343L277.614 278.317L277.667 278.264L277.72 278.343Z" fill="#205075"/>
<path d="M278.12 277.544C278.226 277.571 278.279 277.544 278.386 277.518C278.333 277.598 278.28 277.678 278.2 277.731C278.146 277.678 278.04 277.598 278.12 277.544Z" fill="#205075"/>
<path d="M277.88 277.784C277.906 277.811 277.906 277.811 277.88 277.784V277.784Z" fill="#205075"/>
<path d="M279.052 277.065L279.078 277.092L279.052 277.065Z" fill="#205075"/>
<path d="M278.2 277.758C278.173 277.837 278.093 277.811 278.04 277.784C278.093 277.784 278.146 277.758 278.2 277.731C278.2 277.758 278.226 277.758 278.2 277.758Z" fill="#205075"/>
<path d="M278.466 277.198C278.466 277.252 278.439 277.305 278.439 277.358C278.439 277.278 278.439 277.145 278.466 277.198Z" fill="#205075"/>
<path d="M277.88 277.731C277.853 277.678 277.88 277.704 277.88 277.731V277.731Z" fill="#205075"/>
<path d="M277.88 277.731C277.933 277.731 277.987 277.758 278.013 277.784C277.96 277.784 277.933 277.784 277.88 277.784C277.907 277.784 277.88 277.758 277.88 277.731Z" fill="#205075"/>
<path d="M280.037 278.051C279.904 277.891 279.664 277.837 279.664 278.104C279.451 278.077 279.158 277.465 279.078 277.092C279.132 277.172 279.185 277.225 279.371 277.225C279.398 277.358 279.238 277.624 279.451 277.704C279.664 277.678 279.558 277.545 279.584 277.411C279.664 277.678 280.01 277.571 280.17 277.891H279.957C279.957 277.944 280.064 277.971 280.037 278.051Z" fill="#205075"/>
<path d="M278.839 277.278H278.759C278.812 277.225 278.812 277.118 278.786 276.932C278.919 276.959 278.999 277.012 279.025 277.039L278.786 277.252L278.839 277.278Z" fill="#205075"/>
<path d="M278.519 277.465C278.679 277.624 278.865 277.598 278.919 277.837C278.759 277.944 278.706 277.758 278.573 277.758C278.865 277.624 278.439 277.704 278.519 277.465C278.466 277.491 278.413 277.518 278.36 277.518C278.386 277.465 278.413 277.411 278.439 277.358V277.385C278.439 277.411 278.439 277.438 278.439 277.411L278.519 277.465C278.573 277.385 278.493 277.411 278.466 277.411L278.439 277.385L278.759 277.305C278.732 277.358 278.652 277.385 278.519 277.465Z" fill="#205075"/>
<path d="M277.88 279.222C277.88 279.196 277.853 279.196 277.853 279.169C277.907 279.169 277.906 279.196 277.88 279.222Z" fill="#205075"/>
<path d="M277.907 279.036C277.88 279.009 277.8 278.956 277.773 279.009C277.747 279.089 277.827 279.089 277.853 279.169C277.773 279.142 277.64 279.116 277.694 278.956H277.72C277.773 278.823 277.747 278.503 277.72 278.503C277.827 278.69 277.88 278.823 277.907 279.036Z" fill="#205075"/>
<path d="M278.253 278.29L278.519 278.237V278.45L278.466 278.343C278.386 278.477 278.333 278.343 278.253 278.29Z" fill="#205075"/>
<path d="M279.025 276.959L278.865 276.772L279.158 276.959H279.025Z" fill="#205075"/>
<path d="M279.318 276.772L279.185 276.612L279.318 276.666V276.772Z" fill="#205075"/>
<path d="M295.643 268.596L295.563 268.516C295.616 268.543 295.67 268.57 295.643 268.596Z" fill="#205075"/>
<path d="M286.029 272.218C286.003 272.005 285.949 271.685 286.056 271.899L286.162 272.112C286.056 272.085 286.029 272.138 286.029 272.218Z" fill="#205075"/>
<path d="M291.329 270.141V270.221C291.249 270.167 291.196 270.114 291.142 270.088C291.222 270.114 291.275 270.114 291.329 270.141Z" fill="#205075"/>
<path d="M291.915 270.833L291.968 270.62C291.941 270.7 291.941 270.78 291.915 270.833Z" fill="#205075"/>
<path d="M298.652 266.785L298.839 266.918C298.732 266.998 298.706 266.892 298.652 266.785Z" fill="#205075"/>
<path d="M282.141 274.935C282.168 274.801 282.221 274.748 282.274 274.695C282.247 274.855 282.274 275.068 282.141 274.935Z" fill="#205075"/>
<path d="M294.604 266.492C294.658 266.492 294.711 266.519 294.738 266.572C294.658 266.546 294.631 266.546 294.604 266.492Z" fill="#205075"/>
<path d="M282.487 274.535C282.487 274.562 282.487 274.588 282.461 274.615C282.381 274.615 282.301 274.642 282.248 274.695C282.274 274.562 282.327 274.482 282.487 274.535Z" fill="#205075"/>
<path d="M307.361 260.58C307.361 260.553 307.361 260.553 307.361 260.553C307.414 260.58 307.387 260.58 307.361 260.58Z" fill="#205075"/>
<path d="M308.692 257.011C308.666 257.011 308.612 257.038 308.586 257.065C308.612 257.038 308.639 257.011 308.692 257.011Z" fill="#205075"/>
<path d="M280.357 275.947C280.277 275.973 280.33 275.947 280.357 275.947V275.947Z" fill="#205075"/>
<path d="M280.57 276.852C280.596 276.879 280.623 276.879 280.65 276.932C280.596 276.879 280.596 276.852 280.57 276.852Z" fill="#205075"/>
<path d="M283.819 275.254C283.845 275.307 283.845 275.307 283.819 275.254V275.254Z" fill="#205075"/>
<path d="M280.33 276.08C280.33 276.053 280.33 276.026 280.383 275.973C280.357 276.026 280.357 276.053 280.33 276.08Z" fill="#205075"/>
<path d="M280.277 276C280.25 276.026 280.25 276.026 280.223 276.053C280.197 276.026 280.197 276 280.277 276Z" fill="#205075"/>
<path d="M280.437 275.893C280.41 275.92 280.383 275.947 280.357 275.973C280.357 275.947 280.357 275.947 280.357 275.947C280.383 275.947 280.41 275.92 280.437 275.893Z" fill="#205075"/>
<path d="M302.327 263.35C302.38 263.376 302.434 263.35 302.327 263.35V263.35Z" fill="#205075"/>
<path d="M289.092 273.044C288.852 272.884 288.825 272.937 288.772 273.044L288.479 272.484L289.092 273.044Z" fill="#205075"/>
<path d="M297.001 267.691C297.028 267.318 297.401 267.504 297.614 267.584C297.614 267.451 297.267 267.211 297.534 267.158C297.907 267.052 297.747 267.611 297.986 267.558L297.907 267.185C298.279 267.265 298.306 266.945 298.492 266.759C298.546 266.759 298.599 266.759 298.626 266.785C298.732 266.519 299.238 266.785 299.318 266.572C299.238 266.546 299.291 266.332 299.238 266.253H299.638C299.451 266.253 299.345 266.093 299.211 265.933C299.318 265.906 299.425 265.96 299.478 265.933C299.398 265.906 299.318 265.88 299.318 265.773L299.797 265.853C299.797 265.88 299.771 265.933 299.744 265.96C299.824 265.906 300.037 265.906 300.064 265.693C300.01 265.64 299.931 265.613 299.877 265.534C299.904 265.773 299.744 265.667 299.638 265.56C299.851 265.454 299.664 265.48 299.664 265.294C299.824 265.214 300.01 265.374 300.09 265.56C300.197 265.4 300.224 265.32 300.49 265.374L300.303 265.161L300.49 265.134L300.17 264.921C300.357 264.575 300.49 265.267 300.729 264.921L300.596 264.735C300.783 264.735 301.049 265.027 300.969 264.735C301.182 264.788 300.969 265.161 301.262 265.001C301.236 264.868 301.289 264.708 301.342 264.628C301.502 264.655 301.448 264.921 301.369 264.921C301.848 264.735 301.156 264.069 301.715 264.069C301.688 264.308 302.088 264.388 301.768 264.575C301.981 264.601 301.848 264.095 302.168 264.202L301.901 264.016C301.955 263.962 302.088 264.015 302.114 264.042L301.954 263.856C302.381 264.069 302.194 263.456 302.62 263.829C302.301 263.536 302.78 263.749 302.753 263.563C302.434 263.43 302.327 263.882 302.061 263.563C302.061 263.43 302.247 263.536 302.247 263.376C302.168 263.376 302.034 263.323 301.981 263.27C302.088 262.924 302.487 263.217 302.7 263.19L302.407 263.296C302.647 263.616 302.567 263.27 302.807 263.483C302.807 263.217 303.1 263.403 303.126 263.217C303.1 263.243 303.073 263.217 303.046 263.243C303.339 263.057 303.046 262.471 303.153 262.391C303.233 262.284 303.552 262.311 303.579 262.497C303.739 262.524 303.153 262.657 303.579 262.977C303.393 262.391 304.032 262.924 304.138 262.364C303.872 262.284 304.032 262.018 303.819 261.991C304.005 261.912 304.058 261.991 304.245 262.071L304.191 261.885C304.644 262.071 304.458 262.151 304.911 262.125C304.724 262.071 304.884 261.805 304.724 261.752C304.804 261.672 304.937 261.672 305.044 261.725L305.017 261.699C305.39 261.565 305.15 261.326 305.576 261.272L305.603 261.379C306.162 261.352 306.562 260.846 307.041 260.687L306.961 260.873C306.961 260.793 307.334 260.82 307.361 260.607C307.334 260.607 307.254 260.607 307.254 260.633C307.174 260.527 307.148 260.34 307.201 260.26L307.334 260.394L307.281 260.234C307.44 260.127 307.387 260.5 307.547 260.394C307.334 259.888 308.133 259.888 308 259.408C308.319 259.674 307.76 259.648 308.08 259.861C308.08 259.781 308.08 259.701 308.16 259.621L308.266 259.834C308.639 259.408 308.692 259.142 309.118 258.902L309.065 258.876C309.172 258.716 309.251 258.689 309.438 258.822C309.411 258.716 309.278 258.742 309.278 258.609C309.864 258.929 309.518 257.89 309.917 258.156C309.624 257.784 309.704 257.171 309.358 256.958L309.491 256.931C309.278 256.692 309.172 257.144 308.905 256.905L308.772 257.411C308.719 257.304 308.559 257.198 308.586 257.118C308.506 257.171 308.426 257.198 308.426 256.985C308.106 258.183 306.881 258.077 306.349 258.955C306.269 258.955 306.242 258.849 306.215 258.796C306.242 259.142 306.002 258.742 305.896 258.769L305.949 259.275C305.789 259.222 305.789 259.062 305.736 259.009C305.283 259.195 305.15 259.808 304.697 259.808C304.697 260.021 304.911 260.074 304.831 260.234C304.751 259.728 304.325 260.314 304.245 259.994C304.405 260.473 303.819 260.42 304.271 260.926C304.138 261.059 303.978 260.766 303.978 260.713C303.819 260.846 303.659 260.953 303.393 260.9C303.366 261.113 302.461 261.352 302.567 261.858C302.487 261.512 302.46 261.725 302.274 261.672L302.194 261.352L301.981 261.539C301.928 261.539 301.901 261.565 301.928 261.592C301.901 261.645 302.034 261.725 301.954 261.858C301.795 261.991 301.715 261.858 301.528 261.805V261.752L301.395 261.805C301.315 261.858 301.848 261.832 301.662 262.151C301.608 262.098 301.235 261.885 301.289 262.098C301.422 261.991 301.502 262.178 301.502 262.284L301.315 262.418L301.182 262.071C300.65 262.471 300.223 263.083 299.611 263.456C299.797 263.723 299.211 263.749 299.531 264.095V264.042C299.717 263.989 299.691 264.388 299.558 264.415C299.584 264.202 299.078 264.175 299.318 263.909L298.972 263.882C298.333 263.217 298.386 264.362 297.88 264.362C297.933 264.362 297.96 264.415 297.96 264.442C297.48 264.415 297.401 265.107 297.241 265.054L297.347 265.267C296.868 265.134 296.815 265.134 296.575 265.48C296.602 265.507 296.682 265.533 296.655 265.613C296.469 265.507 296.309 265.427 296.096 265.613L296.149 265.667L295.776 265.853C296.202 266.492 294.924 265.853 295.297 266.625C295.11 266.492 294.817 266.599 294.631 266.599C294.658 266.625 294.658 266.652 294.658 266.705C294.285 266.466 294.338 267.078 294.178 267.131C294.045 267.105 293.992 266.972 293.965 266.838C293.965 267.238 293.246 266.892 293.246 267.052C293.113 267.158 293.353 267.318 293.433 267.504C293.193 267.584 293.06 266.918 292.98 267.344C293.033 267.371 293.086 267.344 293.113 267.398C293.033 267.504 293.353 268.383 293.166 268.303V268.143C292.873 268.117 293.06 268.969 292.74 268.57L292.634 268.356C292.474 268.836 292.447 268.383 292.261 268.836L292.287 268.862C292.101 268.916 292.208 269.209 291.915 268.942L291.941 268.862C291.755 268.942 291.755 268.996 291.568 269.129C291.542 269.102 291.409 269.129 291.435 269.209C291.249 268.942 290.929 269.369 290.849 269.448C291.009 269.395 291.036 269.555 291.062 269.688C290.823 269.528 290.743 269.555 290.743 269.795C290.503 269.475 290.237 269.129 289.971 269.289C290.05 269.315 290.13 269.315 290.13 269.395C290.157 269.475 290.05 269.448 290.024 269.422C290.05 269.502 290.157 269.502 290.21 269.635C289.837 269.422 289.917 269.795 289.624 269.848C289.757 269.901 289.757 270.008 289.811 270.141C289.544 269.768 289.731 270.673 289.465 270.141C289.225 270.727 288.346 270.94 288.373 271.366C288.426 271.526 288.133 271.393 288.053 271.446L288.186 271.606C287.76 271.446 287.947 271.606 287.467 271.499C287.707 271.632 287.734 271.739 287.734 271.978L287.334 271.765L287.467 272.032C287.334 271.978 287.281 272.085 287.228 272.165C287.281 272.138 287.254 272.165 287.307 272.218C287.014 271.899 286.748 272.165 286.562 272.005C286.722 272.405 286.295 272.058 286.455 272.431C286.402 272.405 286.349 272.378 286.269 272.378C286.216 272.218 286.109 272.032 286.082 272.165C286.082 272.165 286.082 272.165 286.056 272.165L286.162 272.378C286.056 272.378 285.976 272.405 285.923 272.431C285.923 272.405 285.923 272.351 285.923 272.271C285.923 272.325 285.923 272.378 285.896 272.431C285.896 272.431 285.869 272.431 285.869 272.458H285.896C285.869 272.538 285.843 272.591 285.736 272.564C285.683 273.044 284.884 272.538 284.884 273.15C284.884 273.07 284.937 273.017 285.017 273.07C284.778 273.204 284.724 273.656 284.485 273.603L284.378 273.417C284.138 273.443 283.979 273.47 283.845 273.576L283.712 273.363C283.552 273.576 282.887 273.523 283.073 274.056C282.913 273.923 282.833 274.295 282.674 274.322L282.754 274.508C282.647 274.668 282.514 274.668 282.381 274.668C282.301 275.201 281.821 275.068 281.555 275.281L281.582 275.334L281.236 275.414C281.395 275.52 281.102 275.334 281.049 275.441C280.916 275.414 280.809 275.547 280.756 275.734L280.596 275.867C280.863 275.84 280.756 276.106 280.863 276.293L280.65 276.213C280.676 276.319 280.81 276.319 280.783 276.399C280.65 276.346 280.437 276.506 280.224 276.346C280.197 276.293 280.197 276.24 280.197 276.186V276.16V276.186C280.17 276.16 280.144 276.16 280.117 276.133C280.011 276.266 280.011 276.16 279.957 276.08C280.011 276.479 279.771 276.319 279.904 276.746C279.797 276.24 279.558 276.985 279.398 276.559C279.478 276.932 279.318 276.612 279.425 276.932C279.531 276.746 279.877 276.905 280.09 276.932V277.198C280.41 277.465 280.304 276.879 280.437 276.932C280.33 276.879 280.277 277.039 280.33 277.118L280.197 276.825C280.304 276.586 280.596 276.692 280.809 276.746C280.73 276.905 281.049 276.799 281.102 277.039L280.996 277.065C281.023 277.172 281.156 277.198 281.262 277.225C281.449 276.825 282.114 276.612 282.088 276.346C282.061 276.453 281.928 276.479 281.821 276.453L281.901 276.24C281.768 276.319 281.848 276.586 281.608 276.639C281.529 276.453 281.262 276.319 281.236 276C281.395 275.52 281.795 276.24 282.141 275.893C282.221 275.92 281.875 275.68 282.141 275.627C282.514 275.6 282.967 275.84 283.206 276.186C283.02 276.16 282.647 276.106 282.807 276.399C282.993 276.426 283.233 276.346 283.339 276.506C283.26 276.133 283.073 276.559 283.046 276.213C283.126 276.16 283.233 276.24 283.286 276.266C283.153 276.186 283.206 276.026 283.206 275.92C283.446 275.734 283.499 275.52 283.766 275.307C283.739 275.254 283.712 275.148 283.659 275.068C283.845 275.068 284.325 275.361 284.405 275.574C284.564 275.494 284.485 275.334 284.671 275.334C284.644 275.734 284.671 275.254 284.884 275.52C285.044 275.467 284.831 275.334 284.857 275.254C284.911 275.254 285.017 275.334 285.07 275.387C285.017 275.121 284.511 274.935 284.458 274.615C284.405 274.402 284.511 273.923 284.511 273.896C284.724 274.082 285.39 275.094 285.523 275.467C285.656 275.627 285.523 275.201 285.576 275.148C285.576 274.775 285.976 275.174 286.056 274.988L285.843 274.908C285.816 274.828 286.082 274.775 286.189 274.828C286.136 274.722 285.763 274.429 285.736 274.269C285.949 274.056 286.562 274.375 286.722 274.668L286.136 274.642C286.295 274.881 286.588 274.695 286.748 274.988L287.041 274.642C286.988 274.668 286.801 274.695 286.775 274.535C286.935 274.455 286.828 274.455 286.855 274.269C286.482 274.109 285.63 273.576 285.257 273.283L285.55 273.31L285.497 273.15C285.869 273.15 286.722 273.923 286.935 274.109C287.041 273.949 286.642 273.496 286.562 273.417C286.828 273.204 287.307 273.923 287.547 273.656L287.521 273.843C287.627 273.843 287.787 273.576 287.813 273.683C287.787 273.496 287.627 273.177 287.494 273.124L288.053 273.417C287.973 273.39 287.734 272.99 287.68 272.911C287.76 272.831 288.16 273.257 288.133 273.363C288.133 272.937 288.186 273.124 288.106 272.697C288.186 272.697 288.399 273.124 288.373 273.204C288.586 273.23 288.612 273.124 288.639 273.044C288.319 273.017 287.973 272.191 287.734 271.925L289.012 272.804C288.959 272.751 288.666 272.378 288.612 272.351C288.905 272.671 289.465 272.378 289.678 272.138L289.651 272.165C289.518 272.085 289.651 271.819 289.837 271.899C289.758 271.845 289.757 271.872 289.731 271.899C289.731 271.526 290.317 272.271 290.29 271.845C290.157 271.978 290.024 271.872 289.944 271.712C290.157 271.739 290.37 271.393 290.583 271.872C290.61 271.739 290.716 271.739 290.556 271.526L291.036 271.552C290.982 271.526 290.876 271.419 290.956 271.339C290.823 271.526 290.37 271.259 290.477 271.579C290.29 271.339 290.264 271.126 290.024 270.993C290.45 270.887 290.929 271.179 291.355 271.339L291.542 270.94L291.648 271.046L291.489 270.7C291.568 270.753 291.648 270.78 291.622 270.753C291.622 270.727 291.568 270.7 291.542 270.647C291.595 270.647 291.622 270.647 291.675 270.673C291.568 270.514 291.409 270.354 291.222 270.247C291.222 270.327 291.249 270.381 291.249 270.46C291.089 270.354 290.929 270.221 290.956 270.088L291.036 270.114C290.929 270.034 290.849 269.954 290.823 269.901L291.142 269.875C291.142 269.928 291.169 270.061 291.169 270.167C291.435 270.247 291.781 270.381 291.781 270.673L291.835 270.381C292.234 270.54 292.154 270.514 292.58 270.54C292.527 270.434 292.394 270.38 292.394 270.301C292.82 270.514 292.58 269.608 292.82 269.875C293.033 269.848 293.06 270.088 293.22 270.114C293.193 270.088 293.14 270.034 293.166 270.008L293.433 270.141C293.433 270.034 293.22 270.061 293.299 269.901C293.619 269.901 293.832 269.928 293.939 269.688C294.232 269.555 294.125 270.194 294.311 270.008C294.232 269.821 294.098 269.582 294.232 269.475C294.391 269.555 294.471 269.688 294.631 269.688L294.445 269.422C294.551 269.369 294.684 269.342 294.551 269.155C294.711 269.209 294.764 269.155 294.791 269.076C295.057 269.102 295.03 269.688 295.057 269.848C295.084 269.528 295.297 269.582 295.164 269.182L294.951 269.209C295.057 268.676 295.51 269.369 295.27 268.703C295.164 268.809 294.951 268.756 294.924 268.543L295.164 268.57C295.137 268.49 295.03 268.596 295.057 268.463C295.137 268.49 295.323 268.57 295.43 268.623L295.75 268.463C295.723 268.516 295.616 268.436 295.67 268.383H295.963C295.856 268.357 295.856 268.223 295.909 268.143C296.096 267.904 296.522 268.596 296.522 268.223C296.495 268.25 296.468 268.223 296.442 268.25V268.064C296.841 268.623 297.054 267.744 297.454 268.277C297.427 267.957 297.374 268.143 297.001 267.984L297.028 267.717C297.108 267.611 297.081 267.691 297.001 267.691ZM295.11 268.889C295.164 269.022 294.977 268.969 294.924 268.942C294.951 268.836 294.897 268.703 295.11 268.889ZM291.382 270.62C291.382 270.727 291.355 270.807 291.276 270.753C291.302 270.673 291.329 270.62 291.382 270.62ZM281.102 275.68C281.129 275.6 281.156 275.547 281.102 275.68V275.68ZM281.023 275.787C280.969 275.84 280.943 275.867 280.889 275.813C280.889 275.84 280.916 275.893 280.969 275.893C281.049 275.893 281.049 275.84 281.023 275.787ZM302.008 261.645V261.565C302.061 261.619 302.141 261.645 302.008 261.645Z" fill="#205075"/>
<path d="M291.835 270.753C291.835 270.7 291.808 270.673 291.781 270.647C291.808 270.673 291.835 270.7 291.835 270.753Z" fill="#205075"/>
<path d="M298.599 266.759H298.626L298.652 266.785L298.599 266.759Z" fill="#205075"/>
<path d="M285.15 275.52C285.177 275.467 285.177 275.414 285.15 275.361C285.204 275.414 285.204 275.467 285.15 275.52Z" fill="#205075"/>
<path d="M279.691 276.266L279.851 276.24C279.771 276.266 279.798 276.319 279.771 276.373C279.771 276.319 279.744 276.24 279.691 276.266Z" fill="#205075"/>
<path d="M279.451 278.264C279.425 278.237 279.398 278.29 279.371 278.264L279.318 278.157C279.398 278.13 279.505 278.157 279.451 278.264Z" fill="#205075"/>
<path d="M280.037 277.012C280.144 277.198 280.037 277.198 279.904 277.225C279.744 276.985 279.904 277.012 280.037 277.012Z" fill="#205075"/>
<path d="M279.904 277.225C279.877 277.225 279.824 277.252 279.824 277.278C279.718 277.198 279.824 277.225 279.904 277.225Z" fill="#205075"/>
<path d="M280.65 275.947C280.65 276.026 280.49 275.76 280.49 275.84C280.303 275.654 280.943 275.92 280.65 275.947Z" fill="#205075"/>
<path d="M280.33 277.624L280.223 277.385L280.383 277.518L280.33 277.624Z" fill="#205075"/>
<path d="M280.943 276.985L280.836 277.145C280.809 277.118 280.783 277.118 280.756 277.118C280.836 277.039 280.889 276.932 280.943 276.985Z" fill="#205075"/>
<path d="M280.756 277.092C280.703 277.118 280.676 277.145 280.623 277.118C280.65 277.118 280.703 277.092 280.756 277.092Z" fill="#205075"/>
<path d="M280.57 277.544L280.596 277.491L280.676 277.385L280.57 277.544Z" fill="#205075"/>
<path d="M282.407 275.92L282.594 275.867C282.674 275.947 282.647 276 282.567 276C282.514 276 282.434 276 282.407 275.92Z" fill="#205075"/>
<path d="M282.327 276.799C282.354 276.746 282.301 276.692 282.301 276.586L282.487 276.825L282.327 276.799Z" fill="#205075"/>
<path d="M282.833 276.559C282.913 276.612 283.206 276.612 282.993 276.719C282.913 276.666 282.727 276.719 282.833 276.559Z" fill="#205075"/>
<path d="M284.911 274.642L284.857 274.668L284.591 274.242L284.911 274.642Z" fill="#205075"/>
<path d="M287.627 274.269C287.52 274.482 287.414 274.029 287.334 274.269C287.227 274.189 287.414 274.082 287.307 274.029C287.467 274.056 287.494 273.949 287.627 274.269Z" fill="#205075"/>
<path d="M287.281 274.029C287.254 274.029 287.228 274.029 287.174 274.002C287.254 274.002 287.281 274.002 287.281 274.029Z" fill="#205075"/>
<path d="M308.985 256.479L309.038 256.319L309.065 256.505L308.985 256.479Z" fill="#205075"/>
<path d="M309.411 256.638L309.251 256.346L309.491 256.532C309.464 256.559 309.385 256.585 309.411 256.638Z" fill="#205075"/>
<path d="M294.977 269.715L294.924 269.661C294.897 269.582 294.924 269.555 294.977 269.502V269.715Z" fill="#205075"/>
<path d="M296.415 268.436L296.389 268.463L296.255 268.17L296.415 268.436Z" fill="#205075"/>
<path d="M297.933 267.824C297.88 267.877 297.8 267.85 297.747 267.904C297.907 267.877 297.747 267.504 297.933 267.824Z" fill="#205075"/>
<path d="M277.188 299.436C277.134 299.489 277.054 299.303 277.001 299.276C277.134 299.249 277.214 299.489 277.188 299.436Z" fill="#205075"/>
<path d="M278.333 299.25L278.253 299.196L278.493 299.276L278.333 299.25Z" fill="#205075"/>
<path d="M279.132 298.69C279.265 299.036 278.812 298.823 278.732 299.037L278.759 299.116L278.519 298.93C278.706 298.877 279.052 298.877 279.132 298.69Z" fill="#205075"/>
<path d="M279.105 297.758C279.158 297.891 279.265 297.785 279.025 297.865C279.025 297.838 279.025 297.838 279.025 297.838C279.052 297.811 279.078 297.811 279.105 297.758Z" fill="#205075"/>
<path d="M279.025 297.838C278.945 297.891 279.025 297.705 279.025 297.838V297.838Z" fill="#205075"/>
<path d="M279.478 297.625L279.292 297.598C279.265 297.518 279.371 297.439 279.292 297.412C279.425 297.385 279.451 297.465 279.478 297.625Z" fill="#205075"/>
<path d="M279.718 297.785H279.638C279.611 297.732 279.638 297.705 279.718 297.785Z" fill="#205075"/>
<path d="M279.451 297.758H279.638C279.664 297.811 279.718 297.918 279.558 297.758C279.611 297.865 279.531 297.785 279.451 297.758Z" fill="#205075"/>
<path d="M279.398 297.865C279.371 297.971 279.318 298.078 279.505 298.078C279.265 298.184 279.158 297.971 279.398 297.865Z" fill="#205075"/>
<path d="M279.371 298.983L279.345 299.116L279.211 299.063C279.265 299.09 279.318 298.877 279.371 298.983Z" fill="#205075"/>
<path d="M280.064 297.012C280.117 297.066 280.144 297.199 280.197 297.279L280.064 297.252C280.064 297.199 280.117 297.092 280.064 297.012Z" fill="#205075"/>
<path d="M280.17 297.279L280.383 297.305C280.277 297.385 280.224 297.359 280.17 297.279Z" fill="#205075"/>
<path d="M279.957 298.104L279.611 297.998L280.011 298.078L279.957 298.104Z" fill="#205075"/>
<path d="M280.517 296.666L280.357 296.586L280.623 296.72L280.517 296.666Z" fill="#205075"/>
<path d="M280.836 296.48C280.703 296.4 280.756 296.24 280.65 296.187C280.756 296.16 280.889 296.214 281.023 296.267C280.943 296.267 280.863 296.32 280.836 296.48Z" fill="#205075"/>
<path d="M281.236 296.32C281.182 296.32 281.102 296.293 281.023 296.267C281.102 296.267 281.156 296.267 281.236 296.32Z" fill="#205075"/>
<path d="M280.57 297.119C280.543 297.066 280.516 296.959 280.543 296.879L280.623 297.092L280.57 297.119Z" fill="#205075"/>
<path d="M280.596 297.119C280.65 297.066 280.676 297.039 280.703 297.039C280.703 297.039 280.676 297.066 280.596 297.119Z" fill="#205075"/>
<path d="M280.543 297.146C280.57 297.146 280.57 297.172 280.543 297.146V297.146Z" fill="#205075"/>
<path d="M280.17 297.705C280.303 297.758 280.543 297.758 280.49 297.998C280.357 297.918 280.383 297.785 280.17 297.705Z" fill="#205075"/>
<path d="M280.65 297.412L280.543 297.545C280.516 297.492 280.49 297.412 280.41 297.385L280.65 297.412Z" fill="#205075"/>
<path d="M280.756 297.412H280.65L280.676 297.359L280.756 297.412Z" fill="#205075"/>
<path d="M281.129 296.64C281.235 296.666 281.315 296.64 281.395 296.613C281.342 296.693 281.289 296.773 281.209 296.826C281.156 296.773 281.049 296.693 281.129 296.64Z" fill="#205075"/>
<path d="M280.889 296.879C280.916 296.906 280.916 296.906 280.889 296.879V296.879Z" fill="#205075"/>
<path d="M282.088 296.134V296.187L282.061 296.16L282.088 296.134Z" fill="#205075"/>
<path d="M281.209 296.853C281.182 296.933 281.102 296.906 281.049 296.879C281.102 296.879 281.156 296.853 281.209 296.826C281.236 296.853 281.236 296.853 281.209 296.853Z" fill="#205075"/>
<path d="M281.502 296.267C281.502 296.32 281.475 296.373 281.475 296.427C281.448 296.347 281.449 296.24 281.502 296.267Z" fill="#205075"/>
<path d="M280.889 296.826C280.943 296.826 280.996 296.853 281.049 296.879C280.996 296.879 280.969 296.879 280.916 296.879C280.916 296.879 280.916 296.853 280.889 296.826Z" fill="#205075"/>
<path d="M283.046 297.119C282.913 296.959 282.674 296.906 282.674 297.172C282.461 297.146 282.168 296.533 282.088 296.16C282.141 296.214 282.194 296.293 282.381 296.293C282.407 296.427 282.247 296.693 282.46 296.773C282.7 296.746 282.567 296.613 282.594 296.48C282.674 296.72 283.02 296.613 283.18 296.959H282.94C282.967 297.012 283.073 297.066 283.046 297.119Z" fill="#205075"/>
<path d="M281.848 296.347L281.768 296.373C281.821 296.293 281.795 296.213 281.795 296.027C281.928 296.054 282.008 296.107 282.034 296.134L281.795 296.347H281.848Z" fill="#205075"/>
<path d="M281.555 296.533C281.715 296.693 281.901 296.666 281.955 296.933C281.795 297.039 281.742 296.853 281.608 296.853C281.875 296.72 281.449 296.799 281.582 296.586C281.502 296.586 281.449 296.613 281.422 296.64C281.449 296.586 281.475 296.533 281.502 296.453V296.48C281.502 296.506 281.502 296.533 281.502 296.506L281.555 296.533C281.608 296.453 281.528 296.48 281.502 296.48L281.475 296.453L281.795 296.373C281.741 296.427 281.688 296.48 281.555 296.533Z" fill="#205075"/>
<path d="M280.889 298.317C280.889 298.291 280.889 298.291 280.863 298.264C280.916 298.264 280.916 298.291 280.889 298.317Z" fill="#205075"/>
<path d="M280.916 298.131C280.863 298.131 280.809 298.051 280.756 298.131C280.756 298.211 280.809 298.211 280.863 298.264C280.783 298.238 280.65 298.211 280.703 298.051L280.729 298.078C280.783 297.945 280.756 297.625 280.729 297.625C280.836 297.785 280.889 297.918 280.916 298.131Z" fill="#205075"/>
<path d="M281.262 297.359L281.528 297.305V297.545L281.475 297.439C281.395 297.572 281.342 297.439 281.262 297.359Z" fill="#205075"/>
<path d="M282.035 296.027L281.875 295.867L282.194 296.054L282.035 296.027Z" fill="#205075"/>
<path d="M282.327 295.867L282.194 295.708L282.354 295.761L282.327 295.867Z" fill="#205075"/>
<path d="M298.652 287.691L298.572 287.611C298.652 287.638 298.679 287.665 298.652 287.691Z" fill="#205075"/>
<path d="M289.012 291.287C289.012 291.074 288.932 290.754 289.065 290.94L289.171 291.153C289.065 291.18 289.038 291.233 289.012 291.287Z" fill="#205075"/>
<path d="M294.338 289.236V289.316C294.285 289.263 294.205 289.236 294.152 289.183C294.231 289.183 294.285 289.209 294.338 289.236Z" fill="#205075"/>
<path d="M294.924 289.928L294.95 289.742C294.95 289.795 294.951 289.849 294.924 289.928Z" fill="#205075"/>
<path d="M301.661 285.88L301.848 286.013C301.741 286.093 301.741 285.96 301.661 285.88Z" fill="#205075"/>
<path d="M285.15 294.03C285.177 293.923 285.23 293.843 285.257 293.79C285.257 293.95 285.283 294.163 285.15 294.03Z" fill="#205075"/>
<path d="M297.614 285.587C297.667 285.587 297.72 285.614 297.747 285.667C297.667 285.641 297.64 285.614 297.614 285.587Z" fill="#205075"/>
<path d="M285.497 293.63C285.497 293.657 285.497 293.683 285.497 293.71C285.417 293.71 285.337 293.737 285.284 293.79C285.284 293.657 285.337 293.55 285.497 293.63Z" fill="#205075"/>
<path d="M310.396 279.675V279.648C310.423 279.675 310.396 279.675 310.396 279.675Z" fill="#205075"/>
<path d="M311.728 276.106C311.701 276.106 311.648 276.133 311.621 276.16C311.621 276.133 311.648 276.106 311.728 276.106Z" fill="#205075"/>
<path d="M283.366 295.042C283.313 295.068 283.34 295.015 283.366 295.042V295.042Z" fill="#205075"/>
<path d="M283.579 295.947C283.606 295.974 283.632 295.974 283.659 296.027C283.632 295.974 283.606 295.947 283.579 295.947Z" fill="#205075"/>
<path d="M283.339 295.175C283.339 295.148 283.366 295.095 283.366 295.068C283.366 295.095 283.366 295.122 283.339 295.175Z" fill="#205075"/>
<path d="M283.286 295.095C283.259 295.122 283.259 295.148 283.233 295.148C283.233 295.122 283.206 295.095 283.286 295.095Z" fill="#205075"/>
<path d="M283.446 294.988C283.419 295.015 283.393 295.042 283.366 295.068C283.366 295.042 283.366 295.042 283.366 295.042C283.393 295.042 283.419 295.015 283.446 294.988Z" fill="#205075"/>
<path d="M305.337 282.445C305.337 282.418 305.337 282.445 305.337 282.445C305.417 282.471 305.443 282.445 305.337 282.445Z" fill="#205075"/>
<path d="M292.101 292.139C291.861 291.979 291.835 292.032 291.808 292.139L291.515 291.58L292.101 292.139Z" fill="#205075"/>
<path d="M300.01 286.759C300.037 286.386 300.41 286.573 300.623 286.626C300.65 286.493 300.277 286.253 300.543 286.2C300.916 286.093 300.756 286.653 300.996 286.599L300.916 286.227C301.289 286.306 301.315 285.987 301.502 285.827C301.555 285.827 301.608 285.827 301.635 285.854C301.741 285.587 302.247 285.854 302.327 285.641C302.247 285.614 302.301 285.401 302.247 285.321H302.647C302.461 285.321 302.354 285.161 302.221 285.001C302.327 284.948 302.434 285.028 302.487 285.001C302.407 284.975 302.327 284.922 302.327 284.815L302.807 284.895C302.807 284.948 302.78 284.975 302.753 285.001C302.833 284.948 303.046 284.948 303.073 284.735C303.02 284.682 302.94 284.629 302.887 284.575C302.913 284.815 302.78 284.709 302.647 284.602C302.86 284.495 302.674 284.522 302.674 284.336C302.807 284.256 303.02 284.442 303.1 284.602C303.206 284.416 303.233 284.362 303.526 284.416L303.339 284.202L303.526 284.176L303.206 283.963C303.393 283.617 303.526 284.309 303.765 283.963L303.632 283.776C303.819 283.776 304.085 284.069 304.005 283.776C304.218 283.803 304.005 284.202 304.298 284.043C304.271 283.91 304.325 283.75 304.378 283.67C304.538 283.696 304.484 283.963 304.405 283.963C304.884 283.776 304.192 283.111 304.751 283.111C304.724 283.35 305.124 283.43 304.804 283.617C305.017 283.643 304.911 283.137 305.203 283.244L304.937 283.057C304.99 283.004 305.124 283.057 305.15 283.084L305.017 282.898C305.443 283.111 305.257 282.498 305.683 282.871C305.363 282.578 305.843 282.791 305.816 282.605C305.496 282.471 305.39 282.924 305.124 282.605C305.124 282.445 305.31 282.578 305.31 282.418C305.23 282.418 305.097 282.365 305.044 282.312C305.15 281.965 305.55 282.258 305.763 282.232L305.443 282.338C305.683 282.658 305.603 282.312 305.843 282.525C305.843 282.258 306.136 282.445 306.162 282.285C306.136 282.312 306.109 282.285 306.082 282.285C306.375 282.099 306.082 281.513 306.189 281.433C306.269 281.3 306.588 281.353 306.615 281.539C306.748 281.566 306.162 281.699 306.615 282.019C306.428 281.433 307.068 281.965 307.174 281.406C306.908 281.353 307.068 281.06 306.855 281.033C307.041 280.953 307.094 281.033 307.281 281.113L307.227 280.927C307.68 281.113 307.494 281.193 307.946 281.166C307.76 281.113 307.92 280.847 307.76 280.82C307.84 280.74 307.973 280.74 308.08 280.767L308.053 280.74C308.426 280.607 308.186 280.368 308.612 280.341L308.639 280.447C309.198 280.421 309.598 279.915 310.077 279.782L309.97 279.941C309.997 279.862 310.343 279.888 310.37 279.675C310.343 279.675 310.263 279.675 310.237 279.702C310.157 279.595 310.104 279.409 310.183 279.329L310.343 279.462L310.29 279.302C310.423 279.196 310.397 279.569 310.556 279.462C310.343 278.956 311.142 278.956 311.009 278.477C311.329 278.743 310.769 278.716 311.089 278.929C311.089 278.849 311.089 278.77 311.142 278.69L311.249 278.903C311.622 278.477 311.675 278.21 312.101 277.971L312.048 277.944C312.128 277.758 312.234 277.758 312.42 277.864C312.394 277.758 312.261 277.784 312.261 277.651C312.847 277.971 312.5 276.932 312.9 277.172C312.607 276.799 312.687 276.186 312.341 275.973L312.474 275.947C312.261 275.707 312.154 276.16 311.888 275.92L311.755 276.426C311.701 276.319 311.542 276.213 311.568 276.133C311.488 276.186 311.409 276.213 311.409 276C311.089 277.198 309.864 277.092 309.331 277.971C309.278 277.971 309.225 277.864 309.198 277.784C309.225 278.13 308.985 277.758 308.879 277.758L308.905 278.264C308.745 278.21 308.745 278.051 308.692 277.997C308.239 278.184 308.106 278.796 307.654 278.796C307.627 278.983 307.867 279.063 307.787 279.196C307.707 278.69 307.281 279.276 307.201 278.929C307.361 279.409 306.775 279.356 307.227 279.862C307.094 279.995 306.934 279.702 306.934 279.622C306.775 279.782 306.615 279.888 306.349 279.808C306.349 280.021 305.417 280.234 305.55 280.794C305.47 280.447 305.443 280.66 305.257 280.607L305.177 280.314L304.964 280.501C304.884 280.501 304.884 280.527 304.911 280.554C304.884 280.581 305.017 280.687 304.937 280.82C304.777 280.953 304.697 280.82 304.511 280.767V280.714L304.378 280.767C304.298 280.82 304.831 280.82 304.644 281.113C304.591 281.06 304.218 280.847 304.271 281.06C304.405 280.953 304.484 281.14 304.484 281.246L304.298 281.38L304.165 281.033C303.632 281.433 303.206 282.045 302.594 282.418C302.78 282.684 302.194 282.711 302.514 283.084V283.031C302.674 282.977 302.674 283.377 302.54 283.404C302.567 283.191 302.061 283.164 302.301 282.898L301.954 282.871C301.315 282.205 301.395 283.35 300.863 283.35C300.916 283.35 300.943 283.404 300.969 283.404C300.49 283.377 300.41 284.096 300.25 284.016L300.357 284.229C299.877 284.096 299.824 284.096 299.584 284.442C299.611 284.469 299.691 284.495 299.664 284.575C299.478 284.469 299.291 284.362 299.105 284.575L299.158 284.655L298.785 284.842C299.211 285.481 297.933 284.842 298.306 285.614C298.12 285.481 297.827 285.587 297.64 285.587C297.64 285.614 297.667 285.641 297.667 285.694C297.294 285.454 297.347 286.067 297.188 286.12C297.028 286.093 297.001 285.96 296.974 285.827C296.974 286.227 296.255 285.88 296.255 286.04C296.149 286.147 296.362 286.306 296.442 286.493C296.202 286.573 296.096 285.907 295.989 286.333C296.042 286.333 296.122 286.333 296.122 286.36C296.042 286.493 296.362 287.345 296.176 287.265V287.105C295.883 287.079 296.069 287.931 295.749 287.531L295.643 287.318C295.483 287.798 295.457 287.345 295.27 287.798L295.297 287.824C295.137 287.878 295.217 288.171 294.924 287.904L294.951 287.824C294.764 287.931 294.764 287.958 294.578 288.091C294.524 288.091 294.418 288.091 294.445 288.171C294.258 287.904 293.939 288.33 293.859 288.41C294.018 288.357 294.045 288.517 294.072 288.65C293.832 288.49 293.752 288.517 293.752 288.757C293.512 288.437 293.246 288.091 293.007 288.251C293.086 288.277 293.14 288.251 293.166 288.357C293.193 288.437 293.086 288.41 293.033 288.384C293.06 288.464 293.166 288.464 293.22 288.597C292.847 288.384 292.927 288.757 292.634 288.81C292.767 288.863 292.767 288.97 292.82 289.103C292.554 288.73 292.74 289.635 292.501 289.103C292.261 289.689 291.382 289.902 291.409 290.328C291.462 290.488 291.169 290.354 291.089 290.408L291.222 290.568C290.796 290.408 290.982 290.568 290.53 290.461C290.769 290.594 290.796 290.701 290.77 290.914L290.37 290.701L290.503 290.967C290.37 290.914 290.317 291.02 290.264 291.1C290.29 291.074 290.29 291.1 290.317 291.153C290.05 290.834 289.758 291.074 289.598 290.94C289.758 291.34 289.331 290.994 289.491 291.366C289.438 291.34 289.358 291.313 289.305 291.313C289.251 291.127 289.145 290.967 289.118 291.074C289.118 291.074 289.118 291.074 289.092 291.074L289.198 291.287C289.092 291.287 289.012 291.313 288.959 291.34C288.959 291.313 288.959 291.26 288.959 291.18C288.959 291.233 288.959 291.287 288.932 291.34L288.905 291.366H288.932C288.932 291.446 288.879 291.5 288.772 291.473C288.746 291.952 287.92 291.446 287.947 292.032C287.973 291.952 288 291.899 288.08 291.952C287.84 292.086 287.787 292.538 287.547 292.485L287.441 292.299C287.201 292.325 287.041 292.379 286.908 292.458L286.748 292.245C286.588 292.458 285.949 292.405 286.109 292.938C285.949 292.805 285.869 293.177 285.71 293.204L285.789 293.391C285.683 293.55 285.55 293.55 285.417 293.577C285.337 294.11 284.831 293.976 284.591 294.189L284.618 294.243L284.272 294.323C284.431 294.429 284.165 294.269 284.085 294.349C283.952 294.323 283.845 294.456 283.819 294.642L283.659 294.775C283.925 294.749 283.792 295.015 283.925 295.201L283.712 295.122C283.739 295.228 283.872 295.228 283.819 295.308C283.686 295.255 283.473 295.415 283.26 295.255C283.233 295.201 283.233 295.148 283.233 295.095C283.26 295.095 283.26 295.095 283.233 295.095V295.068C283.206 295.068 283.18 295.042 283.153 295.015C283.046 295.148 283.046 295.042 282.993 294.962C283.046 295.361 282.833 295.228 282.94 295.628C282.833 295.148 282.594 295.867 282.434 295.441C282.514 295.814 282.354 295.494 282.461 295.814C282.567 295.628 282.913 295.787 283.126 295.814V296.08C283.446 296.347 283.313 295.761 283.473 295.814C283.366 295.787 283.313 295.921 283.366 296L283.233 295.708C283.339 295.494 283.632 295.574 283.845 295.628C283.792 295.787 284.085 295.681 284.138 295.921L284.032 295.947C284.059 296.08 284.192 296.08 284.298 296.107C284.458 295.707 285.15 295.494 285.124 295.228C285.097 295.335 284.964 295.361 284.857 295.335L284.937 295.122C284.804 295.201 284.884 295.494 284.644 295.521C284.564 295.335 284.298 295.201 284.272 294.882C284.431 294.403 284.831 295.122 285.177 294.775C285.257 294.802 284.911 294.562 285.177 294.509C285.55 294.482 286.003 294.722 286.242 295.068C286.056 295.042 285.71 294.988 285.843 295.255C286.029 295.281 286.269 295.201 286.375 295.361C286.295 294.988 286.109 295.415 286.082 295.068C286.162 295.015 286.269 295.095 286.322 295.122C286.189 295.042 286.242 294.882 286.216 294.775C286.455 294.616 286.509 294.376 286.775 294.163C286.775 294.11 286.722 294.003 286.668 293.923C286.855 293.923 287.334 294.216 287.414 294.429C287.574 294.323 287.494 294.189 287.68 294.189C287.654 294.589 287.68 294.11 287.893 294.376C288.053 294.323 287.867 294.216 287.867 294.11C287.92 294.136 288.026 294.189 288.08 294.269C288.026 294.003 287.547 293.817 287.467 293.497C287.441 293.284 287.521 292.805 287.521 292.778C287.734 292.964 288.399 293.976 288.532 294.349C288.666 294.509 288.532 294.083 288.586 294.03C288.586 293.657 288.985 294.056 289.065 293.843L288.852 293.763C288.825 293.683 289.092 293.63 289.198 293.683C289.145 293.577 288.772 293.284 288.746 293.124C288.959 292.885 289.571 293.231 289.731 293.524L289.145 293.497C289.278 293.737 289.598 293.524 289.758 293.817L290.077 293.497C290.024 293.524 289.837 293.55 289.811 293.391C289.971 293.311 289.864 293.284 289.891 293.124C289.518 292.964 288.666 292.432 288.319 292.139L288.612 292.165L288.559 292.006C288.932 292.032 289.784 292.778 289.997 292.964C290.104 292.805 289.704 292.352 289.598 292.272C289.864 292.059 290.343 292.778 290.583 292.538L290.556 292.725C290.663 292.725 290.823 292.458 290.876 292.565C290.823 292.405 290.663 292.059 290.556 292.006L291.116 292.299C291.036 292.272 290.796 291.872 290.743 291.793C290.823 291.713 291.222 292.139 291.222 292.245C291.222 291.819 291.275 292.006 291.196 291.58C291.275 291.58 291.488 292.006 291.462 292.086C291.675 292.112 291.702 292.006 291.728 291.926C291.409 291.899 291.062 291.074 290.796 290.807L292.074 291.686C292.021 291.633 291.702 291.26 291.675 291.233C291.941 291.553 292.501 291.233 292.74 291.02L292.687 291.047C292.554 290.967 292.714 290.701 292.873 290.781C292.82 290.727 292.793 290.754 292.767 290.781C292.767 290.408 293.353 291.153 293.326 290.727C293.193 290.887 293.06 290.754 292.98 290.594C293.193 290.647 293.406 290.301 293.619 290.754C293.646 290.621 293.752 290.621 293.592 290.408L294.072 290.434C294.018 290.408 293.912 290.301 293.992 290.221C293.859 290.381 293.406 290.115 293.513 290.461C293.326 290.221 293.299 290.035 293.06 289.875C293.486 289.769 293.965 290.062 294.391 290.221L294.551 289.822L294.631 289.928L294.471 289.609C294.551 289.635 294.631 289.689 294.604 289.662C294.604 289.635 294.551 289.609 294.498 289.582C294.551 289.582 294.578 289.582 294.631 289.609C294.551 289.449 294.365 289.289 294.205 289.183C294.205 289.263 294.232 289.316 294.232 289.396C294.072 289.289 293.912 289.156 293.939 289.023L294.018 289.05C293.912 288.97 293.805 288.89 293.805 288.836L294.152 288.81C294.152 288.863 294.178 288.97 294.178 289.103C294.445 289.209 294.791 289.316 294.791 289.609L294.844 289.316C295.244 289.476 295.19 289.422 295.59 289.476C295.536 289.369 295.403 289.316 295.403 289.209C295.803 289.422 295.59 288.517 295.829 288.783C296.042 288.757 296.069 288.996 296.229 289.023C296.202 288.996 296.149 288.943 296.176 288.916L296.442 289.05C296.442 288.943 296.229 288.97 296.309 288.783C296.628 288.783 296.841 288.81 296.948 288.597C297.241 288.464 297.134 289.103 297.321 288.89C297.241 288.703 297.108 288.464 297.241 288.357C297.401 288.437 297.481 288.57 297.667 288.57L297.48 288.304C297.614 288.251 297.72 288.224 297.587 288.037C297.747 288.091 297.8 288.037 297.827 287.958C298.093 287.984 298.066 288.597 298.093 288.703C298.12 288.384 298.333 288.41 298.2 288.037L297.986 288.064C298.093 287.505 298.546 288.224 298.306 287.558C298.2 287.665 297.987 287.611 297.933 287.398L298.2 287.425C298.173 287.345 298.066 287.425 298.093 287.318C298.173 287.345 298.359 287.425 298.466 287.478V287.452L298.785 287.292C298.732 287.345 298.652 287.265 298.705 287.212L298.972 287.239C298.865 287.212 298.865 287.079 298.945 286.999C299.132 286.759 299.531 287.452 299.531 287.079C299.504 287.105 299.478 287.079 299.451 287.079L299.478 286.892C299.877 287.452 300.09 286.573 300.49 287.105C300.463 286.786 300.41 286.972 300.064 286.812L300.09 286.546C300.117 286.706 300.09 286.786 300.01 286.759ZM298.12 287.984C298.173 288.117 297.987 288.037 297.933 288.037C297.96 287.931 297.907 287.798 298.12 287.984ZM294.391 289.715C294.391 289.822 294.365 289.902 294.285 289.848C294.311 289.742 294.338 289.715 294.391 289.715ZM284.138 294.775C284.138 294.695 284.165 294.642 284.138 294.775V294.775ZM284.032 294.882C284.005 294.935 283.952 294.962 283.899 294.909C283.899 294.935 283.925 294.962 283.979 294.988C284.058 294.988 284.059 294.935 284.032 294.882ZM305.017 280.74V280.66C305.097 280.714 305.15 280.74 305.017 280.74Z" fill="#205075"/>
<path d="M294.844 289.849C294.844 289.795 294.817 289.769 294.791 289.742C294.844 289.742 294.871 289.795 294.844 289.849Z" fill="#205075"/>
<path d="M301.608 285.854H301.635L301.661 285.88L301.608 285.854Z" fill="#205075"/>
<path d="M288.16 294.616C288.186 294.562 288.186 294.509 288.16 294.456C288.213 294.509 288.213 294.562 288.16 294.616Z" fill="#205075"/>
<path d="M282.7 295.361L282.86 295.335C282.78 295.361 282.807 295.415 282.78 295.468C282.78 295.415 282.754 295.335 282.7 295.361Z" fill="#205075"/>
<path d="M282.46 297.332C282.434 297.332 282.434 297.359 282.381 297.332L282.327 297.226C282.407 297.199 282.514 297.252 282.46 297.332Z" fill="#205075"/>
<path d="M283.046 296.107C283.153 296.293 283.046 296.267 282.913 296.32H282.94C282.753 296.08 282.887 296.08 283.046 296.107Z" fill="#205075"/>
<path d="M282.887 296.32C282.86 296.32 282.833 296.347 282.807 296.373C282.753 296.267 282.833 296.32 282.887 296.32Z" fill="#205075"/>
<path d="M283.659 295.042C283.632 295.122 283.473 294.855 283.499 294.935C283.313 294.749 283.952 294.988 283.659 295.042Z" fill="#205075"/>
<path d="M283.366 296.693L283.233 296.48L283.419 296.613L283.366 296.693Z" fill="#205075"/>
<path d="M283.952 296.08L283.845 296.24C283.819 296.214 283.792 296.187 283.766 296.187C283.845 296.107 283.899 296.027 283.952 296.08Z" fill="#205075"/>
<path d="M283.765 296.187C283.712 296.214 283.686 296.24 283.632 296.24C283.659 296.214 283.712 296.187 283.765 296.187Z" fill="#205075"/>
<path d="M283.579 296.64L283.606 296.56L283.686 296.48L283.579 296.64Z" fill="#205075"/>
<path d="M285.417 295.015L285.603 294.962C285.656 295.015 285.656 295.095 285.576 295.095C285.523 295.068 285.443 295.095 285.417 295.015Z" fill="#205075"/>
<path d="M285.363 295.894C285.363 295.814 285.337 295.787 285.337 295.681L285.523 295.921L285.363 295.894Z" fill="#205075"/>
<path d="M285.843 295.654C285.923 295.707 286.216 295.707 286.003 295.814C285.923 295.761 285.736 295.787 285.843 295.654Z" fill="#205075"/>
<path d="M287.92 293.737L287.867 293.763L287.6 293.337L287.92 293.737Z" fill="#205075"/>
<path d="M290.636 293.364C290.53 293.577 290.423 293.124 290.343 293.364C290.237 293.284 290.397 293.177 290.29 293.124C290.476 293.151 290.503 293.044 290.636 293.364Z" fill="#205075"/>
<path d="M290.29 293.124C290.263 293.124 290.237 293.098 290.184 293.098C290.263 293.098 290.29 293.098 290.29 293.124Z" fill="#205075"/>
<path d="M311.994 275.574L312.048 275.414L312.074 275.6L311.994 275.574Z" fill="#205075"/>
<path d="M312.42 275.734L312.261 275.441L312.5 275.627C312.474 275.654 312.394 275.654 312.42 275.734Z" fill="#205075"/>
<path d="M297.986 288.81L297.933 288.757C297.907 288.677 297.933 288.65 297.986 288.597V288.81Z" fill="#205075"/>
<path d="M299.425 287.531L299.398 287.558L299.291 287.265L299.425 287.531Z" fill="#205075"/>
<path d="M300.969 286.919C300.916 286.972 300.836 286.946 300.783 286.999C300.916 286.972 300.756 286.599 300.969 286.919Z" fill="#205075"/>
<path d="M1276.03 381C1276.03 408.632 1253.63 431 1226 431C1198.4 431 1176 408.603 1176 381C1176 353.368 1198.4 331 1226 331C1253.63 330.971 1276.03 353.368 1276.03 381Z" stroke="#1A3E5A" stroke-width="2" stroke-miterlimit="10" stroke-linecap="round" stroke-linejoin="round"/>
<path d="M1487 523L1518.36 359L1644.68 468.193L1487 523Z" stroke="#19476A" stroke-width="2" stroke-miterlimit="10" stroke-linecap="round" stroke-linejoin="round"/>
</g>
</svg>
