<svg width="40" height="40" viewBox="0 0 40 40" fill="none" xmlns="http://www.w3.org/2000/svg">
<path d="M20 0C8.98 0 0 8.98 0 20C0 31.02 8.98 40 20 40C31.02 40 40 31.02 40 20C40 8.98 31.02 0 20 0ZM28.7 27.14C28.42 27.62 27.92 27.88 27.4 27.88C27.14 27.88 26.88 27.82 26.64 27.66L20.44 23.96C18.9 23.04 17.76 21.02 17.76 19.24V11.04C17.76 10.22 18.44 9.54 19.26 9.54C20.08 9.54 20.76 10.22 20.76 11.04V19.24C20.76 19.96 21.36 21.02 21.98 21.38L28.18 25.08C28.9 25.5 29.14 26.42 28.7 27.14Z" fill="#AF0000"/>
</svg>
