<svg width="36" height="42" viewBox="0 0 36 42" fill="none" xmlns="http://www.w3.org/2000/svg">
<path d="M35.2402 13.9C33.1402 4.66 25.0802 0.5 18.0002 0.5C18.0002 0.5 18.0002 0.5 17.9802 0.5C10.9202 0.5 2.84019 4.64 0.740191 13.88C-1.59981 24.2 4.72019 32.94 10.4402 38.44C12.5602 40.48 15.2802 41.5 18.0002 41.5C20.7202 41.5 23.4402 40.48 25.5402 38.44C31.2602 32.94 37.5802 24.22 35.2402 13.9ZM18.0002 23.92C14.5202 23.92 11.7002 21.1 11.7002 17.62C11.7002 14.14 14.5202 11.32 18.0002 11.32C21.4802 11.32 24.3002 14.14 24.3002 17.62C24.3002 21.1 21.4802 23.92 18.0002 23.92Z" fill="#AF0000"/>
</svg>
