<svg width="48" height="49" viewBox="0 0 48 49" fill="none" xmlns="http://www.w3.org/2000/svg">
<path d="M35.24 22C34.38 22 33.7 21.3 33.7 20.46C33.7 19.72 32.96 18.18 31.72 16.84C30.5 15.54 29.16 14.78 28.04 14.78C27.18 14.78 26.5 14.08 26.5 13.24C26.5 12.4 27.2 11.7 28.04 11.7C30.04 11.7 32.14 12.78 33.98 14.72C35.7 16.54 36.8 18.8 36.8 20.44C36.8 21.3 36.1 22 35.24 22Z" fill="#AF0000"/>
<path d="M42.4595 22C41.5995 22 40.9195 21.3 40.9195 20.46C40.9195 13.36 35.1395 7.6 28.0595 7.6C27.1995 7.6 26.5195 6.9 26.5195 6.06C26.5195 5.22 27.1995 4.5 28.0395 4.5C36.8395 4.5 43.9995 11.66 43.9995 20.46C43.9995 21.3 43.2995 22 42.4595 22Z" fill="#AF0000"/>
<path d="M22.1 30.4L18.4 34.1C17.62 34.88 16.38 34.88 15.58 34.12C15.36 33.9 15.14 33.7 14.92 33.48C12.86 31.4 11 29.22 9.34 26.94C7.7 24.66 6.38 22.38 5.42 20.12C4.48 17.84 4 15.66 4 13.58C4 12.22 4.24 10.92 4.72 9.72C5.2 8.5 5.96 7.38 7.02 6.38C8.3 5.12 9.7 4.5 11.18 4.5C11.74 4.5 12.3 4.62 12.8 4.86C13.32 5.1 13.78 5.46 14.14 5.98L18.78 12.52C19.14 13.02 19.4 13.48 19.58 13.92C19.76 14.34 19.86 14.76 19.86 15.14C19.86 15.62 19.72 16.1 19.44 16.56C19.18 17.02 18.8 17.5 18.32 17.98L16.8 19.56C16.58 19.78 16.48 20.04 16.48 20.36C16.48 20.52 16.5 20.66 16.54 20.82C16.6 20.98 16.66 21.1 16.7 21.22C17.06 21.88 17.68 22.74 18.56 23.78C19.46 24.82 20.42 25.88 21.46 26.94C21.66 27.14 21.88 27.34 22.08 27.54C22.88 28.32 22.9 29.6 22.1 30.4Z" fill="#AF0000"/>
<path d="M43.9392 37.16C43.9392 37.72 43.8392 38.3 43.6392 38.86C43.5792 39.02 43.5192 39.18 43.4392 39.34C43.0992 40.06 42.6592 40.74 42.0792 41.38C41.0992 42.46 40.0192 43.24 38.7992 43.74C38.7792 43.74 38.7592 43.76 38.7392 43.76C37.5592 44.24 36.2792 44.5 34.8992 44.5C32.8592 44.5 30.6792 44.02 28.3792 43.04C26.0792 42.06 23.7792 40.74 21.4992 39.08C20.7192 38.5 19.9392 37.92 19.1992 37.3L25.7392 30.76C26.2992 31.18 26.7992 31.5 27.2192 31.72C27.3192 31.76 27.4392 31.82 27.5792 31.88C27.7392 31.94 27.8992 31.96 28.0792 31.96C28.4192 31.96 28.6792 31.84 28.8992 31.62L30.4192 30.12C30.9192 29.62 31.3992 29.24 31.8592 29C32.3192 28.72 32.7792 28.58 33.2792 28.58C33.6592 28.58 34.0592 28.66 34.4992 28.84C34.9392 29.02 35.3992 29.28 35.8992 29.62L42.5192 34.32C43.0392 34.68 43.3992 35.1 43.6192 35.6C43.8192 36.1 43.9392 36.6 43.9392 37.16Z" fill="#AF0000"/>
</svg>
